<?xml version="1.0" standalone="no"?>
<!DOCTYPE svg PUBLIC "-//W3C//DTD SVG 1.1//EN" "http://www.w3.org/Graphics/SVG/1.1/DTD/svg11.dtd" >
<svg>
<metadata>
Created by FontForge 20090622 at Sat Jan 11 19:26:47 2020
 By deploy user
Copyright (c) 2004-2008 by Village Type &#38; Design LLC. All rights reserved.
</metadata>
<defs>
<font id="GalaxiePolaris-Book" horiz-adv-x="600" >
  <font-face 
    font-family="Galaxie Polaris"
    font-weight="400"
    font-stretch="normal"
    units-per-em="1000"
    panose-1="2 0 0 0 0 0 0 0 0 0"
    ascent="800"
    descent="-200"
    x-height="530"
    cap-height="780"
    bbox="-199 -256 1779 1134"
    underline-thickness="30"
    underline-position="-70"
    unicode-range="U+0020-U+F778"
  />
<missing-glyph horiz-adv-x="960" 
d="M90 0v780h780v-780h-780zM480 345l-279 -279h558zM201 714l279 -279l279 279h-558zM435 390l-275 275v-550zM525 390l275 -275v550z" />
    <glyph glyph-name="interrobang" unicode="&#x21;&#x3f;" horiz-adv-x="570" 
d="M257 190l-27 532q-107 -19 -129 -134l-68 6q38 196 251 196q104 0 169.5 -54.5t65.5 -150.5q0 -34 -11 -63t-23.5 -47t-38.5 -37t-37.5 -26t-40 -20t-29.5 -13q-5 -2 -13 -6l-14 -7t-11 -6l-8 -170h-36zM448 585q0 124 -128 140l-15 -295h1q5 2 23 11l25 12.5t23 13
t23 16.5l18.5 18.5t16.5 23t9 27t4 33.5zM318 86v-86h-86v86h86z" />
    <glyph glyph-name="interrobangdown" unicode="&#xa1;&#xbf;" horiz-adv-x="535" 
d="M220 171q41 21 50 28l7 141h36l25 -483q53 10 83 43t42 92l69 -6q-38 -196 -246 -196q-104 0 -169.5 51t-65.5 139q0 40 11.5 71t35.5 51.5t40 30.5t47 23t35 15zM121 -20q0 -113 131 -125l14 270l-9 -4q-8 -4 -36 -16t-39.5 -19.5t-29 -22.5t-24.5 -35.5t-7 -47.5z
M338 530v-86h-86v86h86z" />
    <glyph glyph-name=".notdef" horiz-adv-x="960" 
d="M90 0v780h780v-780h-780zM480 345l-279 -279h558zM201 714l279 -279l279 279h-558zM435 390l-275 275v-550zM525 390l275 -275v550z" />
    <glyph glyph-name=".null" horiz-adv-x="0" 
 />
    <glyph glyph-name="nonmarkingreturn" horiz-adv-x="333" 
 />
    <glyph glyph-name="space" unicode=" " horiz-adv-x="240" 
 />
    <glyph glyph-name="exclam" unicode="!" horiz-adv-x="280" 
d="M92 780h96l-30 -590h-36zM183 86v-86h-86v86h86z" />
    <glyph glyph-name="quotedbl" unicode="&#x22;" horiz-adv-x="330" 
d="M47 780h86l-23 -250h-40zM197 780h86l-23 -250h-40z" />
    <glyph glyph-name="numbersign" unicode="#" horiz-adv-x="680" 
d="M640 494h-125l-56 -224h111v-64h-127l-52 -206h-65l52 206h-164l-52 -206h-65l52 206h-109v64h125l56 224h-111v64h127l52 206h65l-52 -206h164l52 206h65l-52 -206h109v-64zM286 494l-56 -224h164l56 224h-164z" />
    <glyph glyph-name="dollar" unicode="$" horiz-adv-x="530" 
d="M380 764l-29 -113q79 -13 137 -54l-15 -57q-61 42 -137 52l-43 -173q33 -5 54 -9.5t49.5 -15t44.5 -25t28 -40t11 -59.5q0 -82 -68 -123.5t-162 -41.5q-24 0 -35 1l-27 -106h-65l29 116q-65 15 -110 49l15 57q47 -34 110 -47l48 192q-25 4 -44.5 8.5t-43 14.5t-38.5 23.5
t-25.5 35.5t-10.5 50q0 81 66.5 119.5t162.5 38.5h6l27 107h65zM278 358l-48 -192h20q161 0 161 100q0 21 -6.5 36t-15.5 23.5t-29 15.5t-36 10t-46 7zM121 503q0 -38 25.5 -52t83.5 -23l42 168q-70 -1 -110.5 -21t-40.5 -72z" />
    <glyph glyph-name="percent" unicode="%" horiz-adv-x="1055" 
d="M249 419q58 0 91.5 36t33.5 112t-33.5 112t-91.5 36q-59 0 -92.5 -36t-33.5 -112t33.5 -112t92.5 -36zM249 774q84 0 136 -53.5t52 -153.5t-52 -153.5t-136 -53.5q-85 0 -137 53.5t-52 153.5t52 153.5t137 53.5zM807 49q58 0 91.5 36t33.5 112t-33.5 112t-91.5 36
q-59 0 -92.5 -36t-33.5 -112t33.5 -112t92.5 -36zM807 404q84 0 136 -53.5t52 -153.5t-52 -153.5t-136 -53.5q-85 0 -137 53.5t-52 153.5t52 153.5t137 53.5zM817 764l-506 -764h-72l506 764h72z" />
    <glyph glyph-name="ampersand" unicode="&#x26;" horiz-adv-x="731" 
d="M706 76v-86l-150 128q-89 -128 -264 -128q-47 0 -90 12t-80.5 36.5t-59.5 69t-22 102.5q0 154 148 227q-30 27 -47 45t-34.5 56.5t-17.5 83.5q0 83 50 125.5t145 42.5t143.5 -48t48.5 -118q0 -37 -13.5 -67t-40.5 -53t-50 -37.5t-60 -32.5l-14 -7q93 -85 237 -203
q27 71 29 154q3 73 -17 155l69 7q24 -79 16 -183q-8 -103 -46 -177zM408 623q0 106 -124 106q-65 0 -96 -25t-31 -81q0 -12 1.5 -23.5t6 -22.5t7.5 -19t11 -18.5t11.5 -15.5t14.5 -15.5t13.5 -13.5t15.5 -14.5t14 -12.5l30 15q29 14 45.5 24t38 27.5t32 39.5t10.5 49z
M503 164l-271 231q-66 -38 -94.5 -78.5t-28.5 -106.5q0 -52 20.5 -87t54 -49t58 -18.5t50.5 -4.5q75 0 124 28t87 85z" />
    <glyph glyph-name="quotesingle" unicode="'" horiz-adv-x="180" 
d="M47 780h86l-23 -250h-40z" />
    <glyph glyph-name="parenleft" unicode="(" horiz-adv-x="240" 
d="M121 350q0 -254 104 -480h-65q-48 82 -79 210.5t-31 269.5t31 269.5t79 210.5h65q-104 -226 -104 -480z" />
    <glyph glyph-name="parenright" unicode=")" horiz-adv-x="240" 
d="M119 350q0 254 -104 480h65q48 -82 79 -210.5t31 -269.5t-31 -269.5t-79 -210.5h-65q104 226 104 480z" />
    <glyph glyph-name="asterisk" unicode="*" horiz-adv-x="300" 
d="M114 780h73l-10 -99l90 40l23 -69l-97 -21l65 -74l-59 -43l-49 84l-50 -83l-59 43l65 73l-96 21l23 70l90 -40z" />
    <glyph glyph-name="plus" unicode="+" horiz-adv-x="700" 
d="M318 120v238h-238v64h238v238h64v-238h238v-64h-238v-238h-64z" />
    <glyph glyph-name="comma" unicode="," horiz-adv-x="280" 
d="M107 86h88l-90 -250h-33z" />
    <glyph glyph-name="hyphen" unicode="-" horiz-adv-x="360" 
d="M310 303h-260v64h260v-64z" />
    <glyph glyph-name="period" unicode="." horiz-adv-x="280" 
d="M183 86v-86h-86v86h86z" />
    <glyph glyph-name="slash" unicode="/" horiz-adv-x="320" 
d="M310 830l-230 -960h-70l230 960h70z" />
    <glyph glyph-name="zero" unicode="0" horiz-adv-x="700" 
d="M350 53q112 0 160.5 77t48.5 252t-48.5 252t-160.5 77t-160.5 -77t-48.5 -252t48.5 -252t160.5 -77zM350 774q148 0 214 -95.5t66 -296.5q0 -202 -65.5 -297t-214.5 -95q-148 0 -214 95.5t-66 296.5q0 202 65.5 297t214.5 95z" />
    <glyph glyph-name="one" unicode="1" horiz-adv-x="700" 
d="M630 0h-510v64h216v601q-72 -81 -231 -125v69q81 21 135 60t105 105h59v-710h226v-64z" />
    <glyph glyph-name="two" unicode="2" horiz-adv-x="700" 
d="M638 0h-572q-1 66 14 118.5t37 87.5t63.5 67t77 51t94.5 45q116 52 138 66q51 33 59 87q2 14 2 32q0 46 -20 79t-52.5 48.5t-62 22t-58.5 6.5q-101 0 -151.5 -32.5t-64.5 -105.5l-69 6q38 196 285 196q112 0 186 -57t74 -163q0 -27 -6.5 -51t-14 -41.5t-25.5 -35
t-29.5 -27.5t-38.5 -24.5t-39.5 -20.5t-45.5 -20.5l-44 -19.5q-123 -56 -178.5 -110t-59.5 -140l229 1h272v-65z" />
    <glyph glyph-name="three" unicode="3" horiz-adv-x="700" 
d="M635 209q0 -97 -76.5 -158t-223.5 -61q-244 0 -279 197l69 6q11 -72 61 -106.5t149 -35.5q231 -3 231 158q0 42 -14 71.5t-34 45t-52.5 24t-58 10.5t-63.5 2h-103v65h103q47 0 76.5 4t59.5 18t44.5 44.5t14.5 78.5q0 142 -199 139q-97 -1 -144.5 -34t-58.5 -105l-69 6
q35 196 272 196q117 0 192.5 -50t75.5 -152q0 -78 -40.5 -122t-98.5 -51q29 -4 56.5 -16t53 -34t41 -58.5t15.5 -81.5z" />
    <glyph glyph-name="four" unicode="4" horiz-adv-x="700" 
d="M636 185h-145v-185h-66v185h-360v51l363 538h63v-525h145v-64zM425 249v310l2 115l-70 -110l-145 -213l-71 -103l110 1h174z" />
    <glyph glyph-name="five" unicode="5" horiz-adv-x="700" 
d="M174 378l-59 16l38 370h428v-65h-374l-25 -243q70 53 185 53q124 0 192 -66.5t68 -191.5q0 -122 -78.5 -191.5t-198.5 -69.5q-132 0 -194 52t-80 148l69 6q15 -78 61 -112.5t144 -32.5q90 2 149 50t59 150q0 103 -49 149.5t-142 47.5q-131 2 -193 -70z" />
    <glyph glyph-name="six" unicode="6" horiz-adv-x="700" 
d="M388 712q-121 2 -187 -73t-66 -249q0 -8 1 -20q29 63 92 96.5t142 33.5q116 0 185.5 -69t69.5 -188q0 -117 -73.5 -185t-191.5 -68q-149 0 -218.5 98.5t-69.5 302.5q0 192 81 287.5t235 95.5q103 0 162.5 -48t69.5 -116l-71 -9q-12 54 -49.5 82t-111.5 29zM370 435
q-102 3 -162.5 -53.5t-51.5 -163.5q21 -90 70 -129.5t134 -37.5q87 2 140.5 49.5t53.5 142.5q0 187 -184 192z" />
    <glyph glyph-name="seven" unicode="7" horiz-adv-x="700" 
d="M285 0h-72l292 597l50 103l-197 -1h-285v65h558v-51z" />
    <glyph glyph-name="eight" unicode="8" horiz-adv-x="700" 
d="M350 423q41 0 71 5.5t59 20t44.5 45.5t15.5 77q0 140 -190 140t-190 -140q0 -46 15.5 -77t44.5 -45.5t59 -20t71 -5.5zM350 51q212 0 212 147q0 163 -212 163t-212 -163q0 -147 212 -147zM350 -10q-138 0 -209.5 54.5t-71.5 151.5q0 91 47 138.5t113 57.5q-59 9 -98.5 57
t-39.5 124q0 70 37.5 116.5t94 65.5t127.5 19t127.5 -19t94 -65.5t37.5 -116.5q0 -76 -39.5 -124t-98.5 -57q66 -10 113 -57.5t47 -138.5q0 -97 -71.5 -151.5t-209.5 -54.5z" />
    <glyph glyph-name="nine" unicode="9" horiz-adv-x="700" 
d="M312 52q121 -2 187 73t66 249q0 8 -1 20q-29 -63 -92 -96.5t-142 -33.5q-116 0 -185.5 69t-69.5 188q0 117 73.5 185t191.5 68q149 0 218.5 -98.5t69.5 -302.5q0 -192 -81 -287.5t-235 -95.5q-103 0 -162.5 48t-69.5 116l71 9q12 -54 49.5 -82t111.5 -29zM330 329
q102 -3 162.5 53.5t51.5 163.5q-21 90 -70 129.5t-134 37.5q-87 -2 -140.5 -49.5t-53.5 -142.5q0 -187 184 -192z" />
    <glyph glyph-name="colon" unicode=":" horiz-adv-x="280" 
d="M183 86v-86h-86v86h86zM183 453v-86h-86v86h86z" />
    <glyph glyph-name="semicolon" unicode=";" horiz-adv-x="280" 
d="M183 453v-86h-86v86h86zM107 86h88l-90 -250h-33z" />
    <glyph glyph-name="less" unicode="&#x3c;" horiz-adv-x="700" 
d="M130 390l149 -62l341 -149v-69l-540 244v72l540 244v-69l-341 -149z" />
    <glyph glyph-name="equal" unicode="=" horiz-adv-x="700" 
d="M620 278h-540v64h540v-64zM620 438h-540v64h540v-64z" />
    <glyph glyph-name="greater" unicode="&#x3e;" horiz-adv-x="700" 
d="M570 390l-149 62l-341 149v69l540 -244v-72l-540 -244v69l341 149z" />
    <glyph glyph-name="question" unicode="?" horiz-adv-x="570" 
d="M264 190h-46q-15 53 -15 97q0 33 9 57.5t27.5 41t31 25t35.5 19.5q5 2 23 11l25 12.5t23 13t23 16.5l18.5 18.5t16.5 23t9 27t4 33.5q0 41 -14.5 70.5t-39.5 44.5t-51.5 21t-58.5 6q-79 0 -124 -33.5t-59 -105.5l-68 6q38 196 251 196q104 0 169.5 -54.5t65.5 -150.5
q0 -34 -11 -63t-23.5 -47t-38.5 -37t-37.5 -26t-40 -20t-29.5 -13q-3 -1 -13.5 -6.5l-13.5 -7l-12 -6t-11.5 -7.5t-9.5 -8.5t-9 -9.5t-6 -11t-5.5 -14.5t-3 -16.5t-1.5 -20q0 -33 10 -82zM300 86v-86h-86v86h86z" />
    <glyph glyph-name="at" unicode="@" horiz-adv-x="1010" 
d="M506 800q222 0 338 -112.5t116 -298.5q0 -168 -60 -248.5t-204 -80.5h-35l-12 89q-22 -44 -69 -71.5t-99 -27.5q-96 0 -159.5 61t-63.5 184t63.5 184t159.5 61q52 0 99 -27.5t69 -71.5l12 89h60l-6 -124v-222l2 -64q45 0 77.5 13t52.5 35.5t32 58t16 73.5t4 89
q0 69 -22 129t-67 111t-123 80.5t-181 29.5q-189 0 -290.5 -122t-101.5 -322t103.5 -322t298.5 -122q136 0 213.5 37.5t95.5 89.5l71 -9q-10 -32 -35.5 -61.5t-69.5 -57t-115 -44t-160 -16.5q-217 0 -341.5 135t-124.5 370q0 234 123 369.5t333 135.5zM649 264v62
q-3 57 -48 104t-118 47q-159 0 -159 -182t159 -182q73 0 118 47t48 104z" />
    <glyph glyph-name="A" unicode="A" horiz-adv-x="720" 
d="M21 0l301 790h76l301 -790h-77l-92 247h-340l-92 -247h-77zM360 712l-71 -198l-75 -201h291l-74 201z" />
    <glyph glyph-name="B" unicode="B" horiz-adv-x="695" 
d="M405 0h-315v780h309q37 0 70.5 -9t66.5 -30t52.5 -63.5t19.5 -101.5q0 -74 -32 -117t-71 -54q55 -11 92.5 -59.5t37.5 -131.5q0 -64 -18.5 -108t-52.5 -66t-72 -31t-87 -9zM160 66h236q33 0 55.5 4t50.5 17t43 45t15 82q0 40 -10 69t-24.5 45t-37.5 25t-42 11.5t-45 2.5
h-241v-301zM388 714h-228v-281h228q72 0 108.5 30.5t36.5 112.5q0 81 -35.5 109.5t-109.5 28.5z" />
    <glyph glyph-name="C" unicode="C" horiz-adv-x="750" 
d="M139 390q0 -335 256 -335q101 0 153 35t67 110l72 -6q-40 -204 -292 -204q-167 0 -248.5 105t-81.5 295t81.5 295t248.5 105q252 0 292 -204l-72 -6q-15 75 -67 110t-153 35q-256 0 -256 -335z" />
    <glyph glyph-name="D" unicode="D" horiz-adv-x="765" 
d="M348 0h-258v780h258q175 0 263.5 -95.5t88.5 -294.5t-88.5 -294.5t-263.5 -95.5zM160 66h188q278 0 278 324t-278 324h-188v-648z" />
    <glyph glyph-name="E" unicode="E" horiz-adv-x="695" 
d="M90 780h520v-66h-450v-281h410v-66h-410v-301h470v-66h-540v780z" />
    <glyph glyph-name="F" unicode="F" horiz-adv-x="630" 
d="M160 367v-367h-70v780h500v-66h-430v-281h390v-66h-390z" />
    <glyph glyph-name="G" unicode="G" horiz-adv-x="774" 
d="M395 -10q-168 1 -249 106t-81 294q0 190 81.5 295t248.5 105q252 0 292 -204l-72 -6q-15 75 -67 110t-153 35q-256 0 -256 -335t256 -335q140 0 224 59v223h-170v66h240v-333q-73 -46 -139.5 -63.5t-154.5 -16.5z" />
    <glyph glyph-name="H" unicode="H" horiz-adv-x="750" 
d="M590 780h70v-780h-70v367h-430v-367h-70v780h70v-347h430v347z" />
    <glyph glyph-name="I" unicode="I" horiz-adv-x="290" 
d="M180 780v-780h-70v780h70z" />
    <glyph glyph-name="J" unicode="J" horiz-adv-x="507" 
d="M351 780h71v-570q0 -99 -53.5 -159.5t-150.5 -60.5q-185 0 -200 165l71 9q8 -113 129 -109q133 4 133 144v581z" />
    <glyph glyph-name="K" unicode="K" horiz-adv-x="695" 
d="M160 780v-423l391 423h97l-328 -350l353 -430h-94l-309 376l-110 -118v-258h-70v780h70z" />
    <glyph glyph-name="L" unicode="L" horiz-adv-x="585" 
d="M160 780v-714h410v-66h-480v780h70z" />
    <glyph glyph-name="M" unicode="M" horiz-adv-x="912" 
d="M423 0l-212 483l-57 141l4 -334v-290h-68v780h61l230 -515l75 -189l75 189l230 515h61v-780h-68v290l4 340l-57 -147l-212 -483h-66z" />
    <glyph glyph-name="N" unicode="N" horiz-adv-x="750" 
d="M597 0l-348 515l-92 142l4 -267v-390h-71v780h63l348 -515l92 -142l-4 267v390h71v-780h-63z" />
    <glyph glyph-name="O" unicode="O" horiz-adv-x="790" 
d="M395 -10q-167 0 -248.5 105t-81.5 295t81.5 295t248.5 105t248.5 -105t81.5 -295t-81.5 -295t-248.5 -105zM395 725q-256 0 -256 -335t256 -335t256 335t-256 335z" />
    <glyph glyph-name="P" unicode="P" horiz-adv-x="650" 
d="M160 402h217q24 0 43 2.5t42 12t38.5 25.5t26 46t10.5 70t-10.5 70t-26 46t-38.5 25.5t-42 12t-43 2.5h-217v-312zM160 336v-336h-70v780h276q49 0 90 -10.5t77.5 -34t57.5 -68.5t21 -109t-21 -109t-57.5 -68.5t-77.5 -34t-90 -10.5h-206z" />
    <glyph glyph-name="Q" unicode="Q" horiz-adv-x="790" 
d="M795 -131v-79l-541 225q-189 79 -189 375q0 190 81.5 295t248.5 105t248.5 -105t81.5 -295q0 -350 -262 -395v-4l107 -41zM395 725q-256 0 -256 -335t256 -335t256 335t-256 335z" />
    <glyph glyph-name="R" unicode="R" horiz-adv-x="705" 
d="M160 347v-347h-70v780h300q242 0 242 -216q0 -190 -182 -214l213 -350h-84l-203 347h-216zM160 413h239q25 0 43 2t41 10.5t38 24t25.5 45t10.5 69.5t-10.5 69.5t-25.5 44.5t-38 23.5t-41 10.5t-43 2h-239v-301z" />
    <glyph glyph-name="S" unicode="S" horiz-adv-x="710" 
d="M355 -10q-252 0 -291 202l72 6q15 -75 66.5 -109t152.5 -34q54 0 101 14.5t82 53.5t35 96q0 75 -46.5 110.5t-169.5 49.5q-45 5 -78.5 12t-70 21t-59.5 34.5t-38 53.5t-15 76q0 106 73.5 160t186.5 54q248 0 286 -196l-72 -6q-14 73 -64 105t-150 32q-29 0 -58 -6
t-60.5 -20.5t-51 -46.5t-19.5 -76q0 -60 40 -90t152 -43q74 -9 120.5 -20.5t86.5 -35.5t58 -65t18 -103q0 -112 -83.5 -170.5t-203.5 -58.5z" />
    <glyph glyph-name="T" unicode="T" horiz-adv-x="620" 
d="M345 714v-714h-70v714h-250v66h570v-66h-250z" />
    <glyph glyph-name="U" unicode="U" horiz-adv-x="774" 
d="M387 -10q-307 0 -307 290v500h72v-502q0 -50 10.5 -88t35 -70t72.5 -48.5t117 -16.5t117 16.5t72.5 48.5t35 70t10.5 88v502h72v-500q0 -290 -307 -290z" />
    <glyph glyph-name="V" unicode="V" horiz-adv-x="720" 
d="M698 780l-300 -790h-76l-300 790h76l191 -514l71 -198l71 198l191 514h76z" />
    <glyph glyph-name="W" unicode="W" horiz-adv-x="960" 
d="M295 276l148 504h74l148 -504l45 -169l34 170l114 503h72l-186 -790h-61l-149 509l-54 195l-54 -195l-149 -509h-61l-186 790h72l114 -503l34 -170z" />
    <glyph glyph-name="X" unicode="X" horiz-adv-x="700" 
d="M350 345l-92 -141l-135 -204h-85l232 342l42 61l-41 58l-215 319h82l120 -180l92 -140l92 140l120 180h84l-215 -319l-41 -58l42 -61l230 -342h-85l-135 204z" />
    <glyph glyph-name="Y" unicode="Y" horiz-adv-x="710" 
d="M20 780h81l162 -244l92 -141l92 141l162 244h81l-300 -445v-335h-70v335z" />
    <glyph glyph-name="Z" unicode="Z" horiz-adv-x="690" 
d="M53 0v58l416 552l83 105l-269 -1h-210v66h567v-58l-416 -552l-83 -105l269 1h230v-66h-587z" />
    <glyph glyph-name="bracketleft" unicode="[" horiz-adv-x="240" 
d="M170 764v-828h60v-66h-130v960h130v-66h-60z" />
    <glyph glyph-name="backslash" unicode="\" horiz-adv-x="320" 
d="M240 -130l-230 960h70l230 -960h-70z" />
    <glyph glyph-name="bracketright" unicode="]" horiz-adv-x="240" 
d="M70 -64v828h-60v66h130v-960h-130v66h60z" />
    <glyph glyph-name="asciicircum" unicode="^" horiz-adv-x="470" 
d="M235 725l-62 -134l-90 -191h-69l185 390h72l185 -390h-69l-90 191z" />
    <glyph glyph-name="underscore" unicode="_" horiz-adv-x="300" 
d="M280 -200h-260v64h260v-64z" />
    <glyph glyph-name="grave" unicode="`" 
d="M154 800h82l94 -208h-65z" />
    <glyph glyph-name="a" unicode="a" horiz-adv-x="570" 
d="M52 142q0 76 50.5 111.5t151.5 50.5l182 27v25q0 66 -39 93.5t-115 29.5q-64 1 -95.5 -24.5t-43.5 -78.5l-69 10q16 75 63 114.5t145 39.5q104 0 161 -47.5t57 -140.5v-228l6 -124h-58l-12 91q-24 -45 -80 -73t-119 -28q-91 0 -138 39.5t-47 112.5zM120 142
q0 -91 117 -91q80 0 138.5 49t60.5 104v70l-183 -29q-66 -11 -99.5 -31.5t-33.5 -71.5z" />
    <glyph glyph-name="b" unicode="b" horiz-adv-x="599" 
d="M136 800v-360q27 45 74 72.5t104 27.5q111 0 173 -72.5t62 -202.5t-62 -202.5t-173 -72.5q-57 0 -104 27.5t-74 73.5l-12 -91h-60l6 124v676h66zM479 265q0 101 -44 156.5t-123 55.5q-76 0 -125 -47.5t-51 -103.5v-122q2 -56 51 -103.5t125 -47.5q79 0 123 55t44 157z
" />
    <glyph glyph-name="c" unicode="c" horiz-adv-x="550" 
d="M119 265q0 -101 44 -156.5t123 -57.5q122 -3 146 102l71 -9q-32 -154 -216 -154q-112 0 -174.5 72.5t-62.5 202.5t62.5 202.5t174.5 72.5q184 0 216 -154l-71 -9q-24 105 -146 102q-79 -2 -123 -57.5t-44 -156.5z" />
    <glyph glyph-name="d" unicode="d" horiz-adv-x="599" 
d="M463 440v360h66v-676l6 -124h-60l-12 91q-27 -46 -74 -73.5t-104 -27.5q-111 0 -173 72.5t-62 202.5t62 202.5t173 72.5q57 0 104 -27.5t74 -72.5zM120 265q0 -102 44 -157t123 -55q76 0 125 47.5t51 103.5v122q-2 56 -51 103.5t-125 47.5q-79 0 -123 -55.5t-44 -156.5z
" />
    <glyph glyph-name="e" unicode="e" horiz-adv-x="570" 
d="M291 540q224 0 224 -274v-27h-395q4 -97 49.5 -142.5t122.5 -45.5q124 -3 149 102l71 -9q-13 -68 -67.5 -111t-153.5 -43q-113 0 -177 70t-64 205t64 205t177 70zM291 480q-76 0 -121 -44.5t-50 -137.5h323q-3 185 -152 182z" />
    <glyph glyph-name="f" unicode="f" horiz-adv-x="385" 
d="M37 468v62h106v72q0 46 6.5 79.5t24.5 64.5t56 47.5t94 16.5q35 0 57 -8l-8 -64q-24 9 -49 9q-63 0 -89 -29t-26 -116v-72h153v-62h-153v-468h-66v468h-106z" />
    <glyph glyph-name="g" unicode="g" horiz-adv-x="599" 
d="M285 -153q80 2 129.5 33.5t49.5 96.5v133q-27 -45 -74.5 -72.5t-104.5 -27.5q-112 0 -173.5 68t-61.5 197t61.5 197t173.5 68q57 0 104 -27.5t74 -73.5l12 91h60l-6 -124v-422q0 -93 -64.5 -143.5t-179.5 -50.5q-201 0 -225 154l70 9q19 -109 155 -106zM118 275
q0 -100 44.5 -151.5t124.5 -51.5q76 0 125.5 48t51.5 104v102q-2 56 -51.5 104t-125.5 48q-80 0 -124.5 -51t-44.5 -152z" />
    <glyph glyph-name="h" unicode="h" horiz-adv-x="574" 
d="M70 0v800h66v-360q27 45 75 72.5t106 27.5q85 0 140.5 -45.5t55.5 -124.5v-370h-66v355q0 58 -38 90t-102 32q-70 0 -119.5 -48t-51.5 -103v-326h-66z" />
    <glyph glyph-name="i" unicode="i" horiz-adv-x="250" 
d="M168 739v-86h-86v86h86zM92 0v530h66v-530h-66z" />
    <glyph glyph-name="j" unicode="j" horiz-adv-x="250" 
d="M-17 -147q63 0 88.5 28.5t25.5 116.5v532h66v-532q0 -46 -6.5 -79.5t-24.5 -65t-55.5 -47.5t-93.5 -16q-35 0 -57 8l8 64q21 -9 49 -9zM173 739v-86h-86v86h86z" />
    <glyph glyph-name="k" unicode="k" horiz-adv-x="535" 
d="M136 0h-66v800h66v-536l101 103l163 163h95l-231 -225l268 -305h-91l-222 261l-83 -81v-180z" />
    <glyph glyph-name="l" unicode="l" horiz-adv-x="250" 
d="M92 0v800h66v-800h-66z" />
    <glyph glyph-name="m" unicode="m" horiz-adv-x="863" 
d="M124 530l12 -88q26 45 67 71.5t91 26.5q133 0 167 -110q27 55 71.5 82.5t94.5 27.5q81 0 128 -44.5t47 -125.5v-370h-66v355q0 122 -119 122q-60 0 -102.5 -48t-45.5 -103v-326h-66v355q0 122 -119 122q-61 0 -103.5 -48t-44.5 -103v-326h-66v407l-6 123h60z" />
    <glyph glyph-name="n" unicode="n" horiz-adv-x="574" 
d="M124 530l12 -90q27 45 75 72.5t106 27.5q85 0 140.5 -45.5t55.5 -124.5v-370h-66v355q0 58 -38 90t-102 32q-70 0 -119.5 -48t-51.5 -103v-326h-66v407l-6 123h60z" />
    <glyph glyph-name="o" unicode="o" horiz-adv-x="578" 
d="M289 -10q-113 0 -176 70t-63 205t63 205t176 70t176 -70t63 -205t-63 -205t-176 -70zM289 478q-170 0 -170 -213t170 -213t170 213t-170 213z" />
    <glyph glyph-name="p" unicode="p" horiz-adv-x="599" 
d="M136 90v-290h-66v606l-6 124h60l12 -91q27 46 74 73.5t104 27.5q111 0 173 -72.5t62 -202.5t-62 -202.5t-173 -72.5q-57 0 -104 27.5t-74 72.5zM479 265q0 102 -44 157t-123 55q-76 0 -125 -47.5t-51 -103.5v-122q2 -56 51 -103.5t125 -47.5q79 0 123 55.5t44 156.5z" />
    <glyph glyph-name="q" unicode="q" horiz-adv-x="599" 
d="M463 -200v290q-27 -45 -74 -72.5t-104 -27.5q-111 0 -173 72.5t-62 202.5t62 202.5t173 72.5q57 0 104 -27.5t74 -73.5l12 91h60l-6 -124v-606h-66zM120 265q0 -101 44 -156.5t123 -55.5q76 0 125 47.5t51 103.5v122q-2 56 -51 103.5t-125 47.5q-79 0 -123 -55t-44 -157z
" />
    <glyph glyph-name="r" unicode="r" horiz-adv-x="395" 
d="M371 532l-7 -68q-24 9 -52 9q-76 0 -125 -47.5t-51 -103.5v-322h-66v407l-6 123h60l12 -94q24 45 72 74.5t104 29.5q38 0 59 -8z" />
    <glyph glyph-name="s" unicode="s" horiz-adv-x="530" 
d="M262 51q157 4 157 101q0 13 -1.5 23t-7.5 18.5t-9.5 14t-15 10.5l-17.5 7.5t-22.5 6t-24 4.5t-29.5 4.5t-31 4.5l-23 3q-22 4 -26.5 4.5t-25.5 5t-27.5 7.5t-24.5 9.5t-25 12.5l-19 16t-16.5 21t-9 26t-4.5 32q0 42 18 74t48 49.5t63.5 26t70.5 8.5q184 0 216 -154
l-71 -9q-24 105 -146 102q-130 -2 -130 -93q0 -17 6.5 -29.5t15 -19.5t27.5 -13t32.5 -8.5t41.5 -6.5l20 -3l28 -4t30 -4.5t29 -5.5t30 -7.5t26.5 -10t25 -13.5t19.5 -18t16.5 -23.5t9.5 -29t4 -35.5q0 -57 -35 -96t-84 -54t-108 -15q-99 0 -153.5 43t-67.5 111l71 9
q25 -105 149 -102z" />
    <glyph glyph-name="t" unicode="t" horiz-adv-x="395" 
d="M27 468v62h96v135l66 22v-157h163v-62h-163v-270q0 -87 26 -116t89 -29q25 0 49 9l8 -64q-22 -8 -57 -8q-56 0 -94 16.5t-56 47.5t-24.5 64.5t-6.5 79.5v270h-96z" />
    <glyph glyph-name="u" unicode="u" horiz-adv-x="574" 
d="M450 0l-12 90q-27 -45 -75 -72.5t-106 -27.5q-85 0 -140.5 45.5t-55.5 124.5v370h66v-355q0 -58 38 -90t102 -32q70 0 119.5 48t51.5 103v326h66v-407l6 -123h-60z" />
    <glyph glyph-name="v" unicode="v" horiz-adv-x="540" 
d="M518 530l-207 -540h-81l-208 540h74l116 -317l58 -165l58 165l117 317h73z" />
    <glyph glyph-name="w" unicode="w" horiz-adv-x="810" 
d="M448 326l-43 143l-43 -143l-104 -336h-79l-149 540h71l80 -312l37 -153l45 153l97 312h90l97 -312l45 -153l37 153l80 312h71l-149 -540h-79z" />
    <glyph glyph-name="x" unicode="x" horiz-adv-x="530" 
d="M265 222l-69 -97l-92 -125h-81l160 220l42 56l-42 55l-147 199h81l79 -111l69 -97l68 97l79 111h80l-145 -199l-41 -55l41 -56l160 -220h-81l-91 125z" />
    <glyph glyph-name="y" unicode="y" horiz-adv-x="540" 
d="M522 530l-209 -494l-96 -236h-77l93 220l-215 510h78l115 -291l59 -152l59 152l116 291h77z" />
    <glyph glyph-name="z" unicode="z" horiz-adv-x="535" 
d="M45 0v54l275 324l83 91l-146 -1h-193v62h419v-54l-275 -324l-83 -91l146 1h223v-62h-449z" />
    <glyph glyph-name="braceleft" unicode="{" horiz-adv-x="280" 
d="M8 381h19q40 0 57 19.5t17 78.5v198q0 153 150 153h19v-66h-19q-42 0 -63 -20.5t-21 -77.5v-194q0 -85 -46 -122q46 -39 46 -122v-194q0 -57 21 -77.5t63 -20.5h19v-66h-19q-150 0 -150 153v198q0 59 -17 78.5t-57 19.5h-19v62z" />
    <glyph glyph-name="bar" unicode="|" horiz-adv-x="270" 
d="M170 830v-960h-70v960h70z" />
    <glyph glyph-name="braceright" unicode="}" horiz-adv-x="280" 
d="M272 319h-19q-40 0 -57 -19.5t-17 -78.5v-198q0 -153 -150 -153h-19v66h19q42 0 63 20.5t21 77.5v194q0 85 46 122q-46 39 -46 122v194q0 57 -21 77.5t-63 20.5h-19v66h19q150 0 150 -153v-198q0 -59 17 -78.5t57 -19.5h19v-62z" />
    <glyph glyph-name="asciitilde" unicode="~" horiz-adv-x="470" 
d="M60 291l-30 50q1 2 4 6.5t13.5 15t23 18.5t34 14.5t45.5 6.5q45 0 94 -36t84 -35q26 1 46.5 13t27.5 24l8 11l30 -50q-1 -2 -4 -6.5t-13.5 -15t-23 -18.5t-34 -14.5t-45.5 -6.5q-45 0 -94 36t-84 35q-26 -1 -46.5 -13t-27.5 -24z" />
    <glyph glyph-name="nbspace" unicode="&#xa0;" horiz-adv-x="240" 
 />
    <glyph glyph-name="exclamdown" unicode="&#xa1;" horiz-adv-x="280" 
d="M186 -200h-92l28 540h36zM183 530v-86h-86v86h86z" />
    <glyph glyph-name="cent" unicode="&#xa2;" horiz-adv-x="550" 
d="M141 0l33 131q-124 62 -124 251q0 130 62.5 202.5t174.5 72.5q13 0 19 -1l27 108h65l-30 -116q110 -29 135 -145l-71 -9q-18 74 -79 94l-104 -416q15 -4 37 -4q122 -3 146 102l71 -9q-32 -154 -216 -154q-32 0 -53 4l-28 -111h-65zM119 382q0 -132 71 -184l100 398h-4
q-79 -2 -123 -57.5t-44 -156.5z" />
    <glyph glyph-name="sterling" unicode="&#xa3;" horiz-adv-x="680" 
d="M54 0v62h110v307h-110v62h110v125q0 99 60.5 158.5t172.5 59.5q202 0 220 -163l-69 -9q-14 112 -151 109q-167 -3 -167 -144v-136h229v-62h-229v-307h390v-62h-566z" />
    <glyph glyph-name="currency" unicode="&#xa4;" horiz-adv-x="720" 
d="M360 153q93 0 153 53.5t60 175.5t-60 175.5t-153 53.5t-153 -53.5t-60 -175.5t60 -175.5t153 -53.5zM20 88l108 107q-51 73 -51 187t51 186l-108 108l46 46l106 -107q72 59 188 59q115 0 188 -59l106 107l46 -46l-108 -108q51 -72 51 -186t-51 -187l108 -107l-46 -46
l-106 106q-74 -58 -188 -58t-188 58l-106 -106z" />
    <glyph glyph-name="yen" unicode="&#xa5;" horiz-adv-x="680" 
d="M15 764h79l157 -244l89 -142l89 142l157 244h79l-263 -400h174v-62h-203v-61h203v-62h-203v-179h-66v179h-203v62h203v61h-203v62h173z" />
    <glyph glyph-name="brokenbar" unicode="&#xa6;" horiz-adv-x="270" 
d="M170 315v-445h-70v445h70zM170 830v-445h-70v445h70z" />
    <glyph glyph-name="section" unicode="&#xa7;" horiz-adv-x="620" 
d="M327 478q47 -4 78.5 -9t67 -17t56.5 -31t35 -50.5t14 -75.5q0 -116 -110 -166q42 -20 64 -50.5t22 -91.5q0 -98 -73 -147.5t-179 -49.5q-220 0 -256 178l72 8q13 -63 56.5 -93.5t127.5 -29.5q76 1 129 32.5t53 100.5q0 63 -41.5 85t-149.5 31q-47 4 -78.5 9t-67 17
t-56.5 31t-35 50.5t-14 75.5q0 116 110 165q-43 20 -64.5 51t-21.5 92q0 98 73 147.5t179 49.5q220 0 256 -178l-72 -8q-13 63 -56.5 93.5t-127.5 29.5q-76 -1 -129 -32.5t-53 -100.5q0 -63 41.5 -85t149.5 -31zM112 286q0 -64 40.5 -89t145.5 -34q80 -7 145 26t65 105
q0 64 -40.5 89t-145.5 34q-50 4 -95.5 -5.5t-80 -42t-34.5 -83.5z" />
    <glyph glyph-name="dieresis" unicode="&#xa8;" 
d="M250 739v-86h-86v86h86zM436 739v-86h-86v86h86z" />
    <glyph glyph-name="copyright" unicode="&#xa9;" horiz-adv-x="880" 
d="M40 390q0 166 117 283t283 117t283 -117t117 -283t-117 -283t-283 -117t-283 117t-117 283zM105 390q0 -139 98 -237t237 -98t237 98t98 237t-98 237t-237 98t-237 -98t-98 -237zM272 390q0 -89 43.5 -135.5t123.5 -48.5q122 -3 146 102l71 -9q-32 -154 -216 -154
q-112 0 -174.5 64.5t-62.5 180.5t62.5 180.5t174.5 64.5q184 0 216 -154l-71 -9q-24 105 -146 102q-80 -2 -123.5 -48.5t-43.5 -135.5z" />
    <glyph glyph-name="ordfeminine" unicode="&#xaa;" horiz-adv-x="440" 
d="M42 497q0 57 39.5 84t113.5 38l124 18v16q0 79 -107 79q-73 0 -90 -68l-64 8q13 57 48 87.5t111 30.5q78 0 121 -35.5t43 -106.5v-163l5 -95h-57l-8 61q-19 -31 -58 -51t-82 -20q-69 0 -104 31t-35 86zM108 497q0 -58 70 -58q57 0 98.5 30.5t42.5 70.5v44l-155 -26
q-56 -10 -56 -61z" />
    <glyph glyph-name="guillemotleft" unicode="&#xab;" horiz-adv-x="520" 
d="M250 190v-55l-208 140v80l208 140v-55l-145 -125zM470 190v-55l-208 140v80l208 140v-55l-145 -125z" />
    <glyph glyph-name="logicalnot" unicode="&#xac;" horiz-adv-x="700" 
d="M554 208v300h-474v64h540v-364h-66z" />
    <glyph glyph-name="uni00AD" unicode="&#xad;" horiz-adv-x="360" 
d="M310 303h-260v64h260v-64z" />
    <glyph glyph-name="registered" unicode="&#xae;" horiz-adv-x="880" 
d="M40 390q0 166 117 283t283 117t283 -117t117 -283t-117 -283t-283 -117t-283 117t-117 283zM105 390q0 -139 98 -237t237 -98t237 98t98 237t-98 237t-237 98t-237 -98t-98 -237zM332 342v-187h-63v470h192q157 0 157 -141q0 -115 -104 -137l117 -192h-79l-106 187h-114z
M332 402h135q17 0 29 2.5t26.5 10t22 25t7.5 44.5q0 35 -15 54t-31 22.5t-39 3.5h-135v-162z" />
    <glyph glyph-name="macron" unicode="&#xaf;" 
d="M164 664v64h272v-64h-272z" />
    <glyph glyph-name="degree" unicode="&#xb0;" horiz-adv-x="480" 
d="M240 473q60 0 93 30t33 91t-33 91t-93 30t-93 -30t-33 -91t33 -91t93 -30zM240 414q-85 0 -137 46t-52 134t52 134t137 46t137 -46t52 -134t-52 -134t-137 -46z" />
    <glyph glyph-name="plusminus" unicode="&#xb1;" horiz-adv-x="700" 
d="M318 270v163h-238v64h238v163h64v-163h238v-64h-238v-163h-64zM620 153h-540v64h540v-64z" />
    <glyph glyph-name="twosuperior" unicode="&#xb2;" horiz-adv-x="411" 
d="M358 370h-305q0 46 10 79t33 55.5t44 35t60 30.5q27 11 37 16t25.5 13.5t20 15t9 17t4.5 23.5q0 37 -27 52t-60 15q-47 0 -70.5 -16t-29.5 -52l-54 6q17 114 154 114q60 0 100 -31t40 -88q0 -12 -2 -22.5t-4 -18.5t-9 -17t-10 -14t-13.5 -12.5l-14 -10t-17 -9.5
l-16.5 -8.5t-19 -8.5t-18 -8q-56 -24 -83.5 -47.5t-31.5 -58.5l109 2h138v-52z" />
    <glyph glyph-name="threesuperior" unicode="&#xb3;" horiz-adv-x="415" 
d="M362 480q0 -54 -41 -87t-120 -33q-137 0 -153 115l55 5q5 -37 28 -53t70 -16q107 -2 107 69q0 18 -6 31.5t-15 20t-23.5 10t-26 4.5t-28.5 1h-55v51h55q20 0 33 2t26 8t19.5 19t6.5 34q0 64 -90 62q-45 -1 -67 -16.5t-27 -52.5l-54 5q13 115 148 115q63 0 103.5 -28
t40.5 -85q0 -68 -59 -86q29 -6 51 -30.5t22 -64.5z" />
    <glyph glyph-name="acute" unicode="&#xb4;" 
d="M364 800h82l-111 -208h-65z" />
    <glyph glyph-name="mu" unicode="&#xb5;" horiz-adv-x="574" 
d="M450 0l-12 90q-27 -45 -75 -72.5t-106 -27.5q-81 0 -132 39l2 -89v-140h-66v730h66v-355q0 -58 38 -90t102 -32q70 0 119.5 48t51.5 103v326h66v-407l6 -123h-60z" />
    <glyph glyph-name="paragraph" unicode="&#xb6;" horiz-adv-x="650" 
d="M420 714v-714h-70v336h-66q-49 0 -90 10.5t-77.5 34t-57.5 68.5t-21 109t21 109t57.5 68.5t77.5 34t90 10.5h276v-780h-70v714h-70z" />
    <glyph glyph-name="periodcentered" unicode="&#xb7;" horiz-adv-x="280" 
d="M183 378v-86h-86v86h86z" />
    <glyph glyph-name="cedilla" unicode="&#xb8;" 
d="M281 12h44l-13 -46q87 -21 87 -93q0 -42 -30 -62.5t-79 -20.5t-79 17l15 44q27 -12 56 -13q59 -1 59 34q0 44 -90 53z" />
    <glyph glyph-name="onesuperior" unicode="&#xb9;" horiz-adv-x="400" 
d="M48 623v55q84 18 146 96h46v-354h130v-50h-314v50h130v274q-47 -54 -138 -71z" />
    <glyph glyph-name="ordmasculine" unicode="&#xba;" horiz-adv-x="460" 
d="M230 380q-84 0 -132 53t-48 152t48 152t132 53q85 0 132.5 -52.5t47.5 -152.5t-47.5 -152.5t-132.5 -52.5zM230 731q-115 0 -115 -146t115 -146t115 146t-115 146z" />
    <glyph glyph-name="guillemotright" unicode="&#xbb;" horiz-adv-x="520" 
d="M50 135v55l145 125l-145 125v55l208 -140v-80zM270 135v55l145 125l-145 125v55l208 -140v-80z" />
    <glyph glyph-name="onequarter" unicode="&#xbc;" horiz-adv-x="961" 
d="M779 764l-506 -764h-72l506 764h72zM923 89h-73v-89h-53v89h-179v38l185 277h47v-264h73v-51zM797 140v122l1 53l-33 -51l-55 -83l-28 -41h115zM48 623v55q84 18 146 96h46v-354h130v-50h-314v50h130v274q-47 -54 -138 -71z" />
    <glyph glyph-name="onehalf" unicode="&#xbd;" horiz-adv-x="991" 
d="M779 764l-506 -764h-72l506 764h72zM938 0h-305q0 46 10 79t33 55.5t44 35t60 30.5q27 11 37 16t25.5 13.5t20 15t9 17t4.5 23.5q0 37 -27 52t-60 15q-47 0 -70.5 -16t-29.5 -52l-54 6q17 114 154 114q60 0 100 -31t40 -88q0 -12 -2 -22.5t-4 -18.5t-9 -17t-10 -14
t-13.5 -12.5l-14 -10t-17 -9.5l-16.5 -8.5t-19 -8.5t-18 -8q-56 -24 -83.5 -47.5t-31.5 -58.5l109 2h138v-52zM48 623v55q84 18 146 96h46v-354h130v-50h-314v50h130v274q-47 -54 -138 -71z" />
    <glyph glyph-name="threequarters" unicode="&#xbe;" horiz-adv-x="976" 
d="M362 480q0 -54 -41 -87t-120 -33q-137 0 -153 115l55 5q5 -37 28 -53t70 -16q107 -2 107 69q0 18 -6 31.5t-15 20t-23.5 10t-26 4.5t-28.5 1h-55v51h55q20 0 33 2t26 8t19.5 19t6.5 34q0 64 -90 62q-45 -1 -67 -16.5t-27 -52.5l-54 5q13 115 148 115q63 0 103.5 -28
t40.5 -85q0 -68 -59 -86q29 -6 51 -30.5t22 -64.5zM794 764l-506 -764h-72l506 764h72zM938 89h-73v-89h-53v89h-179v38l185 277h47v-264h73v-51zM812 140v122l1 53l-33 -51l-55 -83l-28 -41h115z" />
    <glyph glyph-name="questiondown" unicode="&#xbf;" horiz-adv-x="535" 
d="M288 340h46q14 -50 14 -90q-1 -52 -25.5 -80t-65.5 -49q-8 -4 -36 -16t-39.5 -19.5t-29 -22.5t-24.5 -35.5t-7 -47.5q0 -127 165 -127q78 0 120.5 33.5t56.5 105.5l69 -6q-38 -196 -246 -196q-104 0 -169.5 51t-65.5 139q0 40 11.5 71t35.5 51.5t40 30.5t47 23t35 15
q48 24 60 38q17 21 17 57q1 28 -9 74zM252 444v86h86v-86h-86z" />
    <glyph glyph-name="Agrave" unicode="&#xc0;" horiz-adv-x="720" 
d="M21 0l301 790h76l301 -790h-77l-92 247h-340l-92 -247h-77zM360 712l-71 -198l-75 -201h291l-74 201zM214 1030h82l94 -208h-65z" />
    <glyph glyph-name="Aacute" unicode="&#xc1;" horiz-adv-x="720" 
d="M21 0l301 790h76l301 -790h-77l-92 247h-340l-92 -247h-77zM360 712l-71 -198l-75 -201h291l-74 201zM424 1030h82l-111 -208h-65z" />
    <glyph glyph-name="Acircumflex" unicode="&#xc2;" horiz-adv-x="720" 
d="M21 0l301 790h76l301 -790h-77l-92 247h-340l-92 -247h-77zM360 712l-71 -198l-75 -201h291l-74 201zM544 822h-67l-117 150l-117 -150h-67l150 208h68z" />
    <glyph glyph-name="Atilde" unicode="&#xc3;" horiz-adv-x="720" 
d="M21 0l301 790h76l301 -790h-77l-92 247h-340l-92 -247h-77zM360 712l-71 -198l-75 -201h291l-74 201zM431 860q-43 2 -83 38t-63 37q-27 2 -44 -11t-21 -27l-3 -14l-55 8q24 108 127 103q43 -2 83 -38t63 -37q27 -2 44 11t21 27l3 14l55 -8q-24 -108 -127 -103z" />
    <glyph glyph-name="Adieresis" unicode="&#xc4;" horiz-adv-x="720" 
d="M21 0l301 790h76l301 -790h-77l-92 247h-340l-92 -247h-77zM360 712l-71 -198l-75 -201h291l-74 201zM310 969v-86h-86v86h86zM496 969v-86h-86v86h86z" />
    <glyph glyph-name="Aring" unicode="&#xc5;" horiz-adv-x="720" 
d="M21 0l301 790h76l301 -790h-77l-92 247h-340l-92 -247h-77zM360 712l-71 -198l-75 -201h291l-74 201zM246 926q0 51 30.5 82.5t83.5 31.5t83.5 -31.5t30.5 -82.5t-30.5 -82.5t-83.5 -31.5t-83.5 31.5t-30.5 82.5zM304 926q0 -26 15 -42t41 -16t41 16t15 42t-15 42t-41 16
t-41 -16t-15 -42z" />
    <glyph glyph-name="AE" unicode="&#xc6;" horiz-adv-x="1060" 
d="M574 0l-47 247h-306l-129 -247h-79l418 780h544v-66h-467l54 -281h373v-66h-360l58 -301h362v-66h-421zM446 674l-190 -361h258l-41 217z" />
    <glyph glyph-name="Ccedilla" unicode="&#xc7;" horiz-adv-x="750" 
d="M139 390q0 -335 256 -335q101 0 153 35t67 110l72 -6q-38 -195 -270 -203l-7 -25q87 -21 87 -93q0 -42 -30 -62.5t-79 -20.5t-79 17l15 44q27 -12 56 -13q59 -1 59 34q0 44 -90 53l22 66q-155 7 -230.5 111.5t-75.5 287.5q0 190 81.5 295t248.5 105q252 0 292 -204
l-72 -6q-15 75 -67 110t-153 35q-256 0 -256 -335z" />
    <glyph glyph-name="Egrave" unicode="&#xc8;" horiz-adv-x="695" 
d="M90 780h520v-66h-450v-281h410v-66h-410v-301h470v-66h-540v780zM209 1030h82l94 -208h-65z" />
    <glyph glyph-name="Eacute" unicode="&#xc9;" horiz-adv-x="695" 
d="M90 780h520v-66h-450v-281h410v-66h-410v-301h470v-66h-540v780zM409 1030h82l-111 -208h-65z" />
    <glyph glyph-name="Ecircumflex" unicode="&#xca;" horiz-adv-x="695" 
d="M90 780h520v-66h-450v-281h410v-66h-410v-301h470v-66h-540v780zM534 822h-67l-117 150l-117 -150h-67l150 208h68z" />
    <glyph glyph-name="Edieresis" unicode="&#xcb;" horiz-adv-x="695" 
d="M90 780h520v-66h-450v-281h410v-66h-410v-301h470v-66h-540v780zM300 969v-86h-86v86h86zM486 969v-86h-86v86h86z" />
    <glyph glyph-name="Igrave" unicode="&#xcc;" horiz-adv-x="290" 
d="M180 780v-780h-70v780h70zM0 1030h82l94 -208h-65z" />
    <glyph glyph-name="Iacute" unicode="&#xcd;" horiz-adv-x="290" 
d="M180 780v-780h-70v780h70zM208 1030h82l-111 -208h-65z" />
    <glyph glyph-name="Icircumflex" unicode="&#xce;" horiz-adv-x="290" 
d="M180 780v-780h-70v780h70zM329 822h-67l-117 150l-117 -150h-67l150 208h68z" />
    <glyph glyph-name="Idieresis" unicode="&#xcf;" horiz-adv-x="290" 
d="M180 780v-780h-70v780h70zM95 969v-86h-86v86h86zM281 969v-86h-86v86h86z" />
    <glyph glyph-name="Eth" unicode="&#xd0;" horiz-adv-x="820" 
d="M403 0h-258v367h-120v66h120v347h258q175 0 263.5 -95.5t88.5 -294.5t-88.5 -294.5t-263.5 -95.5zM215 66h188q278 0 278 324t-278 324h-188v-281h238v-66h-238v-301z" />
    <glyph glyph-name="Ntilde" unicode="&#xd1;" horiz-adv-x="750" 
d="M597 0l-348 515l-92 142l4 -267v-390h-71v780h63l348 -515l92 -142l-4 267v390h71v-780h-63zM446 860q-43 2 -83 38t-63 37q-27 2 -44 -11t-20 -27l-4 -14l-55 8q24 108 127 103q43 -2 83 -38t63 -37q27 -2 44 11t20 27l4 14l55 -8q-24 -108 -127 -103z" />
    <glyph glyph-name="Ograve" unicode="&#xd2;" horiz-adv-x="790" 
d="M395 -10q-167 0 -248.5 105t-81.5 295t81.5 295t248.5 105t248.5 -105t81.5 -295t-81.5 -295t-248.5 -105zM395 725q-256 0 -256 -335t256 -335t256 335t-256 335zM259 1030h82l94 -208h-65z" />
    <glyph glyph-name="Oacute" unicode="&#xd3;" horiz-adv-x="790" 
d="M395 -10q-167 0 -248.5 105t-81.5 295t81.5 295t248.5 105t248.5 -105t81.5 -295t-81.5 -295t-248.5 -105zM395 725q-256 0 -256 -335t256 -335t256 335t-256 335zM459 1030h82l-111 -208h-65z" />
    <glyph glyph-name="Ocircumflex" unicode="&#xd4;" horiz-adv-x="790" 
d="M395 -10q-167 0 -248.5 105t-81.5 295t81.5 295t248.5 105t248.5 -105t81.5 -295t-81.5 -295t-248.5 -105zM395 725q-256 0 -256 -335t256 -335t256 335t-256 335zM579 822h-67l-117 150l-117 -150h-67l150 208h68z" />
    <glyph glyph-name="Otilde" unicode="&#xd5;" horiz-adv-x="790" 
d="M395 -10q-167 0 -248.5 105t-81.5 295t81.5 295t248.5 105t248.5 -105t81.5 -295t-81.5 -295t-248.5 -105zM395 725q-256 0 -256 -335t256 -335t256 335t-256 335zM466 860q-43 2 -83 38t-63 37q-27 2 -44 -11t-20 -27l-4 -14l-55 8q24 108 127 103q43 -2 83 -38t63 -37
q27 -2 44 11t20 27l4 14l55 -8q-24 -108 -127 -103z" />
    <glyph glyph-name="Odieresis" unicode="&#xd6;" horiz-adv-x="790" 
d="M395 -10q-167 0 -248.5 105t-81.5 295t81.5 295t248.5 105t248.5 -105t81.5 -295t-81.5 -295t-248.5 -105zM395 725q-256 0 -256 -335t256 -335t256 335t-256 335zM345 969v-86h-86v86h86zM531 969v-86h-86v86h86z" />
    <glyph glyph-name="multiply" unicode="&#xd7;" horiz-adv-x="700" 
d="M95 181l210 209l-210 209l46 46l209 -210l209 210l46 -46l-210 -209l210 -209l-46 -46l-209 210l-209 -210z" />
    <glyph glyph-name="Oslash" unicode="&#xd8;" horiz-adv-x="790" 
d="M395 -10q-117 0 -192 52l-28 -42h-68l52 80q-94 100 -94 310q0 190 81.5 295t248.5 105q115 0 193 -53l28 43h68l-53 -81q94 -103 94 -309q0 -190 -81.5 -295t-248.5 -105zM395 725q-256 0 -256 -335q0 -165 60 -248l351 537q-60 46 -155 46zM651 390q0 164 -60 247
l-351 -537q59 -45 155 -45q256 0 256 335z" />
    <glyph glyph-name="Ugrave" unicode="&#xd9;" horiz-adv-x="774" 
d="M387 -10q-307 0 -307 290v500h72v-502q0 -50 10.5 -88t35 -70t72.5 -48.5t117 -16.5t117 16.5t72.5 48.5t35 70t10.5 88v502h72v-500q0 -290 -307 -290zM252 1030h82l94 -208h-65z" />
    <glyph glyph-name="Uacute" unicode="&#xda;" horiz-adv-x="774" 
d="M387 -10q-307 0 -307 290v500h72v-502q0 -50 10.5 -88t35 -70t72.5 -48.5t117 -16.5t117 16.5t72.5 48.5t35 70t10.5 88v502h72v-500q0 -290 -307 -290zM451 1030h82l-111 -208h-65z" />
    <glyph glyph-name="Ucircumflex" unicode="&#xdb;" horiz-adv-x="774" 
d="M387 -10q-307 0 -307 290v500h72v-502q0 -50 10.5 -88t35 -70t72.5 -48.5t117 -16.5t117 16.5t72.5 48.5t35 70t10.5 88v502h72v-500q0 -290 -307 -290zM571 822h-67l-117 150l-117 -150h-67l150 208h68z" />
    <glyph glyph-name="Udieresis" unicode="&#xdc;" horiz-adv-x="774" 
d="M387 -10q-307 0 -307 290v500h72v-502q0 -50 10.5 -88t35 -70t72.5 -48.5t117 -16.5t117 16.5t72.5 48.5t35 70t10.5 88v502h72v-500q0 -290 -307 -290zM337 969v-86h-86v86h86zM523 969v-86h-86v86h86z" />
    <glyph glyph-name="Yacute" unicode="&#xdd;" horiz-adv-x="710" 
d="M20 780h81l162 -244l92 -141l92 141l162 244h81l-300 -445v-335h-70v335zM419 1030h82l-111 -208h-65z" />
    <glyph glyph-name="Thorn" unicode="&#xde;" horiz-adv-x="650" 
d="M160 780v-158h206q49 0 90 -10.5t77.5 -34t57.5 -68.5t21 -109t-21 -109t-57.5 -68.5t-77.5 -34t-90 -10.5h-206v-178h-70v780h70zM160 244h217q24 0 43 2.5t42 12t38.5 25.5t26 46t10.5 70t-10.5 70t-26 46t-38.5 25.5t-42 12t-43 2.5h-217v-312z" />
    <glyph glyph-name="germandbls" unicode="&#xdf;" horiz-adv-x="628" 
d="M328 810q94 0 152 -42t58 -124q0 -40 -11.5 -69.5t-36.5 -49t-40 -27.5t-46 -21q-43 -18 -60 -35.5t-17 -56.5q0 -15 6.5 -27t13 -19t24.5 -15t26 -10.5l32 -10.5q30 -9 43 -13.5t40 -18t40 -27.5t24.5 -39t11.5 -56q0 -76 -49.5 -117.5t-127.5 -41.5q-90 0 -128.5 41.5
t-49.5 112.5l68 8q7 -49 30.5 -75.5t78.5 -25.5q107 2 107 95q0 23 -8 39.5t-26.5 27.5t-34 17t-45.5 14q-23 7 -32 9.5t-35.5 15t-39.5 25t-25.5 36t-12.5 51.5q0 31 9.5 56t21.5 40t32.5 28t31.5 18t30 12q48 18 68 39.5t20 66.5q0 108 -143 108q-57 0 -93 -16t-52 -50.5
t-20.5 -67.5t-4.5 -89v-526h-66v532q0 146 52.5 212t183.5 66z" />
    <glyph glyph-name="agrave" unicode="&#xe0;" horiz-adv-x="570" 
d="M146 800h82l94 -208h-65zM52 142q0 76 50.5 111.5t151.5 50.5l182 27v25q0 66 -39 93.5t-115 29.5q-64 1 -95.5 -24.5t-43.5 -78.5l-69 10q16 75 63 114.5t145 39.5q104 0 161 -47.5t57 -140.5v-228l6 -124h-58l-12 91q-24 -45 -80 -73t-119 -28q-91 0 -138 39.5
t-47 112.5zM120 142q0 -91 117 -91q80 0 138.5 49t60.5 104v70l-183 -29q-66 -11 -99.5 -31.5t-33.5 -71.5z" />
    <glyph glyph-name="aacute" unicode="&#xe1;" horiz-adv-x="570" 
d="M346 800h82l-111 -208h-65zM52 142q0 76 50.5 111.5t151.5 50.5l182 27v25q0 66 -39 93.5t-115 29.5q-64 1 -95.5 -24.5t-43.5 -78.5l-69 10q16 75 63 114.5t145 39.5q104 0 161 -47.5t57 -140.5v-228l6 -124h-58l-12 91q-24 -45 -80 -73t-119 -28q-91 0 -138 39.5
t-47 112.5zM120 142q0 -91 117 -91q80 0 138.5 49t60.5 104v70l-183 -29q-66 -11 -99.5 -31.5t-33.5 -71.5z" />
    <glyph glyph-name="acircumflex" unicode="&#xe2;" horiz-adv-x="570" 
d="M466 592h-67l-117 150l-117 -150h-67l150 208h68zM52 142q0 76 50.5 111.5t151.5 50.5l182 27v25q0 66 -39 93.5t-115 29.5q-64 1 -95.5 -24.5t-43.5 -78.5l-69 10q16 75 63 114.5t145 39.5q104 0 161 -47.5t57 -140.5v-228l6 -124h-58l-12 91q-24 -45 -80 -73t-119 -28
q-91 0 -138 39.5t-47 112.5zM120 142q0 -91 117 -91q80 0 138.5 49t60.5 104v70l-183 -29q-66 -11 -99.5 -31.5t-33.5 -71.5z" />
    <glyph glyph-name="atilde" unicode="&#xe3;" horiz-adv-x="570" 
d="M353 630q-43 2 -83 38t-63 37q-27 2 -44 -11t-21 -27l-3 -14l-55 8q24 108 127 103q43 -2 83 -38t63 -37q27 -2 44 11t21 27l3 14l55 -8q-24 -108 -127 -103zM52 142q0 76 50.5 111.5t151.5 50.5l182 27v25q0 66 -39 93.5t-115 29.5q-64 1 -95.5 -24.5t-43.5 -78.5
l-69 10q16 75 63 114.5t145 39.5q104 0 161 -47.5t57 -140.5v-228l6 -124h-58l-12 91q-24 -45 -80 -73t-119 -28q-91 0 -138 39.5t-47 112.5zM120 142q0 -91 117 -91q80 0 138.5 49t60.5 104v70l-183 -29q-66 -11 -99.5 -31.5t-33.5 -71.5z" />
    <glyph glyph-name="adieresis" unicode="&#xe4;" horiz-adv-x="570" 
d="M232 739v-86h-86v86h86zM418 739v-86h-86v86h86zM52 142q0 76 50.5 111.5t151.5 50.5l182 27v25q0 66 -39 93.5t-115 29.5q-64 1 -95.5 -24.5t-43.5 -78.5l-69 10q16 75 63 114.5t145 39.5q104 0 161 -47.5t57 -140.5v-228l6 -124h-58l-12 91q-24 -45 -80 -73t-119 -28
q-91 0 -138 39.5t-47 112.5zM120 142q0 -91 117 -91q80 0 138.5 49t60.5 104v70l-183 -29q-66 -11 -99.5 -31.5t-33.5 -71.5z" />
    <glyph glyph-name="aring" unicode="&#xe5;" horiz-adv-x="570" 
d="M168 696q0 51 30.5 82.5t83.5 31.5t83.5 -31.5t30.5 -82.5t-30.5 -82.5t-83.5 -31.5t-83.5 31.5t-30.5 82.5zM226 696q0 -26 15 -42t41 -16t41 16t15 42t-15 42t-41 16t-41 -16t-15 -42zM52 142q0 76 50.5 111.5t151.5 50.5l182 27v25q0 66 -39 93.5t-115 29.5
q-64 1 -95.5 -24.5t-43.5 -78.5l-69 10q16 75 63 114.5t145 39.5q104 0 161 -47.5t57 -140.5v-228l6 -124h-58l-12 91q-24 -45 -80 -73t-119 -28q-91 0 -138 39.5t-47 112.5zM120 142q0 -91 117 -91q80 0 138.5 49t60.5 104v70l-183 -29q-66 -11 -99.5 -31.5t-33.5 -71.5z
" />
    <glyph glyph-name="ae" unicode="&#xe6;" horiz-adv-x="954" 
d="M675 540q224 0 224 -274v-27h-395q4 -97 49.5 -142.5t122.5 -45.5q124 -3 149 102l71 -9q-13 -68 -67.5 -111t-153.5 -43q-154 0 -212 126q-37 -68 -98 -97t-128 -29q-91 0 -138 39.5t-47 112.5q0 78 57.5 117t154.5 39h170v58q0 66 -38 93.5t-114 29.5
q-64 1 -95.5 -24.5t-43.5 -78.5l-69 10q16 75 63 114.5t145 39.5q148 0 197 -97q65 97 196 97zM675 480q-76 0 -121 -44.5t-50 -137.5h323q-3 185 -152 182zM122 142q0 -90 115 -90q80 0 137.5 48.5t59.5 103.5v35l-171 1q-141 0 -141 -98z" />
    <glyph glyph-name="ccedilla" unicode="&#xe7;" horiz-adv-x="550" 
d="M119 265q0 -101 44 -156.5t123 -57.5q122 -3 146 102l71 -9q-30 -145 -194 -153l-7 -25q87 -21 87 -93q0 -42 -30 -62.5t-79 -20.5t-79 17l15 44q27 -12 56 -13q59 -1 59 34q0 44 -90 53l22 66q-101 8 -157 79.5t-56 194.5q0 130 62.5 202.5t174.5 72.5q184 0 216 -154
l-71 -9q-24 105 -146 102q-79 -2 -123 -57.5t-44 -156.5z" />
    <glyph glyph-name="egrave" unicode="&#xe8;" horiz-adv-x="570" 
d="M291 540q224 0 224 -274v-27h-395q4 -97 49.5 -142.5t122.5 -45.5q124 -3 149 102l71 -9q-13 -68 -67.5 -111t-153.5 -43q-113 0 -177 70t-64 205t64 205t177 70zM291 480q-76 0 -121 -44.5t-50 -137.5h323q-3 185 -152 182zM155 800h82l94 -208h-65z" />
    <glyph glyph-name="eacute" unicode="&#xe9;" horiz-adv-x="570" 
d="M291 540q224 0 224 -274v-27h-395q4 -97 49.5 -142.5t122.5 -45.5q124 -3 149 102l71 -9q-13 -68 -67.5 -111t-153.5 -43q-113 0 -177 70t-64 205t64 205t177 70zM291 480q-76 0 -121 -44.5t-50 -137.5h323q-3 185 -152 182zM355 800h82l-111 -208h-65z" />
    <glyph glyph-name="ecircumflex" unicode="&#xea;" horiz-adv-x="570" 
d="M291 540q224 0 224 -274v-27h-395q4 -97 49.5 -142.5t122.5 -45.5q124 -3 149 102l71 -9q-13 -68 -67.5 -111t-153.5 -43q-113 0 -177 70t-64 205t64 205t177 70zM291 480q-76 0 -121 -44.5t-50 -137.5h323q-3 185 -152 182zM475 592h-67l-117 150l-117 -150h-67l150 208
h68z" />
    <glyph glyph-name="edieresis" unicode="&#xeb;" horiz-adv-x="570" 
d="M291 540q224 0 224 -274v-27h-395q4 -97 49.5 -142.5t122.5 -45.5q124 -3 149 102l71 -9q-13 -68 -67.5 -111t-153.5 -43q-113 0 -177 70t-64 205t64 205t177 70zM291 480q-76 0 -121 -44.5t-50 -137.5h323q-3 185 -152 182zM241 739v-86h-86v86h86zM427 739v-86h-86v86
h86z" />
    <glyph glyph-name="igrave" unicode="&#xec;" horiz-adv-x="250" 
d="M92 0v530h66v-530h-66zM-19 800h82l94 -208h-65z" />
    <glyph glyph-name="iacute" unicode="&#xed;" horiz-adv-x="250" 
d="M92 0v530h66v-530h-66zM187 800h82l-111 -208h-65z" />
    <glyph glyph-name="icircumflex" unicode="&#xee;" horiz-adv-x="250" 
d="M92 0v530h66v-530h-66zM309 592h-67l-117 150l-117 -150h-67l150 208h68z" />
    <glyph glyph-name="idieresis" unicode="&#xef;" horiz-adv-x="250" 
d="M92 0v530h66v-530h-66zM75 739v-86h-86v86h86zM261 739v-86h-86v86h86z" />
    <glyph glyph-name="eth" unicode="&#xf0;" horiz-adv-x="578" 
d="M469 726l-83 -32q142 -150 142 -429q0 -135 -63 -205t-176 -70t-176 70t-63 205t63 205t176 70q84 0 146 -52q-39 112 -110 183l-156 -60v54l112 43q-67 50 -172 92h126q61 -28 110 -68l124 48v-54zM289 478q-170 0 -170 -213t170 -213t170 213t-170 213z" />
    <glyph glyph-name="ntilde" unicode="&#xf1;" horiz-adv-x="574" 
d="M373 630q-43 2 -83 38t-63 37q-27 2 -44 -11t-21 -27l-3 -14l-55 8q24 108 127 103q43 -2 83 -38t63 -37q27 -2 44 11t21 27l3 14l55 -8q-24 -108 -127 -103zM124 530l12 -90q27 45 75 72.5t106 27.5q85 0 140.5 -45.5t55.5 -124.5v-370h-66v355q0 58 -38 90t-102 32
q-70 0 -119.5 -48t-51.5 -103v-326h-66v407l-6 123h60z" />
    <glyph glyph-name="ograve" unicode="&#xf2;" horiz-adv-x="578" 
d="M289 -10q-113 0 -176 70t-63 205t63 205t176 70t176 -70t63 -205t-63 -205t-176 -70zM289 478q-170 0 -170 -213t170 -213t170 213t-170 213zM154 800h82l94 -208h-65z" />
    <glyph glyph-name="oacute" unicode="&#xf3;" horiz-adv-x="578" 
d="M289 -10q-113 0 -176 70t-63 205t63 205t176 70t176 -70t63 -205t-63 -205t-176 -70zM289 478q-170 0 -170 -213t170 -213t170 213t-170 213zM353 800h82l-111 -208h-65z" />
    <glyph glyph-name="ocircumflex" unicode="&#xf4;" horiz-adv-x="578" 
d="M289 -10q-113 0 -176 70t-63 205t63 205t176 70t176 -70t63 -205t-63 -205t-176 -70zM289 478q-170 0 -170 -213t170 -213t170 213t-170 213zM473 592h-67l-117 150l-117 -150h-67l150 208h68z" />
    <glyph glyph-name="otilde" unicode="&#xf5;" horiz-adv-x="578" 
d="M289 -10q-113 0 -176 70t-63 205t63 205t176 70t176 -70t63 -205t-63 -205t-176 -70zM289 478q-170 0 -170 -213t170 -213t170 213t-170 213zM360 630q-43 2 -83 38t-63 37q-27 2 -44 -11t-20 -27l-4 -14l-55 8q24 108 127 103q43 -2 83 -38t63 -37q27 -2 44 11t20 27
l4 14l55 -8q-24 -108 -127 -103z" />
    <glyph glyph-name="odieresis" unicode="&#xf6;" horiz-adv-x="578" 
d="M289 -10q-113 0 -176 70t-63 205t63 205t176 70t176 -70t63 -205t-63 -205t-176 -70zM289 478q-170 0 -170 -213t170 -213t170 213t-170 213zM239 739v-86h-86v86h86zM425 739v-86h-86v86h86z" />
    <glyph glyph-name="divide" unicode="&#xf7;" horiz-adv-x="700" 
d="M620 358h-540v64h540v-64zM393 220v-86h-86v86h86zM393 646v-86h-86v86h86z" />
    <glyph glyph-name="oslash" unicode="&#xf8;" horiz-adv-x="578" 
d="M289 -10q-73 0 -127 30l-13 -20h-68l36 55q-67 72 -67 210q0 135 63 205t176 70q75 0 127 -31l14 21h68l-37 -56q67 -72 67 -209q0 -135 -63 -205t-176 -70zM289 478q-170 0 -170 -213q0 -99 37 -151l225 341q-37 23 -92 23zM459 265q0 98 -37 150l-224 -341
q37 -22 91 -22q170 0 170 213z" />
    <glyph glyph-name="ugrave" unicode="&#xf9;" horiz-adv-x="574" 
d="M146 800h82l94 -208h-65zM450 0l-12 90q-27 -45 -75 -72.5t-106 -27.5q-85 0 -140.5 45.5t-55.5 124.5v370h66v-355q0 -58 38 -90t102 -32q70 0 119.5 48t51.5 103v326h66v-407l6 -123h-60z" />
    <glyph glyph-name="uacute" unicode="&#xfa;" horiz-adv-x="574" 
d="M346 800h82l-111 -208h-65zM450 0l-12 90q-27 -45 -75 -72.5t-106 -27.5q-85 0 -140.5 45.5t-55.5 124.5v370h66v-355q0 -58 38 -90t102 -32q70 0 119.5 48t51.5 103v326h66v-407l6 -123h-60z" />
    <glyph glyph-name="ucircumflex" unicode="&#xfb;" horiz-adv-x="574" 
d="M466 592h-67l-117 150l-117 -150h-67l150 208h68zM450 0l-12 90q-27 -45 -75 -72.5t-106 -27.5q-85 0 -140.5 45.5t-55.5 124.5v370h66v-355q0 -58 38 -90t102 -32q70 0 119.5 48t51.5 103v326h66v-407l6 -123h-60z" />
    <glyph glyph-name="udieresis" unicode="&#xfc;" horiz-adv-x="574" 
d="M232 739v-86h-86v86h86zM418 739v-86h-86v86h86zM450 0l-12 90q-27 -45 -75 -72.5t-106 -27.5q-85 0 -140.5 45.5t-55.5 124.5v370h66v-355q0 -58 38 -90t102 -32q70 0 119.5 48t51.5 103v326h66v-407l6 -123h-60z" />
    <glyph glyph-name="yacute" unicode="&#xfd;" horiz-adv-x="540" 
d="M522 530l-209 -494l-96 -236h-77l93 220l-215 510h78l115 -291l59 -152l59 152l116 291h77zM334 800h82l-111 -208h-65z" />
    <glyph glyph-name="thorn" unicode="&#xfe;" horiz-adv-x="599" 
d="M136 326v-122q2 -56 51 -103.5t125 -47.5q79 0 123 55.5t44 156.5t-44 156.5t-123 55.5q-76 0 -125 -47.5t-51 -103.5zM70 -200v1000h66v-360q27 45 74 72.5t104 27.5q111 0 173 -72.5t62 -202.5t-62 -202.5t-173 -72.5q-57 0 -104 27.5t-74 72.5v-290h-66z" />
    <glyph glyph-name="ydieresis" unicode="&#xff;" horiz-adv-x="540" 
d="M522 530l-209 -494l-96 -236h-77l93 220l-215 510h78l115 -291l59 -152l59 152l116 291h77zM220 739v-86h-86v86h86zM406 739v-86h-86v86h86z" />
    <glyph glyph-name="Amacron" unicode="&#x100;" horiz-adv-x="720" 
d="M21 0l301 790h76l301 -790h-77l-92 247h-340l-92 -247h-77zM360 712l-71 -198l-75 -201h291l-74 201zM224 894v64h272v-64h-272z" />
    <glyph glyph-name="amacron" unicode="&#x101;" horiz-adv-x="570" 
d="M146 664v64h272v-64h-272zM52 142q0 76 50.5 111.5t151.5 50.5l182 27v25q0 66 -39 93.5t-115 29.5q-64 1 -95.5 -24.5t-43.5 -78.5l-69 10q16 75 63 114.5t145 39.5q104 0 161 -47.5t57 -140.5v-228l6 -124h-58l-12 91q-24 -45 -80 -73t-119 -28q-91 0 -138 39.5
t-47 112.5zM120 142q0 -91 117 -91q80 0 138.5 49t60.5 104v70l-183 -29q-66 -11 -99.5 -31.5t-33.5 -71.5z" />
    <glyph glyph-name="Abreve" unicode="&#x102;" horiz-adv-x="720" 
d="M21 0l301 790h76l301 -790h-77l-92 247h-340l-92 -247h-77zM360 712l-71 -198l-75 -201h291l-74 201zM482 1030h56q0 -100 -40 -149t-138 -49t-138 49t-40 149h56q0 -78 28.5 -110t93.5 -32t93.5 32t28.5 110z" />
    <glyph glyph-name="abreve" unicode="&#x103;" horiz-adv-x="570" 
d="M404 800h56q0 -100 -40 -149t-138 -49t-138 49t-40 149h56q0 -78 28.5 -110t93.5 -32t93.5 32t28.5 110zM52 142q0 76 50.5 111.5t151.5 50.5l182 27v25q0 66 -39 93.5t-115 29.5q-64 1 -95.5 -24.5t-43.5 -78.5l-69 10q16 75 63 114.5t145 39.5q104 0 161 -47.5
t57 -140.5v-228l6 -124h-58l-12 91q-24 -45 -80 -73t-119 -28q-91 0 -138 39.5t-47 112.5zM120 142q0 -91 117 -91q80 0 138.5 49t60.5 104v70l-183 -29q-66 -11 -99.5 -31.5t-33.5 -71.5z" />
    <glyph glyph-name="Aogonek" unicode="&#x104;" horiz-adv-x="720" 
d="M21 0l301 790h76l301 -790q-54 -8 -94 -39.5t-40 -69.5q0 -46 56 -46q16 0 34 5.5t28 10.5l10 5l17 -51q-40 -25 -100 -25q-45 0 -77.5 23t-32.5 70q0 39 30.5 75t83.5 62l-84 227h-340l-92 -247h-77zM360 712l-71 -198l-75 -201h291l-74 201z" />
    <glyph glyph-name="aogonek" unicode="&#x105;" horiz-adv-x="570" 
d="M500 124l6 -124q-48 -16 -73 -46t-25 -63q0 -19 12.5 -32.5t38.5 -13.5q16 0 34 5.5t28 10.5l10 5l17 -51q-40 -25 -100 -25q-42 0 -73.5 24.5t-31.5 65.5q0 96 102 145l-11 82q-29 -57 -81 -87t-116 -30q-91 0 -138 39.5t-47 112.5q0 76 50.5 111.5t151.5 50.5l182 27
v25q0 66 -39 93.5t-115 29.5q-64 1 -95.5 -24.5t-43.5 -78.5l-69 10q16 75 63 114.5t145 39.5q104 0 161 -47.5t57 -140.5v-228zM120 142q0 -91 117 -91q80 0 136 53t63 118v52l-183 -29q-66 -11 -99.5 -31.5t-33.5 -71.5z" />
    <glyph glyph-name="Cacute" unicode="&#x106;" horiz-adv-x="750" 
d="M139 390q0 -335 256 -335q101 0 153 35t67 110l72 -6q-40 -204 -292 -204q-167 0 -248.5 105t-81.5 295t81.5 295t248.5 105q252 0 292 -204l-72 -6q-15 75 -67 110t-153 35q-256 0 -256 -335zM449 1030h82l-111 -208h-65z" />
    <glyph glyph-name="cacute" unicode="&#x107;" horiz-adv-x="550" 
d="M119 265q0 -101 44 -156.5t123 -57.5q122 -3 146 102l71 -9q-32 -154 -216 -154q-112 0 -174.5 72.5t-62.5 202.5t62.5 202.5t174.5 72.5q184 0 216 -154l-71 -9q-24 105 -146 102q-79 -2 -123 -57.5t-44 -156.5zM351 800h82l-111 -208h-65z" />
    <glyph glyph-name="Ccircumflex" unicode="&#x108;" horiz-adv-x="750" 
d="M139 390q0 -335 256 -335q101 0 153 35t67 110l72 -6q-40 -204 -292 -204q-167 0 -248.5 105t-81.5 295t81.5 295t248.5 105q252 0 292 -204l-72 -6q-15 75 -67 110t-153 35q-256 0 -256 -335zM569 822h-67l-117 150l-117 -150h-67l150 208h68z" />
    <glyph glyph-name="ccircumflex" unicode="&#x109;" horiz-adv-x="550" 
d="M119 265q0 -101 44 -156.5t123 -57.5q122 -3 146 102l71 -9q-32 -154 -216 -154q-112 0 -174.5 72.5t-62.5 202.5t62.5 202.5t174.5 72.5q184 0 216 -154l-71 -9q-24 105 -146 102q-79 -2 -123 -57.5t-44 -156.5zM471 592h-67l-117 150l-117 -150h-67l150 208h68z" />
    <glyph glyph-name="Cdotaccent" unicode="&#x10a;" horiz-adv-x="750" 
d="M139 390q0 -335 256 -335q101 0 153 35t67 110l72 -6q-40 -204 -292 -204q-167 0 -248.5 105t-81.5 295t81.5 295t248.5 105q252 0 292 -204l-72 -6q-15 75 -67 110t-153 35q-256 0 -256 -335zM428 969v-86h-86v86h86z" />
    <glyph glyph-name="cdotaccent" unicode="&#x10b;" horiz-adv-x="550" 
d="M119 265q0 -101 44 -156.5t123 -57.5q122 -3 146 102l71 -9q-32 -154 -216 -154q-112 0 -174.5 72.5t-62.5 202.5t62.5 202.5t174.5 72.5q184 0 216 -154l-71 -9q-24 105 -146 102q-79 -2 -123 -57.5t-44 -156.5zM330 739v-86h-86v86h86z" />
    <glyph glyph-name="Ccaron" unicode="&#x10c;" horiz-adv-x="750" 
d="M139 390q0 -335 256 -335q101 0 153 35t67 110l72 -6q-40 -204 -292 -204q-167 0 -248.5 105t-81.5 295t81.5 295t248.5 105q252 0 292 -204l-72 -6q-15 75 -67 110t-153 35q-256 0 -256 -335zM501 1030h67l-150 -208h-68l-150 208h67l117 -150z" />
    <glyph glyph-name="ccaron" unicode="&#x10d;" horiz-adv-x="550" 
d="M119 265q0 -101 44 -156.5t123 -57.5q122 -3 146 102l71 -9q-32 -154 -216 -154q-112 0 -174.5 72.5t-62.5 202.5t62.5 202.5t174.5 72.5q184 0 216 -154l-71 -9q-24 105 -146 102q-79 -2 -123 -57.5t-44 -156.5zM403 800h67l-150 -208h-68l-150 208h67l117 -150z" />
    <glyph glyph-name="Dcaron" unicode="&#x10e;" horiz-adv-x="765" 
d="M348 0h-258v780h258q175 0 263.5 -95.5t88.5 -294.5t-88.5 -294.5t-263.5 -95.5zM160 66h188q278 0 278 324t-278 324h-188v-648zM455 1030h67l-150 -208h-68l-150 208h67l117 -150z" />
    <glyph glyph-name="dcaron" unicode="&#x10f;" horiz-adv-x="599" 
d="M633 800h79l-75 -208h-61zM463 440v360h66v-676l6 -124h-60l-12 91q-27 -46 -74 -73.5t-104 -27.5q-111 0 -173 72.5t-62 202.5t62 202.5t173 72.5q57 0 104 -27.5t74 -72.5zM120 265q0 -102 44 -157t123 -55q76 0 125 47.5t51 103.5v122q-2 56 -51 103.5t-125 47.5
q-79 0 -123 -55.5t-44 -156.5z" />
    <glyph glyph-name="Dcroat" unicode="&#x110;" horiz-adv-x="820" 
d="M403 0h-258v367h-120v66h120v347h258q175 0 263.5 -95.5t88.5 -294.5t-88.5 -294.5t-263.5 -95.5zM215 66h188q278 0 278 324t-278 324h-188v-281h238v-66h-238v-301z" />
    <glyph glyph-name="dcroat" unicode="&#x111;" horiz-adv-x="629" 
d="M640 627h-111v-503l6 -124h-60l-12 91q-27 -46 -74 -73.5t-104 -27.5q-111 0 -173 72.5t-62 202.5t62 202.5t173 72.5q57 0 104 -27.5t74 -72.5v187h-141v62h141v111h66v-111h111v-62zM120 265q0 -102 44 -157t123 -55q76 0 125 47.5t51 103.5v122q-2 56 -51 103.5
t-125 47.5q-79 0 -123 -55.5t-44 -156.5z" />
    <glyph glyph-name="Emacron" unicode="&#x112;" horiz-adv-x="695" 
d="M90 780h520v-66h-450v-281h410v-66h-410v-301h470v-66h-540v780zM214 894v64h272v-64h-272z" />
    <glyph glyph-name="emacron" unicode="&#x113;" horiz-adv-x="570" 
d="M291 540q224 0 224 -274v-27h-395q4 -97 49.5 -142.5t122.5 -45.5q124 -3 149 102l71 -9q-13 -68 -67.5 -111t-153.5 -43q-113 0 -177 70t-64 205t64 205t177 70zM291 480q-76 0 -121 -44.5t-50 -137.5h323q-3 185 -152 182zM155 664v64h272v-64h-272z" />
    <glyph glyph-name="Ebreve" unicode="&#x114;" horiz-adv-x="695" 
d="M90 780h520v-66h-450v-281h410v-66h-410v-301h470v-66h-540v780zM472 1030h56q0 -100 -40 -149t-138 -49t-138 49t-40 149h56q0 -78 28.5 -110t93.5 -32t93.5 32t28.5 110z" />
    <glyph glyph-name="ebreve" unicode="&#x115;" horiz-adv-x="570" 
d="M291 540q224 0 224 -274v-27h-395q4 -97 49.5 -142.5t122.5 -45.5q124 -3 149 102l71 -9q-13 -68 -67.5 -111t-153.5 -43q-113 0 -177 70t-64 205t64 205t177 70zM291 480q-76 0 -121 -44.5t-50 -137.5h323q-3 185 -152 182zM413 800h56q0 -100 -40 -149t-138 -49
t-138 49t-40 149h56q0 -78 28.5 -110t93.5 -32t93.5 32t28.5 110z" />
    <glyph glyph-name="Edotaccent" unicode="&#x116;" horiz-adv-x="695" 
d="M90 780h520v-66h-450v-281h410v-66h-410v-301h470v-66h-540v780zM393 969v-86h-86v86h86z" />
    <glyph glyph-name="edotaccent" unicode="&#x117;" horiz-adv-x="570" 
d="M291 540q224 0 224 -274v-27h-395q4 -97 49.5 -142.5t122.5 -45.5q124 -3 149 102l71 -9q-13 -68 -67.5 -111t-153.5 -43q-113 0 -177 70t-64 205t64 205t177 70zM291 480q-76 0 -121 -44.5t-50 -137.5h323q-3 185 -152 182zM334 739v-86h-86v86h86z" />
    <glyph glyph-name="Eogonek" unicode="&#x118;" horiz-adv-x="695" 
d="M90 780h520v-66h-450v-281h410v-66h-410v-301h470v-66q-54 -8 -94 -39.5t-40 -69.5q0 -46 56 -46q16 0 34 5.5t28 10.5l10 5l17 -51q-40 -25 -100 -25q-45 0 -77.5 23t-32.5 70q0 66 78 117h-419v780z" />
    <glyph glyph-name="eogonek" unicode="&#x119;" horiz-adv-x="570" 
d="M291 540q224 0 224 -274v-27h-395q4 -97 49.5 -142.5t122.5 -45.5q124 -3 149 102l71 -9q-11 -54 -50 -95q-16 -17 -55.5 -48t-59.5 -56t-20 -54q0 -46 56 -46q16 0 34 5.5t28 10.5l10 5l17 -51q-40 -25 -100 -25q-45 0 -77.5 23t-32.5 70q0 58 67 109q-24 -2 -38 -2
q-113 0 -177 70t-64 205t64 205t177 70zM291 480q-76 0 -121 -44.5t-50 -137.5h323q-3 185 -152 182z" />
    <glyph glyph-name="Ecaron" unicode="&#x11a;" horiz-adv-x="695" 
d="M90 780h520v-66h-450v-281h410v-66h-410v-301h470v-66h-540v780zM467 1030h67l-150 -208h-68l-150 208h67l117 -150z" />
    <glyph glyph-name="ecaron" unicode="&#x11b;" horiz-adv-x="570" 
d="M291 540q224 0 224 -274v-27h-395q4 -97 49.5 -142.5t122.5 -45.5q124 -3 149 102l71 -9q-13 -68 -67.5 -111t-153.5 -43q-113 0 -177 70t-64 205t64 205t177 70zM291 480q-76 0 -121 -44.5t-50 -137.5h323q-3 185 -152 182zM408 800h67l-150 -208h-68l-150 208h67
l117 -150z" />
    <glyph glyph-name="Gcircumflex" unicode="&#x11c;" horiz-adv-x="774" 
d="M395 55q140 0 224 59v223h-170v66h240v-333q-73 -46 -139.5 -63.5t-154.5 -16.5q-168 1 -249 106t-81 294q0 190 81.5 295t248.5 105q252 0 292 -204l-72 -6q-15 75 -67 110t-153 35q-256 0 -256 -335t256 -335zM569 822h-67l-117 150l-117 -150h-67l150 208h68z" />
    <glyph glyph-name="gcircumflex" unicode="&#x11d;" horiz-adv-x="599" 
d="M469 592h-67l-117 150l-117 -150h-67l150 208h68zM285 -153q80 2 129.5 33.5t49.5 96.5v133q-27 -45 -74.5 -72.5t-104.5 -27.5q-112 0 -173.5 68t-61.5 197t61.5 197t173.5 68q57 0 104 -27.5t74 -73.5l12 91h60l-6 -124v-422q0 -93 -64.5 -143.5t-179.5 -50.5
q-201 0 -225 154l70 9q19 -109 155 -106zM118 275q0 -100 44.5 -151.5t124.5 -51.5q76 0 125.5 48t51.5 104v102q-2 56 -51.5 104t-125.5 48q-80 0 -124.5 -51t-44.5 -152z" />
    <glyph glyph-name="Gbreve" unicode="&#x11e;" horiz-adv-x="774" 
d="M395 55q140 0 224 59v223h-170v66h240v-333q-73 -46 -139.5 -63.5t-154.5 -16.5q-168 1 -249 106t-81 294q0 190 81.5 295t248.5 105q252 0 292 -204l-72 -6q-15 75 -67 110t-153 35q-256 0 -256 -335t256 -335zM507 1030h56q0 -100 -40 -149t-138 -49t-138 49t-40 149
h56q0 -78 28.5 -110t93.5 -32t93.5 32t28.5 110z" />
    <glyph glyph-name="gbreve" unicode="&#x11f;" horiz-adv-x="599" 
d="M407 800h56q0 -100 -40 -149t-138 -49t-138 49t-40 149h56q0 -78 28.5 -110t93.5 -32t93.5 32t28.5 110zM285 -153q80 2 129.5 33.5t49.5 96.5v133q-27 -45 -74.5 -72.5t-104.5 -27.5q-112 0 -173.5 68t-61.5 197t61.5 197t173.5 68q57 0 104 -27.5t74 -73.5l12 91h60
l-6 -124v-422q0 -93 -64.5 -143.5t-179.5 -50.5q-201 0 -225 154l70 9q19 -109 155 -106zM118 275q0 -100 44.5 -151.5t124.5 -51.5q76 0 125.5 48t51.5 104v102q-2 56 -51.5 104t-125.5 48q-80 0 -124.5 -51t-44.5 -152z" />
    <glyph glyph-name="Gdotaccent" unicode="&#x120;" horiz-adv-x="774" 
d="M395 55q140 0 224 59v223h-170v66h240v-333q-73 -46 -139.5 -63.5t-154.5 -16.5q-168 1 -249 106t-81 294q0 190 81.5 295t248.5 105q252 0 292 -204l-72 -6q-15 75 -67 110t-153 35q-256 0 -256 -335t256 -335zM428 969v-86h-86v86h86z" />
    <glyph glyph-name="gdotaccent" unicode="&#x121;" horiz-adv-x="599" 
d="M328 739v-86h-86v86h86zM285 -153q80 2 129.5 33.5t49.5 96.5v133q-27 -45 -74.5 -72.5t-104.5 -27.5q-112 0 -173.5 68t-61.5 197t61.5 197t173.5 68q57 0 104 -27.5t74 -73.5l12 91h60l-6 -124v-422q0 -93 -64.5 -143.5t-179.5 -50.5q-201 0 -225 154l70 9
q19 -109 155 -106zM118 275q0 -100 44.5 -151.5t124.5 -51.5q76 0 125.5 48t51.5 104v102q-2 56 -51.5 104t-125.5 48q-80 0 -124.5 -51t-44.5 -152z" />
    <glyph glyph-name="Gcommaaccent" unicode="&#x122;" horiz-adv-x="774" 
d="M395 55q140 0 224 59v223h-170v66h240v-333q-73 -46 -139.5 -63.5t-154.5 -16.5q-168 1 -249 106t-81 294q0 190 81.5 295t248.5 105q252 0 292 -204l-72 -6q-15 75 -67 110t-153 35q-256 0 -256 -335t256 -335zM355 -62h79l-50 -138h-67z" />
    <glyph glyph-name="gcommaaccent" unicode="&#x123;" horiz-adv-x="599" 
d="M316 592h-79l75 208h61zM285 -153q80 2 129.5 33.5t49.5 96.5v133q-27 -45 -74.5 -72.5t-104.5 -27.5q-112 0 -173.5 68t-61.5 197t61.5 197t173.5 68q57 0 104 -27.5t74 -73.5l12 91h60l-6 -124v-422q0 -93 -64.5 -143.5t-179.5 -50.5q-201 0 -225 154l70 9
q19 -109 155 -106zM118 275q0 -100 44.5 -151.5t124.5 -51.5q76 0 125.5 48t51.5 104v102q-2 56 -51.5 104t-125.5 48q-80 0 -124.5 -51t-44.5 -152z" />
    <glyph glyph-name="Hcircumflex" unicode="&#x124;" horiz-adv-x="750" 
d="M590 780h70v-780h-70v367h-430v-367h-70v780h70v-347h430v347zM559 822h-67l-117 150l-117 -150h-67l150 208h68z" />
    <glyph glyph-name="hcircumflex" unicode="&#x125;" horiz-adv-x="574" 
d="M289 822h-67l-117 150l-117 -150h-67l150 208h68zM70 0v800h66v-360q27 45 75 72.5t106 27.5q85 0 140.5 -45.5t55.5 -124.5v-370h-66v355q0 58 -38 90t-102 32q-70 0 -119.5 -48t-51.5 -103v-326h-66z" />
    <glyph glyph-name="Hbar" unicode="&#x126;" horiz-adv-x="750" 
d="M590 780h70v-780h-70v367h-430v-367h-70v780h70v-153h430v153zM160 433h430v130h-430v-130z" />
    <glyph glyph-name="hbar" unicode="&#x127;" horiz-adv-x="604" 
d="M307 627h-141v-187q27 45 75 72.5t106 27.5q85 0 140.5 -45.5t55.5 -124.5v-370h-66v355q0 58 -38 90t-102 32q-70 0 -119.5 -48t-51.5 -103v-326h-66v627h-111v62h111v111h66v-111h141v-62z" />
    <glyph glyph-name="Itilde" unicode="&#x128;" horiz-adv-x="290" 
d="M180 780v-780h-70v780h70zM216 860q-43 2 -83 38t-63 37q-27 2 -44 -11t-20 -27l-4 -14l-55 8q24 108 127 103q43 -2 83 -38t63 -37q27 -2 44 11t20 27l4 14l55 -8q-24 -108 -127 -103z" />
    <glyph glyph-name="itilde" unicode="&#x129;" horiz-adv-x="250" 
d="M92 0v530h66v-530h-66zM196 630q-43 2 -83 38t-63 37q-27 2 -44 -11t-20 -27l-4 -14l-55 8q24 108 127 103q43 -2 83 -38t63 -37q27 -2 44 11t20 27l4 14l55 -8q-24 -108 -127 -103z" />
    <glyph glyph-name="Imacron" unicode="&#x12a;" horiz-adv-x="290" 
d="M180 780v-780h-70v780h70zM9 894v64h272v-64h-272z" />
    <glyph glyph-name="imacron" unicode="&#x12b;" horiz-adv-x="250" 
d="M92 0v530h66v-530h-66zM-11 664v64h272v-64h-272z" />
    <glyph glyph-name="Ibreve" unicode="&#x12c;" horiz-adv-x="290" 
d="M180 780v-780h-70v780h70zM267 1030h56q0 -100 -40 -149t-138 -49t-138 49t-40 149h56q0 -78 28.5 -110t93.5 -32t93.5 32t28.5 110z" />
    <glyph glyph-name="ibreve" unicode="&#x12d;" horiz-adv-x="250" 
d="M92 0v530h66v-530h-66zM247 800h56q0 -100 -40 -149t-138 -49t-138 49t-40 149h56q0 -78 28.5 -110t93.5 -32t93.5 32t28.5 110z" />
    <glyph glyph-name="Iogonek" unicode="&#x12e;" horiz-adv-x="290" 
d="M180 780v-780q-39 -28 -61 -53.5t-22 -55.5q0 -46 56 -46q16 0 34 5.5t28 10.5l10 5l17 -51q-40 -25 -100 -25q-45 0 -77.5 23t-32.5 70q0 37 19.5 62.5t58.5 54.5v780h70z" />
    <glyph glyph-name="iogonek" unicode="&#x12f;" horiz-adv-x="250" 
d="M158 0q-39 -28 -61 -53.5t-22 -55.5q0 -46 56 -46q16 0 34 5.5t28 10.5l10 5l17 -51q-40 -25 -100 -25q-45 0 -77.5 23t-32.5 70q0 37 20 63t62 57v527h66v-530zM168 739v-86h-86v86h86z" />
    <glyph glyph-name="Idotaccent" unicode="&#x130;" horiz-adv-x="290" 
d="M180 780v-780h-70v780h70zM188 969v-86h-86v86h86z" />
    <glyph glyph-name="dotlessi" unicode="&#x131;" horiz-adv-x="250" 
d="M92 0v530h66v-530h-66z" />
    <glyph glyph-name="IJ" unicode="&#x132;" horiz-adv-x="630" 
d="M180 780v-780h-70v780h70zM349 56q62 0 93.5 30.5t31.5 111.5v582h70v-582q0 -208 -195 -208q-35 0 -57 8l9 67q21 -9 48 -9z" />
    <glyph glyph-name="ij" unicode="&#x133;" horiz-adv-x="480" 
d="M168 739v-86h-86v86h86zM92 0v530h66v-530h-66zM213 -147q63 0 88.5 28.5t25.5 116.5v532h66v-532q0 -46 -6.5 -79.5t-24.5 -65t-55.5 -47.5t-93.5 -16q-35 0 -57 8l8 64q21 -9 49 -9zM403 739v-86h-86v86h86z" />
    <glyph glyph-name="Jcircumflex" unicode="&#x134;" horiz-adv-x="507" 
d="M569 822h-67l-117 150l-117 -150h-67l150 208h68zM351 780h71v-570q0 -99 -53.5 -159.5t-150.5 -60.5q-185 0 -200 165l71 9q8 -113 129 -109q133 4 133 144v581z" />
    <glyph glyph-name="jcircumflex" unicode="&#x135;" horiz-adv-x="250" 
d="M-17 -147q63 0 88.5 28.5t25.5 116.5v532h66v-532q0 -46 -6.5 -79.5t-24.5 -65t-55.5 -47.5t-93.5 -16q-35 0 -57 8l8 64q21 -9 49 -9zM314 592h-67l-117 150l-117 -150h-67l150 208h68z" />
    <glyph glyph-name="Kcommaaccent" unicode="&#x136;" horiz-adv-x="695" 
d="M160 780v-423l391 423h97l-328 -350l353 -430h-94l-309 376l-110 -118v-258h-70v780h70zM330 -62h79l-50 -138h-67z" />
    <glyph glyph-name="kcommaaccent" unicode="&#x137;" horiz-adv-x="535" 
d="M136 0h-66v800h66v-536l101 103l163 163h95l-231 -225l268 -305h-91l-222 261l-83 -81v-180zM244 -62h79l-50 -138h-67z" />
    <glyph glyph-name="kgreenlandic" unicode="&#x138;" horiz-adv-x="535" 
d="M136 0h-66v530h66v-264l264 264h95l-231 -225l268 -305h-91l-222 261l-83 -81v-180z" />
    <glyph glyph-name="Lacute" unicode="&#x139;" horiz-adv-x="585" 
d="M160 780v-714h410v-66h-480v780h70zM189 1030h82l-111 -208h-65z" />
    <glyph glyph-name="lacute" unicode="&#x13a;" horiz-adv-x="250" 
d="M92 0v800h66v-800h-66zM187 1030h82l-111 -208h-65z" />
    <glyph glyph-name="Lcommaaccent" unicode="&#x13b;" horiz-adv-x="585" 
d="M160 780v-714h410v-66h-480v780h70zM297 -62h79l-50 -138h-67z" />
    <glyph glyph-name="lcommaaccent" unicode="&#x13c;" horiz-adv-x="250" 
d="M92 0v800h66v-800h-66zM84 -62h79l-50 -138h-67z" />
    <glyph glyph-name="Lcaron" unicode="&#x13d;" horiz-adv-x="585" 
d="M160 780v-714h410v-66h-480v780h70zM393 800h79l-75 -208h-61z" />
    <glyph glyph-name="lcaron" unicode="&#x13e;" horiz-adv-x="250" 
d="M92 0v800h66v-800h-66zM262 800h79l-75 -208h-61z" />
    <glyph glyph-name="Ldot" unicode="&#x13f;" horiz-adv-x="585" 
d="M160 780v-714h410v-66h-480v780h70zM461 443v-86h-86v86h86z" />
    <glyph glyph-name="ldot" unicode="&#x140;" horiz-adv-x="349" 
d="M92 0v800h66v-800h-66zM338 378v-86h-86v86h86z" />
    <glyph glyph-name="Lslash" unicode="&#x141;" horiz-adv-x="585" 
d="M445 455l-285 -144v-245h410v-66h-480v276l-80 -40v65l80 40v439h70v-403l285 143v-65z" />
    <glyph glyph-name="lslash" unicode="&#x142;" horiz-adv-x="300" 
d="M285 472l-102 -65v-407h-66v366l-82 -52v68l82 52v366h66v-325l102 65v-68z" />
    <glyph glyph-name="Nacute" unicode="&#x143;" horiz-adv-x="750" 
d="M597 0l-348 515l-92 142l4 -267v-390h-71v780h63l348 -515l92 -142l-4 267v390h71v-780h-63zM439 1030h82l-111 -208h-65z" />
    <glyph glyph-name="nacute" unicode="&#x144;" horiz-adv-x="574" 
d="M361 800h82l-111 -208h-65zM124 530l12 -90q27 45 75 72.5t106 27.5q85 0 140.5 -45.5t55.5 -124.5v-370h-66v355q0 58 -38 90t-102 32q-70 0 -119.5 -48t-51.5 -103v-326h-66v407l-6 123h60z" />
    <glyph glyph-name="Ncommaaccent" unicode="&#x145;" horiz-adv-x="750" 
d="M597 0l-348 515l-92 142l4 -267v-390h-71v780h63l348 -515l92 -142l-4 267v390h71v-780h-63zM345 -62h79l-50 -138h-67z" />
    <glyph glyph-name="ncommaaccent" unicode="&#x146;" horiz-adv-x="574" 
d="M262 -62h79l-50 -138h-67zM124 530l12 -90q27 45 75 72.5t106 27.5q85 0 140.5 -45.5t55.5 -124.5v-370h-66v355q0 58 -38 90t-102 32q-70 0 -119.5 -48t-51.5 -103v-326h-66v407l-6 123h60z" />
    <glyph glyph-name="Ncaron" unicode="&#x147;" horiz-adv-x="750" 
d="M597 0l-348 515l-92 142l4 -267v-390h-71v780h63l348 -515l92 -142l-4 267v390h71v-780h-63zM492 1030h67l-150 -208h-68l-150 208h67l117 -150z" />
    <glyph glyph-name="ncaron" unicode="&#x148;" horiz-adv-x="574" 
d="M409 800h67l-150 -208h-68l-150 208h67l117 -150zM124 530l12 -90q27 45 75 72.5t106 27.5q85 0 140.5 -45.5t55.5 -124.5v-370h-66v355q0 58 -38 90t-102 32q-70 0 -119.5 -48t-51.5 -103v-326h-66v407l-6 123h60z" />
    <glyph glyph-name="Eng" unicode="&#x14a;" horiz-adv-x="750" 
d="M480 -147q63 0 88.5 28.5t25.5 116.5v6l-345 511l-92 142l4 -267v-390h-71v780h63l348 -515l92 -142l-4 267v390h71v-782q0 -46 -6.5 -79.5t-24.5 -65t-55.5 -47.5t-93.5 -16q-35 0 -57 8l8 64q21 -9 49 -9z" />
    <glyph glyph-name="eng" unicode="&#x14b;" horiz-adv-x="574" 
d="M333 -147q63 0 88.5 28.5t25.5 116.5v357q0 58 -38 90t-102 32q-70 0 -119.5 -48t-51.5 -103v-326h-66v407l-6 123h60l12 -90q27 45 75 72.5t106 27.5q85 0 140.5 -45.5t55.5 -124.5v-372q0 -46 -6.5 -79.5t-24.5 -65t-55.5 -47.5t-93.5 -16q-35 0 -57 8l8 64
q21 -9 49 -9z" />
    <glyph glyph-name="Omacron" unicode="&#x14c;" horiz-adv-x="790" 
d="M395 -10q-167 0 -248.5 105t-81.5 295t81.5 295t248.5 105t248.5 -105t81.5 -295t-81.5 -295t-248.5 -105zM395 725q-256 0 -256 -335t256 -335t256 335t-256 335zM259 894v64h272v-64h-272z" />
    <glyph glyph-name="omacron" unicode="&#x14d;" horiz-adv-x="578" 
d="M289 -10q-113 0 -176 70t-63 205t63 205t176 70t176 -70t63 -205t-63 -205t-176 -70zM289 478q-170 0 -170 -213t170 -213t170 213t-170 213zM153 664v64h272v-64h-272z" />
    <glyph glyph-name="Obreve" unicode="&#x14e;" horiz-adv-x="790" 
d="M395 -10q-167 0 -248.5 105t-81.5 295t81.5 295t248.5 105t248.5 -105t81.5 -295t-81.5 -295t-248.5 -105zM395 725q-256 0 -256 -335t256 -335t256 335t-256 335zM517 1030h56q0 -100 -40 -149t-138 -49t-138 49t-40 149h56q0 -78 28.5 -110t93.5 -32t93.5 32t28.5 110z
" />
    <glyph glyph-name="obreve" unicode="&#x14f;" horiz-adv-x="578" 
d="M289 -10q-113 0 -176 70t-63 205t63 205t176 70t176 -70t63 -205t-63 -205t-176 -70zM289 478q-170 0 -170 -213t170 -213t170 213t-170 213zM411 800h56q0 -100 -40 -149t-138 -49t-138 49t-40 149h56q0 -78 28.5 -110t93.5 -32t93.5 32t28.5 110z" />
    <glyph glyph-name="Ohungarumlaut" unicode="&#x150;" horiz-adv-x="790" 
d="M395 -10q-167 0 -248.5 105t-81.5 295t81.5 295t248.5 105t248.5 -105t81.5 -295t-81.5 -295t-248.5 -105zM395 725q-256 0 -256 -335t256 -335t256 335t-256 335zM379 1030h82l-111 -208h-65zM519 1030h82l-111 -208h-65z" />
    <glyph glyph-name="ohungarumlaut" unicode="&#x151;" horiz-adv-x="578" 
d="M289 -10q-113 0 -176 70t-63 205t63 205t176 70t176 -70t63 -205t-63 -205t-176 -70zM289 478q-170 0 -170 -213t170 -213t170 213t-170 213zM278 800h82l-111 -208h-65zM418 800h82l-111 -208h-65z" />
    <glyph glyph-name="OE" unicode="&#x152;" horiz-adv-x="1070" 
d="M515 714h-98q-278 0 -278 -324t278 -324h98v648zM417 780h568v-66h-400v-281h360v-66h-360v-301h420v-66h-588q-175 0 -263.5 95.5t-88.5 294.5t88.5 294.5t263.5 95.5z" />
    <glyph glyph-name="oe" unicode="&#x153;" horiz-adv-x="979" 
d="M289 478q-170 0 -170 -213t170 -213t170 213t-170 213zM700 480q-76 0 -121 -44.5t-50 -137.5h323q-3 185 -152 182zM700 540q224 0 224 -274v-27h-395q4 -97 49.5 -142.5t122.5 -45.5q124 -3 149 102l71 -9q-13 -68 -67.5 -111t-153.5 -43q-145 0 -207 114
q-60 -114 -204 -114q-113 0 -176 70t-63 205t63 205t176 70q144 0 204 -115q61 115 207 115z" />
    <glyph glyph-name="Racute" unicode="&#x154;" horiz-adv-x="705" 
d="M160 347v-347h-70v780h300q242 0 242 -216q0 -190 -182 -214l213 -350h-84l-203 347h-216zM160 413h239q25 0 43 2t41 10.5t38 24t25.5 45t10.5 69.5t-10.5 69.5t-25.5 44.5t-38 23.5t-41 10.5t-43 2h-239v-301zM392 1030h82l-111 -208h-65z" />
    <glyph glyph-name="racute" unicode="&#x155;" horiz-adv-x="395" 
d="M264 800h82l-111 -208h-65zM312 540q38 0 59 -8l-7 -68q-24 9 -52 9q-76 0 -125 -47.5t-51 -103.5v-322h-66v407l-6 123h60l12 -94q24 45 72 74.5t104 29.5z" />
    <glyph glyph-name="Rcommaaccent" unicode="&#x156;" horiz-adv-x="705" 
d="M310 -62h79l-50 -138h-67zM160 347v-347h-70v780h300q242 0 242 -216q0 -190 -182 -214l213 -350h-84l-203 347h-216zM160 413h239q25 0 43 2t41 10.5t38 24t25.5 45t10.5 69.5t-10.5 69.5t-25.5 44.5t-38 23.5t-41 10.5t-43 2h-239v-301z" />
    <glyph glyph-name="rcommaaccent" unicode="&#x157;" horiz-adv-x="395" 
d="M65 -62h79l-50 -138h-67zM312 540q38 0 59 -8l-7 -68q-24 9 -52 9q-76 0 -125 -47.5t-51 -103.5v-322h-66v407l-6 123h60l12 -94q24 45 72 74.5t104 29.5z" />
    <glyph glyph-name="Rcaron" unicode="&#x158;" horiz-adv-x="705" 
d="M447 1030h67l-150 -208h-68l-150 208h67l117 -150zM160 347v-347h-70v780h300q242 0 242 -216q0 -190 -182 -214l213 -350h-84l-203 347h-216zM160 413h239q25 0 43 2t41 10.5t38 24t25.5 45t10.5 69.5t-10.5 69.5t-25.5 44.5t-38 23.5t-41 10.5t-43 2h-239v-301z" />
    <glyph glyph-name="rcaron" unicode="&#x159;" horiz-adv-x="395" 
d="M317 800h67l-150 -208h-68l-150 208h67l117 -150zM312 540q38 0 59 -8l-7 -68q-24 9 -52 9q-76 0 -125 -47.5t-51 -103.5v-322h-66v407l-6 123h60l12 -94q24 45 72 74.5t104 29.5z" />
    <glyph glyph-name="Sacute" unicode="&#x15a;" horiz-adv-x="710" 
d="M355 -10q-252 0 -291 202l72 6q15 -75 66.5 -109t152.5 -34q54 0 101 14.5t82 53.5t35 96q0 75 -46.5 110.5t-169.5 49.5q-45 5 -78.5 12t-70 21t-59.5 34.5t-38 53.5t-15 76q0 106 73.5 160t186.5 54q248 0 286 -196l-72 -6q-14 73 -64 105t-150 32q-29 0 -58 -6
t-60.5 -20.5t-51 -46.5t-19.5 -76q0 -60 40 -90t152 -43q74 -9 120.5 -20.5t86.5 -35.5t58 -65t18 -103q0 -112 -83.5 -170.5t-203.5 -58.5zM420 1030h82l-111 -208h-65z" />
    <glyph glyph-name="sacute" unicode="&#x15b;" horiz-adv-x="530" 
d="M262 51q157 4 157 101q0 13 -1.5 23t-7.5 18.5t-9.5 14t-15 10.5l-17.5 7.5t-22.5 6t-24 4.5t-29.5 4.5t-31 4.5l-23 3q-22 4 -26.5 4.5t-25.5 5t-27.5 7.5t-24.5 9.5t-25 12.5l-19 16t-16.5 21t-9 26t-4.5 32q0 42 18 74t48 49.5t63.5 26t70.5 8.5q184 0 216 -154
l-71 -9q-24 105 -146 102q-130 -2 -130 -93q0 -17 6.5 -29.5t15 -19.5t27.5 -13t32.5 -8.5t41.5 -6.5l20 -3l28 -4t30 -4.5t29 -5.5t30 -7.5t26.5 -10t25 -13.5t19.5 -18t16.5 -23.5t9.5 -29t4 -35.5q0 -57 -35 -96t-84 -54t-108 -15q-99 0 -153.5 43t-67.5 111l71 9
q25 -105 149 -102zM324 800h82l-111 -208h-65z" />
    <glyph glyph-name="Scircumflex" unicode="&#x15c;" horiz-adv-x="710" 
d="M355 -10q-252 0 -291 202l72 6q15 -75 66.5 -109t152.5 -34q54 0 101 14.5t82 53.5t35 96q0 75 -46.5 110.5t-169.5 49.5q-45 5 -78.5 12t-70 21t-59.5 34.5t-38 53.5t-15 76q0 106 73.5 160t186.5 54q248 0 286 -196l-72 -6q-14 73 -64 105t-150 32q-29 0 -58 -6
t-60.5 -20.5t-51 -46.5t-19.5 -76q0 -60 40 -90t152 -43q74 -9 120.5 -20.5t86.5 -35.5t58 -65t18 -103q0 -112 -83.5 -170.5t-203.5 -58.5zM540 822h-67l-117 150l-117 -150h-67l150 208h68z" />
    <glyph glyph-name="scircumflex" unicode="&#x15d;" horiz-adv-x="530" 
d="M262 51q157 4 157 101q0 13 -1.5 23t-7.5 18.5t-9.5 14t-15 10.5l-17.5 7.5t-22.5 6t-24 4.5t-29.5 4.5t-31 4.5l-23 3q-22 4 -26.5 4.5t-25.5 5t-27.5 7.5t-24.5 9.5t-25 12.5l-19 16t-16.5 21t-9 26t-4.5 32q0 42 18 74t48 49.5t63.5 26t70.5 8.5q184 0 216 -154
l-71 -9q-24 105 -146 102q-130 -2 -130 -93q0 -17 6.5 -29.5t15 -19.5t27.5 -13t32.5 -8.5t41.5 -6.5l20 -3l28 -4t30 -4.5t29 -5.5t30 -7.5t26.5 -10t25 -13.5t19.5 -18t16.5 -23.5t9.5 -29t4 -35.5q0 -57 -35 -96t-84 -54t-108 -15q-99 0 -153.5 43t-67.5 111l71 9
q25 -105 149 -102zM444 592h-67l-117 150l-117 -150h-67l150 208h68z" />
    <glyph glyph-name="Scedilla" unicode="&#x15e;" horiz-adv-x="710" 
d="M642 219q0 -107 -76.5 -165t-188.5 -63l-7 -25q87 -21 87 -93q0 -42 -30 -62.5t-79 -20.5t-79 17l15 44q27 -12 56 -13q59 -1 59 34q0 44 -90 53l22 66q-230 9 -267 201l72 6q15 -75 66.5 -109t152.5 -34q54 0 101 14.5t82 53.5t35 96q0 75 -46.5 110.5t-169.5 49.5
q-45 5 -78.5 12t-70 21t-59.5 34.5t-38 53.5t-15 76q0 106 73.5 160t186.5 54q248 0 286 -196l-72 -6q-14 73 -64 105t-150 32q-29 0 -58 -6t-60.5 -20.5t-51 -46.5t-19.5 -76q0 -60 40 -90t152 -43q74 -9 120.5 -20.5t86.5 -35.5t58 -65t18 -103z" />
    <glyph glyph-name="scedilla" unicode="&#x15f;" horiz-adv-x="530" 
d="M262 51q157 4 157 101q0 13 -1.5 23t-7.5 18.5t-9.5 14t-15 10.5l-17.5 7.5t-22.5 6t-24 4.5t-29.5 4.5t-31 4.5l-23 3q-22 4 -26.5 4.5t-25.5 5t-27.5 7.5t-24.5 9.5t-25 12.5l-19 16t-16.5 21t-9 26t-4.5 32q0 42 18 74t48 49.5t63.5 26t70.5 8.5q184 0 216 -154
l-71 -9q-24 105 -146 102q-130 -2 -130 -93q0 -17 6.5 -29.5t15 -19.5t27.5 -13t32.5 -8.5t41.5 -6.5l20 -3l28 -4t30 -4.5t29 -5.5t30 -7.5t26.5 -10t25 -13.5t19.5 -18t16.5 -23.5t9.5 -29t4 -35.5q0 -79 -59 -119t-146 -45l-7 -25q87 -21 87 -93q0 -42 -30 -62.5
t-79 -20.5t-79 17l15 44q27 -12 56 -13q59 -1 59 34q0 44 -90 53l22 66q-88 5 -136.5 47t-60.5 106l71 9q25 -105 149 -102z" />
    <glyph glyph-name="Scaron" unicode="&#x160;" horiz-adv-x="710" 
d="M355 -10q-252 0 -291 202l72 6q15 -75 66.5 -109t152.5 -34q54 0 101 14.5t82 53.5t35 96q0 75 -46.5 110.5t-169.5 49.5q-45 5 -78.5 12t-70 21t-59.5 34.5t-38 53.5t-15 76q0 106 73.5 160t186.5 54q248 0 286 -196l-72 -6q-14 73 -64 105t-150 32q-29 0 -58 -6
t-60.5 -20.5t-51 -46.5t-19.5 -76q0 -60 40 -90t152 -43q74 -9 120.5 -20.5t86.5 -35.5t58 -65t18 -103q0 -112 -83.5 -170.5t-203.5 -58.5zM473 1030h67l-150 -208h-68l-150 208h67l117 -150z" />
    <glyph glyph-name="scaron" unicode="&#x161;" horiz-adv-x="530" 
d="M262 51q157 4 157 101q0 13 -1.5 23t-7.5 18.5t-9.5 14t-15 10.5l-17.5 7.5t-22.5 6t-24 4.5t-29.5 4.5t-31 4.5l-23 3q-22 4 -26.5 4.5t-25.5 5t-27.5 7.5t-24.5 9.5t-25 12.5l-19 16t-16.5 21t-9 26t-4.5 32q0 42 18 74t48 49.5t63.5 26t70.5 8.5q184 0 216 -154
l-71 -9q-24 105 -146 102q-130 -2 -130 -93q0 -17 6.5 -29.5t15 -19.5t27.5 -13t32.5 -8.5t41.5 -6.5l20 -3l28 -4t30 -4.5t29 -5.5t30 -7.5t26.5 -10t25 -13.5t19.5 -18t16.5 -23.5t9.5 -29t4 -35.5q0 -57 -35 -96t-84 -54t-108 -15q-99 0 -153.5 43t-67.5 111l71 9
q25 -105 149 -102zM377 800h67l-150 -208h-68l-150 208h67l117 -150z" />
    <glyph glyph-name="Tcommaaccent" unicode="&#x162;" horiz-adv-x="620" 
d="M345 714v-714h-70v714h-250v66h570v-66h-250zM270 -62h79l-50 -138h-67z" />
    <glyph glyph-name="tcommaaccent" unicode="&#x163;" horiz-adv-x="395" 
d="M27 468v62h96v135l66 22v-157h163v-62h-163v-270q0 -87 26 -116t89 -29q25 0 49 9l8 -64q-22 -8 -57 -8q-56 0 -94 16.5t-56 47.5t-24.5 64.5t-6.5 79.5v270h-96zM185 -62h79l-50 -138h-67z" />
    <glyph glyph-name="Tcaron" unicode="&#x164;" horiz-adv-x="620" 
d="M345 714v-714h-70v714h-250v66h570v-66h-250zM427 1030h67l-150 -208h-68l-150 208h67l117 -150z" />
    <glyph glyph-name="tcaron" unicode="&#x165;" horiz-adv-x="395" 
d="M27 468v62h96v135l66 22v-157h163v-62h-163v-270q0 -87 26 -116t89 -29q25 0 49 9l8 -64q-22 -8 -57 -8q-56 0 -94 16.5t-56 47.5t-24.5 64.5t-6.5 79.5v270h-96zM306 800h79l-75 -208h-61z" />
    <glyph glyph-name="Tbar" unicode="&#x166;" horiz-adv-x="620" 
d="M465 367h-120v-367h-70v367h-120v66h120v281h-250v66h570v-66h-250v-281h120v-66z" />
    <glyph glyph-name="tbar" unicode="&#x167;" horiz-adv-x="395" 
d="M345 299h-156v-101q0 -87 26 -116t89 -29q25 0 49 9l8 -64q-22 -8 -57 -8q-56 0 -94 16.5t-56 47.5t-24.5 64.5t-6.5 79.5v101h-96v62h96v107h-96v62h96v135l66 22v-157h163v-62h-163v-107h156v-62z" />
    <glyph glyph-name="Utilde" unicode="&#x168;" horiz-adv-x="774" 
d="M387 -10q-307 0 -307 290v500h72v-502q0 -50 10.5 -88t35 -70t72.5 -48.5t117 -16.5t117 16.5t72.5 48.5t35 70t10.5 88v502h72v-500q0 -290 -307 -290zM458 860q-43 2 -83 38t-63 37q-27 2 -44 -11t-20 -27l-4 -14l-55 8q24 108 127 103q43 -2 83 -38t63 -37
q27 -2 44 11t20 27l4 14l55 -8q-24 -108 -127 -103z" />
    <glyph glyph-name="utilde" unicode="&#x169;" horiz-adv-x="574" 
d="M354 630q-43 2 -83 38t-63 37q-27 2 -44 -11t-20 -27l-4 -14l-55 8q24 108 127 103q43 -2 83 -38t63 -37q27 -2 44 11t20 27l4 14l55 -8q-24 -108 -127 -103zM450 0l-12 90q-27 -45 -75 -72.5t-106 -27.5q-85 0 -140.5 45.5t-55.5 124.5v370h66v-355q0 -58 38 -90
t102 -32q70 0 119.5 48t51.5 103v326h66v-407l6 -123h-60z" />
    <glyph glyph-name="Umacron" unicode="&#x16a;" horiz-adv-x="774" 
d="M387 -10q-307 0 -307 290v500h72v-502q0 -50 10.5 -88t35 -70t72.5 -48.5t117 -16.5t117 16.5t72.5 48.5t35 70t10.5 88v502h72v-500q0 -290 -307 -290zM251 894v64h272v-64h-272z" />
    <glyph glyph-name="umacron" unicode="&#x16b;" horiz-adv-x="574" 
d="M146 664v64h272v-64h-272zM450 0l-12 90q-27 -45 -75 -72.5t-106 -27.5q-85 0 -140.5 45.5t-55.5 124.5v370h66v-355q0 -58 38 -90t102 -32q70 0 119.5 48t51.5 103v326h66v-407l6 -123h-60z" />
    <glyph glyph-name="Ubreve" unicode="&#x16c;" horiz-adv-x="774" 
d="M387 -10q-307 0 -307 290v500h72v-502q0 -50 10.5 -88t35 -70t72.5 -48.5t117 -16.5t117 16.5t72.5 48.5t35 70t10.5 88v502h72v-500q0 -290 -307 -290zM509 1030h56q0 -100 -40 -149t-138 -49t-138 49t-40 149h56q0 -78 28.5 -110t93.5 -32t93.5 32t28.5 110z" />
    <glyph glyph-name="ubreve" unicode="&#x16d;" horiz-adv-x="574" 
d="M404 800h56q0 -100 -40 -149t-138 -49t-138 49t-40 149h56q0 -78 28.5 -110t93.5 -32t93.5 32t28.5 110zM450 0l-12 90q-27 -45 -75 -72.5t-106 -27.5q-85 0 -140.5 45.5t-55.5 124.5v370h66v-355q0 -58 38 -90t102 -32q70 0 119.5 48t51.5 103v326h66v-407l6 -123h-60z
" />
    <glyph glyph-name="Uring" unicode="&#x16e;" horiz-adv-x="774" 
d="M387 -10q-307 0 -307 290v500h72v-502q0 -50 10.5 -88t35 -70t72.5 -48.5t117 -16.5t117 16.5t72.5 48.5t35 70t10.5 88v502h72v-500q0 -290 -307 -290zM273 926q0 51 30.5 82.5t83.5 31.5t83.5 -31.5t30.5 -82.5t-30.5 -82.5t-83.5 -31.5t-83.5 31.5t-30.5 82.5z
M331 926q0 -26 15 -42t41 -16t41 16t15 42t-15 42t-41 16t-41 -16t-15 -42z" />
    <glyph glyph-name="uring" unicode="&#x16f;" horiz-adv-x="574" 
d="M168 696q0 51 30.5 82.5t83.5 31.5t83.5 -31.5t30.5 -82.5t-30.5 -82.5t-83.5 -31.5t-83.5 31.5t-30.5 82.5zM226 696q0 -26 15 -42t41 -16t41 16t15 42t-15 42t-41 16t-41 -16t-15 -42zM450 0l-12 90q-27 -45 -75 -72.5t-106 -27.5q-85 0 -140.5 45.5t-55.5 124.5v370
h66v-355q0 -58 38 -90t102 -32q70 0 119.5 48t51.5 103v326h66v-407l6 -123h-60z" />
    <glyph glyph-name="Uhungarumlaut" unicode="&#x170;" horiz-adv-x="774" 
d="M387 -10q-307 0 -307 290v500h72v-502q0 -50 10.5 -88t35 -70t72.5 -48.5t117 -16.5t117 16.5t72.5 48.5t35 70t10.5 88v502h72v-500q0 -290 -307 -290zM511 1030h82l-111 -208h-65zM371 1030h82l-111 -208h-65z" />
    <glyph glyph-name="uhungarumlaut" unicode="&#x171;" horiz-adv-x="574" 
d="M411 800h82l-111 -208h-65zM271 800h82l-111 -208h-65zM450 0l-12 90q-27 -45 -75 -72.5t-106 -27.5q-85 0 -140.5 45.5t-55.5 124.5v370h66v-355q0 -58 38 -90t102 -32q70 0 119.5 48t51.5 103v326h66v-407l6 -123h-60z" />
    <glyph glyph-name="Uogonek" unicode="&#x172;" horiz-adv-x="774" 
d="M387 -10q-307 0 -307 290v500h72v-502q0 -50 10.5 -88t35 -70t72.5 -48.5t117 -16.5t117 16.5t72.5 48.5t35 70t10.5 88v502h72v-500q0 -227 -191 -277q-50 -13 -83 -45.5t-33 -66.5q0 -46 56 -46q16 0 34 5.5t28 10.5l10 5l17 -51q-40 -25 -100 -25q-45 0 -77.5 23
t-32.5 70q0 59 65 107z" />
    <glyph glyph-name="uogonek" unicode="&#x173;" horiz-adv-x="574" 
d="M449 25l-11 82q-26 -53 -74 -85t-107 -32q-85 0 -140.5 45.5t-55.5 124.5v370h66v-355q0 -58 38 -90t102 -32q68 0 115.5 52t55.5 109v316h66v-406l6 -124q-48 -16 -73 -46t-25 -63q0 -19 12.5 -32.5t38.5 -13.5q16 0 34 5.5t28 10.5l10 5l17 -51q-40 -25 -100 -25
q-42 0 -73.5 24.5t-31.5 65.5q0 96 102 145z" />
    <glyph glyph-name="Wcircumflex" unicode="&#x174;" horiz-adv-x="960" 
d="M295 276l148 504h74l148 -504l45 -169l34 170l114 503h72l-186 -790h-61l-149 509l-54 195l-54 -195l-149 -509h-61l-186 790h72l114 -503l34 -170zM664 822h-67l-117 150l-117 -150h-67l150 208h68z" />
    <glyph glyph-name="wcircumflex" unicode="&#x175;" horiz-adv-x="810" 
d="M448 326l-43 143l-43 -143l-104 -336h-79l-149 540h71l80 -312l37 -153l45 153l97 312h90l97 -312l45 -153l37 153l80 312h71l-149 -540h-79zM589 592h-67l-117 150l-117 -150h-67l150 208h68z" />
    <glyph glyph-name="Ycircumflex" unicode="&#x176;" horiz-adv-x="710" 
d="M20 780h81l162 -244l92 -141l92 141l162 244h81l-300 -445v-335h-70v335zM539 822h-67l-117 150l-117 -150h-67l150 208h68z" />
    <glyph glyph-name="ycircumflex" unicode="&#x177;" horiz-adv-x="540" 
d="M522 530l-209 -494l-96 -236h-77l93 220l-215 510h78l115 -291l59 -152l59 152l116 291h77zM454 592h-67l-117 150l-117 -150h-67l150 208h68z" />
    <glyph glyph-name="Ydieresis" unicode="&#x178;" horiz-adv-x="710" 
d="M20 780h81l162 -244l92 -141l92 141l162 244h81l-300 -445v-335h-70v335zM305 969v-86h-86v86h86zM491 969v-86h-86v86h86z" />
    <glyph glyph-name="Zacute" unicode="&#x179;" horiz-adv-x="690" 
d="M53 0v58l416 552l83 105l-269 -1h-210v66h567v-58l-416 -552l-83 -105l269 1h230v-66h-587zM404 1030h82l-111 -208h-65z" />
    <glyph glyph-name="zacute" unicode="&#x17a;" horiz-adv-x="535" 
d="M45 0v54l275 324l83 91l-146 -1h-193v62h419v-54l-275 -324l-83 -91l146 1h223v-62h-449zM321 800h82l-111 -208h-65z" />
    <glyph glyph-name="Zdotaccent" unicode="&#x17b;" horiz-adv-x="690" 
d="M53 0v58l416 552l83 105l-269 -1h-210v66h567v-58l-416 -552l-83 -105l269 1h230v-66h-587zM383 969v-86h-86v86h86z" />
    <glyph glyph-name="zdotaccent" unicode="&#x17c;" horiz-adv-x="535" 
d="M45 0v54l275 324l83 91l-146 -1h-193v62h419v-54l-275 -324l-83 -91l146 1h223v-62h-449zM300 739v-86h-86v86h86z" />
    <glyph glyph-name="Zcaron" unicode="&#x17d;" horiz-adv-x="690" 
d="M53 0v58l416 552l83 105l-269 -1h-210v66h567v-58l-416 -552l-83 -105l269 1h230v-66h-587zM457 1030h67l-150 -208h-68l-150 208h67l117 -150z" />
    <glyph glyph-name="zcaron" unicode="&#x17e;" horiz-adv-x="535" 
d="M45 0v54l275 324l83 91l-146 -1h-193v62h419v-54l-275 -324l-83 -91l146 1h223v-62h-449zM374 800h67l-150 -208h-68l-150 208h67l117 -150z" />
    <glyph glyph-name="Schwa" unicode="&#x18f;" horiz-adv-x="785" 
d="M383 55q114 0 183.5 84t77.5 228h-498q5 -315 237 -312zM381 725q-101 0 -154.5 -34t-68.5 -109l-72 6q39 202 295 202q158 0 248.5 -106t90.5 -294t-89.5 -294t-247.5 -106q-167 0 -241 106.5t-74 302.5v34h576q-5 145 -75 218.5t-188 73.5z" />
    <glyph glyph-name="florin" unicode="&#x192;" horiz-adv-x="395" 
d="M133 369h-110v62h110v135q0 46 6.5 79.5t24.5 64.5t56 47.5t94 16.5q35 0 57 -8l-8 -64q-24 9 -49 9q-63 0 -89 -29t-26 -116v-135h149v-62h-149v-371q0 -46 -6.5 -79.5t-24.5 -64.5t-56 -47.5t-94 -16.5q-35 0 -57 8l8 64q24 -9 49 -9q63 0 89 29t26 116v371z" />
    <glyph glyph-name="Khook" unicode="&#x198;" horiz-adv-x="695" 
d="M610 723q-42 0 -73 -31t-50 -73.5t-57.5 -106.5t-86.5 -111l330 -401h-94l-291 354q-60 -44 -128 -72v-282h-70v780h70v-422q61 28 108 67t74.5 78.5t50 81.5l41 78t40.5 65t56 45.5t80 16.5q35 0 57 -8l-8 -68q-21 9 -49 9z" />
    <glyph glyph-name="khook" unicode="&#x199;" horiz-adv-x="535" 
d="M136 602v-338l101 103l163 163h95l-231 -225l268 -305h-91l-222 261l-83 -81v-180h-66v602q0 46 6.5 79.5t24.5 65t55.5 47.5t93.5 16q35 0 57 -8l-8 -64q-21 9 -49 9q-63 0 -88.5 -28.5t-25.5 -116.5z" />
    <glyph glyph-name="Ezh" unicode="&#x1b7;" horiz-adv-x="700" 
d="M331 -210q-136 0 -215 55t-97 148l72 6q29 -144 240 -144q119 0 188 61t69 178q0 109 -61 170t-195 68h-31l-48 51l183 227l83 105l-241 -1h-210v66h547v-58l-264 -327q308 -22 308 -301q0 -146 -91 -225t-237 -79z" />
    <glyph glyph-name="Acaron" unicode="&#x1cd;" horiz-adv-x="720" 
d="M21 0l301 790h76l301 -790h-77l-92 247h-340l-92 -247h-77zM360 712l-71 -198l-75 -201h291l-74 201zM176 1030h67l117 -150l117 150h67l-150 -208h-68z" />
    <glyph glyph-name="acaron" unicode="&#x1ce;" horiz-adv-x="570" 
d="M98 800h67l117 -150l117 150h67l-150 -208h-68zM52 142q0 76 50.5 111.5t151.5 50.5l182 27v25q0 66 -39 93.5t-115 29.5q-64 1 -95.5 -24.5t-43.5 -78.5l-69 10q16 75 63 114.5t145 39.5q104 0 161 -47.5t57 -140.5v-228l6 -124h-58l-12 91q-24 -45 -80 -73t-119 -28
q-91 0 -138 39.5t-47 112.5zM120 142q0 -91 117 -91q80 0 138.5 49t60.5 104v70l-183 -29q-66 -11 -99.5 -31.5t-33.5 -71.5z" />
    <glyph glyph-name="Icaron" unicode="&#x1cf;" horiz-adv-x="290" 
d="M180 780v-780h-70v780h70zM-39 1030h67l117 -150l117 150h67l-150 -208h-68z" />
    <glyph glyph-name="icaron" unicode="&#x1d0;" horiz-adv-x="250" 
d="M92 0v530h66v-530h-66zM-59 800h67l117 -150l117 150h67l-150 -208h-68z" />
    <glyph glyph-name="Ocaron" unicode="&#x1d1;" horiz-adv-x="790" 
d="M395 -10q-167 0 -248.5 105t-81.5 295t81.5 295t248.5 105t248.5 -105t81.5 -295t-81.5 -295t-248.5 -105zM395 725q-256 0 -256 -335t256 -335t256 335t-256 335zM211 1030h67l117 -150l117 150h67l-150 -208h-68z" />
    <glyph glyph-name="ocaron" unicode="&#x1d2;" horiz-adv-x="578" 
d="M289 -10q-113 0 -176 70t-63 205t63 205t176 70t176 -70t63 -205t-63 -205t-176 -70zM289 478q-170 0 -170 -213t170 -213t170 213t-170 213zM105 800h67l117 -150l117 150h67l-150 -208h-68z" />
    <glyph glyph-name="Ucaron" unicode="&#x1d3;" horiz-adv-x="774" 
d="M387 -10q-307 0 -307 290v500h72v-502q0 -50 10.5 -88t35 -70t72.5 -48.5t117 -16.5t117 16.5t72.5 48.5t35 70t10.5 88v502h72v-500q0 -290 -307 -290zM203 1030h67l117 -150l117 150h67l-150 -208h-68z" />
    <glyph glyph-name="ucaron" unicode="&#x1d4;" horiz-adv-x="574" 
d="M98 800h67l117 -150l117 150h67l-150 -208h-68zM450 0l-12 90q-27 -45 -75 -72.5t-106 -27.5q-85 0 -140.5 45.5t-55.5 124.5v370h66v-355q0 -58 38 -90t102 -32q70 0 119.5 48t51.5 103v326h66v-407l6 -123h-60z" />
    <glyph glyph-name="Adieresismacron" unicode="&#x1de;" horiz-adv-x="720" 
d="M21 0l301 790h76l301 -790h-77l-92 247h-340l-92 -247h-77zM360 712l-71 -198l-75 -201h291l-74 201zM310 929v-86h-86v86h86zM496 929v-86h-86v86h86zM224 994v64h272v-64h-272z" />
    <glyph glyph-name="adieresismacron" unicode="&#x1df;" horiz-adv-x="570" 
d="M232 699v-86h-86v86h86zM418 699v-86h-86v86h86zM52 142q0 76 50.5 111.5t151.5 50.5l182 27v25q0 66 -39 93.5t-115 29.5q-64 1 -95.5 -24.5t-43.5 -78.5l-69 10q16 75 63 114.5t145 39.5q104 0 161 -47.5t57 -140.5v-228l6 -124h-58l-12 91q-24 -45 -80 -73t-119 -28
q-91 0 -138 39.5t-47 112.5zM120 142q0 -91 117 -91q80 0 138.5 49t60.5 104v70l-183 -29q-66 -11 -99.5 -31.5t-33.5 -71.5zM146 764v64h272v-64h-272z" />
    <glyph glyph-name="AEmacron" unicode="&#x1e2;" horiz-adv-x="1060" 
d="M574 0l-47 247h-306l-129 -247h-79l418 780h544v-66h-467l54 -281h373v-66h-360l58 -301h362v-66h-421zM446 674l-190 -361h258l-41 217zM364 894v64h272v-64h-272z" />
    <glyph glyph-name="aemacron" unicode="&#x1e3;" horiz-adv-x="954" 
d="M340 664v64h272v-64h-272zM675 540q224 0 224 -274v-27h-395q4 -97 49.5 -142.5t122.5 -45.5q124 -3 149 102l71 -9q-13 -68 -67.5 -111t-153.5 -43q-154 0 -212 126q-37 -68 -98 -97t-128 -29q-91 0 -138 39.5t-47 112.5q0 78 57.5 117t154.5 39h170v58q0 66 -38 93.5
t-114 29.5q-64 1 -95.5 -24.5t-43.5 -78.5l-69 10q16 75 63 114.5t145 39.5q148 0 197 -97q65 97 196 97zM675 480q-76 0 -121 -44.5t-50 -137.5h323q-3 185 -152 182zM122 142q0 -90 115 -90q80 0 137.5 48.5t59.5 103.5v35l-171 1q-141 0 -141 -98z" />
    <glyph glyph-name="Gstroke" unicode="&#x1e4;" horiz-adv-x="814" 
d="M689 182v-112q-73 -46 -139.5 -63.5t-154.5 -16.5q-168 1 -249 106t-81 294q0 190 81.5 295t248.5 105q252 0 292 -204l-72 -6q-15 75 -67 110t-153 35q-256 0 -256 -335t256 -335q140 0 224 59v68h-224v66h224v89h-170v66h240v-155h120v-66h-120z" />
    <glyph glyph-name="gstroke" unicode="&#x1e5;" horiz-adv-x="599" 
d="M285 -153q123 3 163 68h-182v62h198v133q-27 -45 -74.5 -72.5t-104.5 -27.5q-112 0 -173.5 68t-61.5 197t61.5 197t173.5 68q57 0 104 -27.5t74 -73.5l12 91h60l-6 -124v-429h55v-62h-66q-22 -61 -82.5 -93t-150.5 -32q-201 0 -225 154l70 9q19 -109 155 -106zM118 275
q0 -100 44.5 -151.5t124.5 -51.5q76 0 125.5 48t51.5 104v102q-2 56 -51.5 104t-125.5 48q-80 0 -124.5 -51t-44.5 -152z" />
    <glyph glyph-name="Gcaron" unicode="&#x1e6;" horiz-adv-x="774" 
d="M395 55q140 0 224 59v223h-170v66h240v-333q-73 -46 -139.5 -63.5t-154.5 -16.5q-168 1 -249 106t-81 294q0 190 81.5 295t248.5 105q252 0 292 -204l-72 -6q-15 75 -67 110t-153 35q-256 0 -256 -335t256 -335zM502 1030h67l-150 -208h-68l-150 208h67l117 -150z" />
    <glyph glyph-name="gcaron" unicode="&#x1e7;" horiz-adv-x="599" 
d="M101 800h67l117 -150l117 150h67l-150 -208h-68zM285 -153q80 2 129.5 33.5t49.5 96.5v133q-27 -45 -74.5 -72.5t-104.5 -27.5q-112 0 -173.5 68t-61.5 197t61.5 197t173.5 68q57 0 104 -27.5t74 -73.5l12 91h60l-6 -124v-422q0 -93 -64.5 -143.5t-179.5 -50.5
q-201 0 -225 154l70 9q19 -109 155 -106zM118 275q0 -100 44.5 -151.5t124.5 -51.5q76 0 125.5 48t51.5 104v102q-2 56 -51.5 104t-125.5 48q-80 0 -124.5 -51t-44.5 -152z" />
    <glyph glyph-name="Kcaron" unicode="&#x1e8;" horiz-adv-x="695" 
d="M160 780v-423l391 423h97l-328 -350l353 -430h-94l-309 376l-110 -118v-258h-70v780h70zM462 1030h67l-150 -208h-68l-150 208h67l117 -150z" />
    <glyph glyph-name="kcaron" unicode="&#x1e9;" horiz-adv-x="535" 
d="M136 0h-66v800h66v-536l101 103l163 163h95l-231 -225l268 -305h-91l-222 261l-83 -81v-180zM-79 1030h67l117 -150l117 150h67l-150 -208h-68z" />
    <glyph glyph-name="Oogonek" unicode="&#x1ea;" horiz-adv-x="790" 
d="M725 390q0 -337 -241 -391q-47 -11 -82 -42t-35 -66q0 -46 56 -46q16 0 34 5.5t28 10.5l10 5l17 -51q-40 -25 -100 -25q-45 0 -77.5 23t-32.5 70q0 59 65 108q-153 9 -227.5 113t-74.5 286q0 190 81.5 295t248.5 105t248.5 -105t81.5 -295zM395 725q-256 0 -256 -335
t256 -335t256 335t-256 335z" />
    <glyph glyph-name="oogonek" unicode="&#x1eb;" horiz-adv-x="578" 
d="M528 265q0 -218 -158 -264q-47 -14 -78 -45.5t-31 -64.5q0 -46 56 -46q16 0 34 5.5t28 10.5l10 5l17 -51q-40 -25 -100 -25q-45 0 -77.5 23t-32.5 70q0 59 66 108q-101 8 -156.5 77.5t-55.5 196.5q0 135 63 205t176 70t176 -70t63 -205zM289 478q-170 0 -170 -213
t170 -213t170 213t-170 213z" />
    <glyph glyph-name="uni004F02DB00AF" unicode="&#x1ec;" horiz-adv-x="790" 
d="M725 390q0 -337 -241 -391q-47 -11 -82 -42t-35 -66q0 -46 56 -46q16 0 34 5.5t28 10.5l10 5l17 -51q-40 -25 -100 -25q-45 0 -77.5 23t-32.5 70q0 59 65 108q-153 9 -227.5 113t-74.5 286q0 190 81.5 295t248.5 105t248.5 -105t81.5 -295zM395 725q-256 0 -256 -335
t256 -335t256 335t-256 335zM259 894v64h272v-64h-272z" />
    <glyph glyph-name="oogonekmacron" unicode="&#x1ed;" horiz-adv-x="578" 
d="M528 265q0 -218 -158 -264q-47 -14 -78 -45.5t-31 -64.5q0 -46 56 -46q16 0 34 5.5t28 10.5l10 5l17 -51q-40 -25 -100 -25q-45 0 -77.5 23t-32.5 70q0 59 66 108q-101 8 -156.5 77.5t-55.5 196.5q0 135 63 205t176 70t176 -70t63 -205zM289 478q-170 0 -170 -213
t170 -213t170 213t-170 213zM153 664v64h272v-64h-272z" />
    <glyph glyph-name="Ezhcaron" unicode="&#x1ee;" horiz-adv-x="700" 
d="M331 -210q-136 0 -215 55t-97 148l72 6q29 -144 240 -144q119 0 188 61t69 178q0 109 -61 170t-195 68h-31l-48 51l183 227l83 105l-241 -1h-210v66h547v-58l-264 -327q308 -22 308 -301q0 -146 -91 -225t-237 -79zM447 1030h67l-150 -208h-68l-150 208h67l117 -150z" />
    <glyph glyph-name="ezhcaron" unicode="&#x1ef;" horiz-adv-x="535" 
d="M260 -210q-108 0 -162 42.5t-65 111.5l67 10q19 -110 160 -107q76 2 120 47t44 126q0 80 -43.5 123.5t-116.5 45.5q-67 1 -105 -27l-40 43l188 188l78 76l-143 -1h-188v62h419v-54l-226 -226h18q97 0 162 -60.5t65 -169.5q0 -107 -69.5 -168.5t-162.5 -61.5zM369 800h67
l-150 -208h-68l-150 208h67l117 -150z" />
    <glyph glyph-name="jcaron" unicode="&#x1f0;" horiz-adv-x="250" 
d="M-17 -147q63 0 88.5 28.5t25.5 116.5v532h66v-532q0 -46 -6.5 -79.5t-24.5 -65t-55.5 -47.5t-93.5 -16q-35 0 -57 8l8 64q21 -9 49 -9zM-54 800h67l117 -150l117 150h67l-150 -208h-68z" />
    <glyph glyph-name="jcaron" unicode="&#xe10c;" horiz-adv-x="250" 
d="M-17 -147q63 0 88.5 28.5t25.5 116.5v532h66v-532q0 -46 -6.5 -79.5t-24.5 -65t-55.5 -47.5t-93.5 -16q-35 0 -57 8l8 64q21 -9 49 -9zM-54 800h67l117 -150l117 150h67l-150 -208h-68z" />
    <glyph glyph-name="Gacute" unicode="&#x1f4;" horiz-adv-x="774" 
d="M395 55q140 0 224 59v223h-170v66h240v-333q-73 -46 -139.5 -63.5t-154.5 -16.5q-168 1 -249 106t-81 294q0 190 81.5 295t248.5 105q252 0 292 -204l-72 -6q-15 75 -67 110t-153 35q-256 0 -256 -335t256 -335zM449 1030h82l-111 -208h-65z" />
    <glyph glyph-name="gacute" unicode="&#x1f5;" horiz-adv-x="599" 
d="M349 800h82l-111 -208h-65zM285 -153q80 2 129.5 33.5t49.5 96.5v133q-27 -45 -74.5 -72.5t-104.5 -27.5q-112 0 -173.5 68t-61.5 197t61.5 197t173.5 68q57 0 104 -27.5t74 -73.5l12 91h60l-6 -124v-422q0 -93 -64.5 -143.5t-179.5 -50.5q-201 0 -225 154l70 9
q19 -109 155 -106zM118 275q0 -100 44.5 -151.5t124.5 -51.5q76 0 125.5 48t51.5 104v102q-2 56 -51.5 104t-125.5 48q-80 0 -124.5 -51t-44.5 -152z" />
    <glyph glyph-name="Ngrave" unicode="&#x1f8;" horiz-adv-x="750" 
d="M597 0l-348 515l-92 142l4 -267v-390h-71v780h63l348 -515l92 -142l-4 267v390h71v-780h-63zM229 1030h82l94 -208h-65z" />
    <glyph glyph-name="ngrave" unicode="&#x1f9;" horiz-adv-x="574" 
d="M161 800h82l94 -208h-65zM124 530l12 -90q27 45 75 72.5t106 27.5q85 0 140.5 -45.5t55.5 -124.5v-370h-66v355q0 58 -38 90t-102 32q-70 0 -119.5 -48t-51.5 -103v-326h-66v407l-6 123h60z" />
    <glyph glyph-name="Aringacute" unicode="&#x1fa;" horiz-adv-x="720" 
d="M21 0l301 790h76l301 -790h-77l-92 247h-340l-92 -247h-77zM360 712l-71 -198l-75 -201h291l-74 201zM343 1134h77l-60 -94q53 0 83.5 -31.5t30.5 -82.5t-30.5 -82.5t-83.5 -31.5t-83.5 31.5t-30.5 82.5q0 39 18 66zM304 926q0 -26 15 -42t41 -16t41 16t15 42t-15 42
t-41 16t-41 -16t-15 -42z" />
    <glyph glyph-name="aringacute" unicode="&#x1fb;" horiz-adv-x="570" 
d="M265 904h77l-60 -94q53 0 83.5 -31.5t30.5 -82.5t-30.5 -82.5t-83.5 -31.5t-83.5 31.5t-30.5 82.5q0 39 18 66zM226 696q0 -26 15 -42t41 -16t41 16t15 42t-15 42t-41 16t-41 -16t-15 -42zM52 142q0 76 50.5 111.5t151.5 50.5l182 27v25q0 66 -39 93.5t-115 29.5
q-64 1 -95.5 -24.5t-43.5 -78.5l-69 10q16 75 63 114.5t145 39.5q104 0 161 -47.5t57 -140.5v-228l6 -124h-58l-12 91q-24 -45 -80 -73t-119 -28q-91 0 -138 39.5t-47 112.5zM120 142q0 -91 117 -91q80 0 138.5 49t60.5 104v70l-183 -29q-66 -11 -99.5 -31.5t-33.5 -71.5z
" />
    <glyph glyph-name="AEacute" unicode="&#x1fc;" horiz-adv-x="1060" 
d="M574 0l-47 247h-306l-129 -247h-79l418 780h544v-66h-467l54 -281h373v-66h-360l58 -301h362v-66h-421zM446 674l-190 -361h258l-41 217zM564 1030h82l-111 -208h-65z" />
    <glyph glyph-name="aeacute" unicode="&#x1fd;" horiz-adv-x="954" 
d="M540 800h82l-111 -208h-65zM675 540q224 0 224 -274v-27h-395q4 -97 49.5 -142.5t122.5 -45.5q124 -3 149 102l71 -9q-13 -68 -67.5 -111t-153.5 -43q-154 0 -212 126q-37 -68 -98 -97t-128 -29q-91 0 -138 39.5t-47 112.5q0 78 57.5 117t154.5 39h170v58q0 66 -38 93.5
t-114 29.5q-64 1 -95.5 -24.5t-43.5 -78.5l-69 10q16 75 63 114.5t145 39.5q148 0 197 -97q65 97 196 97zM675 480q-76 0 -121 -44.5t-50 -137.5h323q-3 185 -152 182zM122 142q0 -90 115 -90q80 0 137.5 48.5t59.5 103.5v35l-171 1q-141 0 -141 -98z" />
    <glyph glyph-name="Oslashacute" unicode="&#x1fe;" horiz-adv-x="790" 
d="M395 -10q-117 0 -192 52l-28 -42h-68l52 80q-94 100 -94 310q0 190 81.5 295t248.5 105q115 0 193 -53l28 43h68l-53 -81q94 -103 94 -309q0 -190 -81.5 -295t-248.5 -105zM395 725q-256 0 -256 -335q0 -165 60 -248l351 537q-60 46 -155 46zM651 390q0 164 -60 247
l-351 -537q59 -45 155 -45q256 0 256 335zM459 1030h82l-111 -208h-65z" />
    <glyph glyph-name="oslashacute" unicode="&#x1ff;" horiz-adv-x="578" 
d="M289 -10q-73 0 -127 30l-13 -20h-68l36 55q-67 72 -67 210q0 135 63 205t176 70q75 0 127 -31l14 21h68l-37 -56q67 -72 67 -209q0 -135 -63 -205t-176 -70zM289 478q-170 0 -170 -213q0 -99 37 -151l225 341q-37 23 -92 23zM459 265q0 98 -37 150l-224 -341
q37 -22 91 -22q170 0 170 213zM353 800h82l-111 -208h-65z" />
    <glyph glyph-name="Adoublegrave" unicode="&#x200;" horiz-adv-x="720" 
d="M21 0l301 790h76l301 -790h-77l-92 247h-340l-92 -247h-77zM360 712l-71 -198l-75 -201h291l-74 201zM289 1030h82l94 -208h-65zM149 1030h82l94 -208h-65z" />
    <glyph glyph-name="edoublegrave" unicode="&#x201;" horiz-adv-x="570" 
d="M291 540q224 0 224 -274v-27h-395q4 -97 49.5 -142.5t122.5 -45.5q124 -3 149 102l71 -9q-13 -68 -67.5 -111t-153.5 -43q-113 0 -177 70t-64 205t64 205t177 70zM291 480q-76 0 -121 -44.5t-50 -137.5h323q-3 185 -152 182zM220 800h82l94 -208h-65zM80 800h82l94 -208
h-65z" />
    <glyph glyph-name="edoublegrave" unicode="&#x205;" horiz-adv-x="570" 
d="M291 540q224 0 224 -274v-27h-395q4 -97 49.5 -142.5t122.5 -45.5q124 -3 149 102l71 -9q-13 -68 -67.5 -111t-153.5 -43q-113 0 -177 70t-64 205t64 205t177 70zM291 480q-76 0 -121 -44.5t-50 -137.5h323q-3 185 -152 182zM220 800h82l94 -208h-65zM80 800h82l94 -208
h-65z" />
    <glyph glyph-name="Ainvertedbreve" unicode="&#x202;" horiz-adv-x="720" 
d="M21 0l301 790h76l301 -790h-77l-92 247h-340l-92 -247h-77zM360 712l-71 -198l-75 -201h291l-74 201zM538 822h-56q0 78 -28.5 110t-93.5 32t-93.5 -32t-28.5 -110h-56q0 100 40 149t138 49t138 -49t40 -149z" />
    <glyph glyph-name="ainvertedbreve" unicode="&#x203;" horiz-adv-x="570" 
d="M460 592h-56q0 78 -28.5 110t-93.5 32t-93.5 -32t-28.5 -110h-56q0 100 40 149t138 49t138 -49t40 -149zM52 142q0 76 50.5 111.5t151.5 50.5l182 27v25q0 66 -39 93.5t-115 29.5q-64 1 -95.5 -24.5t-43.5 -78.5l-69 10q16 75 63 114.5t145 39.5q104 0 161 -47.5
t57 -140.5v-228l6 -124h-58l-12 91q-24 -45 -80 -73t-119 -28q-91 0 -138 39.5t-47 112.5zM120 142q0 -91 117 -91q80 0 138.5 49t60.5 104v70l-183 -29q-66 -11 -99.5 -31.5t-33.5 -71.5z" />
    <glyph glyph-name="Edoublegrave" unicode="&#x204;" horiz-adv-x="695" 
d="M90 780h520v-66h-450v-281h410v-66h-410v-301h470v-66h-540v780zM279 1030h82l94 -208h-65zM139 1030h82l94 -208h-65z" />
    <glyph glyph-name="Einvertedbreve" unicode="&#x206;" horiz-adv-x="695" 
d="M90 780h520v-66h-450v-281h410v-66h-410v-301h470v-66h-540v780zM528 822h-56q0 78 -28.5 110t-93.5 32t-93.5 -32t-28.5 -110h-56q0 100 40 149t138 49t138 -49t40 -149z" />
    <glyph glyph-name="einvertedbreve" unicode="&#x207;" horiz-adv-x="570" 
d="M291 540q224 0 224 -274v-27h-395q4 -97 49.5 -142.5t122.5 -45.5q124 -3 149 102l71 -9q-13 -68 -67.5 -111t-153.5 -43q-113 0 -177 70t-64 205t64 205t177 70zM291 480q-76 0 -121 -44.5t-50 -137.5h323q-3 185 -152 182zM469 592h-56q0 78 -28.5 110t-93.5 32
t-93.5 -32t-28.5 -110h-56q0 100 40 149t138 49t138 -49t40 -149z" />
    <glyph glyph-name="Idoublegrave" unicode="&#x208;" horiz-adv-x="290" 
d="M180 780v-780h-70v780h70zM74 1030h82l94 -208h-65zM-66 1030h82l94 -208h-65z" />
    <glyph glyph-name="idoublegrave" unicode="&#x209;" horiz-adv-x="250" 
d="M92 0v530h66v-530h-66zM54 800h82l94 -208h-65zM-86 800h82l94 -208h-65z" />
    <glyph glyph-name="Iinvertedbreve" unicode="&#x20a;" horiz-adv-x="290" 
d="M180 780v-780h-70v780h70zM323 822h-56q0 78 -28.5 110t-93.5 32t-93.5 -32t-28.5 -110h-56q0 100 40 149t138 49t138 -49t40 -149z" />
    <glyph glyph-name="iinvertedbreve" unicode="&#x20b;" horiz-adv-x="250" 
d="M92 0v530h66v-530h-66zM303 592h-56q0 78 -28.5 110t-93.5 32t-93.5 -32t-28.5 -110h-56q0 100 40 149t138 49t138 -49t40 -149z" />
    <glyph glyph-name="Odoublegrave" unicode="&#x20c;" horiz-adv-x="790" 
d="M395 -10q-167 0 -248.5 105t-81.5 295t81.5 295t248.5 105t248.5 -105t81.5 -295t-81.5 -295t-248.5 -105zM395 725q-256 0 -256 -335t256 -335t256 335t-256 335zM329 1030h82l94 -208h-65zM189 1030h82l94 -208h-65z" />
    <glyph glyph-name="odoublegrave" unicode="&#x20d;" horiz-adv-x="578" 
d="M289 -10q-113 0 -176 70t-63 205t63 205t176 70t176 -70t63 -205t-63 -205t-176 -70zM289 478q-170 0 -170 -213t170 -213t170 213t-170 213zM218 800h82l94 -208h-65zM78 800h82l94 -208h-65z" />
    <glyph glyph-name="Oinvertedbreve" unicode="&#x20e;" horiz-adv-x="790" 
d="M395 -10q-167 0 -248.5 105t-81.5 295t81.5 295t248.5 105t248.5 -105t81.5 -295t-81.5 -295t-248.5 -105zM395 725q-256 0 -256 -335t256 -335t256 335t-256 335zM573 822h-56q0 78 -28.5 110t-93.5 32t-93.5 -32t-28.5 -110h-56q0 100 40 149t138 49t138 -49t40 -149z
" />
    <glyph glyph-name="oinvertedbreve" unicode="&#x20f;" horiz-adv-x="578" 
d="M289 -10q-113 0 -176 70t-63 205t63 205t176 70t176 -70t63 -205t-63 -205t-176 -70zM289 478q-170 0 -170 -213t170 -213t170 213t-170 213zM467 592h-56q0 78 -28.5 110t-93.5 32t-93.5 -32t-28.5 -110h-56q0 100 40 149t138 49t138 -49t40 -149z" />
    <glyph glyph-name="Rinvertedbreve" unicode="&#x212;" horiz-adv-x="705" 
d="M518 822h-56q0 78 -28.5 110t-93.5 32t-93.5 -32t-28.5 -110h-56q0 100 40 149t138 49t138 -49t40 -149zM160 347v-347h-70v780h300q242 0 242 -216q0 -190 -182 -214l213 -350h-84l-203 347h-216zM160 413h239q25 0 43 2t41 10.5t38 24t25.5 45t10.5 69.5t-10.5 69.5
t-25.5 44.5t-38 23.5t-41 10.5t-43 2h-239v-301z" />
    <glyph glyph-name="rinvertedbreve" unicode="&#x213;" horiz-adv-x="395" 
d="M388 592h-56q0 78 -28.5 110t-93.5 32t-93.5 -32t-28.5 -110h-56q0 100 40 149t138 49t138 -49t40 -149zM312 540q38 0 59 -8l-7 -68q-24 9 -52 9q-76 0 -125 -47.5t-51 -103.5v-322h-66v407l-6 123h60l12 -94q24 45 72 74.5t104 29.5z" />
    <glyph glyph-name="Udoublegrave" unicode="&#x214;" horiz-adv-x="774" 
d="M387 -10q-307 0 -307 290v500h72v-502q0 -50 10.5 -88t35 -70t72.5 -48.5t117 -16.5t117 16.5t72.5 48.5t35 70t10.5 88v502h72v-500q0 -290 -307 -290zM181 1030h82l94 -208h-65zM321 1030h82l94 -208h-65z" />
    <glyph glyph-name="udoublegrave" unicode="&#x215;" horiz-adv-x="574" 
d="M72 800h82l94 -208h-65zM212 800h82l94 -208h-65zM450 0l-12 90q-27 -45 -75 -72.5t-106 -27.5q-85 0 -140.5 45.5t-55.5 124.5v370h66v-355q0 -58 38 -90t102 -32q70 0 119.5 48t51.5 103v326h66v-407l6 -123h-60z" />
    <glyph glyph-name="Uinvertedbreve" unicode="&#x216;" horiz-adv-x="774" 
d="M387 -10q-307 0 -307 290v500h72v-502q0 -50 10.5 -88t35 -70t72.5 -48.5t117 -16.5t117 16.5t72.5 48.5t35 70t10.5 88v502h72v-500q0 -290 -307 -290zM565 822h-56q0 78 -28.5 110t-93.5 32t-93.5 -32t-28.5 -110h-56q0 100 40 149t138 49t138 -49t40 -149z" />
    <glyph glyph-name="uinvertedbreve" unicode="&#x217;" horiz-adv-x="574" 
d="M460 592h-56q0 78 -28.5 110t-93.5 32t-93.5 -32t-28.5 -110h-56q0 100 40 149t138 49t138 -49t40 -149zM450 0l-12 90q-27 -45 -75 -72.5t-106 -27.5q-85 0 -140.5 45.5t-55.5 124.5v370h66v-355q0 -58 38 -90t102 -32q70 0 119.5 48t51.5 103v326h66v-407l6 -123h-60z
" />
    <glyph glyph-name="Scommaaccent" unicode="&#x218;" horiz-adv-x="710" 
d="M355 -10q-252 0 -291 202l72 6q15 -75 66.5 -109t152.5 -34q54 0 101 14.5t82 53.5t35 96q0 75 -46.5 110.5t-169.5 49.5q-45 5 -78.5 12t-70 21t-59.5 34.5t-38 53.5t-15 76q0 106 73.5 160t186.5 54q248 0 286 -196l-72 -6q-14 73 -64 105t-150 32q-29 0 -58 -6
t-60.5 -20.5t-51 -46.5t-19.5 -76q0 -60 40 -90t152 -43q74 -9 120.5 -20.5t86.5 -35.5t58 -65t18 -103q0 -112 -83.5 -170.5t-203.5 -58.5zM322 -62h79l-50 -138h-67z" />
    <glyph glyph-name="scommaaccent" unicode="&#x219;" horiz-adv-x="530" 
d="M262 51q157 4 157 101q0 13 -1.5 23t-7.5 18.5t-9.5 14t-15 10.5l-17.5 7.5t-22.5 6t-24 4.5t-29.5 4.5t-31 4.5l-23 3q-22 4 -26.5 4.5t-25.5 5t-27.5 7.5t-24.5 9.5t-25 12.5l-19 16t-16.5 21t-9 26t-4.5 32q0 42 18 74t48 49.5t63.5 26t70.5 8.5q184 0 216 -154
l-71 -9q-24 105 -146 102q-130 -2 -130 -93q0 -17 6.5 -29.5t15 -19.5t27.5 -13t32.5 -8.5t41.5 -6.5l20 -3l28 -4t30 -4.5t29 -5.5t30 -7.5t26.5 -10t25 -13.5t19.5 -18t16.5 -23.5t9.5 -29t4 -35.5q0 -57 -35 -96t-84 -54t-108 -15q-99 0 -153.5 43t-67.5 111l71 9
q25 -105 149 -102zM230 -62h79l-50 -138h-67z" />
    <glyph glyph-name="Hcaron" unicode="&#x21e;" horiz-adv-x="750" 
d="M590 780h70v-780h-70v367h-430v-367h-70v780h70v-347h430v347zM191 1030h67l117 -150l117 150h67l-150 -208h-68z" />
    <glyph glyph-name="hcaron" unicode="&#x21f;" horiz-adv-x="574" 
d="M-79 1030h67l117 -150l117 150h67l-150 -208h-68zM70 0v800h66v-360q27 45 75 72.5t106 27.5q85 0 140.5 -45.5t55.5 -124.5v-370h-66v355q0 58 -38 90t-102 32q-70 0 -119.5 -48t-51.5 -103v-326h-66z" />
    <glyph glyph-name="Adotabove" unicode="&#x226;" horiz-adv-x="720" 
d="M21 0l301 790h76l301 -790h-77l-92 247h-340l-92 -247h-77zM360 712l-71 -198l-75 -201h291l-74 201zM403 969v-86h-86v86h86z" />
    <glyph glyph-name="adotabove" unicode="&#x227;" horiz-adv-x="570" 
d="M52 142q0 76 50.5 111.5t151.5 50.5l182 27v25q0 66 -39 93.5t-115 29.5q-64 1 -95.5 -24.5t-43.5 -78.5l-69 10q16 75 63 114.5t145 39.5q104 0 161 -47.5t57 -140.5v-228l6 -124h-58l-12 91q-24 -45 -80 -73t-119 -28q-91 0 -138 39.5t-47 112.5zM120 142
q0 -91 117 -91q80 0 138.5 49t60.5 104v70l-183 -29q-66 -11 -99.5 -31.5t-33.5 -71.5zM325 739v-86h-86v86h86z" />
    <glyph glyph-name="Otildemacron" unicode="&#x22c;" horiz-adv-x="790" 
d="M395 -10q-167 0 -248.5 105t-81.5 295t81.5 295t248.5 105t248.5 -105t81.5 -295t-81.5 -295t-248.5 -105zM395 725q-256 0 -256 -335t256 -335t256 335t-256 335zM466 820q-43 2 -83 38t-63 37q-27 2 -44 -11t-20 -27l-4 -14l-55 8q24 108 127 103q43 -2 83 -38t63 -37
q27 -2 44 11t20 27l4 14l55 -8q-24 -108 -127 -103zM259 994v64h272v-64h-272z" />
    <glyph glyph-name="otildemacron" unicode="&#x22d;" horiz-adv-x="578" 
d="M289 -10q-113 0 -176 70t-63 205t63 205t176 70t176 -70t63 -205t-63 -205t-176 -70zM289 478q-170 0 -170 -213t170 -213t170 213t-170 213zM360 590q-43 2 -83 38t-63 37q-27 2 -44 -11t-20 -27l-4 -14l-55 8q24 108 127 103q43 -2 83 -38t63 -37q27 -2 44 11t20 27
l4 14l55 -8q-24 -108 -127 -103zM153 764v64h272v-64h-272z" />
    <glyph glyph-name="Odotabove" unicode="&#x22e;" horiz-adv-x="790" 
d="M395 -10q-167 0 -248.5 105t-81.5 295t81.5 295t248.5 105t248.5 -105t81.5 -295t-81.5 -295t-248.5 -105zM395 725q-256 0 -256 -335t256 -335t256 335t-256 335zM438 969v-86h-86v86h86z" />
    <glyph glyph-name="odotabove" unicode="&#x22f;" horiz-adv-x="578" 
d="M289 -10q-113 0 -176 70t-63 205t63 205t176 70t176 -70t63 -205t-63 -205t-176 -70zM289 478q-170 0 -170 -213t170 -213t170 213t-170 213zM332 739v-86h-86v86h86z" />
    <glyph glyph-name="odotabovemacron" unicode="&#x231;" horiz-adv-x="578" 
d="M289 -10q-113 0 -176 70t-63 205t63 205t176 70t176 -70t63 -205t-63 -205t-176 -70zM289 478q-170 0 -170 -213t170 -213t170 213t-170 213zM332 699v-86h-86v86h86zM153 764v64h272v-64h-272z" />
    <glyph glyph-name="odotabovemacron" unicode="&#xe11e;" horiz-adv-x="578" 
d="M289 -10q-113 0 -176 70t-63 205t63 205t176 70t176 -70t63 -205t-63 -205t-176 -70zM289 478q-170 0 -170 -213t170 -213t170 213t-170 213zM332 699v-86h-86v86h86zM153 764v64h272v-64h-272z" />
    <glyph glyph-name="Ymacron" unicode="&#x232;" horiz-adv-x="710" 
d="M20 780h81l162 -244l92 -141l92 141l162 244h81l-300 -445v-335h-70v335zM219 894v64h272v-64h-272z" />
    <glyph glyph-name="ymacron" unicode="&#x233;" horiz-adv-x="540" 
d="M522 530l-209 -494l-96 -236h-77l93 220l-215 510h78l115 -291l59 -152l59 152l116 291h77zM134 664v64h272v-64h-272z" />
    <glyph glyph-name="dotlessj" unicode="&#x237;" horiz-adv-x="250" 
d="M-17 -147q63 0 88.5 28.5t25.5 116.5v532h66v-532q0 -46 -6.5 -79.5t-24.5 -65t-55.5 -47.5t-93.5 -16q-35 0 -57 8l8 64q21 -9 49 -9z" />
    <glyph glyph-name="schwa" unicode="&#x259;" horiz-adv-x="570" 
d="M279 -10q-224 0 -224 274v27h395q-4 97 -49.5 142.5t-122.5 45.5q-124 3 -149 -102l-71 9q13 68 67.5 111t153.5 43q113 0 177 -70t64 -205t-64 -205t-177 -70zM279 50q76 0 121 44.5t50 137.5h-323q3 -185 152 -182z" />
    <glyph glyph-name="ezh" unicode="&#x292;" horiz-adv-x="535" 
d="M260 -210q-108 0 -162 42.5t-65 111.5l67 10q19 -110 160 -107q76 2 120 47t44 126q0 80 -43.5 123.5t-116.5 45.5q-67 1 -105 -27l-40 43l188 188l78 76l-143 -1h-188v62h419v-54l-226 -226h18q97 0 162 -60.5t65 -169.5q0 -107 -69.5 -168.5t-162.5 -61.5z" />
    <glyph glyph-name="circumflex" unicode="&#x2c6;" 
d="M484 592h-67l-117 150l-117 -150h-67l150 208h68z" />
    <glyph glyph-name="caron" unicode="&#x2c7;" 
d="M417 800h67l-150 -208h-68l-150 208h67l117 -150z" />
    <glyph glyph-name="breve" unicode="&#x2d8;" 
d="M422 800h56q0 -100 -40 -149t-138 -49t-138 49t-40 149h56q0 -78 28.5 -110t93.5 -32t93.5 32t28.5 110z" />
    <glyph glyph-name="dotaccent" unicode="&#x2d9;" 
d="M343 739v-86h-86v86h86z" />
    <glyph glyph-name="ring" unicode="&#x2da;" 
d="M186 696q0 51 30.5 82.5t83.5 31.5t83.5 -31.5t30.5 -82.5t-30.5 -82.5t-83.5 -31.5t-83.5 31.5t-30.5 82.5zM244 696q0 -26 15 -42t41 -16t41 16t15 42t-15 42t-41 16t-41 -16t-15 -42z" />
    <glyph glyph-name="ogonek" unicode="&#x2db;" 
d="M492 46l14 -46q-54 -8 -94 -39.5t-40 -69.5q0 -46 56 -46q16 0 34 5.5t28 10.5l10 5l17 -51q-40 -25 -100 -25q-45 0 -77.5 23t-32.5 70q0 51 50.5 96t134.5 67z" />
    <glyph glyph-name="tilde" unicode="&#x2dc;" 
d="M371 630q-43 2 -83 38t-63 37q-27 2 -44 -11t-21 -27l-3 -14l-55 8q24 108 127 103q43 -2 83 -38t63 -37q27 -2 44 11t21 27l3 14l55 -8q-24 -108 -127 -103z" />
    <glyph glyph-name="hungarumlaut" unicode="&#x2dd;" 
d="M289 800h82l-111 -208h-65zM429 800h82l-111 -208h-65z" />
    <glyph glyph-name="uni0312" unicode="&#x312;" 
d="M331 592h-79l75 208h61z" />
    <glyph glyph-name="uni0323" unicode="&#x323;" 
d="M343 -67v-86h-86v86h86z" />
    <glyph glyph-name="uni0329" unicode="&#x329;" 
d="M330 -200h-60v160h60v-160z" />
    <glyph glyph-name="pi" unicode="&#x3c0;" horiz-adv-x="680" 
d="M29 468v62h599v-62h-143v-320q0 -49 17.5 -72t67.5 -23q25 0 49 9l8 -64q-22 -8 -57 -8q-36 0 -64 10.5t-44 26t-26 37t-13.5 40.5t-3.5 39v325h-194v-383l-12 -85h-60l6 123v345h-130z" />
    <glyph glyph-name="afii10023" unicode="&#x401;" horiz-adv-x="695" 
d="M90 780h520v-66h-450v-281h410v-66h-410v-301h470v-66h-540v780zM300 969v-86h-86v86h86zM486 969v-86h-86v86h86z" />
    <glyph glyph-name="afii10051" unicode="&#x402;" horiz-adv-x="733" 
d="M295 714v-342q58 71 185 71q111 0 169.5 -57.5t58.5 -168.5q0 -110 -56.5 -168.5t-158.5 -58.5q-35 0 -57 8l8 69q21 -9 49 -9q68 0 105 41t37 118q0 159 -161 159q-84 0 -130 -34.5t-49 -75.5v-266h-70v714h-200v66h470v-66h-200z" />
    <glyph glyph-name="afii10052" unicode="&#x403;" horiz-adv-x="585" 
d="M160 714v-714h-70v780h480v-66h-410zM389 1030h82l-111 -208h-65z" />
    <glyph glyph-name="afii10053" unicode="&#x404;" horiz-adv-x="750" 
d="M395 725q-240 0 -255 -292h430v-66h-431q9 -312 256 -312q101 0 153 35t67 110l72 -6q-40 -204 -292 -204q-167 0 -248.5 105t-81.5 295t81.5 295t248.5 105q252 0 292 -204l-72 -6q-15 75 -67 110t-153 35z" />
    <glyph glyph-name="afii10054" unicode="&#x405;" horiz-adv-x="710" 
d="M355 -10q-252 0 -291 202l72 6q15 -75 66.5 -109t152.5 -34q54 0 101 14.5t82 53.5t35 96q0 75 -46.5 110.5t-169.5 49.5q-45 5 -78.5 12t-70 21t-59.5 34.5t-38 53.5t-15 76q0 106 73.5 160t186.5 54q248 0 286 -196l-72 -6q-14 73 -64 105t-150 32q-29 0 -58 -6
t-60.5 -20.5t-51 -46.5t-19.5 -76q0 -60 40 -90t152 -43q74 -9 120.5 -20.5t86.5 -35.5t58 -65t18 -103q0 -112 -83.5 -170.5t-203.5 -58.5z" />
    <glyph glyph-name="afii10055" unicode="&#x406;" horiz-adv-x="290" 
d="M180 780v-780h-70v780h70z" />
    <glyph glyph-name="afii10056" unicode="&#x407;" horiz-adv-x="290" 
d="M180 780v-780h-70v780h70zM95 969v-86h-86v86h86zM281 969v-86h-86v86h86z" />
    <glyph glyph-name="afii10057" unicode="&#x408;" horiz-adv-x="507" 
d="M351 780h71v-570q0 -99 -53.5 -159.5t-150.5 -60.5q-185 0 -200 165l71 9q8 -113 129 -109q133 4 133 144v581z" />
    <glyph glyph-name="afii10058" unicode="&#x409;" horiz-adv-x="1173" 
d="M660 780v-352h245q49 0 87 -9t72 -31t52.5 -66t18.5 -108t-18.5 -108t-52.5 -66t-72 -31t-87 -9h-315v714h-228l-26 -184q-15 -108 -31.5 -185.5t-40 -146t-54 -110t-72.5 -65t-96 -23.5h-10l-2 66h10q96 0 143.5 106t79.5 348l35 260h362zM660 362v-296h236q33 0 55.5 4
t50.5 17t43 45t15 82t-15 82t-43 45t-50.5 17t-55.5 4h-236z" />
    <glyph glyph-name="afii10059" unicode="&#x40a;" horiz-adv-x="1173" 
d="M660 780v-352h245q49 0 87 -9t72 -31t52.5 -66t18.5 -108t-18.5 -108t-52.5 -66t-72 -31t-87 -9h-315v362h-430v-362h-70v780h70v-352h430v352h70zM660 362v-296h236q33 0 55.5 4t50.5 17t43 45t15 82t-15 82t-43 45t-50.5 17t-55.5 4h-236z" />
    <glyph glyph-name="afii10060" unicode="&#x40b;" horiz-adv-x="733" 
d="M225 0v714h-200v66h470v-66h-200v-366q27 44 74.5 69.5t106.5 25.5q85 0 140.5 -45.5t55.5 -124.5v-273h-71v258q0 58 -35.5 87.5t-99.5 29.5q-70 0 -119.5 -46t-51.5 -100v-229h-70z" />
    <glyph glyph-name="afii10061" unicode="&#x40c;" horiz-adv-x="695" 
d="M409 1030h82l-111 -208h-65zM658 780l-175 -288q-42 -69 -90 -92q51 -24 93 -92l187 -308h-83l-165 282q-26 45 -52 65t-71 20h-142v-367h-70v780h70v-347h139q45 0 71 20t52 65l153 262h83z" />
    <glyph glyph-name="afii10062" unicode="&#x40e;" horiz-adv-x="650" 
d="M161 53q44 0 69 28t52 87l24 54l-255 558h75l214 -482l214 482h75l-283 -632q-14 -31 -26.5 -52.5t-34.5 -49t-53.5 -42t-70.5 -14.5q-67 0 -103 18l8 64q38 -19 95 -19zM458 1030h61q0 -100 -40 -149t-138 -49t-138 49t-40 149h61q0 -79 26 -110.5t91 -31.5t91 31.5
t26 110.5z" />
    <glyph glyph-name="afii10145" unicode="&#x40f;" horiz-adv-x="750" 
d="M90 0v780h70v-714h430v714h70v-780h-249v-160h-72v160h-249z" />
    <glyph glyph-name="afii10017" unicode="&#x410;" horiz-adv-x="720" 
d="M21 0l301 790h76l301 -790h-77l-92 247h-340l-92 -247h-77zM360 712l-71 -198l-75 -201h291l-74 201z" />
    <glyph glyph-name="afii10018" unicode="&#x411;" horiz-adv-x="695" 
d="M570 714h-410v-286h245q49 0 87 -9t72 -31t52.5 -66t18.5 -108t-18.5 -108t-52.5 -66t-72 -31t-87 -9h-315v780h480v-66zM396 362h-236v-296h236q33 0 55.5 4t50.5 17t43 45t15 82t-15 82t-43 45t-50.5 17t-55.5 4z" />
    <glyph glyph-name="afii10019" unicode="&#x412;" horiz-adv-x="695" 
d="M405 0h-315v780h309q37 0 70.5 -9t66.5 -30t52.5 -63.5t19.5 -101.5q0 -74 -32 -117t-71 -54q55 -11 92.5 -59.5t37.5 -131.5q0 -64 -18.5 -108t-52.5 -66t-72 -31t-87 -9zM160 66h236q33 0 55.5 4t50.5 17t43 45t15 82q0 40 -10 69t-24.5 45t-37.5 25t-42 11.5t-45 2.5
h-241v-301zM388 714h-228v-281h228q72 0 108.5 30.5t36.5 112.5q0 81 -35.5 109.5t-109.5 28.5z" />
    <glyph glyph-name="afii10020" unicode="&#x413;" horiz-adv-x="585" 
d="M160 714v-714h-70v780h480v-66h-410z" />
    <glyph glyph-name="afii10021" unicode="&#x414;" horiz-adv-x="770" 
d="M660 780v-714h71v-226h-71v160h-559v-160h-71v226h10q96 0 143.5 106t79.5 348l35 260h362zM363 714l-36 -249q-26 -177 -57.5 -267.5t-88.5 -131.5h409v648h-227z" />
    <glyph glyph-name="afii10022" unicode="&#x415;" horiz-adv-x="695" 
d="M90 780h520v-66h-450v-281h410v-66h-410v-301h470v-66h-540v780z" />
    <glyph glyph-name="afii10024" unicode="&#x416;" horiz-adv-x="980" 
d="M943 780l-175 -288q-42 -69 -90 -92q51 -24 93 -92l187 -308h-83l-165 282q-26 45 -52 65t-71 20h-62v-367h-70v367h-62q-45 0 -71 -20t-52 -65l-165 -282h-83l187 308q42 68 93 92q-48 23 -90 92l-175 288h83l153 -262q26 -45 52 -65t71 -20h59v347h70v-347h59
q45 0 71 20t52 65l153 262h83z" />
    <glyph glyph-name="afii10025" unicode="&#x417;" horiz-adv-x="682" 
d="M627 212q0 -97 -76.5 -159.5t-223.5 -62.5q-244 0 -279 197l69 6q11 -72 61 -106.5t149 -35.5q111 -2 171 38.5t60 122.5q0 42 -14 72t-34 45.5t-52.5 24.5t-58.5 11t-63 2h-103v66h103q45 0 76 5t60.5 19.5t44 46t14.5 79.5q0 75 -53 110.5t-146 33.5q-97 -1 -144.5 -34
t-58.5 -105l-69 6q35 196 272 196q118 0 193 -51t75 -156q0 -78 -40.5 -124.5t-98.5 -53.5q63 -8 114.5 -57t51.5 -136z" />
    <glyph glyph-name="afii10026" unicode="&#x418;" horiz-adv-x="750" 
d="M593 657l-92 -142l-348 -515h-63v780h71v-390l-4 -267l92 142l348 515h63v-780h-71v390z" />
    <glyph glyph-name="afii10027" unicode="&#x419;" horiz-adv-x="750" 
d="M593 657l-92 -142l-348 -515h-63v780h71v-390l-4 -267l92 142l348 515h63v-780h-71v390zM492 1030h61q0 -100 -40 -149t-138 -49t-138 49t-40 149h61q0 -79 26 -110.5t91 -31.5t91 31.5t26 110.5z" />
    <glyph glyph-name="afii10028" unicode="&#x41a;" horiz-adv-x="695" 
d="M658 780l-175 -288q-42 -69 -90 -92q51 -24 93 -92l187 -308h-83l-165 282q-26 45 -52 65t-71 20h-142v-367h-70v780h70v-347h139q45 0 71 20t52 65l153 262h83z" />
    <glyph glyph-name="afii10029" unicode="&#x41b;" horiz-adv-x="770" 
d="M660 780v-780h-70v714h-228l-26 -184q-15 -108 -31.5 -185.5t-40 -146t-54 -110t-72.5 -65t-96 -23.5h-10l-2 66h10q96 0 143.5 106t79.5 348l35 260h362z" />
    <glyph glyph-name="afii10030" unicode="&#x41c;" horiz-adv-x="912" 
d="M423 0l-212 483l-57 141l4 -334v-290h-68v780h61l230 -515l75 -189l75 189l230 515h61v-780h-68v290l4 340l-57 -147l-212 -483h-66z" />
    <glyph glyph-name="afii10031" unicode="&#x41d;" horiz-adv-x="750" 
d="M590 780h70v-780h-70v367h-430v-367h-70v780h70v-347h430v347z" />
    <glyph glyph-name="afii10032" unicode="&#x41e;" horiz-adv-x="790" 
d="M395 -10q-167 0 -248.5 105t-81.5 295t81.5 295t248.5 105t248.5 -105t81.5 -295t-81.5 -295t-248.5 -105zM395 725q-256 0 -256 -335t256 -335t256 335t-256 335z" />
    <glyph glyph-name="afii10033" unicode="&#x41f;" horiz-adv-x="750" 
d="M660 780v-780h-70v714h-430v-714h-70v780h570z" />
    <glyph glyph-name="afii10034" unicode="&#x420;" horiz-adv-x="650" 
d="M160 402h217q24 0 43 2.5t42 12t38.5 25.5t26 46t10.5 70t-10.5 70t-26 46t-38.5 25.5t-42 12t-43 2.5h-217v-312zM160 336v-336h-70v780h276q49 0 90 -10.5t77.5 -34t57.5 -68.5t21 -109t-21 -109t-57.5 -68.5t-77.5 -34t-90 -10.5h-206z" />
    <glyph glyph-name="afii10035" unicode="&#x421;" horiz-adv-x="750" 
d="M139 390q0 -335 256 -335q101 0 153 35t67 110l72 -6q-40 -204 -292 -204q-167 0 -248.5 105t-81.5 295t81.5 295t248.5 105q252 0 292 -204l-72 -6q-15 75 -67 110t-153 35q-256 0 -256 -335z" />
    <glyph glyph-name="afii10036" unicode="&#x422;" horiz-adv-x="620" 
d="M345 714v-714h-70v714h-250v66h570v-66h-250z" />
    <glyph glyph-name="afii10037" unicode="&#x423;" horiz-adv-x="650" 
d="M161 53q44 0 69 28t52 87l24 54l-255 558h75l214 -482l214 482h75l-283 -632q-14 -31 -26.5 -52.5t-34.5 -49t-53.5 -42t-70.5 -14.5q-67 0 -103 18l8 64q38 -19 95 -19z" />
    <glyph glyph-name="afii10038" unicode="&#x424;" horiz-adv-x="810" 
d="M370 0v115q-149 0 -234.5 72.5t-85.5 202.5t85.5 202.5t234.5 72.5v115h70v-115q149 0 234.5 -72.5t85.5 -202.5t-85.5 -202.5t-234.5 -72.5v-115h-70zM124 390q0 -210 246 -210v420q-246 0 -246 -210zM440 600v-420q246 0 246 210t-246 210z" />
    <glyph glyph-name="afii10039" unicode="&#x425;" horiz-adv-x="700" 
d="M350 345l-92 -141l-135 -204h-85l232 342l42 61l-41 58l-215 319h82l120 -180l92 -140l92 140l120 180h84l-215 -319l-41 -58l42 -61l230 -342h-85l-135 204z" />
    <glyph glyph-name="afii10040" unicode="&#x426;" horiz-adv-x="770" 
d="M90 0v780h70v-714h430v714h70v-714h71v-226h-71v160h-570z" />
    <glyph glyph-name="afii10041" unicode="&#x427;" horiz-adv-x="690" 
d="M600 780v-780h-70v353q-34 -29 -92.5 -47.5t-126.5 -18.5q-107 0 -176.5 48.5t-69.5 132.5v312h70v-299q0 -63 46 -97t130 -34q78 0 136.5 26.5t82.5 58.5v345h70z" />
    <glyph glyph-name="afii10042" unicode="&#x428;" horiz-adv-x="1000" 
d="M535 780v-714h305v714h70v-780h-820v780h70v-714h305v714h70z" />
    <glyph glyph-name="afii10043" unicode="&#x429;" horiz-adv-x="1020" 
d="M535 780v-714h305v714h70v-714h71v-226h-71v160h-820v780h70v-714h305v714h70z" />
    <glyph glyph-name="afii10044" unicode="&#x42a;" horiz-adv-x="805" 
d="M25 780h245v-352h245q49 0 87 -9t72 -31t52.5 -66t18.5 -108t-18.5 -108t-52.5 -66t-72 -31t-87 -9h-315v714h-175v66zM506 362h-236v-296h236q33 0 55.5 4t50.5 17t43 45t15 82t-15 82t-43 45t-50.5 17t-55.5 4z" />
    <glyph glyph-name="afii10045" unicode="&#x42b;" horiz-adv-x="910" 
d="M90 780h70v-352h245q49 0 87 -9t72 -31t52.5 -66t18.5 -108t-18.5 -108t-52.5 -66t-72 -31t-87 -9h-315v780zM396 362h-236v-296h236q33 0 55.5 4t50.5 17t43 45t15 82t-15 82t-43 45t-50.5 17t-55.5 4zM800 780v-780h-70v780h70z" />
    <glyph glyph-name="afii10046" unicode="&#x42c;" horiz-adv-x="695" 
d="M90 780h70v-352h245q49 0 87 -9t72 -31t52.5 -66t18.5 -108t-18.5 -108t-52.5 -66t-72 -31t-87 -9h-315v780zM396 362h-236v-296h236q33 0 55.5 4t50.5 17t43 45t15 82t-15 82t-43 45t-50.5 17t-55.5 4z" />
    <glyph glyph-name="afii10047" unicode="&#x42d;" horiz-adv-x="750" 
d="M355 725q-101 0 -153 -35t-67 -110l-72 6q40 204 292 204q167 0 248.5 -105t81.5 -295t-81.5 -295t-248.5 -105q-252 0 -292 204l72 6q15 -75 67 -110t153 -35q248 0 255 312h-430v66h430q-16 292 -255 292z" />
    <glyph glyph-name="afii10048" unicode="&#x42e;" horiz-adv-x="1040" 
d="M645 -10q-162 0 -243.5 99t-86.5 278h-155v-367h-70v780h70v-347h156q9 170 90.5 263.5t238.5 93.5q167 0 248.5 -105t81.5 -295t-81.5 -295t-248.5 -105zM645 725q-256 0 -256 -335t256 -335t256 335t-256 335z" />
    <glyph glyph-name="afii10049" unicode="&#x42f;" horiz-adv-x="695" 
d="M32 0l175 288q26 41 49 61q-193 21 -193 215q0 216 242 216h300v-780h-70v347h-139q-45 0 -71 -20t-52 -65l-153 -262h-88zM296 413h239v301h-239q-25 0 -43 -2t-41 -10.5t-38 -23.5t-25.5 -44.5t-10.5 -69.5t10.5 -69.5t25.5 -45t38 -24t41 -10.5t43 -2z" />
    <glyph glyph-name="afii10065" unicode="&#x430;" horiz-adv-x="570" 
d="M52 142q0 76 50.5 111.5t151.5 50.5l182 27v25q0 66 -39 93.5t-115 29.5q-64 1 -95.5 -24.5t-43.5 -78.5l-69 10q16 75 63 114.5t145 39.5q104 0 161 -47.5t57 -140.5v-228l6 -124h-58l-12 91q-24 -45 -80 -73t-119 -28q-91 0 -138 39.5t-47 112.5zM120 142
q0 -91 117 -91q80 0 138.5 49t60.5 104v70l-183 -29q-66 -11 -99.5 -31.5t-33.5 -71.5z" />
    <glyph glyph-name="afii10066" unicode="&#x431;" horiz-adv-x="580" 
d="M291 -10q-113 0 -176 70t-63 205q0 74 5.5 136t13.5 108t23 82.5t29 61t36.5 43.5t40 29t46 18t47 10.5l50.5 6.5q115 13 183 40v-68q-69 -29 -171 -39q-57 -6 -92 -16.5t-66 -36.5t-48.5 -72.5t-25.5 -120.5q58 93 168 93q113 0 176 -70t63 -205t-63 -205t-176 -70z
M291 478q-170 0 -170 -213t170 -213t170 213t-170 213z" />
    <glyph glyph-name="afii10067" unicode="&#x432;" horiz-adv-x="565" 
d="M320 0h-240v530h245q31 0 58.5 -5.5t55 -19.5t44 -43t16.5 -71q0 -51 -26 -78t-62 -33q42 -3 73 -36.5t31 -91.5q0 -152 -195 -152zM146 61h176q61 0 92.5 20t31.5 71q0 93 -117 93h-183v-184zM316 467h-170v-163h170q60 0 87.5 21t27.5 66q0 42 -26 59t-89 17z" />
    <glyph glyph-name="afii10068" unicode="&#x433;" horiz-adv-x="435" 
d="M80 530h326v-62h-260v-468h-66v530z" />
    <glyph glyph-name="afii10069" unicode="&#x434;" horiz-adv-x="621" 
d="M115 -160h-66v222h14q63 1 90.5 43.5t47.5 162.5l42 262h268v-468h66v-222h-66v160h-396v-160zM445 62v406h-148l-31 -191q-16 -95 -32 -144.5t-46 -70.5h257z" />
    <glyph glyph-name="afii10070" unicode="&#x435;" horiz-adv-x="570" 
d="M291 540q224 0 224 -274v-27h-395q4 -97 49.5 -142.5t122.5 -45.5q124 -3 149 102l71 -9q-13 -68 -67.5 -111t-153.5 -43q-113 0 -177 70t-64 205t64 205t177 70zM291 480q-76 0 -121 -44.5t-50 -137.5h323q-3 185 -152 182z" />
    <glyph glyph-name="afii10072" unicode="&#x436;" horiz-adv-x="778" 
d="M45 530h77l84 -144q24 -43 48 -61.5t67 -18.5h35v224h66v-224h35q43 0 67 18.5t48 61.5l84 144h77l-103 -169q-42 -65 -83 -86q44 -20 86 -86l115 -189h-77l-96 164q-24 43 -48 61.5t-67 18.5h-38v-244h-66v244h-38q-43 0 -67 -18.5t-48 -61.5l-96 -164h-77l115 189
q42 66 86 86q-41 21 -83 86z" />
    <glyph glyph-name="afii10073" unicode="&#x437;" horiz-adv-x="546" 
d="M491 148q0 -69 -59 -113.5t-164 -44.5q-98 0 -152.5 43t-67.5 111l71 9q25 -103 149 -103q155 0 155 98q0 26 -9 44t-20 27t-33 14t-36 5.5t-40 0.5h-81v59h81q57 0 88.5 19.5t31.5 75.5q0 47 -34 66.5t-99 19.5q-64 0 -98 -24t-46 -78l-71 9q33 154 215 154
q84 0 142 -36.5t58 -110.5q0 -51 -26.5 -80.5t-63.5 -38.5q109 -22 109 -126z" />
    <glyph glyph-name="afii10074" unicode="&#x438;" horiz-adv-x="594" 
d="M138 0h-58v530h66l-4 -426l314 426h58v-530h-66l4 426z" />
    <glyph glyph-name="afii10075" unicode="&#x439;" horiz-adv-x="584" 
d="M128 0h-58v530h66l-4 -426l314 426h58v-530h-66l4 426zM404 800h61q0 -100 -40 -149t-138 -49t-138 49t-40 149h61q0 -79 26 -110.5t91 -31.5t91 31.5t26 110.5z" />
    <glyph glyph-name="afii10076" unicode="&#x43a;" horiz-adv-x="572" 
d="M450 530h77l-103 -169q-42 -65 -83 -86q44 -20 86 -86l115 -189h-77l-96 164q-24 43 -48 61.5t-67 18.5h-108v-244h-66v530h66v-224h105q43 0 67 18.5t48 61.5z" />
    <glyph glyph-name="afii10077" unicode="&#x43b;" horiz-adv-x="582" 
d="M502 530v-530h-66v468h-148l-31 -191q-26 -157 -73 -217t-134 -60h-10l-1 62h9q67 0 95.5 42t48.5 164l42 262h268z" />
    <glyph glyph-name="afii10078" unicode="&#x43c;" horiz-adv-x="732" 
d="M593 418l-194 -418h-66l-194 418l5 -159v-259h-64v530h71l156 -334l59 -133l59 133l156 334h71v-530h-64v259z" />
    <glyph glyph-name="afii10079" unicode="&#x43d;" horiz-adv-x="594" 
d="M80 530h66v-222h302v222h66v-530h-66v246h-302v-246h-66v530z" />
    <glyph glyph-name="afii10080" unicode="&#x43e;" horiz-adv-x="578" 
d="M289 -10q-113 0 -176 70t-63 205t63 205t176 70t176 -70t63 -205t-63 -205t-176 -70zM289 478q-170 0 -170 -213t170 -213t170 213t-170 213z" />
    <glyph glyph-name="afii10081" unicode="&#x43f;" horiz-adv-x="594" 
d="M146 468v-468h-66v530h434v-530h-66v468h-302z" />
    <glyph glyph-name="afii10082" unicode="&#x440;" horiz-adv-x="599" 
d="M136 90v-290h-66v606l-6 124h60l12 -91q27 46 74 73.5t104 27.5q111 0 173 -72.5t62 -202.5t-62 -202.5t-173 -72.5q-57 0 -104 27.5t-74 72.5zM479 265q0 102 -44 157t-123 55q-76 0 -125 -47.5t-51 -103.5v-122q2 -56 51 -103.5t125 -47.5q79 0 123 55.5t44 156.5z" />
    <glyph glyph-name="afii10083" unicode="&#x441;" horiz-adv-x="550" 
d="M119 265q0 -101 44 -156.5t123 -57.5q122 -3 146 102l71 -9q-32 -154 -216 -154q-112 0 -174.5 72.5t-62.5 202.5t62.5 202.5t174.5 72.5q184 0 216 -154l-71 -9q-24 105 -146 102q-79 -2 -123 -57.5t-44 -156.5z" />
    <glyph glyph-name="afii10084" unicode="&#x442;" horiz-adv-x="500" 
d="M44 468v62h412v-62h-173v-468h-66v468h-173z" />
    <glyph glyph-name="afii10085" unicode="&#x443;" horiz-adv-x="540" 
d="M100 -147q35 0 56.5 18.5t39.5 60.5l37 88l-215 510h78l115 -291l59 -152l59 152l116 291h77l-254 -604q-31 -73 -67 -104.5t-101 -31.5q-35 0 -57 8l8 64q21 -9 49 -9z" />
    <glyph glyph-name="afii10086" unicode="&#x444;" horiz-adv-x="724" 
d="M329 -200v190q-56 0 -107 17.5t-92 50.5t-65.5 86.5t-24.5 120.5t24.5 120.5t65.5 86.5t92 50.5t107 17.5v260h66v-260q56 0 107 -17.5t92 -50.5t65.5 -86.5t24.5 -120.5t-24.5 -120.5t-65.5 -86.5t-92 -50.5t-107 -17.5v-190h-66zM395 478v-426q90 0 155 51.5t65 161.5
t-65 161.5t-155 51.5zM109 265q0 -110 65 -161.5t155 -51.5v426q-90 0 -155 -51.5t-65 -161.5z" />
    <glyph glyph-name="afii10087" unicode="&#x445;" horiz-adv-x="530" 
d="M265 222l-69 -97l-92 -125h-81l160 220l42 56l-42 55l-147 199h81l79 -111l69 -97l68 97l79 111h80l-145 -199l-41 -55l41 -56l160 -220h-81l-91 125z" />
    <glyph glyph-name="afii10088" unicode="&#x446;" horiz-adv-x="624" 
d="M514 62h66v-222h-66v160h-434v530h66v-468h302v468h66v-468z" />
    <glyph glyph-name="afii10089" unicode="&#x447;" horiz-adv-x="584" 
d="M513 530v-530h-66v219q-23 -18 -71.5 -32.5t-109.5 -14.5q-82 0 -139 40.5t-57 117.5v200h66v-190q0 -58 36.5 -81.5t103.5 -23.5q64 0 109 18t62 35v242h66z" />
    <glyph glyph-name="afii10090" unicode="&#x448;" horiz-adv-x="852" 
d="M459 530v-468h247v468h66v-530h-692v530h66v-468h247v468h66z" />
    <glyph glyph-name="afii10091" unicode="&#x449;" horiz-adv-x="872" 
d="M449 530v-468h247v468h66v-468h66v-222h-66v160h-692v530h66v-468h247v468h66z" />
    <glyph glyph-name="afii10092" unicode="&#x44a;" horiz-adv-x="596" 
d="M29 468v62h188v-222h150q40 0 71 -6.5t59.5 -22.5t44 -47.5t15.5 -77.5t-15.5 -77.5t-44 -47.5t-59.5 -22.5t-71 -6.5h-216v468h-122zM217 62h166q105 0 105 92t-105 92h-166v-184z" />
    <glyph glyph-name="afii10093" unicode="&#x44b;" horiz-adv-x="688" 
d="M146 62h166q105 0 105 92t-105 92h-166v-184zM80 0v530h66v-222h150q40 0 71 -6.5t59.5 -22.5t44 -47.5t15.5 -77.5t-15.5 -77.5t-44 -47.5t-59.5 -22.5t-71 -6.5h-216zM542 0v530h66v-530h-66z" />
    <glyph glyph-name="afii10094" unicode="&#x44c;" horiz-adv-x="525" 
d="M146 62h166q105 0 105 92t-105 92h-166v-184zM80 0v530h66v-222h150q40 0 71 -6.5t59.5 -22.5t44 -47.5t15.5 -77.5t-15.5 -77.5t-44 -47.5t-59.5 -22.5t-71 -6.5h-216z" />
    <glyph glyph-name="afii10095" unicode="&#x44d;" horiz-adv-x="570" 
d="M279 540q113 0 177 -70t64 -205t-64 -205t-177 -70q-99 0 -153.5 43t-67.5 111l71 9q25 -105 149 -102q77 0 122.5 45.5t49.5 142.5h-243v59h243q-5 93 -50 137.5t-121 44.5q-122 3 -146 -103l-71 9q32 154 217 154z" />
    <glyph glyph-name="afii10096" unicode="&#x44e;" horiz-adv-x="788" 
d="M499 -10q-109 0 -172 65t-67 191h-114v-246h-66v530h66v-222h115q10 114 72.5 173t165.5 59q113 0 176 -70t63 -205t-63 -205t-176 -70zM499 478q-170 0 -170 -213t170 -213t170 213t-170 213z" />
    <glyph glyph-name="afii10097" unicode="&#x44f;" horiz-adv-x="554" 
d="M129 0h-81l103 169q22 36 44 57q-127 21 -127 150q0 46 15.5 77.5t44 47.5t59.5 22.5t71 6.5h216v-530h-66v222h-81q-43 0 -66.5 -18t-47.5 -60zM408 468h-166q-105 0 -105 -92t105 -92h166v184z" />
    <glyph glyph-name="afii10071" unicode="&#x451;" horiz-adv-x="570" 
d="M291 540q224 0 224 -274v-27h-395q4 -97 49.5 -142.5t122.5 -45.5q124 -3 149 102l71 -9q-13 -68 -67.5 -111t-153.5 -43q-113 0 -177 70t-64 205t64 205t177 70zM291 480q-76 0 -121 -44.5t-50 -137.5h323q-3 185 -152 182zM241 739v-86h-86v86h86zM427 739v-86h-86v86
h86z" />
    <glyph glyph-name="afii10099" unicode="&#x452;" horiz-adv-x="574" 
d="M333 -147q63 0 88.5 28.5t25.5 116.5v357q0 58 -38 90t-102 32q-70 0 -119.5 -48t-51.5 -103v-326h-66v627h-111v62h111v111h66v-111h141v-62h-141v-187q27 45 75 72.5t106 27.5q85 0 140.5 -45.5t55.5 -124.5v-372q0 -46 -6.5 -79.5t-24.5 -65t-55.5 -47.5t-93.5 -16
q-35 0 -57 8l8 64q21 -9 49 -9z" />
    <glyph glyph-name="afii10100" unicode="&#x453;" horiz-adv-x="435" 
d="M80 530h326v-62h-260v-468h-66v530zM306 800h82l-111 -208h-65z" />
    <glyph glyph-name="afii10101" unicode="&#x454;" horiz-adv-x="570" 
d="M291 540q185 0 217 -154l-71 -9q-24 106 -146 103q-76 0 -121 -44.5t-50 -137.5h243v-59h-243q4 -97 49.5 -142.5t122.5 -45.5q124 -3 149 102l71 -9q-13 -68 -67.5 -111t-153.5 -43q-113 0 -177 70t-64 205t64 205t177 70z" />
    <glyph glyph-name="afii10102" unicode="&#x455;" horiz-adv-x="530" 
d="M262 51q157 4 157 101q0 13 -1.5 23t-7.5 18.5t-9.5 14t-15 10.5l-17.5 7.5t-22.5 6t-24 4.5t-29.5 4.5t-31 4.5l-23 3q-22 4 -26.5 4.5t-25.5 5t-27.5 7.5t-24.5 9.5t-25 12.5l-19 16t-16.5 21t-9 26t-4.5 32q0 42 18 74t48 49.5t63.5 26t70.5 8.5q184 0 216 -154
l-71 -9q-24 105 -146 102q-130 -2 -130 -93q0 -17 6.5 -29.5t15 -19.5t27.5 -13t32.5 -8.5t41.5 -6.5l20 -3l28 -4t30 -4.5t29 -5.5t30 -7.5t26.5 -10t25 -13.5t19.5 -18t16.5 -23.5t9.5 -29t4 -35.5q0 -57 -35 -96t-84 -54t-108 -15q-99 0 -153.5 43t-67.5 111l71 9
q25 -105 149 -102z" />
    <glyph glyph-name="afii10103" unicode="&#x456;" horiz-adv-x="250" 
d="M168 739v-86h-86v86h86zM92 0v530h66v-530h-66z" />
    <glyph glyph-name="afii10104" unicode="&#x457;" horiz-adv-x="250" 
d="M92 0v530h66v-530h-66zM75 739v-86h-86v86h86zM261 739v-86h-86v86h86z" />
    <glyph glyph-name="afii10105" unicode="&#x458;" horiz-adv-x="250" 
d="M-22 -147q63 0 88.5 28.5t25.5 116.5v532h66v-532q0 -46 -6.5 -79.5t-24.5 -65t-55.5 -47.5t-93.5 -16q-35 0 -57 8l8 64q21 -9 49 -9zM168 739v-86h-86v86h86z" />
    <glyph glyph-name="afii10106" unicode="&#x459;" horiz-adv-x="881" 
d="M436 0v468h-148l-31 -191q-26 -157 -73 -217t-134 -60h-10l-1 62h9q67 0 95.5 42t48.5 164l42 262h268v-222h150q40 0 71 -6.5t59.5 -22.5t44 -47.5t15.5 -77.5t-15.5 -77.5t-44 -47.5t-59.5 -22.5t-71 -6.5h-216zM502 62h166q105 0 105 92t-105 92h-166v-184z" />
    <glyph glyph-name="afii10107" unicode="&#x45a;" horiz-adv-x="883" 
d="M438 0v246h-302v-246h-66v530h66v-222h302v222h66v-222h150q40 0 71 -6.5t59.5 -22.5t44 -47.5t15.5 -77.5t-15.5 -77.5t-44 -47.5t-59.5 -22.5t-71 -6.5h-216zM504 62h166q105 0 105 92t-105 92h-166v-184z" />
    <glyph glyph-name="afii10108" unicode="&#x45b;" horiz-adv-x="574" 
d="M277 627h-141v-187q27 45 75 72.5t106 27.5q85 0 140.5 -45.5t55.5 -124.5v-370h-66v355q0 58 -38 90t-102 32q-70 0 -119.5 -48t-51.5 -103v-326h-66v627h-111v62h111v111h66v-111h141v-62z" />
    <glyph glyph-name="afii10109" unicode="&#x45c;" horiz-adv-x="572" 
d="M336 800h82l-111 -208h-65zM450 530h77l-103 -169q-42 -65 -83 -86q44 -20 86 -86l115 -189h-77l-96 164q-24 43 -48 61.5t-67 18.5h-108v-244h-66v530h66v-224h105q43 0 67 18.5t48 61.5z" />
    <glyph glyph-name="afii10110" unicode="&#x45e;" horiz-adv-x="540" 
d="M100 -147q35 0 56.5 18.5t39.5 60.5l37 88l-215 510h78l115 -291l59 -152l59 152l116 291h77l-209 -494l-45 -110q-30 -73 -66.5 -104.5t-101.5 -31.5q-35 0 -57 8l8 64q21 -9 49 -9zM387 800h61q0 -100 -40 -149t-138 -49t-138 49t-40 149h61q0 -79 26 -110.5t91 -31.5
t91 31.5t26 110.5z" />
    <glyph glyph-name="afii10193" unicode="&#x45f;" horiz-adv-x="594" 
d="M146 530v-468h302v468h66v-530h-184v-160h-66v160h-184v530h66z" />
    <glyph glyph-name="afii10050" unicode="&#x490;" horiz-adv-x="585" 
d="M570 940v-226h-410v-714h-70v780h409v160h71z" />
    <glyph glyph-name="afii10098" unicode="&#x491;" horiz-adv-x="435" 
d="M406 690v-222h-260v-468h-66v530h260v160h66z" />
    <glyph glyph-name="uni0E3F" unicode="&#xe3f;" horiz-adv-x="570" 
d="M317 0h-70v106h-177v552h177v106h70v-106h20q30 0 57 -6.5t54 -21t43 -44.5t16 -72q0 -54 -26 -83.5t-60 -32.5q41 -3 71.5 -39.5t30.5 -95.5q0 -86 -54 -121.5t-136 -35.5h-16v-106zM337 360h-20v-190h13q61 0 91 20t30 73q0 97 -114 97zM140 170h107v190h-107v-190z
M140 594v-169h107v169h-107zM325 594h-8v-169h8q59 0 85 21.5t26 67.5q0 45 -25 62.5t-86 17.5z" />
    <glyph glyph-name="Ddotbelow" unicode="&#x1e0c;" horiz-adv-x="765" 
d="M348 0h-258v780h258q175 0 263.5 -95.5t88.5 -294.5t-88.5 -294.5t-263.5 -95.5zM160 66h188q278 0 278 324t-278 324h-188v-648zM391 -67v-86h-86v86h86z" />
    <glyph glyph-name="ddotbelow" unicode="&#x1e0d;" horiz-adv-x="599" 
d="M338 -67v-86h-86v86h86zM463 440v360h66v-676l6 -124h-60l-12 91q-27 -46 -74 -73.5t-104 -27.5q-111 0 -173 72.5t-62 202.5t62 202.5t173 72.5q57 0 104 -27.5t74 -72.5zM120 265q0 -102 44 -157t123 -55q76 0 125 47.5t51 103.5v122q-2 56 -51 103.5t-125 47.5
q-79 0 -123 -55.5t-44 -156.5z" />
    <glyph glyph-name="Dcedilla" unicode="&#x1e10;" horiz-adv-x="765" 
d="M348 0h-258v780h258q175 0 263.5 -95.5t88.5 -294.5t-88.5 -294.5t-263.5 -95.5zM160 66h188q278 0 278 324t-278 324h-188v-648zM301 -75l17 49q131 -16 131 -101q0 -42 -30 -62.5t-79 -20.5t-79 17l15 44q27 -12 56 -13q59 -1 59 34q0 44 -90 53z" />
    <glyph glyph-name="dcedilla" unicode="&#x1e11;" horiz-adv-x="599" 
d="M463 440v360h66v-676l6 -124h-60l-12 91q-27 -46 -74 -73.5t-104 -27.5q-111 0 -173 72.5t-62 202.5t62 202.5t173 72.5q57 0 104 -27.5t74 -72.5zM120 265q0 -102 44 -157t123 -55q76 0 125 47.5t51 103.5v122q-2 56 -51 103.5t-125 47.5q-79 0 -123 -55.5t-44 -156.5z
M241 -75l17 49q131 -16 131 -101q0 -42 -30 -62.5t-79 -20.5t-79 17l15 44q27 -12 56 -13q59 -1 59 34q0 44 -90 53z" />
    <glyph glyph-name="Hdotbelow" unicode="&#x1e24;" horiz-adv-x="750" 
d="M590 780h70v-780h-70v367h-430v-367h-70v780h70v-347h430v347zM418 -67v-86h-86v86h86z" />
    <glyph glyph-name="hdotbelow" unicode="&#x1e25;" horiz-adv-x="574" 
d="M338 -67v-86h-86v86h86zM70 0v800h66v-360q27 45 75 72.5t106 27.5q85 0 140.5 -45.5t55.5 -124.5v-370h-66v355q0 58 -38 90t-102 32q-70 0 -119.5 -48t-51.5 -103v-326h-66z" />
    <glyph glyph-name="Ldotbelow" unicode="&#x1e36;" horiz-adv-x="585" 
d="M160 780v-714h410v-66h-480v780h70zM376 -67v-86h-86v86h86z" />
    <glyph glyph-name="ldotbelow" unicode="&#x1e37;" horiz-adv-x="250" 
d="M92 0v800h66v-800h-66zM168 -67v-86h-86v86h86z" />
    <glyph glyph-name="uni004C032300AF" unicode="&#x1e38;" horiz-adv-x="585" 
d="M160 780v-714h410v-66h-480v780h70zM376 -67v-86h-86v86h86zM9 894v64h232v-64h-232z" />
    <glyph glyph-name="ldotbelowmacron" unicode="&#x1e39;" horiz-adv-x="250" 
d="M92 0v800h66v-800h-66zM168 -67v-86h-86v86h86zM-11 894v64h272v-64h-272z" />
    <glyph glyph-name="Mdotbelow" unicode="&#x1e42;" horiz-adv-x="912" 
d="M423 0l-212 483l-57 141l4 -334v-290h-68v780h61l230 -515l75 -189l75 189l230 515h61v-780h-68v290l4 340l-57 -147l-212 -483h-66zM499 -67v-86h-86v86h86z" />
    <glyph glyph-name="mdotbelow" unicode="&#x1e43;" horiz-adv-x="863" 
d="M479 -67v-86h-86v86h86zM124 530l12 -88q26 45 67 71.5t91 26.5q133 0 167 -110q27 55 71.5 82.5t94.5 27.5q81 0 128 -44.5t47 -125.5v-370h-66v355q0 122 -119 122q-60 0 -102.5 -48t-45.5 -103v-326h-66v355q0 122 -119 122q-61 0 -103.5 -48t-44.5 -103v-326h-66v407
l-6 123h60z" />
    <glyph glyph-name="Ndotaccent" unicode="&#x1e44;" horiz-adv-x="750" 
d="M597 0l-348 515l-92 142l4 -267v-390h-71v780h63l348 -515l92 -142l-4 267v390h71v-780h-63zM418 969v-86h-86v86h86z" />
    <glyph glyph-name="ndotaccent" unicode="&#x1e45;" horiz-adv-x="574" 
d="M335 739v-86h-86v86h86zM124 530l12 -90q27 45 75 72.5t106 27.5q85 0 140.5 -45.5t55.5 -124.5v-370h-66v355q0 58 -38 90t-102 32q-70 0 -119.5 -48t-51.5 -103v-326h-66v407l-6 123h60z" />
    <glyph glyph-name="Ndotbelow" unicode="&#x1e46;" horiz-adv-x="750" 
d="M597 0l-348 515l-92 142l4 -267v-390h-71v780h63l348 -515l92 -142l-4 267v390h71v-780h-63zM418 -67v-86h-86v86h86z" />
    <glyph glyph-name="ndotbelow" unicode="&#x1e47;" horiz-adv-x="574" 
d="M338 -67v-86h-86v86h86zM124 530l12 -90q27 45 75 72.5t106 27.5q85 0 140.5 -45.5t55.5 -124.5v-370h-66v355q0 58 -38 90t-102 32q-70 0 -119.5 -48t-51.5 -103v-326h-66v407l-6 123h60z" />
    <glyph glyph-name="Rdotbelow" unicode="&#x1e5a;" horiz-adv-x="705" 
d="M386 -67v-86h-86v86h86zM160 347v-347h-70v780h300q242 0 242 -216q0 -190 -182 -214l213 -350h-84l-203 347h-216zM160 413h239q25 0 43 2t41 10.5t38 24t25.5 45t10.5 69.5t-10.5 69.5t-25.5 44.5t-38 23.5t-41 10.5t-43 2h-239v-301z" />
    <glyph glyph-name="rdotbelow" unicode="&#x1e5b;" horiz-adv-x="395" 
d="M146 -67v-86h-86v86h86zM312 540q38 0 59 -8l-7 -68q-24 9 -52 9q-76 0 -125 -47.5t-51 -103.5v-322h-66v407l-6 123h60l12 -94q24 45 72 74.5t104 29.5z" />
    <glyph glyph-name="Rdotbelowmacron" unicode="&#x1e5c;" horiz-adv-x="705" 
d="M386 -67v-86h-86v86h86zM189 894v64h272v-64h-272zM160 347v-347h-70v780h300q242 0 242 -216q0 -190 -182 -214l213 -350h-84l-203 347h-216zM160 413h239q25 0 43 2t41 10.5t38 24t25.5 45t10.5 69.5t-10.5 69.5t-25.5 44.5t-38 23.5t-41 10.5t-43 2h-239v-301z" />
    <glyph glyph-name="rdotbelowmacron" unicode="&#x1e5d;" horiz-adv-x="395" 
d="M146 -67v-86h-86v86h86zM74 664v64h272v-64h-272zM312 540q38 0 59 -8l-7 -68q-24 9 -52 9q-76 0 -125 -47.5t-51 -103.5v-322h-66v407l-6 123h60l12 -94q24 45 72 74.5t104 29.5z" />
    <glyph glyph-name="Sdotbelow" unicode="&#x1e62;" horiz-adv-x="710" 
d="M355 -10q-252 0 -291 202l72 6q15 -75 66.5 -109t152.5 -34q54 0 101 14.5t82 53.5t35 96q0 75 -46.5 110.5t-169.5 49.5q-45 5 -78.5 12t-70 21t-59.5 34.5t-38 53.5t-15 76q0 106 73.5 160t186.5 54q248 0 286 -196l-72 -6q-14 73 -64 105t-150 32q-29 0 -58 -6
t-60.5 -20.5t-51 -46.5t-19.5 -76q0 -60 40 -90t152 -43q74 -9 120.5 -20.5t86.5 -35.5t58 -65t18 -103q0 -112 -83.5 -170.5t-203.5 -58.5zM393 -67v-86h-86v86h86z" />
    <glyph glyph-name="sdotbelow" unicode="&#x1e63;" horiz-adv-x="530" 
d="M262 51q157 4 157 101q0 13 -1.5 23t-7.5 18.5t-9.5 14t-15 10.5l-17.5 7.5t-22.5 6t-24 4.5t-29.5 4.5t-31 4.5l-23 3q-22 4 -26.5 4.5t-25.5 5t-27.5 7.5t-24.5 9.5t-25 12.5l-19 16t-16.5 21t-9 26t-4.5 32q0 42 18 74t48 49.5t63.5 26t70.5 8.5q184 0 216 -154
l-71 -9q-24 105 -146 102q-130 -2 -130 -93q0 -17 6.5 -29.5t15 -19.5t27.5 -13t32.5 -8.5t41.5 -6.5l20 -3l28 -4t30 -4.5t29 -5.5t30 -7.5t26.5 -10t25 -13.5t19.5 -18t16.5 -23.5t9.5 -29t4 -35.5q0 -57 -35 -96t-84 -54t-108 -15q-99 0 -153.5 43t-67.5 111l71 9
q25 -105 149 -102zM301 -67v-86h-86v86h86z" />
    <glyph glyph-name="Tdotbelow" unicode="&#x1e6c;" horiz-adv-x="620" 
d="M345 714v-714h-70v714h-250v66h570v-66h-250zM353 -67v-86h-86v86h86z" />
    <glyph glyph-name="tdotbelow" unicode="&#x1e6d;" horiz-adv-x="395" 
d="M27 468v62h96v135l66 22v-157h163v-62h-163v-270q0 -87 26 -116t89 -29q25 0 49 9l8 -64q-22 -8 -57 -8q-56 0 -94 16.5t-56 47.5t-24.5 64.5t-6.5 79.5v270h-96zM265 -67v-86h-86v86h86z" />
    <glyph glyph-name="Wgrave" unicode="&#x1e80;" horiz-adv-x="960" 
d="M295 276l148 504h74l148 -504l45 -169l34 170l114 503h72l-186 -790h-61l-149 509l-54 195l-54 -195l-149 -509h-61l-186 790h72l114 -503l34 -170zM334 1030h82l94 -208h-65z" />
    <glyph glyph-name="wgrave" unicode="&#x1e81;" horiz-adv-x="810" 
d="M448 326l-43 143l-43 -143l-104 -336h-79l-149 540h71l80 -312l37 -153l45 153l97 312h90l97 -312l45 -153l37 153l80 312h71l-149 -540h-79zM261 800h82l94 -208h-65z" />
    <glyph glyph-name="Wacute" unicode="&#x1e82;" horiz-adv-x="960" 
d="M295 276l148 504h74l148 -504l45 -169l34 170l114 503h72l-186 -790h-61l-149 509l-54 195l-54 -195l-149 -509h-61l-186 790h72l114 -503l34 -170zM544 1030h82l-111 -208h-65z" />
    <glyph glyph-name="wacute" unicode="&#x1e83;" horiz-adv-x="810" 
d="M448 326l-43 143l-43 -143l-104 -336h-79l-149 540h71l80 -312l37 -153l45 153l97 312h90l97 -312l45 -153l37 153l80 312h71l-149 -540h-79zM467 800h82l-111 -208h-65z" />
    <glyph glyph-name="Wdieresis" unicode="&#x1e84;" horiz-adv-x="960" 
d="M295 276l148 504h74l148 -504l45 -169l34 170l114 503h72l-186 -790h-61l-149 509l-54 195l-54 -195l-149 -509h-61l-186 790h72l114 -503l34 -170zM430 969v-86h-86v86h86zM616 969v-86h-86v86h86z" />
    <glyph glyph-name="wdieresis" unicode="&#x1e85;" horiz-adv-x="810" 
d="M448 326l-43 143l-43 -143l-104 -336h-79l-149 540h71l80 -312l37 -153l45 153l97 312h90l97 -312l45 -153l37 153l80 312h71l-149 -540h-79zM355 739v-86h-86v86h86zM541 739v-86h-86v86h86z" />
    <glyph glyph-name="Idotbelow" unicode="&#x1eca;" horiz-adv-x="290" 
d="M180 780v-780h-70v780h70zM188 -67v-86h-86v86h86z" />
    <glyph glyph-name="idotbelow" unicode="&#x1ecb;" horiz-adv-x="250" 
d="M168 739v-86h-86v86h86zM92 0v530h66v-530h-66zM168 -67v-86h-86v86h86z" />
    <glyph glyph-name="Odotbelow" unicode="&#x1ecc;" horiz-adv-x="790" 
d="M395 -10q-167 0 -248.5 105t-81.5 295t81.5 295t248.5 105t248.5 -105t81.5 -295t-81.5 -295t-248.5 -105zM395 725q-256 0 -256 -335t256 -335t256 335t-256 335zM438 -67v-86h-86v86h86z" />
    <glyph glyph-name="odotbelow" unicode="&#x1ecd;" horiz-adv-x="578" 
d="M289 -10q-113 0 -176 70t-63 205t63 205t176 70t176 -70t63 -205t-63 -205t-176 -70zM289 478q-170 0 -170 -213t170 -213t170 213t-170 213zM332 -67v-86h-86v86h86z" />
    <glyph glyph-name="Udotbelow" unicode="&#x1ee4;" horiz-adv-x="774" 
d="M387 -10q-307 0 -307 290v500h72v-502q0 -50 10.5 -88t35 -70t72.5 -48.5t117 -16.5t117 16.5t72.5 48.5t35 70t10.5 88v502h72v-500q0 -290 -307 -290zM430 -67v-86h-86v86h86z" />
    <glyph glyph-name="udotbelow" unicode="&#x1ee5;" horiz-adv-x="574" 
d="M450 0l-12 90q-27 -45 -75 -72.5t-106 -27.5q-85 0 -140.5 45.5t-55.5 124.5v370h66v-355q0 -58 38 -90t102 -32q70 0 119.5 48t51.5 103v326h66v-407l6 -123h-60zM325 -67v-86h-86v86h86z" />
    <glyph glyph-name="Ygrave" unicode="&#x1ef2;" horiz-adv-x="710" 
d="M20 780h81l162 -244l92 -141l92 141l162 244h81l-300 -445v-335h-70v335zM219 1030h82l94 -208h-65z" />
    <glyph glyph-name="ygrave" unicode="&#x1ef3;" horiz-adv-x="540" 
d="M522 530l-209 -494l-96 -236h-77l93 220l-215 510h78l115 -291l59 -152l59 152l116 291h77zM134 800h82l94 -208h-65z" />
    <glyph glyph-name="Ytilde" unicode="&#x1ef8;" horiz-adv-x="710" 
d="M20 780h81l162 -244l92 -141l92 141l162 244h81l-300 -445v-335h-70v335zM426 860q-43 2 -83 38t-63 37q-27 2 -44 -11t-20 -27l-4 -14l-55 8q24 108 127 103q43 -2 83 -38t63 -37q27 -2 44 11t20 27l4 14l55 -8q-24 -108 -127 -103z" />
    <glyph glyph-name="ytilde" unicode="&#x1ef9;" horiz-adv-x="540" 
d="M522 530l-209 -494l-96 -236h-77l93 220l-215 510h78l115 -291l59 -152l59 152l116 291h77zM341 630q-43 2 -83 38t-63 37q-27 2 -44 -11t-21 -27l-3 -14l-55 8q24 108 127 103q43 -2 83 -38t63 -37q27 -2 44 11t21 27l3 14l55 -8q-24 -108 -127 -103z" />
    <glyph glyph-name="enspace" unicode="&#x2002;" horiz-adv-x="500" 
 />
    <glyph glyph-name="emspace" unicode="&#x2003;" horiz-adv-x="1000" 
 />
    <glyph glyph-name="threeperemspace" unicode="&#x2004;" horiz-adv-x="333" 
 />
    <glyph glyph-name="fourperemspace" unicode="&#x2005;" horiz-adv-x="250" 
 />
    <glyph glyph-name="sixperemspace" unicode="&#x2006;" horiz-adv-x="167" 
 />
    <glyph glyph-name="figurespace" unicode="&#x2007;" horiz-adv-x="700" 
 />
    <glyph glyph-name="punctuationspace" unicode="&#x2008;" horiz-adv-x="280" 
 />
    <glyph glyph-name="thinspace" unicode="&#x2009;" horiz-adv-x="200" 
 />
    <glyph glyph-name="hairspace" unicode="&#x200a;" horiz-adv-x="100" 
 />
    <glyph glyph-name="zerowidthspace" unicode="&#x200b;" horiz-adv-x="0" 
 />
    <glyph glyph-name="figuredash" unicode="&#x2012;" horiz-adv-x="700" 
d="M650 367v-64h-600v64h600z" />
    <glyph glyph-name="endash" unicode="&#x2013;" horiz-adv-x="500" 
d="M450 303h-400v64h400v-64z" />
    <glyph glyph-name="emdash" unicode="&#x2014;" horiz-adv-x="1000" 
d="M950 367v-64h-900v64h900z" />
    <glyph glyph-name="uni2015" unicode="&#x2015;" horiz-adv-x="1400" 
d="M1350 367v-64h-1300v64h1300z" />
    <glyph glyph-name="doublebar" unicode="&#x2016;" horiz-adv-x="410" 
d="M170 830v-960h-70v960h70zM310 830v-960h-70v960h70z" />
    <glyph glyph-name="underscoredbl" unicode="&#x2017;" horiz-adv-x="300" 
d="M280 -200h-260v64h260v-64zM280 -100h-260v64h260v-64z" />
    <glyph glyph-name="quoteleft" unicode="&#x2018;" horiz-adv-x="160" 
d="M77 530h-88l90 250h33z" />
    <glyph glyph-name="quoteright" unicode="&#x2019;" horiz-adv-x="160" 
d="M83 780h88l-90 -250h-33z" />
    <glyph glyph-name="quotesinglbase" unicode="&#x201a;" horiz-adv-x="160" 
d="M48 86h88l-90 -250h-33z" />
    <glyph glyph-name="reversequoteleft" unicode="&#x201b;" horiz-adv-x="160" 
d="M-11 780h88l35 -250h-33z" />
    <glyph glyph-name="quotedblleft" unicode="&#x201c;" horiz-adv-x="315" 
d="M232 530h-88l90 250h33zM77 530h-88l90 250h33z" />
    <glyph glyph-name="quotedblright" unicode="&#x201d;" horiz-adv-x="315" 
d="M83 780h88l-90 -250h-33zM238 780h88l-90 -250h-33z" />
    <glyph glyph-name="quotedblbase" unicode="&#x201e;" horiz-adv-x="315" 
d="M48 86h88l-90 -250h-33zM203 86h88l-90 -250h-33z" />
    <glyph glyph-name="reversequotedblleft" unicode="&#x201f;" horiz-adv-x="315" 
d="M144 780h88l35 -250h-33zM-11 780h88l35 -250h-33z" />
    <glyph glyph-name="dagger" unicode="&#x2020;" horiz-adv-x="300" 
d="M174 608l11 -218h-70l11 218l-124 -13v73l124 -12l-13 124h74l-13 -124l124 12v-73z" />
    <glyph glyph-name="daggerdbl" unicode="&#x2021;" horiz-adv-x="300" 
d="M298 507v-73l-124 13l11 -218h-70l11 218l-124 -13v73l124 -12l-6 56l6 57l-124 -13v73l124 -12l-13 124h74l-13 -124l124 12v-73l-124 13l6 -57l-6 -56z" />
    <glyph glyph-name="bullet" unicode="&#x2022;" horiz-adv-x="370" 
d="M314 464v-258h-258v258h258z" />
    <glyph glyph-name="ellipsis" unicode="&#x2026;" horiz-adv-x="1000" 
d="M213 86v-86h-86v86h86zM543 86v-86h-86v86h86zM873 86v-86h-86v86h86z" />
    <glyph glyph-name="perthousand" unicode="&#x2030;" horiz-adv-x="1507" 
d="M249 419q58 0 91.5 36t33.5 112t-33.5 112t-91.5 36q-59 0 -92.5 -36t-33.5 -112t33.5 -112t92.5 -36zM249 774q84 0 136 -53.5t52 -153.5t-52 -153.5t-136 -53.5q-85 0 -137 53.5t-52 153.5t52 153.5t137 53.5zM807 49q58 0 91.5 36t33.5 112t-33.5 112t-91.5 36
q-59 0 -92.5 -36t-33.5 -112t33.5 -112t92.5 -36zM807 404q84 0 136 -53.5t52 -153.5t-52 -153.5t-136 -53.5q-85 0 -137 53.5t-52 153.5t52 153.5t137 53.5zM817 764l-506 -764h-72l506 764h72zM1259 49q58 0 91.5 36t33.5 112t-33.5 112t-91.5 36q-59 0 -92.5 -36
t-33.5 -112t33.5 -112t92.5 -36zM1259 404q84 0 136 -53.5t52 -153.5t-52 -153.5t-136 -53.5q-85 0 -137 53.5t-52 153.5t52 153.5t137 53.5z" />
    <glyph glyph-name="minute" unicode="&#x2032;" horiz-adv-x="180" 
d="M70 780h86l-46 -250h-40v250z" />
    <glyph glyph-name="second" unicode="&#x2033;" horiz-adv-x="330" 
d="M70 780h86l-46 -250h-40v250zM220 780h86l-46 -250h-40v250z" />
    <glyph glyph-name="tripleprime" unicode="&#x2034;" horiz-adv-x="480" 
d="M47 780h86l-23 -250h-40zM197 780h86l-23 -250h-40zM347 780h86l-23 -250h-40z" />
    <glyph glyph-name="guilsinglleft" unicode="&#x2039;" horiz-adv-x="300" 
d="M250 190v-55l-208 140v80l208 140v-55l-145 -125z" />
    <glyph glyph-name="guilsinglright" unicode="&#x203a;" horiz-adv-x="300" 
d="M50 135v55l145 125l-145 125v55l208 -140v-80z" />
    <glyph glyph-name="exclamdbl" unicode="&#x203c;" horiz-adv-x="480" 
d="M92 780h96l-30 -590h-36zM183 86v-86h-86v86h86zM292 780h96l-30 -590h-36zM383 86v-86h-86v86h86z" />
    <glyph glyph-name="fraction" unicode="&#x2044;" horiz-adv-x="180" 
d="M379 764l-506 -764h-72l506 764h72z" />
    <glyph glyph-name="uni2070" unicode="&#x2070;" horiz-adv-x="497" 
d="M249 411q60 0 96 38t36 118t-36 118t-96 38t-96.5 -38t-36.5 -118t36.5 -118t96.5 -38zM249 774q85 0 136 -53t51 -154t-51 -154t-136 -53t-136 53t-51 154t51 154t136 53z" />
    <glyph glyph-name="uni2074" unicode="&#x2074;" horiz-adv-x="381" 
d="M343 459h-73v-89h-53v89h-179v38l185 277h47v-264h73v-51zM217 510v122l1 53l-33 -51l-55 -83l-28 -41h115z" />
    <glyph glyph-name="uni2075" unicode="&#x2075;" horiz-adv-x="401" 
d="M117 550l-47 11l21 203h234v-52h-187l-12 -98q31 22 82 22q67 0 103.5 -36t36.5 -104q0 -66 -41.5 -102t-106.5 -36q-71 0 -105 29.5t-42 85.5l54 6q8 -39 28.5 -55t64.5 -15q40 0 67 21.5t27 65.5q0 90 -87 90q-61 2 -90 -36z" />
    <glyph glyph-name="uni2076" unicode="&#x2076;" horiz-adv-x="408" 
d="M227 724q-113 2 -113 -135v-4q35 50 107 50q63 0 99 -36.5t36 -102.5q0 -64 -39 -100t-103 -36q-80 0 -117 51.5t-37 158.5q0 101 43 152.5t124 51.5q57 0 89 -27.5t38 -69.5l-55 -7q-11 53 -72 54zM218 582q-44 1 -71 -23.5t-25 -71.5q3 -38 28.5 -57.5t62.5 -19.5
q39 1 63.5 22t24.5 64q0 83 -83 86z" />
    <glyph glyph-name="uni2077" unicode="&#x2077;" horiz-adv-x="356" 
d="M155 370h-57l135 297l21 46l-86 -1h-128v52h276v-37z" />
    <glyph glyph-name="uni2078" unicode="&#x2078;" horiz-adv-x="404" 
d="M202 596q85 0 85 65q0 62 -85 62q-86 0 -86 -62q0 -38 23 -51.5t63 -13.5zM202 411q96 0 96 65q0 71 -96 71t-96 -71q0 -65 96 -65zM202 360q-75 0 -112.5 29.5t-37.5 83.5q0 80 68 100q-25 9 -41.5 33t-16.5 59q0 56 39.5 82.5t100.5 26.5q60 0 99.5 -26.5t39.5 -82.5
q0 -35 -16.5 -59t-41.5 -33q69 -20 69 -100q0 -54 -37.5 -83.5t-112.5 -29.5z" />
    <glyph glyph-name="uni2079" unicode="&#x2079;" horiz-adv-x="408" 
d="M180 410q114 -2 114 135q0 1 -1 4q-33 -50 -106 -50q-64 0 -99.5 36.5t-35.5 102.5q0 64 39 100t102 36q80 0 117.5 -52t37.5 -159q0 -100 -43.5 -151.5t-124.5 -51.5q-56 0 -88 27.5t-38 69.5l54 7q12 -53 72 -54zM189 551q44 0 71.5 24.5t25.5 71.5q-3 39 -28 58
t-63 19q-39 0 -63.5 -21.5t-24.5 -64.5q0 -84 82 -87z" />
    <glyph glyph-name="uni207A" unicode="&#x207a;" horiz-adv-x="380" 
d="M163 430v123h-123v55h123v122h55v-122h122v-55h-122v-123h-55z" />
    <glyph glyph-name="uni207B" unicode="&#x207b;" horiz-adv-x="380" 
d="M340 553h-300v55h300v-55z" />
    <glyph glyph-name="uni207C" unicode="&#x207c;" horiz-adv-x="380" 
d="M340 493h-300v55h300v-55zM340 613h-300v55h300v-55z" />
    <glyph glyph-name="uni207D" unicode="&#x207d;" horiz-adv-x="210" 
d="M117 567q0 -137 50 -253h-55q-57 120 -57 253t57 253h55q-50 -116 -50 -253z" />
    <glyph glyph-name="uni207E" unicode="&#x207e;" horiz-adv-x="210" 
d="M94 567q0 135 -51 253h56q57 -120 57 -253t-57 -253h-56q51 118 51 253z" />
    <glyph glyph-name="n.superior" unicode="&#x207f;" horiz-adv-x="422" 
d="M117 722l8 -47q36 54 108 54q56 0 92 -29.5t36 -82.5v-227h-60v217q0 32 -21.5 49.5t-56.5 17.5q-38 0 -65 -25t-31 -53v-206h-60v250l-3 82h53z" />
    <glyph glyph-name="uni2080" unicode="&#x2080;" horiz-adv-x="497" 
d="M249 41q60 0 96 38t36 118t-36 118t-96 38t-96.5 -38t-36.5 -118t36.5 -118t96.5 -38zM249 404q85 0 136 -53t51 -154t-51 -154t-136 -53t-136 53t-51 154t51 154t136 53z" />
    <glyph glyph-name="uni2081" unicode="&#x2081;" horiz-adv-x="400" 
d="M48 253v55q84 18 146 96h46v-354h130v-50h-314v50h130v274q-47 -54 -138 -71z" />
    <glyph glyph-name="uni2082" unicode="&#x2082;" horiz-adv-x="411" 
d="M358 0h-305q0 46 10 79t33 55.5t44 35t60 30.5q27 11 37 16t25.5 13.5t20 15t9 17t4.5 23.5q0 37 -27 52t-60 15q-47 0 -70.5 -16t-29.5 -52l-54 6q17 114 154 114q60 0 100 -31t40 -88q0 -12 -2 -22.5t-4 -18.5t-9 -17t-10 -14t-13.5 -12.5l-14 -10t-17 -9.5l-16.5 -8.5
t-19 -8.5t-18 -8q-56 -24 -83.5 -47.5t-31.5 -58.5l109 2h138v-52z" />
    <glyph glyph-name="uni2083" unicode="&#x2083;" horiz-adv-x="415" 
d="M362 110q0 -54 -41 -87t-120 -33q-137 0 -153 115l55 5q5 -37 28 -53t70 -16q107 -2 107 69q0 18 -6 31.5t-15 20t-23.5 10t-26 4.5t-28.5 1h-55v51h55q20 0 33 2t26 8t19.5 19t6.5 34q0 64 -90 62q-45 -1 -67 -16.5t-27 -52.5l-54 5q13 115 148 115q63 0 103.5 -28
t40.5 -85q0 -68 -59 -86q29 -6 51 -30.5t22 -64.5z" />
    <glyph glyph-name="uni2084" unicode="&#x2084;" horiz-adv-x="381" 
d="M343 89h-73v-89h-53v89h-179v38l185 277h47v-264h73v-51zM217 140v122l1 53l-33 -51l-55 -83l-28 -41h115z" />
    <glyph glyph-name="uni2085" unicode="&#x2085;" horiz-adv-x="401" 
d="M117 180l-47 11l21 203h234v-52h-187l-12 -98q31 22 82 22q67 0 103.5 -36t36.5 -104q0 -66 -41.5 -102t-106.5 -36q-71 0 -105 29.5t-42 85.5l54 6q8 -39 28.5 -55t64.5 -15q40 0 67 21.5t27 65.5q0 90 -87 90q-61 2 -90 -36z" />
    <glyph glyph-name="uni2086" unicode="&#x2086;" horiz-adv-x="408" 
d="M227 354q-113 2 -113 -135v-4q35 50 107 50q63 0 99 -36.5t36 -102.5q0 -64 -39 -100t-103 -36q-80 0 -117 51.5t-37 158.5q0 101 43 152.5t124 51.5q57 0 89 -27.5t38 -69.5l-55 -7q-11 53 -72 54zM218 212q-44 1 -71 -23.5t-25 -71.5q3 -38 28.5 -57.5t62.5 -19.5
q39 1 63.5 22t24.5 64q0 83 -83 86z" />
    <glyph glyph-name="uni2087" unicode="&#x2087;" horiz-adv-x="356" 
d="M155 0h-57l135 297l21 46l-86 -1h-128v52h276v-37z" />
    <glyph glyph-name="uni2088" unicode="&#x2088;" horiz-adv-x="404" 
d="M202 226q85 0 85 65q0 62 -85 62q-86 0 -86 -62q0 -38 23 -51.5t63 -13.5zM202 41q96 0 96 65q0 71 -96 71t-96 -71q0 -65 96 -65zM202 -10q-75 0 -112.5 29.5t-37.5 83.5q0 80 68 100q-25 9 -41.5 33t-16.5 59q0 56 39.5 82.5t100.5 26.5q60 0 99.5 -26.5t39.5 -82.5
q0 -35 -16.5 -59t-41.5 -33q69 -20 69 -100q0 -54 -37.5 -83.5t-112.5 -29.5z" />
    <glyph glyph-name="uni2089" unicode="&#x2089;" horiz-adv-x="408" 
d="M180 40q114 -2 114 135q0 1 -1 4q-33 -50 -106 -50q-64 0 -99.5 36.5t-35.5 102.5q0 64 39 100t102 36q80 0 117.5 -52t37.5 -159q0 -100 -43.5 -151.5t-124.5 -51.5q-56 0 -88 27.5t-38 69.5l54 7q12 -53 72 -54zM189 181q44 0 71.5 24.5t25.5 71.5q-3 39 -28 58t-63 19
q-39 0 -63.5 -21.5t-24.5 -64.5q0 -84 82 -87z" />
    <glyph glyph-name="uni208A" unicode="&#x208a;" horiz-adv-x="380" 
d="M163 60v123h-123v55h123v122h55v-122h122v-55h-122v-123h-55z" />
    <glyph glyph-name="uni208B" unicode="&#x208b;" horiz-adv-x="380" 
d="M340 183h-300v55h300v-55z" />
    <glyph glyph-name="uni208C" unicode="&#x208c;" horiz-adv-x="380" 
d="M340 123h-300v55h300v-55zM340 243h-300v55h300v-55z" />
    <glyph glyph-name="uni208D" unicode="&#x208d;" horiz-adv-x="210" 
d="M117 197q0 -137 50 -253h-55q-57 120 -57 253t57 253h55q-50 -116 -50 -253z" />
    <glyph glyph-name="uni208E" unicode="&#x208e;" horiz-adv-x="210" 
d="M94 197q0 135 -51 253h56q57 -120 57 -253t-57 -253h-56q51 118 51 253z" />
    <glyph glyph-name="uni20A1" unicode="&#x20a1;" horiz-adv-x="685" 
d="M66 -46l59 150q-64 98 -64 278q0 192 74.5 292t224.5 100q5 0 15 -0.5t14 -0.5l15 37h68l-19 -47q19 -5 30 -10l23 57h68l-35 -88q63 -51 83 -152l-72 -6q-12 57 -38 90l-233 -589q32 -12 81 -12q87 0 131 35t59 112l72 -6q-40 -204 -262 -204q-58 0 -104 15l-20 -51h-68
l30 77q-13 9 -26 20l-38 -97h-68zM132 382q0 -117 28 -191l205 520h-5q-228 0 -228 -329zM460 694q-11 5 -30 10l-230 -584q10 -14 24 -24z" />
    <glyph glyph-name="uni20A2" unicode="&#x20a2;" horiz-adv-x="685" 
d="M554 470q38 0 59 -8l-7 -68q-24 9 -52 9q-76 0 -125 -47.5t-51 -103.5v-199q78 4 117.5 39t54.5 108l72 -6q-40 -204 -262 -204q-150 0 -224.5 100t-74.5 292t74.5 292t224.5 100q222 0 262 -204l-72 -6q-15 77 -59 112t-131 35q-228 0 -228 -329q0 -293 180 -325v280
l-6 123h60l12 -89q24 44 71.5 71.5t104.5 27.5z" />
    <glyph glyph-name="franc" unicode="&#x20a3;" horiz-adv-x="630" 
d="M459 307h-225v-307h-70v307h-110v62h110v61h-110v62h110v272h426v-66h-356v-206h225v-62h-225v-61h225v-62z" />
    <glyph glyph-name="lira" unicode="&#x20a4;" horiz-adv-x="680" 
d="M459 272h-229v-210h390v-62h-566v62h110v210h-110v62h110v61h-110v62h110v99q0 99 60.5 158.5t172.5 59.5q202 0 220 -163l-69 -9q-14 112 -151 109q-167 -3 -167 -144v-110h229v-62h-229v-61h229v-62z" />
    <glyph glyph-name="uni20A6" unicode="&#x20a6;" horiz-adv-x="718" 
d="M688 289h-70v-289h-63l-179 289h-205v-289h-71v289h-70v62h70v62h-70v62h70v289h63l179 -289h205v289h71v-289h70v-62h-70v-62h70v-62zM171 374v-23h167l-39 62h-129zM381 413l38 -62h128v62h-166zM249 494l-82 132l2 -151h92zM551 139l-3 150h-90l11 -18z" />
    <glyph glyph-name="peseta" unicode="&#x20a7;" horiz-adv-x="1420" 
d="M1152 51q157 4 157 101q0 13 -1.5 23t-7.5 18.5t-9.5 14t-15 10.5l-17.5 7.5t-22.5 6t-24 4.5t-29.5 4.5t-31 4.5l-23 3q-22 4 -26.5 4.5t-25.5 5t-27.5 7.5t-24.5 9.5t-25 12.5l-19 16t-16.5 21t-9 26t-4.5 32q0 42 18 74t48 49.5t63.5 26t70.5 8.5q184 0 216 -154
l-71 -9q-24 105 -146 102q-130 -2 -130 -93q0 -17 6.5 -29.5t15 -19.5t27.5 -13t32.5 -8.5t41.5 -6.5l20 -3l28 -4t30 -4.5t29 -5.5t30 -7.5t26.5 -10t25 -13.5t19.5 -18t16.5 -23.5t9.5 -29t4 -35.5q0 -57 -35 -96t-84 -54t-108 -15q-96 0 -151 41q-59 -41 -152 -41
q-56 0 -94 16.5t-56 47.5t-24.5 64.5t-6.5 79.5v270h-106q-40 -148 -237 -148h-156v-320h-70v764h226q49 0 90 -10.5t77.5 -34t57.5 -68.5t21 -109v-12h97v135l66 22v-157h163v-62h-163v-270q0 -87 26 -116t89 -29q68 2 106 28q-18 28 -24 63l71 9q25 -105 149 -102z
M170 386h167q24 0 43 2.5t42 12t38.5 25.5t26 46t10.5 70t-10.5 70t-26 46t-38.5 25.5t-42 12t-43 2.5h-167v-312z" />
    <glyph glyph-name="uni20A8" unicode="&#x20a8;" horiz-adv-x="1108" 
d="M810 51q93 0 140 22.5t47 78.5q0 13 -1.5 23t-7.5 18.5t-9.5 14t-15 10.5l-17.5 7.5t-22.5 6t-24 4.5t-29.5 4.5t-31 4.5l-23 3q-22 4 -26.5 4.5t-25.5 5t-27.5 7.5t-24.5 9.5t-25 12.5l-19 16t-16.5 21t-9 26t-4.5 32q0 42 18 74t48 49.5t63.5 26t70.5 8.5
q184 0 216 -154l-71 -9q-24 105 -146 102q-130 -2 -130 -93q0 -17 6.5 -29.5t15 -19.5t27.5 -13t32.5 -8.5t41.5 -6.5l20 -3l28 -4t30 -4.5t29 -5.5t30 -7.5t26.5 -10t25 -13.5t19.5 -18t16.5 -23.5t9.5 -29t4 -35.5q0 -165 -259 -165q-42 0 -79.5 5.5t-90 26.5t-99.5 56
t-102.5 100t-105.5 153h-172v-331h-70v764h260q242 0 242 -216q0 -190 -182 -214q43 -78 93.5 -135t91 -84.5t87.5 -43t71.5 -18t56.5 -2.5zM160 397h199q25 0 43 2t41 10.5t38 24t25.5 45t10.5 69.5t-10.5 69.5t-25.5 44.5t-38 23.5t-41 10.5t-43 2h-199v-301z" />
    <glyph glyph-name="uni20A9" unicode="&#x20a9;" horiz-adv-x="830" 
d="M797 289h-88l-55 -299h-71l-73 299h-191l-72 -299h-71l-55 299h-88v62h76l-11 62h-65v62h53l-53 289h73l50 -289h143l70 289h92l70 -289h142l51 289h73l-54 -289h54v-62h-65l-12 -62h77v-62zM450 538l-35 154l-35 -154l-16 -63h101zM349 413l-15 -62h161l-15 62h-131z
M167 413l11 -62h91l15 62h-117zM546 413l15 -62h90l11 62h-116zM189 289l26 -168l39 168h-65zM576 289l39 -168l26 168h-65z" />
    <glyph glyph-name="uni20AA" unicode="&#x20aa;" horiz-adv-x="664" 
d="M70 764h195q83 0 129.5 -44.5t46.5 -125.5v-444h-66v429q0 122 -120 122h-120v-701h-65v764zM418 0h-195v614h65v-551h120q120 0 120 122v579h66v-594q0 -81 -46.5 -125.5t-129.5 -44.5z" />
    <glyph glyph-name="Euro" unicode="&#x20ac;" horiz-adv-x="755" 
d="M202 382q0 -33 1 -48h287l-20 -64h-260q34 -217 220 -217q87 0 131 35t59 112l72 -6q-40 -204 -262 -204q-252 0 -292 280h-108v64h102q-1 15 -1 48q0 32 1 48h-102v64h108q40 280 292 280q222 0 262 -204l-72 -6q-15 77 -59 112t-131 35q-186 0 -220 -217h330l-20 -64
h-317q-1 -16 -1 -48z" />
    <glyph glyph-name="uni20AE" unicode="&#x20ae;" horiz-adv-x="520" 
d="M406 330l-111 -56v-274h-70v239l-100 -50v75l100 50v60l-100 -50v75l100 50v249h-200v66h470v-66h-200v-214l111 56v-75l-111 -56v-60l111 56v-75z" />
    <glyph glyph-name="uni20B1" unicode="&#x20b1;" horiz-adv-x="650" 
d="M627 447h-71q-47 -127 -230 -127h-156v-320h-70v447h-70v64h70v62h-70v64h70v127h226q183 0 230 -127h71v-64h-57q2 -20 2 -31t-2 -31h57v-64zM497 542q0 11 -2 31h-325v-62h325q2 18 2 31zM170 386h167q103 0 138 61h-305v-61zM170 698v-61h305q-36 61 -138 61h-167z
" />
    <glyph glyph-name="afii61248" unicode="&#x2105;" horiz-adv-x="1010" 
d="M50 585q0 97 47.5 151t131.5 54q140 0 164 -120l-65 -9q-9 36 -32 54t-68 17q-54 -2 -83.5 -40t-29.5 -107t29.5 -107t83.5 -40q45 -1 68 17t32 54l65 -9q-24 -120 -164 -120q-84 0 -131.5 54t-47.5 151zM787 780l-516 -780h-72l516 780h72zM780 -10q-84 0 -132 53
t-48 152q0 100 48 152.5t132 52.5q85 0 132.5 -52.5t47.5 -152.5t-47.5 -152.5t-132.5 -52.5zM780 341q-115 0 -115 -146t115 -146t115 146t-115 146z" />
    <glyph glyph-name="afii61289" unicode="&#x2113;" horiz-adv-x="330" 
d="M20 180v79q16 9 42 31v258q0 125 34 175.5t95 50.5q51 0 79 -38t28 -102q0 -105 -52 -206.5t-118 -165.5v-134q0 -43 14.5 -60t53.5 -17q32 0 54 9l12 -59q-26 -11 -66 -11q-66 0 -100 30t-34 97v93q-29 -24 -42 -30zM128 543v-193q44 51 74.5 127.5t30.5 160.5
q0 77 -42 77q-63 0 -63 -172z" />
    <glyph glyph-name="afii61352" unicode="&#x2116;" horiz-adv-x="1276" 
d="M987 224q-113 0 -176 70t-63 205t63 205t176 70t176 -70t63 -205t-63 -205t-176 -70zM987 712q-170 0 -170 -213t170 -213t170 213t-170 213zM1030 86v-86h-86v86h86zM153 764l306 -494l82 -132l-3 182l-1 444h71v-764h-63l-306 494l-82 132l3 -182l1 -444h-71v764h63z
" />
    <glyph glyph-name="published" unicode="&#x2117;" horiz-adv-x="880" 
d="M40 390q0 166 117 283t283 117t283 -117t117 -283t-117 -283t-283 -117t-283 117t-117 283zM105 390q0 -139 98 -237t237 -98t237 98t98 237t-98 237t-237 98t-237 -98t-98 -237zM360 396h120q89 0 89 85q0 83 -89 83h-120v-168zM360 335v-180h-63v470h178
q68 0 113.5 -32.5t45.5 -111.5q0 -80 -45.5 -113t-113.5 -33h-115z" />
    <glyph glyph-name="servicemark" unicode="&#x2120;" horiz-adv-x="550" 
d="M396 510h-28l-63 151l-17 42l1 -50v-143h-33v270h34l71 -168l21 -54l21 54l71 168h34v-270h-33v143l1 50l-17 -42zM108 506q-90 0 -103 75l35 4q8 -46 68 -46q26 0 46 12t20 37q0 22 -14.5 32.5t-52.5 14.5q-42 5 -67 20t-25 52q0 38 26.5 57.5t65.5 19.5q89 0 101 -74
l-34 -3q-8 45 -67 45q-21 0 -38.5 -10t-17.5 -35q0 -18 12 -26.5t46 -12.5q53 -7 76 -22.5t23 -57.5q0 -40 -29 -61t-71 -21z" />
    <glyph glyph-name="trademark" unicode="&#x2122;" horiz-adv-x="540" 
d="M387 510h-28l-63 151l-17 42l1 -50v-143h-33v270h34l71 -168l21 -54l21 54l71 168h34v-270h-33v143l1 50l-17 -42zM118 747v-237h-35v237h-83v33h201v-33h-83z" />
    <glyph glyph-name="ohm" unicode="&#x2126;" horiz-adv-x="700" 
d="M350 711q-114 0 -181.5 -69.5t-67.5 -189.5q0 -108 63.5 -232.5t135.5 -180.5v-39h-282v64h93l88 -2q-67 66 -118 178t-51 212q0 149 85 235.5t235 86.5t235 -86.5t85 -235.5q0 -100 -51 -212t-118 -178l88 2h93v-64h-282v39q72 56 135.5 180.5t63.5 232.5
q0 120 -67.5 189.5t-181.5 69.5z" />
    <glyph glyph-name="estimated" unicode="&#x212e;" horiz-adv-x="790" 
d="M694 265h76q-20 -139 -118 -207t-257 -68q-174 0 -282 109t-108 291t108 291t282 109t282 -109t108 -291v-32h-646q13 -303 256 -303q264 0 299 210zM395 725q-243 0 -256 -303h511q-11 303 -255 303z" />
    <glyph glyph-name="uni2153" unicode="&#x2153;" horiz-adv-x="995" 
d="M779 764l-506 -764h-72l506 764h72zM942 110q0 -54 -41 -87t-120 -33q-137 0 -153 115l55 5q5 -37 28 -53t70 -16q107 -2 107 69q0 18 -6 31.5t-15 20t-23.5 10t-26 4.5t-28.5 1h-55v51h55q20 0 33 2t26 8t19.5 19t6.5 34q0 64 -90 62q-45 -1 -67 -16.5t-27 -52.5l-54 5
q13 115 148 115q63 0 103.5 -28t40.5 -85q0 -68 -59 -86q29 -6 51 -30.5t22 -64.5zM48 623v55q84 18 146 96h46v-354h130v-50h-314v50h130v274q-47 -54 -138 -71z" />
    <glyph glyph-name="uni2154" unicode="&#x2154;" horiz-adv-x="1006" 
d="M358 370h-305q0 46 10 79t33 55.5t44 35t60 30.5q27 11 37 16t25.5 13.5t20 15t9 17t4.5 23.5q0 37 -27 52t-60 15q-47 0 -70.5 -16t-29.5 -52l-54 6q17 114 154 114q60 0 100 -31t40 -88q0 -12 -2 -22.5t-4 -18.5t-9 -17t-10 -14t-13.5 -12.5l-14 -10t-17 -9.5
l-16.5 -8.5t-19 -8.5t-18 -8q-56 -24 -83.5 -47.5t-31.5 -58.5l109 2h138v-52zM790 764l-506 -764h-72l506 764h72zM953 110q0 -54 -41 -87t-120 -33q-137 0 -153 115l55 5q5 -37 28 -53t70 -16q107 -2 107 69q0 18 -6 31.5t-15 20t-23.5 10t-26 4.5t-28.5 1h-55v51h55
q20 0 33 2t26 8t19.5 19t6.5 34q0 64 -90 62q-45 -1 -67 -16.5t-27 -52.5l-54 5q13 115 148 115q63 0 103.5 -28t40.5 -85q0 -68 -59 -86q29 -6 51 -30.5t22 -64.5z" />
    <glyph glyph-name="uni2155" unicode="&#x2155;" horiz-adv-x="981" 
d="M779 764l-506 -764h-72l506 764h72zM697 180l-47 11l21 203h234v-52h-187l-12 -98q31 22 82 22q67 0 103.5 -36t36.5 -104q0 -66 -41.5 -102t-106.5 -36q-71 0 -105 29.5t-42 85.5l54 6q8 -39 28.5 -55t64.5 -15q40 0 67 21.5t27 65.5q0 90 -87 90q-61 2 -90 -36zM48 623
v55q84 18 146 96h46v-354h130v-50h-314v50h130v274q-47 -54 -138 -71z" />
    <glyph glyph-name="uni2156" unicode="&#x2156;" horiz-adv-x="992" 
d="M358 370h-305q0 46 10 79t33 55.5t44 35t60 30.5q27 11 37 16t25.5 13.5t20 15t9 17t4.5 23.5q0 37 -27 52t-60 15q-47 0 -70.5 -16t-29.5 -52l-54 6q17 114 154 114q60 0 100 -31t40 -88q0 -12 -2 -22.5t-4 -18.5t-9 -17t-10 -14t-13.5 -12.5l-14 -10t-17 -9.5
l-16.5 -8.5t-19 -8.5t-18 -8q-56 -24 -83.5 -47.5t-31.5 -58.5l109 2h138v-52zM790 764l-506 -764h-72l506 764h72zM708 180l-47 11l21 203h234v-52h-187l-12 -98q31 22 82 22q67 0 103.5 -36t36.5 -104q0 -66 -41.5 -102t-106.5 -36q-71 0 -105 29.5t-42 85.5l54 6
q8 -39 28.5 -55t64.5 -15q40 0 67 21.5t27 65.5q0 90 -87 90q-61 2 -90 -36z" />
    <glyph glyph-name="uni2157" unicode="&#x2157;" horiz-adv-x="996" 
d="M362 480q0 -54 -41 -87t-120 -33q-137 0 -153 115l55 5q5 -37 28 -53t70 -16q107 -2 107 69q0 18 -6 31.5t-15 20t-23.5 10t-26 4.5t-28.5 1h-55v51h55q20 0 33 2t26 8t19.5 19t6.5 34q0 64 -90 62q-45 -1 -67 -16.5t-27 -52.5l-54 5q13 115 148 115q63 0 103.5 -28
t40.5 -85q0 -68 -59 -86q29 -6 51 -30.5t22 -64.5zM794 764l-506 -764h-72l506 764h72zM712 180l-47 11l21 203h234v-52h-187l-12 -98q31 22 82 22q67 0 103.5 -36t36.5 -104q0 -66 -41.5 -102t-106.5 -36q-71 0 -105 29.5t-42 85.5l54 6q8 -39 28.5 -55t64.5 -15
q40 0 67 21.5t27 65.5q0 90 -87 90q-61 2 -90 -36z" />
    <glyph glyph-name="uni2158" unicode="&#x2158;" horiz-adv-x="962" 
d="M343 459h-73v-89h-53v89h-179v38l185 277h47v-264h73v-51zM217 510v122l1 53l-33 -51l-55 -83l-28 -41h115zM760 764l-506 -764h-72l506 764h72zM678 180l-47 11l21 203h234v-52h-187l-12 -98q31 22 82 22q67 0 103.5 -36t36.5 -104q0 -66 -41.5 -102t-106.5 -36
q-71 0 -105 29.5t-42 85.5l54 6q8 -39 28.5 -55t64.5 -15q40 0 67 21.5t27 65.5q0 90 -87 90q-61 2 -90 -36z" />
    <glyph glyph-name="uni2159" unicode="&#x2159;" horiz-adv-x="988" 
d="M807 354q-113 2 -113 -135v-4q35 50 107 50q63 0 99 -36.5t36 -102.5q0 -64 -39 -100t-103 -36q-80 0 -117 51.5t-37 158.5q0 101 43 152.5t124 51.5q57 0 89 -27.5t38 -69.5l-55 -7q-11 53 -72 54zM779 764l-506 -764h-72l506 764h72zM798 212q-44 1 -71 -23.5
t-25 -71.5q3 -38 28.5 -57.5t62.5 -19.5q39 1 63.5 22t24.5 64q0 83 -83 86zM48 623v55q84 18 146 96h46v-354h130v-50h-314v50h130v274q-47 -54 -138 -71z" />
    <glyph glyph-name="uni215A" unicode="&#x215a;" horiz-adv-x="989" 
d="M808 354q-113 2 -113 -135v-4q35 50 107 50q63 0 99 -36.5t36 -102.5q0 -64 -39 -100t-103 -36q-80 0 -117 51.5t-37 158.5q0 101 43.5 152.5t123.5 51.5q57 0 89 -27.5t38 -69.5l-55 -7q-11 53 -72 54zM780 764l-506 -764h-72l506 764h72zM117 550l-47 11l21 203h234
v-52h-187l-12 -98q31 22 82 22q67 0 103.5 -36t36.5 -104q0 -66 -41.5 -102t-106.5 -36q-71 0 -105 29.5t-42 85.5l54 6q8 -39 28.5 -55t64.5 -15q40 0 67 21.5t27 65.5q0 90 -87 90q-61 2 -90 -36zM799 212q-44 1 -71 -23.5t-25 -71.5q3 -38 28.5 -57.5t62.5 -19.5
q39 1 63.5 22t24.5 64q0 83 -83 86z" />
    <glyph glyph-name="uni215B" unicode="&#x215b;" horiz-adv-x="984" 
d="M779 764l-506 -764h-72l506 764h72zM782 226q85 0 85 65q0 62 -85 62q-86 0 -86 -62q0 -38 23 -51.5t63 -13.5zM782 41q96 0 96 65q0 71 -96 71t-96 -71q0 -65 96 -65zM782 -10q-75 0 -112.5 29.5t-37.5 83.5q0 80 68 100q-25 9 -41.5 33t-16.5 59q0 56 39.5 82.5
t100.5 26.5q60 0 99.5 -26.5t39.5 -82.5q0 -35 -16.5 -59t-41.5 -33q69 -20 69 -100q0 -54 -37.5 -83.5t-112.5 -29.5zM48 623v55q84 18 146 96h46v-354h130v-50h-314v50h130v274q-47 -54 -138 -71z" />
    <glyph glyph-name="uni215C" unicode="&#x215c;" horiz-adv-x="999" 
d="M362 480q0 -54 -41 -87t-120 -33q-137 0 -153 115l55 5q5 -37 28 -53t70 -16q107 -2 107 69q0 18 -6 31.5t-15 20t-23.5 10t-26 4.5t-28.5 1h-55v51h55q20 0 33 2t26 8t19.5 19t6.5 34q0 64 -90 62q-45 -1 -67 -16.5t-27 -52.5l-54 5q13 115 148 115q63 0 103.5 -28
t40.5 -85q0 -68 -59 -86q29 -6 51 -30.5t22 -64.5zM794 764l-506 -764h-72l506 764h72zM797 226q85 0 85 65q0 62 -85 62q-86 0 -86 -62q0 -38 23 -51.5t63 -13.5zM797 41q96 0 96 65q0 71 -96 71t-96 -71q0 -65 96 -65zM797 -10q-75 0 -112.5 29.5t-37.5 83.5q0 80 68 100
q-25 9 -41.5 33t-16.5 59q0 56 39.5 82.5t100.5 26.5q60 0 99.5 -26.5t39.5 -82.5q0 -35 -16.5 -59t-41.5 -33q69 -20 69 -100q0 -54 -37.5 -83.5t-112.5 -29.5z" />
    <glyph glyph-name="uni215D" unicode="&#x215d;" horiz-adv-x="985" 
d="M117 550l-47 11l21 203h234v-52h-187l-12 -98q31 22 82 22q67 0 103.5 -36t36.5 -104q0 -66 -41.5 -102t-106.5 -36q-71 0 -105 29.5t-42 85.5l54 6q8 -39 28.5 -55t64.5 -15q40 0 67 21.5t27 65.5q0 90 -87 90q-61 2 -90 -36zM780 764l-506 -764h-72l506 764h72z
M783 226q85 0 85 65q0 62 -85 62q-86 0 -86 -62q0 -38 23 -51.5t63 -13.5zM783 41q96 0 96 65q0 71 -96 71t-96 -71q0 -65 96 -65zM783 -10q-75 0 -112.5 29.5t-37.5 83.5q0 80 68 100q-25 9 -41.5 33t-16.5 59q0 56 39.5 82.5t100.5 26.5q60 0 99.5 -26.5t39.5 -82.5
q0 -35 -16.5 -59t-41.5 -33q69 -20 69 -100q0 -54 -37.5 -83.5t-112.5 -29.5z" />
    <glyph glyph-name="uni215E" unicode="&#x215e;" horiz-adv-x="900" 
d="M155 370h-57l135 297l21 46l-86 -1h-128v52h276v-37zM695 764l-506 -764h-72l506 764h72zM698 226q85 0 85 65q0 62 -85 62q-86 0 -86 -62q0 -38 23 -51.5t63 -13.5zM698 41q96 0 96 65q0 71 -96 71t-96 -71q0 -65 96 -65zM698 -10q-75 0 -112.5 29.5t-37.5 83.5
q0 80 68 100q-25 9 -41.5 33t-16.5 59q0 56 39.5 82.5t100.5 26.5q60 0 99.5 -26.5t39.5 -82.5q0 -35 -16.5 -59t-41.5 -33q69 -20 69 -100q0 -54 -37.5 -83.5t-112.5 -29.5z" />
    <glyph glyph-name="uni215F" unicode="&#x215f;" horiz-adv-x="580" 
d="M779 764l-506 -764h-72l506 764h72zM48 623v55q84 18 146 96h46v-354h130v-50h-314v50h130v274q-47 -54 -138 -71z" />
    <glyph glyph-name="arrowleft" unicode="&#x2190;" horiz-adv-x="860" 
d="M30 361v58l400 247v-75l-192 -115l-101 -55l103 1h580v-64h-580l-103 1l101 -55l192 -115v-75z" />
    <glyph glyph-name="arrowup" unicode="&#x2191;" horiz-adv-x="860" 
d="M401 790h58l247 -400h-75l-115 192l-55 101l1 -103v-580h-64v580l1 103l-55 -101l-115 -192h-75z" />
    <glyph glyph-name="arrowright" unicode="&#x2192;" horiz-adv-x="860" 
d="M830 419v-58l-400 -247v75l192 115l101 55l-103 -1h-580v64h580l103 -1l-101 55l-192 115v75z" />
    <glyph glyph-name="arrowdown" unicode="&#x2193;" horiz-adv-x="860" 
d="M459 -10h-58l-247 400h75l115 -192l55 -101l-1 103v580h64v-580l-1 -103l55 101l115 192h75z" />
    <glyph glyph-name="uni2196" unicode="&#x2196;" horiz-adv-x="860" 
d="M25 749l41 41l458 -108l-53 -53l-217 54l-111 33l74 -73l410 -410l-45 -45l-410 410l-73 74l33 -111l54 -217l-53 -53z" />
    <glyph glyph-name="uni2197" unicode="&#x2197;" horiz-adv-x="860" 
d="M784 790l41 -41l-108 -458l-53 53l54 217l33 111l-73 -74l-410 -410l-45 45l410 410l74 73l-111 -33l-217 -54l-53 53z" />
    <glyph glyph-name="uni2198" unicode="&#x2198;" horiz-adv-x="860" 
d="M825 31l-41 -41l-458 108l53 53l217 -54l111 -33l-74 73l-410 410l45 45l410 -410l73 -74l-33 111l-54 217l53 53z" />
    <glyph glyph-name="uni2199" unicode="&#x2199;" horiz-adv-x="860" 
d="M66 -10l-41 41l108 458l53 -53l-54 -217l-33 -111l73 74l410 410l45 -45l-410 -410l-74 -73l111 33l217 54l53 -53z" />
    <glyph glyph-name="partialdiff" unicode="&#x2202;" horiz-adv-x="665" 
d="M114 684l-24 47q70 43 166 43q158 0 252 -96t98 -288q6 -400 -291 -400q-118 0 -191.5 67t-73.5 186q0 120 69 186.5t186 66.5q77 0 140 -34.5t93 -93.5v22q-3 174 -75.5 251t-205.5 77q-83 0 -143 -34zM305 435q-85 -1 -134.5 -48t-49.5 -144q0 -96 53.5 -143t140.5 -49
q85 -2 134 37.5t70 129.5q11 109 -50 163.5t-164 53.5z" />
    <glyph glyph-name="increment" unicode="&#x2206;" horiz-adv-x="860" 
d="M50 0v43l344 731h72l344 -731v-43h-760zM600 61l134 -2l-244 518l-60 132l-60 -132l-244 -518l134 2h340z" />
    <glyph glyph-name="product" unicode="&#x220f;" horiz-adv-x="750" 
d="M605 698v-698h-70v698h-320v-698h-70v698h-120v66h700v-66h-120z" />
    <glyph glyph-name="summation" unicode="&#x2211;" horiz-adv-x="695" 
d="M115 764h500v-66h-274l-136 2l305 -284v-48l-330 -304l136 2h324v-66h-555v63l352 329l-322 309v63z" />
    <glyph glyph-name="minus" unicode="&#x2212;" horiz-adv-x="700" 
d="M620 358h-540v64h540v-64z" />
    <glyph glyph-name="radical" unicode="&#x221a;" horiz-adv-x="750" 
d="M25 445v60l152 35l69 -322l30 -153l73 139l314 560h78l-447 -774h-58l-114 476z" />
    <glyph glyph-name="infinity" unicode="&#x221e;" horiz-adv-x="800" 
d="M749 390q0 -73 -46.5 -111.5t-122.5 -38.5q-96 0 -180 100q-84 -100 -180 -100q-76 0 -122.5 38.5t-46.5 111.5t46.5 111.5t122.5 38.5q95 0 180 -101q85 101 180 101q76 0 122.5 -38.5t46.5 -111.5zM686 390q0 51 -30 72.5t-76 19.5q-82 -4 -143 -92q61 -88 143 -92
q46 -2 76 19.5t30 72.5zM220 298q82 4 143 92q-61 88 -143 92q-46 2 -76 -19.5t-30 -72.5t30 -72.5t76 -19.5z" />
    <glyph glyph-name="integral" unicode="&#x222b;" horiz-adv-x="250" 
d="M272 711q-63 0 -88.5 -28.5t-25.5 -116.5v-568q0 -46 -6.5 -79.5t-24.5 -65t-55.5 -47.5t-93.5 -16q-35 0 -57 8l8 64q21 -9 49 -9q63 0 88.5 28.5t25.5 116.5v568q0 46 6.5 79.5t24.5 65t55.5 47.5t93.5 16q35 0 57 -8l-8 -64q-21 9 -49 9z" />
    <glyph glyph-name="approxequal" unicode="&#x2248;" horiz-adv-x="700" 
d="M100 426l-30 50q5 7 15 17t48.5 27t86.5 17q60 0 137 -35.5t128 -35.5q36 0 64.5 12t39.5 24l11 12l30 -50q-5 -7 -15 -17t-48.5 -27t-86.5 -17q-60 0 -137.5 35.5t-127.5 35.5q-36 0 -65 -12t-40 -24zM600 354l30 -50q-5 -7 -15 -17t-48.5 -27t-86.5 -17
q-60 0 -137 35.5t-128 35.5q-36 0 -65 -12t-40 -24l-10 -12l-30 50q5 7 15 17t48.5 27t86.5 17q60 0 137.5 -35.5t127.5 -35.5q36 0 64.5 12t39.5 24z" />
    <glyph glyph-name="notequal" unicode="&#x2260;" horiz-adv-x="700" 
d="M620 438h-201l-64 -96h265v-64h-308l-63 -95h-74l63 95h-158v64h201l64 96h-265v64h307l64 95h74l-64 -95h159v-64z" />
    <glyph glyph-name="equivalence" unicode="&#x2261;" horiz-adv-x="700" 
d="M80 358v64h540v-64h-540zM80 120v64h540v-64h-540zM80 596v64h540v-64h-540z" />
    <glyph glyph-name="lessequal" unicode="&#x2264;" horiz-adv-x="700" 
d="M136 459l143 -41l341 -101v-68l-540 168v84l540 168v-68l-341 -101zM620 111l-540 168v69l540 -168v-69z" />
    <glyph glyph-name="greaterequal" unicode="&#x2265;" horiz-adv-x="700" 
d="M421 418l143 41l-143 41l-341 101v68l540 -168v-84l-540 -168v68zM620 279l-540 -168v69l540 168v-69z" />
    <glyph glyph-name="squaremultiply" unicode="&#x22a0;" horiz-adv-x="960" 
d="M90 0v780h780v-780h-780zM800 714h-640v-648h640v648zM182 137l253 253l-253 253l45 45l253 -253l253 253l45 -45l-253 -253l253 -253l-45 -45l-253 253l-253 -253z" />
    <glyph glyph-name="house" unicode="&#x2302;" horiz-adv-x="850" 
d="M780 0h-710v450l355 340l355 -340v-450z" />
    <glyph glyph-name="blacksquare" unicode="&#x25a0;" horiz-adv-x="960" 
d="M870 780v-780h-780v780h780z" />
    <glyph glyph-name="whitesquare" unicode="&#x25a1;" horiz-adv-x="960" 
d="M90 0v780h780v-780h-780zM800 714h-640v-648h640v648z" />
    <glyph glyph-name="blacksmallsquare" unicode="&#x25aa;" horiz-adv-x="710" 
d="M620 530v-530h-530v530h530z" />
    <glyph glyph-name="whitesmallsquare" unicode="&#x25ab;" horiz-adv-x="710" 
d="M90 0v530h530v-530h-530zM550 464h-390v-398h390v398z" />
    <glyph glyph-name="triagup" unicode="&#x25b2;" horiz-adv-x="850" 
d="M815 0h-780l390 790z" />
    <glyph glyph-name="triagrt" unicode="&#x25ba;" horiz-adv-x="850" 
d="M40 0v780l790 -390z" />
    <glyph glyph-name="triagdn" unicode="&#x25bc;" horiz-adv-x="850" 
d="M35 780h780l-390 -790z" />
    <glyph glyph-name="triaglf" unicode="&#x25c4;" horiz-adv-x="850" 
d="M810 780v-780l-790 390z" />
    <glyph glyph-name="lozenge" unicode="&#x25ca;" horiz-adv-x="900" 
d="M450 77l283 313l-283 313l-283 -313zM450 -10l-368 400l368 400l368 -400z" />
    <glyph glyph-name="whitecircle" unicode="&#x25cb;" horiz-adv-x="960" 
d="M80 390q0 166 117 283t283 117t283 -117t117 -283t-117 -283t-283 -117t-283 117t-117 283zM811 390q0 137 -97 235t-234 98t-234 -98t-97 -235t97 -235t234 -98t234 98t97 235z" />
    <glyph glyph-name="whitecircle" unicode="&#x25ef;" horiz-adv-x="960" 
d="M80 390q0 166 117 283t283 117t283 -117t117 -283t-117 -283t-283 -117t-283 117t-117 283zM811 390q0 137 -97 235t-234 98t-234 -98t-97 -235t97 -235t234 -98t234 98t97 235z" />
    <glyph glyph-name="bullseye" unicode="&#x25ce;" horiz-adv-x="960" 
d="M80 390q0 166 117 283t283 117t283 -117t117 -283t-117 -283t-283 -117t-283 117t-117 283zM330 390q0 62 44 106t106 44t106 -44t44 -106t-44 -106t-106 -44t-106 44t-44 106zM157 339q0 -113 79.5 -192.5t192.5 -79.5t193 79.5t80 192.5t-80 193t-193 80t-192.5 -80
t-79.5 -193z" />
    <glyph glyph-name="blackcircle" unicode="&#x25cf;" horiz-adv-x="960" 
d="M80 390q0 166 117 283t283 117t283 -117t117 -283t-117 -283t-283 -117t-283 117t-117 283z" />
    <glyph glyph-name="uni25E2" unicode="&#x25e2;" horiz-adv-x="850" 
d="M30 239l551 551l249 -800z" />
    <glyph glyph-name="uni25E3" unicode="&#x25e3;" horiz-adv-x="850" 
d="M269 790l551 -551l-800 -249z" />
    <glyph glyph-name="uni25E4" unicode="&#x25e4;" horiz-adv-x="850" 
d="M820 541l-551 -551l-249 800z" />
    <glyph glyph-name="uni25E5" unicode="&#x25e5;" horiz-adv-x="850" 
d="M581 -10l-551 551l800 249z" />
    <glyph glyph-name="uni2600" unicode="&#x2600;" horiz-adv-x="985" 
d="M493 565q112 0 191 -79t79 -191t-79 -190.5t-191 -78.5t-190.5 78.5t-78.5 190.5t78.5 191t190.5 79zM493 89q86 0 146.5 60.5t60.5 145.5t-61 146t-146 61t-145.5 -60.5t-60.5 -146.5q0 -85 60.5 -145.5t145.5 -60.5zM27 345l11 63l160 -29l-11 -62zM960 345l-160 -28
l-11 62l160 29zM883 33l-141 82l32 54l141 -81zM104 33l-32 55l141 81l32 -54zM915 502l-141 -81l-32 54l141 82zM72 502l32 55l141 -82l-32 -54zM217 -84l-49 40l105 125l48 -41zM819 634l-105 -125l-48 41l104 124zM770 -84l-104 124l48 41l105 -125zM168 634l49 40
l104 -124l-48 -41zM462 -174v163h63v-163h-63zM525 764v-163h-63v163h63zM38 183l-11 62l160 28l11 -62zM949 183l-160 28l11 62l160 -28zM624 -156l-56 153l59 21l56 -153zM363 -156l-59 21l56 153l59 -21zM304 725l59 21l56 -152l-59 -22zM683 725l-56 -153l-59 22l56 152
z" />
    <glyph glyph-name="uni2601" unicode="&#x2601;" horiz-adv-x="1350" 
d="M257 637q54 90 146.5 143.5t200.5 53.5q133 0 238.5 -77.5t145.5 -200.5q9 9 68 9q112 0 190.5 -79t78.5 -191t-78.5 -190.5t-190.5 -78.5h-721q-129 0 -219.5 91t-90.5 219q0 107 65.5 190.5t166.5 110.5zM917 295q28 65 28 136q0 141 -100 240.5t-241 99.5
q-78 0 -147 -33.5t-116 -91.5q127 -2 215.5 -92.5t88.5 -217.5q0 -15 -2 -41h-64q3 20 3 41q0 103 -72.5 175t-174.5 72q-103 0 -175 -72t-72 -175t72 -175t175 -72h721q86 0 146 60.5t60 145.5q0 86 -60 146.5t-146 60.5q-9 0 -27 -3.5t-26 -3.5q5 -35 5 -64
q0 -70 -23 -136h-68z" />
    <glyph glyph-name="uni2602" unicode="&#x2602;" horiz-adv-x="1350" 
d="M257 637q54 90 146.5 143.5t200.5 53.5q133 0 238.5 -77.5t145.5 -200.5q1 1 3 1q34 8 65 8q112 0 190.5 -79t78.5 -191t-78.5 -190.5t-190.5 -78.5h-721q-129 0 -219.5 91t-90.5 219q0 107 65.5 190.5t166.5 110.5zM985 295h-68q28 65 28 136q0 141 -100 240.5
t-241 99.5q-78 0 -147 -33.5t-116 -91.5q127 -2 215.5 -92.5t88.5 -217.5q0 -15 -2 -41h-64q3 20 3 41q0 103 -72.5 175t-174.5 72q-103 0 -175 -72t-72 -175t72 -175t175 -72h721q86 0 146 60.5t60 145.5q0 86 -60 146.5t-146 60.5q-26 0 -50 -6h-1q-1 -1 -2 -1
q5 -35 5 -64q0 -70 -23 -136zM583 -10l-59 -163h-67l59 163h67zM1019 -10l-59 -163h-67l59 163h67zM801 -10l-59 -163h-67l59 163h67zM365 -10l-59 -163h-67l59 163h67z" />
    <glyph glyph-name="uni2603" unicode="&#x2603;" horiz-adv-x="894" 
d="M681 196l138 80l31 -54l-106 -62l125 -72l-32 -54l-122 70v-117h-63v153l-174 101v-198l138 -79l-31 -55l-107 62v-145h-63v142l-101 -59l-31 55l132 76v201l-170 -99v-160h-63v124l-125 -72l-32 54l122 71l-101 58l32 55l132 -77l174 100l-171 99l-138 -80l-32 55
l107 61l-125 72l32 55l122 -71v117h63v-153l173 -100v197l-138 79l32 55l106 -61v144h63v-141l101 58l32 -54l-133 -77v-200l171 98v160h63v-123l125 72l32 -55l-123 -70l101 -59l-31 -54l-133 76l-173 -100z" />
    <glyph glyph-name="uni2605" unicode="&#x2605;" horiz-adv-x="880" 
d="M440 180l-260 -190l99 307l-260 189h322l99 306l99 -306h322l-260 -189l99 -307z" />
    <glyph glyph-name="uni2607" unicode="&#x2607;" horiz-adv-x="1351" 
d="M917 296q28 64 28 135q0 141 -99.5 240.5t-240.5 99.5q-78 0 -147 -33t-117 -91q127 -3 216 -93.5t89 -217.5q0 -22 -3 -40h-63q3 18 3 40q0 103 -72.5 175.5t-175.5 72.5q-102 0 -174.5 -72.5t-72.5 -175.5q0 -102 72.5 -174.5t174.5 -72.5l72 -63h-72q-128 0 -219 91
t-91 219q0 108 65.5 191t167.5 110q53 90 145.5 143.5t201.5 53.5q133 0 238.5 -77.5t144.5 -199.5h4q27 8 64 8q112 0 191 -78.5t79 -190.5t-79 -191t-191 -79l-69 63h69q86 0 146.5 60.5t60.5 146.5q0 85 -60.5 145.5t-146.5 60.5q-25 0 -49 -6h-4q5 -35 5 -65
q0 -71 -23 -135h-68zM670 262h177l-113 -168l75 -68l-225 -225h-6l96 207l-91 81zM870 262h177l-113 -168l75 -68l-225 -225h-6l96 207l-91 81zM647 262l-113 -168l75 -68l-225 -225h-6l96 207l-91 81l87 173h177z" />
    <glyph glyph-name="ballotboxwithx" unicode="&#x2612;" horiz-adv-x="710" 
d="M90 0v530h530v-530h-530zM550 464h-390v-398h390v398zM180 136l130 129l-130 129l46 46l129 -130l129 130l46 -46l-130 -129l130 -129l-46 -46l-129 130l-129 -130z" />
    <glyph glyph-name="uni2614" unicode="&#x2614;" horiz-adv-x="1350" 
d="M917 295q28 65 28 136q0 140 -100 240t-241 100q-78 0 -147 -33.5t-116 -91.5q127 -2 215.5 -92.5t88.5 -217.5q0 -15 -2 -41h-64q3 20 3 41q0 102 -72.5 174.5t-174.5 72.5q-103 0 -175 -72.5t-72 -174.5q0 -92 59 -161.5t148 -83.5l-22 -60q-107 22 -177.5 107.5
t-70.5 197.5q0 107 65.5 190.5t166.5 109.5q54 91 146 144.5t201 53.5q133 0 238.5 -77.5t145.5 -200.5h1q1 1 2 1q34 8 65 8q112 0 190.5 -79t78.5 -191q0 -106 -72.5 -183.5t-177.5 -85.5l25 67q70 15 116 71.5t46 130.5q0 86 -60.5 146.5t-145.5 60.5q-26 0 -50 -6
q-1 -1 -3 -1q5 -35 5 -64q0 -70 -23 -136h-68zM1056 89l-96 -263h-67l96 263h67zM947 89l-96 -263h-67l96 263h67zM838 89l-96 -263h-67l96 263h67zM729 89l-96 -263h-67l96 263h67zM511 89l-96 -263h-67l96 263h67zM620 89l-96 -263h-67l96 263h67zM402 89l-96 -263h-67
l96 263h67z" />
    <glyph glyph-name="uni263C" unicode="&#x263c;" horiz-adv-x="960" 
d="M880 390l-169 -30l155 -73l-171 15l132 -112l-162 59l98 -141l-141 98l58 -162l-111 130l15 -170l-74 155l-30 -169l-30 169l-74 -155l15 170l-111 -130l58 162l-141 -98l98 141l-162 -59l132 112l-171 -15l155 73l-169 30l169 30l-155 73l171 -15l-132 112l162 -59
l-98 141l141 -98l-58 162l111 -130l-15 170l74 -155l30 169l30 -169l74 155l-15 -170l111 130l-58 -162l141 98l-98 -141l162 59l-132 -112l171 15l-155 -73z" />
    <glyph glyph-name="uni263E" unicode="&#x263e;" horiz-adv-x="960" 
d="M624 728q-139 0 -231.5 -95.5t-92.5 -242.5t92.5 -242.5t231.5 -95.5q50 0 96 15q-107 -77 -240 -77q-166 0 -283 117t-117 283t117 283t283 117q131 0 240 -77q-52 15 -96 15z" />
    <glyph glyph-name="spade" unicode="&#x2660;" horiz-adv-x="900" 
d="M451 790q32 -48 97 -116t136 -114q78 -51 121 -103t43 -123q0 -73 -51 -123.5t-125 -50.5q-69 0 -120.5 46t-79.5 115l-3 -1q8 -102 26.5 -174t55.5 -146h-202q37 74 55.5 146t26.5 174l-3 1q-28 -69 -79.5 -115t-120.5 -46q-74 0 -125 50.5t-51 123.5q0 71 43 123
t121 103q71 46 136 114t97 116h2z" />
    <glyph glyph-name="club" unicode="&#x2663;" horiz-adv-x="900" 
d="M349 0q37 74 55.5 146t26.5 174l-3 1q-28 -69 -79.5 -115t-120.5 -46q-74 0 -125 50.5t-51 123.5q0 79 48.5 129.5t125.5 50.5q40 0 84 -23l2 2q-38 57 -38 117q0 75 50.5 127.5t125.5 52.5t125.5 -52.5t50.5 -127.5q0 -60 -38 -117l2 -2q44 23 84 23q77 0 125.5 -50.5
t48.5 -129.5q0 -73 -51 -123.5t-125 -50.5q-69 0 -120.5 46t-79.5 115l-3 -1q8 -102 26.5 -174t55.5 -146h-202z" />
    <glyph glyph-name="heart" unicode="&#x2665;" horiz-adv-x="900" 
d="M451 -10h-2q-28 43 -94 126.5t-139 166.5q-164 185 -164 301q0 90 52 148t139 58q85 0 132.5 -42.5t72.5 -114.5h4q25 72 72.5 114.5t132.5 42.5q87 0 139 -58t52 -148q0 -116 -164 -301q-73 -83 -139 -166.5t-94 -126.5z" />
    <glyph glyph-name="diamond" unicode="&#x2666;" horiz-adv-x="900" 
d="M817 390q-106 -83 -202.5 -188.5t-163.5 -211.5h-2q-67 106 -163.5 211.5t-202.5 188.5q106 83 202.5 188.5t163.5 211.5h2q67 -106 163.5 -211.5t202.5 -188.5z" />
    <glyph glyph-name="musicflatsign" unicode="&#x266d;" horiz-adv-x="455" 
d="M50 -33v853h51v-375q23 43 68.5 70.5t89.5 27.5q168 0 168 -179q0 -70 -32.5 -136.5t-86.5 -117t-120.5 -88t-137.5 -55.5zM101 336v-292q41 15 81 39t83.5 61.5t70.5 91.5t27 116q0 55 -25.5 91.5t-80.5 36.5q-63 0 -108.5 -45.5t-47.5 -98.5z" />
    <glyph glyph-name="musicsharpsign" unicode="&#x266f;" horiz-adv-x="446" 
d="M339 880v-203l97 78v-99l-97 -78v-190l97 78v-99l-97 -78v-289h-51v248l-130 -104v-244h-51v203l-97 -78v99l97 78v190l-97 -78v99l97 78v289h51v-248l130 104v244h51zM158 433v-190l130 104v190z" />
    <glyph glyph-name="uni267B" unicode="&#x267b;" horiz-adv-x="960" 
d="M863 266l1 -2l-96 -167q-15 -22 -21.5 -30t-24 -17t-42.5 -9h-57v-49l-113 136l113 135v-49h145q26 0 50 13t34 26zM186 122h-2l-96 168q-11 21 -15 32t-3 30.5t14 40.5l28 49l-42 24l174 31l59 -166l-41 24q-70 -120 -72 -125q-13 -23 -14 -50t4 -42zM404 779v1h193
q24 -1 36 -2.5t28 -12.5t28 -32l28 -49l43 24l-61 -166l-173 31l41 24l-72 125q-13 23 -36 37.5t-39 16.5zM200 598l67 119q10 17 34 31q46 24 97 10t68 -45l-116 -201zM446 41h-135q-22 0 -44 13q-43 25 -57.5 79.5t4.5 80.5h232v-173zM806 527l69 -117q10 -18 10 -44
q1 -48 -38 -87t-74 -39l-116 201z" />
    <glyph glyph-name="uni267C" unicode="&#x267c;" horiz-adv-x="960" 
d="M880 389q0 -166 -116.5 -282.5t-282.5 -116.5q-167 0 -284 116.5t-117 282.5q0 167 117 284t284 117q166 0 282.5 -117t116.5 -284zM313 645l-52 -92l116 -67l90 156q-13 24 -52.5 34.5t-75.5 -7.5q-18 -11 -26 -24zM415 694v-1q48 -5 71 -44l56 -97l-32 -19l134 -24
l47 129l-33 -19l-22 38q-14 24 -29.5 30.5t-41.5 6.5h-150zM343 121h105v134h-180q-15 -20 -3.5 -62.5t44.5 -61.5q17 -10 34 -10zM249 184h1q-20 44 3 84l56 97l32 -19l-46 129l-135 -24l33 -19l-22 -38q-10 -16 -11 -31.5t2 -23.5t12 -25zM784 407l-53 91l-116 -67
l90 -156q27 0 57.5 30t29.5 68q0 20 -8 34zM776 294l-1 1q-3 -4 -9 -11t-25.5 -18t-39.5 -11h-112v38l-88 -105l88 -105v38h44q28 0 41.5 10.5t26.5 32.5z" />
    <glyph glyph-name="uni267D" unicode="&#x267d;" horiz-adv-x="960" 
d="M880 389q0 -166 -116.5 -282.5t-282.5 -116.5q-167 0 -284 116.5t-117 282.5q0 167 117 284t284 117q166 0 282.5 -117t116.5 -284zM860 389q0 158 -111 269.5t-268 111.5q-158 0 -269.5 -111.5t-111.5 -269.5q0 -157 111.5 -268t269.5 -111q157 0 268 111t111 268z
M261 553l52 92q8 13 26 24q36 18 75.5 7.5t52.5 -34.5l-90 -156zM415 693v1h150q26 0 41.5 -6.5t29.5 -30.5l22 -38l33 19l-47 -129l-134 24l32 19l-56 97q-10 17 -28 28t-30 13zM448 121h-105q-17 0 -34 10q-33 19 -44.5 61.5t3.5 62.5h180v-134zM250 184h-1l-75 130
q-9 17 -12 25t-2 23.5t11 31.5l22 38l-33 19l135 24l46 -129l-32 19l-56 -97q-10 -18 -11 -39t4 -33zM731 498l53 -91q8 -14 8 -34q1 -38 -29.5 -68t-57.5 -30l-90 156zM775 295l1 -1l-75 -130q-9 -15 -15 -22.5t-20 -14t-33 -6.5h-44v-38l-88 105l88 105v-38h112
q20 0 38.5 10t26.5 20z" />
    <glyph glyph-name="mediumwhitecircle" unicode="&#x26aa;" horiz-adv-x="710" 
d="M80 265q0 114 80.5 194.5t194.5 80.5t194.5 -80.5t80.5 -194.5t-80.5 -194.5t-194.5 -80.5t-194.5 80.5t-80.5 194.5zM561 265q0 86 -60.5 147t-145.5 61t-145.5 -61t-60.5 -147t60.5 -147t145.5 -61t145.5 61t60.5 147z" />
    <glyph glyph-name="mediumblackcircle" unicode="&#x26ab;" horiz-adv-x="710" 
d="M80 265q0 114 80.5 194.5t194.5 80.5t194.5 -80.5t80.5 -194.5t-80.5 -194.5t-194.5 -80.5t-194.5 80.5t-80.5 194.5z" />
    <glyph glyph-name="anglebracketleft" unicode="&#x3008;" horiz-adv-x="240" 
d="M111 350l114 -480h-63l-122 480l122 480h63z" />
    <glyph glyph-name="anglebracketright" unicode="&#x3009;" horiz-adv-x="240" 
d="M129 350l-114 480h63l122 -480l-122 -480h-63z" />
    <glyph glyph-name="lcedilla" unicode="&#xe100;" horiz-adv-x="250" 
d="M92 0v800h66v-800h-66zM88 -75l17 49q131 -16 131 -101q0 -42 -30 -62.5t-79 -20.5t-79 17l15 44q27 -12 56 -13q59 -1 59 34q0 44 -90 53z" />
    <glyph glyph-name="uni004500600323" unicode="&#xe101;" horiz-adv-x="695" 
d="M400 -67v-86h-86v86h86zM90 780h520v-66h-450v-281h410v-66h-410v-301h470v-66h-540v780zM209 1030h82l94 -208h-65z" />
    <glyph glyph-name="uni006500600323" unicode="&#xe102;" horiz-adv-x="570" 
d="M291 540q224 0 224 -274v-27h-395q4 -97 49.5 -142.5t122.5 -45.5q124 -3 149 102l71 -9q-13 -68 -67.5 -111t-153.5 -43q-113 0 -177 70t-64 205t64 205t177 70zM291 480q-76 0 -121 -44.5t-50 -137.5h323q-3 185 -152 182zM139 800h82l94 -208h-65zM328 -67v-86h-86v86
h86z" />
    <glyph glyph-name="uni004500B40323" unicode="&#xe103;" horiz-adv-x="695" 
d="M90 780h520v-66h-450v-281h410v-66h-410v-301h470v-66h-540v780zM409 1030h82l-111 -208h-65zM400 -67v-86h-86v86h86z" />
    <glyph glyph-name="uni006500B40323" unicode="&#xe104;" horiz-adv-x="570" 
d="M291 540q224 0 224 -274v-27h-395q4 -97 49.5 -142.5t122.5 -45.5q124 -3 149 102l71 -9q-13 -68 -67.5 -111t-153.5 -43q-113 0 -177 70t-64 205t64 205t177 70zM291 480q-76 0 -121 -44.5t-50 -137.5h323q-3 185 -152 182zM349 800h82l-111 -208h-65zM328 -67v-86h-86
v86h86z" />
    <glyph glyph-name="Gtilde" unicode="&#xe105;" horiz-adv-x="774" 
d="M395 55q140 0 224 59v223h-170v66h240v-333q-73 -46 -139.5 -63.5t-154.5 -16.5q-168 1 -249 106t-81 294q0 190 81.5 295t248.5 105q252 0 292 -204l-72 -6q-15 75 -67 110t-153 35q-256 0 -256 -335t256 -335zM456 860q-43 2 -83 38t-63 37q-27 2 -44 -11t-20 -27
l-4 -14l-55 8q24 108 127 103q43 -2 83 -38t63 -37q27 -2 44 11t20 27l4 14l55 -8q-24 -108 -127 -103z" />
    <glyph glyph-name="gtilde" unicode="&#xe106;" horiz-adv-x="599" 
d="M361 630q-43 2 -83 38t-63 37q-27 2 -44 -11t-21 -27l-3 -14l-55 8q24 108 127 103q43 -2 83 -38t63 -37q27 -2 44 11t21 27l3 14l55 -8q-24 -108 -127 -103zM285 -153q80 2 129.5 33.5t49.5 96.5v133q-27 -45 -74.5 -72.5t-104.5 -27.5q-112 0 -173.5 68t-61.5 197
t61.5 197t173.5 68q57 0 104 -27.5t74 -73.5l12 91h60l-6 -124v-422q0 -93 -64.5 -143.5t-179.5 -50.5q-201 0 -225 154l70 9q19 -109 155 -106zM118 275q0 -100 44.5 -151.5t124.5 -51.5q76 0 125.5 48t51.5 104v102q-2 56 -51.5 104t-125.5 48q-80 0 -124.5 -51
t-44.5 -152z" />
    <glyph glyph-name="Gcommaturnedabove" unicode="&#xe107;" horiz-adv-x="774" 
d="M395 55q140 0 224 59v223h-170v66h240v-333q-73 -46 -139.5 -63.5t-154.5 -16.5q-168 1 -249 106t-81 294q0 190 81.5 295t248.5 105q252 0 292 -204l-72 -6q-15 75 -67 110t-153 35q-256 0 -256 -335t256 -335zM427 822h-79l75 208h61z" />
    <glyph glyph-name="gcommaturnedabove" unicode="&#xe108;" horiz-adv-x="599" 
d="M316 592h-79l75 208h61zM285 -153q80 2 129.5 33.5t49.5 96.5v133q-27 -45 -74.5 -72.5t-104.5 -27.5q-112 0 -173.5 68t-61.5 197t61.5 197t173.5 68q57 0 104 -27.5t74 -73.5l12 91h60l-6 -124v-422q0 -93 -64.5 -143.5t-179.5 -50.5q-201 0 -225 154l70 9
q19 -109 155 -106zM118 275q0 -100 44.5 -151.5t124.5 -51.5q76 0 125.5 48t51.5 104v102q-2 56 -51.5 104t-125.5 48q-80 0 -124.5 -51t-44.5 -152z" />
    <glyph glyph-name="Hmacronbelow" unicode="&#xe109;" horiz-adv-x="750" 
d="M590 780h70v-780h-70v367h-430v-367h-70v780h70v-347h430v347zM239 -142v64h272v-64h-272z" />
    <glyph glyph-name="hmacronbelow" unicode="&#xe10a;" horiz-adv-x="574" 
d="M70 0v800h66v-360q27 45 75 72.5t106 27.5q85 0 140.5 -45.5t55.5 -124.5v-370h-66v355q0 58 -38 90t-102 32q-70 0 -119.5 -48t-51.5 -103v-326h-66zM159 -142v64h272v-64h-272z" />
    <glyph glyph-name="Jcaron" unicode="&#xe10b;" horiz-adv-x="507" 
d="M201 1030h67l117 -150l117 150h67l-150 -208h-68zM351 780h71v-570q0 -99 -53.5 -159.5t-150.5 -60.5q-185 0 -200 165l71 9q8 -113 129 -109q133 4 133 144v581z" />
    <glyph glyph-name="Kcedilla" unicode="&#xe10d;" horiz-adv-x="695" 
d="M160 780v-423l391 423h97l-328 -350l353 -430h-94l-309 376l-110 -118v-258h-70v780h70zM323 -75l17 49q131 -16 131 -101q0 -42 -30 -62.5t-79 -20.5t-79 17l15 44q27 -12 56 -13q59 -1 59 34q0 44 -90 53z" />
    <glyph glyph-name="kcedilla" unicode="&#xe10e;" horiz-adv-x="535" 
d="M136 0h-66v800h66v-536l101 103l163 163h95l-231 -225l268 -305h-91l-222 261l-83 -81v-180zM231 -75l17 49q131 -16 131 -101q0 -42 -30 -62.5t-79 -20.5t-79 17l15 44q27 -12 56 -13q59 -1 59 34q0 44 -90 53z" />
    <glyph glyph-name="Lcedilla" unicode="&#xe10f;" horiz-adv-x="585" 
d="M160 780v-714h410v-66h-480v780h70zM301 -75l17 49q131 -16 131 -101q0 -42 -30 -62.5t-79 -20.5t-79 17l15 44q27 -12 56 -13q59 -1 59 34q0 44 -90 53z" />
    <glyph glyph-name="ocedilla" unicode="&#xe110;" horiz-adv-x="578" 
d="M246 -75l17 49q131 -16 131 -101q0 -42 -30 -62.5t-79 -20.5t-79 17l15 44q27 -12 56 -13q59 -1 59 34q0 44 -90 53zM289 -10q-113 0 -176 70t-63 205t63 205t176 70t176 -70t63 -205t-63 -205t-176 -70zM289 478q-170 0 -170 -213t170 -213t170 213t-170 213z" />
    <glyph glyph-name="Mmacron" unicode="&#xe111;" horiz-adv-x="912" 
d="M423 0l-212 483l-57 141l4 -334v-290h-68v780h61l230 -515l75 -189l75 189l230 515h61v-780h-68v290l4 340l-57 -147l-212 -483h-66zM320 894v64h272v-64h-272z" />
    <glyph glyph-name="mmacron" unicode="&#xe112;" horiz-adv-x="863" 
d="M124 530l12 -88q26 45 67 71.5t91 26.5q133 0 167 -110q27 55 71.5 82.5t94.5 27.5q81 0 128 -44.5t47 -125.5v-370h-66v355q0 122 -119 122q-60 0 -102.5 -48t-45.5 -103v-326h-66v355q0 122 -119 122q-61 0 -103.5 -48t-44.5 -103v-326h-66v407l-6 123h60zM300 664v64
h272v-64h-272z" />
    <glyph glyph-name="Mcedilla" unicode="&#xe113;" horiz-adv-x="912" 
d="M423 0l-212 483l-57 141l4 -334v-290h-68v780h61l230 -515l75 -189l75 189l230 515h61v-780h-68v290l4 340l-57 -147l-212 -483h-66zM410 -75l17 49q131 -16 131 -101q0 -42 -30 -62.5t-79 -20.5t-79 17l15 44q27 -12 56 -13q59 -1 59 34q0 44 -90 53z" />
    <glyph glyph-name="mcedilla" unicode="&#xe114;" horiz-adv-x="863" 
d="M124 530l12 -88q26 45 67 71.5t91 26.5q133 0 167 -110q27 55 71.5 82.5t94.5 27.5q81 0 128 -44.5t47 -125.5v-370h-66v355q0 122 -119 122q-60 0 -102.5 -48t-45.5 -103v-326h-66v355q0 122 -119 122q-61 0 -103.5 -48t-44.5 -103v-326h-66v407l-6 123h60zM399 -75
l17 49q131 -16 131 -101q0 -42 -30 -62.5t-79 -20.5t-79 17l15 44q27 -12 56 -13q59 -1 59 34q0 44 -90 53z" />
    <glyph glyph-name="Ndieresis" unicode="&#xe115;" horiz-adv-x="750" 
d="M597 0l-348 515l-92 142l4 -267v-390h-71v780h63l348 -515l92 -142l-4 267v390h71v-780h-63zM325 969v-86h-86v86h86zM511 969v-86h-86v86h86z" />
    <glyph glyph-name="ndieresis" unicode="&#xe116;" horiz-adv-x="574" 
d="M124 530l12 -90q27 45 75 72.5t106 27.5q85 0 140.5 -45.5t55.5 -124.5v-370h-66v355q0 58 -38 90t-102 32q-70 0 -119.5 -48t-51.5 -103v-326h-66v407l-6 123h60zM242 739v-86h-86v86h86zM428 739v-86h-86v86h86z" />
    <glyph glyph-name="Nmacron" unicode="&#xe117;" horiz-adv-x="750" 
d="M597 0l-348 515l-92 142l4 -267v-390h-71v780h63l348 -515l92 -142l-4 267v390h71v-780h-63zM239 894v64h272v-64h-272z" />
    <glyph glyph-name="nmacron" unicode="&#xe118;" horiz-adv-x="574" 
d="M124 530l12 -90q27 45 75 72.5t106 27.5q85 0 140.5 -45.5t55.5 -124.5v-370h-66v355q0 58 -38 90t-102 32q-70 0 -119.5 -48t-51.5 -103v-326h-66v407l-6 123h60zM156 664v64h272v-64h-272z" />
    <glyph glyph-name="Ncedilla" unicode="&#xe119;" horiz-adv-x="750" 
d="M597 0l-348 515l-92 142l4 -267v-390h-71v780h63l348 -515l92 -142l-4 267v390h71v-780h-63zM341 -75l17 49q131 -16 131 -101q0 -42 -30 -62.5t-79 -20.5t-79 17l15 44q27 -12 56 -13q59 -1 59 34q0 44 -90 53z" />
    <glyph glyph-name="ncedilla" unicode="&#xe11a;" horiz-adv-x="574" 
d="M253 -75l17 49q131 -16 131 -101q0 -42 -30 -62.5t-79 -20.5t-79 17l15 44q27 -12 56 -13q59 -1 59 34q0 44 -90 53zM124 530l12 -90q27 45 75 72.5t106 27.5q85 0 140.5 -45.5t55.5 -124.5v-370h-66v355q0 58 -38 90t-102 32q-70 0 -119.5 -48t-51.5 -103v-326h-66v407
l-6 123h60z" />
    <glyph glyph-name="Ocommaturnedabove" unicode="&#xe11b;" horiz-adv-x="790" 
d="M395 -10q-167 0 -248.5 105t-81.5 295t81.5 295t248.5 105t248.5 -105t81.5 -295t-81.5 -295t-248.5 -105zM395 725q-256 0 -256 -335t256 -335t256 335t-256 335zM437 822h-79l75 208h61z" />
    <glyph glyph-name="ocommaturnedabove" unicode="&#xe11c;" horiz-adv-x="578" 
d="M289 -10q-113 0 -176 70t-63 205t63 205t176 70t176 -70t63 -205t-63 -205t-176 -70zM289 478q-170 0 -170 -213t170 -213t170 213t-170 213zM331 592h-79l75 208h61z" />
    <glyph glyph-name="uni004F02D900AF" unicode="&#xe11d;" horiz-adv-x="790" 
d="M395 -10q-167 0 -248.5 105t-81.5 295t81.5 295t248.5 105t248.5 -105t81.5 -295t-81.5 -295t-248.5 -105zM395 725q-256 0 -256 -335t256 -335t256 335t-256 335zM438 934v-86h-86v86h86zM259 994v64h272v-64h-272z" />
    <glyph glyph-name="Ocedilla" unicode="&#xe11f;" horiz-adv-x="790" 
d="M395 -10q-167 0 -248.5 105t-81.5 295t81.5 295t248.5 105t248.5 -105t81.5 -295t-81.5 -295t-248.5 -105zM395 725q-256 0 -256 -335t256 -335t256 335t-256 335zM349 -75l17 49q131 -16 131 -101q0 -42 -30 -62.5t-79 -20.5t-79 17l15 44q27 -12 56 -13q59 -1 59 34
q0 44 -90 53z" />
    <glyph glyph-name="Ounderlineaccent" unicode="&#xe121;" horiz-adv-x="790" 
d="M395 -10q-167 0 -248.5 105t-81.5 295t81.5 295t248.5 105t248.5 -105t81.5 -295t-81.5 -295t-248.5 -105zM395 725q-256 0 -256 -335t256 -335t256 335t-256 335zM425 -200h-60v160h60v-160z" />
    <glyph glyph-name="ounderlineaccent" unicode="&#xe122;" horiz-adv-x="578" 
d="M289 -10q-113 0 -176 70t-63 205t63 205t176 70t176 -70t63 -205t-63 -205t-176 -70zM289 478q-170 0 -170 -213t170 -213t170 213t-170 213zM319 -200h-60v160h60v-160z" />
    <glyph glyph-name="Pmacron" unicode="&#xe123;" horiz-adv-x="650" 
d="M160 402h217q24 0 43 2.5t42 12t38.5 25.5t26 46t10.5 70t-10.5 70t-26 46t-38.5 25.5t-42 12t-43 2.5h-217v-312zM160 336v-336h-70v780h276q49 0 90 -10.5t77.5 -34t57.5 -68.5t21 -109t-21 -109t-57.5 -68.5t-77.5 -34t-90 -10.5h-206zM179 894v64h272v-64h-272z" />
    <glyph glyph-name="pmacron" unicode="&#xe124;" horiz-adv-x="599" 
d="M136 90v-290h-66v606l-6 124h60l12 -91q27 46 74 73.5t104 27.5q111 0 173 -72.5t62 -202.5t-62 -202.5t-173 -72.5q-57 0 -104 27.5t-74 72.5zM479 265q0 102 -44 157t-123 55q-76 0 -125 -47.5t-51 -103.5v-122q2 -56 51 -103.5t125 -47.5q79 0 123 55.5t44 156.5z
M173 664v64h272v-64h-272z" />
    <glyph glyph-name="Rdoublegrave" unicode="&#xe125;" horiz-adv-x="705" 
d="M259 1030h82l94 -208h-65zM119 1030h82l94 -208h-65zM160 347v-347h-70v780h300q242 0 242 -216q0 -190 -182 -214l213 -350h-84l-203 347h-216zM160 413h239q25 0 43 2t41 10.5t38 24t25.5 45t10.5 69.5t-10.5 69.5t-25.5 44.5t-38 23.5t-41 10.5t-43 2h-239v-301z" />
    <glyph glyph-name="rdoublegrave" unicode="&#xe126;" horiz-adv-x="395" 
d="M149 800h82l94 -208h-65zM9 800h82l94 -208h-65zM312 540q38 0 59 -8l-7 -68q-24 9 -52 9q-76 0 -125 -47.5t-51 -103.5v-322h-66v407l-6 123h60l12 -94q24 45 72 74.5t104 29.5z" />
    <glyph glyph-name="Rcedilla" unicode="&#xe127;" horiz-adv-x="705" 
d="M313 -75l17 49q131 -16 131 -101q0 -42 -30 -62.5t-79 -20.5t-79 17l15 44q27 -12 56 -13q59 -1 59 34q0 44 -90 53zM160 347v-347h-70v780h300q242 0 242 -216q0 -190 -182 -214l213 -350h-84l-203 347h-216zM160 413h239q25 0 43 2t41 10.5t38 24t25.5 45t10.5 69.5
t-10.5 69.5t-25.5 44.5t-38 23.5t-41 10.5t-43 2h-239v-301z" />
    <glyph glyph-name="rcedilla" unicode="&#xe128;" horiz-adv-x="395" 
d="M66 -75l17 49q131 -16 131 -101q0 -42 -30 -62.5t-79 -20.5t-79 17l15 44q27 -12 56 -13q59 -1 59 34q0 44 -90 53zM312 540q38 0 59 -8l-7 -68q-24 9 -52 9q-76 0 -125 -47.5t-51 -103.5v-322h-66v407l-6 123h60l12 -94q24 45 72 74.5t104 29.5z" />
    <glyph glyph-name="Tcedilla" unicode="&#xe129;" horiz-adv-x="620" 
d="M345 714v-714h-70v714h-250v66h570v-66h-250zM273 -75l17 49q131 -16 131 -101q0 -42 -30 -62.5t-79 -20.5t-79 17l15 44q27 -12 56 -13q59 -1 59 34q0 44 -90 53z" />
    <glyph glyph-name="tcedilla" unicode="&#xe12a;" horiz-adv-x="395" 
d="M27 468v62h96v135l66 22v-157h163v-62h-163v-270q0 -87 26 -116t89 -29q25 0 49 9l8 -64q-22 -8 -57 -8q-56 0 -94 16.5t-56 47.5t-24.5 64.5t-6.5 79.5v270h-96zM187 -75l17 49q131 -16 131 -101q0 -42 -30 -62.5t-79 -20.5t-79 17l15 44q27 -12 56 -13q59 -1 59 34
q0 44 -90 53z" />
    <glyph glyph-name="Umacronbelow" unicode="&#xe12b;" horiz-adv-x="774" 
d="M387 -10q-307 0 -307 290v500h72v-502q0 -50 10.5 -88t35 -70t72.5 -48.5t117 -16.5t117 16.5t72.5 48.5t35 70t10.5 88v502h72v-500q0 -290 -307 -290zM251 -142v64h272v-64h-272z" />
    <glyph glyph-name="umacronbelow" unicode="&#xe12c;" horiz-adv-x="574" 
d="M450 0l-12 90q-27 -45 -75 -72.5t-106 -27.5q-85 0 -140.5 45.5t-55.5 124.5v370h66v-355q0 -58 38 -90t102 -32q70 0 119.5 48t51.5 103v326h66v-407l6 -123h-60zM146 -142v64h272v-64h-272z" />
    <glyph glyph-name="I.alt" unicode="&#xe131;" horiz-adv-x="440" 
d="M185 66v648h-130v66h330v-66h-130v-648h130v-66h-330v66h130z" />
    <glyph glyph-name="Igrave.alt" unicode="&#xe132;" horiz-adv-x="440" 
d="M75 1030h82l94 -208h-65zM185 66v648h-130v66h330v-66h-130v-648h130v-66h-330v66h130z" />
    </font>
</defs>
</svg>
