<?xml version="1.0" standalone="no"?>
<!DOCTYPE svg PUBLIC "-//W3C//DTD SVG 1.1//EN" "http://www.w3.org/Graphics/SVG/1.1/DTD/svg11.dtd" >
<svg>
<metadata>
Created by FontForge 20090622 at Sat Jan 11 19:25:18 2020
 By deploy user
Copyright (c) 2004-2008 by Village Type &#38; Design LLC. All rights reserved.
</metadata>
<defs>
<font id="GalaxiePolaris-Heavy" horiz-adv-x="700" >
  <font-face 
    font-family="Galaxie Polaris"
    font-weight="900"
    font-stretch="normal"
    units-per-em="1000"
    panose-1="2 0 0 0 0 0 0 0 0 0"
    ascent="800"
    descent="-200"
    x-height="530"
    cap-height="780"
    bbox="-236 -240 2097 1230"
    underline-thickness="30"
    underline-position="-70"
    unicode-range="U+0020-U+F778"
  />
<missing-glyph horiz-adv-x="960" 
d="M90 0v780h780v-780h-780zM480 345l-279 -279h558zM201 714l279 -279l279 279h-558zM435 390l-275 275v-550zM525 390l275 -275v550z" />
    <glyph glyph-name="interrobang" unicode="&#x21;&#x3f;" horiz-adv-x="624" 
d="M357 250h-104l-20 360q-30 -26 -31 -80l-182 22q1 120 76.5 182t219.5 62q133 0 206.5 -56.5t73.5 -171.5q0 -31 -7 -57t-14 -43t-26.5 -34l-28 -24.5t-36.5 -19t-34.5 -14t-37.5 -12.5q-35 -12 -51 -28zM397 182v-182h-184v182h184zM407 567q0 38 -30 53l-6 -103
q36 20 36 50z" />
    <glyph glyph-name="interrobangdown" unicode="&#xa1;&#xbf;" horiz-adv-x="623" 
d="M209 207q38 12 54 20l3 54h104l17 -313q33 24 34 82l182 -22q-1 -120 -76.5 -182t-219.5 -62q-132 0 -205.5 55.5t-73.5 165.5q0 50 14 85.5t43.5 57.5t52 32t62.5 24zM410 530v-182h-184v182h184zM216 6q0 -36 32 -49l5 96q-37 -18 -37 -47z" />
    <glyph glyph-name=".notdef" horiz-adv-x="960" 
d="M90 0v780h780v-780h-780zM480 345l-279 -279h558zM201 714l279 -279l279 279h-558zM435 390l-275 275v-550zM525 390l275 -275v550z" />
    <glyph glyph-name=".null" horiz-adv-x="0" 
 />
    <glyph glyph-name="nonmarkingreturn" horiz-adv-x="333" 
 />
    <glyph glyph-name="space" unicode=" " horiz-adv-x="220" 
 />
    <glyph glyph-name="exclam" unicode="!" horiz-adv-x="300" 
d="M49 780h202l-29 -530h-144zM242 182v-182h-184v182h184z" />
    <glyph glyph-name="quotedbl" unicode="&#x22;" horiz-adv-x="475" 
d="M22 780h203l-25 -250h-153zM251 780h202l-25 -250h-152z" />
    <glyph glyph-name="numbersign" unicode="#" horiz-adv-x="743" 
d="M723 444h-97l-34 -124h55v-164h-100l-42 -156h-185l42 156h-106l-42 -156h-185l42 156h-51v164h96l34 124h-54v164h99l43 156h185l-43 -156h106l43 156h185l-43 -156h52v-164zM335 444l-34 -124h106l34 124h-106z" />
    <glyph glyph-name="dollar" unicode="$" horiz-adv-x="570" 
d="M292 257q42 1 62 8t18 27q-2 19 -53 25l-51 5q-35 3 -48.5 5t-44.5 7t-45 11.5t-35.5 18.5t-31 27.5t-17.5 39t-8 52.5q0 49 22 85t59.5 55.5t78 29t86.5 10.5l29 101h157l-32 -113q70 -13 118 -37l-41 -156q-111 52 -220 52q-64 0 -61 -34q1 -15 55 -21q6 0 20 -1
q12 -1 18 -2q104 -11 140 -24q91 -33 91 -141q0 -66 -39 -109t-93.5 -59.5t-122.5 -17.5l-29 -101h-158l32 113q-81 17 -130 45l47 156q126 -59 227 -57z" />
    <glyph glyph-name="percent" unicode="%" horiz-adv-x="1215" 
d="M265 479q78 0 78 82t-78 82t-78 -82t78 -82zM265 780q110 0 169.5 -54t59.5 -165t-59.5 -165t-169.5 -54t-169.5 54t-59.5 165t59.5 165t169.5 54zM950 121q78 0 78 82t-78 82t-78 -82t78 -82zM950 422q110 0 169.5 -54t59.5 -165t-59.5 -165t-169.5 -54t-169.5 54
t-59.5 165t59.5 165t169.5 54zM981 764l-551 -764h-196l551 764h196z" />
    <glyph glyph-name="ampersand" unicode="&#x26;" horiz-adv-x="770" 
d="M742 191v-207q-111 67 -153 98q-53 -51 -114.5 -74.5t-150.5 -23.5q-127 0 -207.5 60t-80.5 186q0 67 33.5 120.5t84.5 80.5q-73 61 -73 157q0 99 63 153.5t179 54.5q117 0 178 -58.5t61 -137.5q0 -70 -34 -112.5t-96 -78.5l108 -88q10 23 10 68q0 34 -9 61l179 15
q10 -27 10 -87q0 -88 -43 -157zM445 185l-86 65.5l-69 55.5l-24 21q-48 -37 -48 -97q0 -26 11 -44t29 -26.5t34 -11.5t32 -3q78 0 121 40zM380 589q0 20 -15.5 34.5t-41.5 14.5q-29 0 -44.5 -14t-15.5 -35q0 -43 47 -77q11 4 27 13q43 24 43 64z" />
    <glyph glyph-name="quotesingle" unicode="'" horiz-adv-x="247" 
d="M22 780h203l-25 -250h-153z" />
    <glyph glyph-name="parenleft" unicode="(" horiz-adv-x="330" 
d="M216 350q0 -254 104 -480h-180q-48 82 -79 210.5t-31 269.5t31 269.5t79 210.5h180q-104 -226 -104 -480z" />
    <glyph glyph-name="parenright" unicode=")" horiz-adv-x="330" 
d="M114 350q0 254 -104 480h180q48 -82 79 -210.5t31 -269.5t-31 -269.5t-79 -210.5h-180q104 226 104 480z" />
    <glyph glyph-name="asterisk" unicode="*" horiz-adv-x="349" 
d="M119 780h111l-9 -82l78 35l34 -106l-72 -15l47 -52l-91 -65l-43 74l-42 -74l-91 65l47 52l-72 15l34 106l77 -35z" />
    <glyph glyph-name="plus" unicode="+" 
d="M268 120v188h-188v164h188v188h164v-188h188v-164h-188v-188h-164z" />
    <glyph glyph-name="comma" unicode="," horiz-adv-x="300" 
d="M58 182h191l-74 -289h-140z" />
    <glyph glyph-name="hyphen" unicode="-" horiz-adv-x="392" 
d="M348 253h-304v164h304v-164z" />
    <glyph glyph-name="period" unicode="." horiz-adv-x="300" 
d="M242 182v-182h-184v182h184z" />
    <glyph glyph-name="slash" unicode="/" horiz-adv-x="436" 
d="M425 870l-229 -960h-185l229 960h185z" />
    <glyph glyph-name="zero" unicode="0" 
d="M350 147q74 0 105.5 54t31.5 181t-31.5 181t-105.5 54t-105.5 -54t-31.5 -181t31.5 -181t105.5 -54zM350 780q170 0 245.5 -98t75.5 -300t-75.5 -300t-245.5 -98t-245.5 98t-75.5 300t75.5 300t245.5 98z" />
    <glyph glyph-name="one" unicode="1" 
d="M645 0h-553v163h192v369q-83 -53 -204 -76v172q91 32 144.5 65.5t97.5 86.5h144v-617h179v-163z" />
    <glyph glyph-name="two" unicode="2" 
d="M681 0h-653q-3 222 93 315q50 49 166 90l47 16q89 30 122 53.5t33 62.5q0 78 -120 78q-70 0 -101 -26.5t-32 -92.5l-188 23q2 125 82.5 193t238.5 68q130 0 216.5 -63t86.5 -180q0 -116 -103 -183q-38 -25 -143 -68l-65.5 -25.5t-57.5 -23t-38.5 -19.5t-29 -25t-8.5 -30
h454v-163z" />
    <glyph glyph-name="three" unicode="3" 
d="M680 233q0 -119 -86.5 -184t-257.5 -65q-158 0 -238.5 68t-82.5 193l188 23q1 -66 32 -92.5t101 -26.5q81 0 121 19.5t40 64.5q0 50 -29 63.5t-94 13.5h-127v162h127q27 0 39.5 1.5t27.5 7.5t20.5 20.5t5.5 38.5q0 41 -35.5 58.5t-87.5 16.5q-72 0 -102 -22.5t-31 -86.5
l-188 23q3 251 321 251q64 0 117 -12.5t96.5 -39.5t68 -75t24.5 -113q0 -98 -70 -143q42 -19 71 -63t29 -101z" />
    <glyph glyph-name="four" unicode="4" 
d="M674 160h-135v-160h-181v160h-338v115l367 505h152v-456h135v-164zM358 324v155l-20 -28l-69 -97l-21 -30h110z" />
    <glyph glyph-name="five" unicode="5" 
d="M215 309l-155 33l44 422h519v-165h-355l-12 -95q34 29 111 29q145 0 222 -69.5t77 -207.5q0 -137 -87.5 -204.5t-229.5 -67.5q-314 0 -317 245l188 23q1 -62 33 -82.5t96 -20.5q55 0 94 26.5t41 80.5q2 57 -29.5 87.5t-95.5 33.5q-105 5 -144 -68z" />
    <glyph glyph-name="six" unicode="6" 
d="M381 619q-155 8 -168 -163q53 71 172 71q281 0 281 -271q0 -132 -84.5 -202t-222.5 -70q-171 0 -251 99t-80 300q0 193 92 295t262 102q135 0 209.5 -52t76.5 -157l-188 -23q-1 39 -26.5 53.5t-72.5 17.5zM366 368q-67 1 -107 -34t-34 -103q12 -45 43 -65.5t90 -20.5
q55 1 89 28.5t34 82.5q0 110 -115 112z" />
    <glyph glyph-name="seven" unicode="7" 
d="M333 0h-198l295 545l28 55l-108 -1h-326v165h656v-109z" />
    <glyph glyph-name="eight" unicode="8" 
d="M350 466q56 0 87.5 15t31.5 60q0 71 -119 71t-119 -71q0 -45 31.5 -60t87.5 -15zM350 151q139 0 139 82q0 50 -38.5 67.5t-100.5 17.5t-100.5 -17.5t-38.5 -67.5q0 -82 139 -82zM350 -16q-322 0 -322 233q0 65 26.5 114t65.5 67q-31 21 -51.5 64t-20.5 92q0 226 302 226
t302 -226q0 -49 -20.5 -92t-51.5 -64q39 -18 65.5 -67t26.5 -114q0 -233 -322 -233z" />
    <glyph glyph-name="nine" unicode="9" 
d="M319 145q155 -8 168 163q-53 -71 -172 -71q-281 0 -281 271q0 132 84.5 202t222.5 70q171 0 251 -99t80 -300q0 -193 -92 -295t-262 -102q-135 0 -209.5 52t-76.5 157l188 23q1 -39 26.5 -53.5t72.5 -17.5zM334 396q67 -1 107 34t34 103q-12 45 -43 65.5t-90 20.5
q-55 -1 -89 -28.5t-34 -82.5q0 -110 115 -112z" />
    <glyph glyph-name="colon" unicode=":" horiz-adv-x="300" 
d="M242 182v-182h-184v182h184zM242 498v-182h-184v182h184z" />
    <glyph glyph-name="semicolon" unicode=";" horiz-adv-x="300" 
d="M242 498v-182h-184v182h184zM58 182h191l-74 -289h-140z" />
    <glyph glyph-name="less" unicode="&#x3c;" 
d="M245 390l105 -27l270 -79v-174l-540 185v190l540 185v-174l-270 -79z" />
    <glyph glyph-name="equal" unicode="=" 
d="M620 188h-540v164h540v-164zM620 428h-540v164h540v-164z" />
    <glyph glyph-name="greater" unicode="&#x3e;" 
d="M350 363l105 27l-105 27l-270 79v174l540 -185v-190l-540 -185v174z" />
    <glyph glyph-name="question" unicode="?" horiz-adv-x="624" 
d="M357 250h-147q-9 12 -20 38.5t-11 53.5q0 22 3.5 40t13.5 32l17 23t25 19t26 14t31.5 13.5l30.5 12.5q3 1 15.5 6.5l17 7.5t14.5 7.5t14 9.5l10 10.5t8 13.5t2 16q0 65 -91 65q-54 0 -83.5 -22t-30.5 -80l-182 22q1 120 76.5 182t219.5 62q133 0 206.5 -56.5t73.5 -171.5
q0 -31 -7 -57t-14 -43t-26.5 -34l-28 -24.5t-36.5 -19t-34.5 -14t-37.5 -12.5q-41 -14 -52.5 -30t-11.5 -38q0 -17 9 -46zM382 182v-182h-184v182h184z" />
    <glyph glyph-name="at" unicode="@" horiz-adv-x="1135" 
d="M579 806q255 0 385.5 -115t130.5 -302q0 -164 -77 -246.5t-238 -82.5h-113l-10 31q-12 -16 -45.5 -31.5t-82.5 -15.5q-103 0 -169.5 63.5t-66.5 187.5t66.5 187.5t169.5 63.5q49 0 83.5 -16t46.5 -31l8 31h165l-10 -154v-156q98 3 98 169q0 131 -83 193.5t-258 62.5
q-177 0 -269 -82t-92 -268t94 -268t278 -82q78 0 133 12.5t77.5 29t23.5 34.5l188 -23q-2 -100 -110 -157t-334 -57q-259 0 -393.5 135.5t-134.5 375.5q0 237 141.5 374t397.5 137zM642 258v74q-26 51 -86 51q-83 0 -83 -88t83 -88q60 0 86 51z" />
    <glyph glyph-name="A" unicode="A" horiz-adv-x="754" 
d="M561 0l-41 133h-286l-41 -133h-198l273 790h218l273 -790h-198zM354 520l-74 -237h193l-73 237l-23 79z" />
    <glyph glyph-name="B" unicode="B" horiz-adv-x="710" 
d="M410 0h-358v780h352q255 0 255 -216q0 -110 -67 -153q45 -14 69 -63t24 -114q0 -71 -22 -119t-63 -72t-86 -33.5t-104 -9.5zM237 165h165q25 0 42.5 3t35 20.5t17.5 49.5q0 33 -15 51.5t-32.5 22.5t-43.5 4h-169v-151zM394 615h-157v-134h157q39 0 58 14.5t19 54.5
q0 38 -19 51.5t-58 13.5z" />
    <glyph glyph-name="C" unicode="C" horiz-adv-x="743" 
d="M228 390q0 -53 6 -91.5t22.5 -75t51 -55.5t86.5 -19q71 0 104 27t34 92l188 -23q-2 -124 -85 -192.5t-241 -68.5q-353 0 -353 406t353 406q158 0 241 -68.5t85 -192.5l-188 -23q-1 65 -34 92t-104 27q-52 0 -86.5 -19t-51 -55.5t-22.5 -75t-6 -91.5z" />
    <glyph glyph-name="D" unicode="D" horiz-adv-x="763" 
d="M345 0h-293v780h293q191 0 284.5 -95t93.5 -295t-93.5 -295t-284.5 -95zM237 165h108q104 0 147.5 57.5t43.5 167.5t-43.5 167.5t-147.5 57.5h-108v-450z" />
    <glyph glyph-name="E" unicode="E" horiz-adv-x="668" 
d="M52 780h566v-165h-381v-134h327v-165h-327v-151h401v-165h-586v780z" />
    <glyph glyph-name="F" unicode="F" horiz-adv-x="630" 
d="M237 316v-316h-185v780h564v-165h-379v-134h325v-165h-325z" />
    <glyph glyph-name="G" unicode="G" horiz-adv-x="805" 
d="M408 -16q-186 1 -276.5 108.5t-90.5 297.5t91 298t277 108q160 0 249.5 -69t91.5 -192l-188 -23q-1 64 -40.5 91.5t-112.5 27.5q-181 0 -181 -241q0 -237 181 -241q94 -2 151 21v127h-160v150h344v-383q-81 -48 -158.5 -64.5t-177.5 -15.5z" />
    <glyph glyph-name="H" unicode="H" horiz-adv-x="748" 
d="M511 780h185v-780h-185v316h-274v-316h-185v780h185v-299h274v299z" />
    <glyph glyph-name="I" unicode="I" horiz-adv-x="311" 
d="M248 780v-780h-185v780h185z" />
    <glyph glyph-name="J" unicode="J" horiz-adv-x="555" 
d="M328 780h185v-561q0 -235 -255 -235q-137 0 -192.5 61t-57.5 166l183 22q2 -44 15.5 -64.5t51.5 -20.5q39 0 54.5 17t15.5 53v562z" />
    <glyph glyph-name="K" unicode="K" horiz-adv-x="761" 
d="M237 780v-333l101 128l168 205h246l-276 -308l287 -472h-241l-181 325l-104 -121v-204h-185v780h185z" />
    <glyph glyph-name="L" unicode="L" horiz-adv-x="600" 
d="M237 780v-615h355v-165h-540v780h185z" />
    <glyph glyph-name="M" unicode="M" horiz-adv-x="906" 
d="M384 0l-150 454v-454h-182v780h233l129 -385l39 -116l40 118l128 383h233v-780h-182v454l-150 -454h-138z" />
    <glyph glyph-name="N" unicode="N" horiz-adv-x="768" 
d="M545 0l-237 344l-72 109l1 -145v-308h-185v780h171l237 -344l72 -109l-1 145v308h185v-780h-171z" />
    <glyph glyph-name="O" unicode="O" horiz-adv-x="820" 
d="M410 -16q-189 0 -278.5 107.5t-89.5 298.5t89 298.5t279 107.5q189 0 278.5 -107.5t89.5 -298.5t-89 -298.5t-279 -107.5zM410 631q-53 0 -90 -19t-56 -54.5t-27 -76t-8 -91.5t8 -91.5t27 -76t56 -54.5t90 -19t90 19t56 54.5t27 76t8 91.5t-8 91.5t-27 76t-56 54.5
t-90 19z" />
    <glyph glyph-name="P" unicode="P" horiz-adv-x="680" 
d="M237 415h149q87 0 87 100q0 56 -25.5 78t-61.5 22h-149v-200zM237 249v-249h-185v780h320q58 0 105.5 -12t91 -39.5t68 -82t24.5 -131.5q0 -266 -285 -266h-139z" />
    <glyph glyph-name="Q" unicode="Q" horiz-adv-x="820" 
d="M814 -29v-187l-566 227q-206 80 -206 379q0 191 89 298.5t279 107.5q189 0 278.5 -107.5t89.5 -298.5q0 -279 -178 -367l77 -19zM410 631q-53 0 -90 -19t-56 -54.5t-27 -76t-8 -91.5t8 -91.5t27 -76t56 -54.5t90 -19t90 19t56 54.5t27 76t8 91.5t-8 91.5t-27 76t-56 54.5
t-90 19z" />
    <glyph glyph-name="R" unicode="R" horiz-adv-x="725" 
d="M237 269v-269h-185v780h345q294 0 294 -255q0 -181 -140 -233l178 -292h-222l-152 269h-118zM237 435h174q18 0 31.5 2.5t28.5 11t23.5 28t8.5 48.5q0 38 -16 59.5t-33.5 26t-42.5 4.5h-174v-180z" />
    <glyph glyph-name="S" unicode="S" horiz-adv-x="722" 
d="M367 -16q-182 0 -260.5 66t-80.5 195l188 23q1 -65 39.5 -93t113.5 -26q64 2 104.5 22t39.5 68q-1 40 -33.5 58t-118.5 22q-55 2 -94 7t-83 19t-71 36t-45.5 61t-19.5 93q-3 128 85 194.5t221 66.5q168 0 253.5 -68t87.5 -193l-188 -23q-1 65 -39 93t-114 26
q-49 -1 -85.5 -22.5t-35.5 -69.5q1 -33 26.5 -44t109.5 -16q70 -4 116.5 -11t89 -22t67 -40.5t39 -65.5t15.5 -97q1 -67 -26 -118.5t-74.5 -81.5t-104.5 -44.5t-122 -14.5z" />
    <glyph glyph-name="T" unicode="T" horiz-adv-x="647" 
d="M416 615v-615h-185v615h-214v165h613v-165h-214z" />
    <glyph glyph-name="U" unicode="U" horiz-adv-x="746" 
d="M373 -16q-95 0 -161 22.5t-102.5 65t-52 94.5t-15.5 121v493h185v-489q0 -70 28.5 -106.5t117.5 -36.5t117.5 36.5t28.5 106.5v489h185v-493q0 -69 -15.5 -121t-52 -94.5t-102.5 -65t-161 -22.5z" />
    <glyph glyph-name="V" unicode="V" horiz-adv-x="754" 
d="M204 780l156 -520l17 -65l17 65l156 520h207l-269 -790h-222l-269 790h207z" />
    <glyph glyph-name="W" unicode="W" horiz-adv-x="1020" 
d="M555 373l-45 233l-45 -233l-74 -381h-226l-149 788h200l49 -344l22 -178l32 182l68 340h246l68 -340l32 -182l22 178l49 344h200l-149 -788h-226z" />
    <glyph glyph-name="X" unicode="X" horiz-adv-x="788" 
d="M394 255l-85 -127l-85 -128h-222l223 314l61 86l-59 83l-209 297h219l79 -119l78 -119l79 119l78 119h219l-218 -308l-50 -72l52 -73l232 -327h-222l-85 128z" />
    <glyph glyph-name="Y" unicode="Y" horiz-adv-x="730" 
d="M-30 780h218l125 -219l52 -91l52 92l125 218h218l-302 -485v-295h-186v295z" />
    <glyph glyph-name="Z" unicode="Z" horiz-adv-x="682" 
d="M14 0v123l352 441l44 52l-128 -1h-250v165h629v-123l-352 -441l-44 -52l128 1h268v-165h-647z" />
    <glyph glyph-name="bracketleft" unicode="[" horiz-adv-x="330" 
d="M247 665v-630h54v-165h-239v960h239v-165h-54z" />
    <glyph glyph-name="backslash" unicode="\" horiz-adv-x="436" 
d="M240 -90l-229 960h185l229 -960h-185z" />
    <glyph glyph-name="bracketright" unicode="]" horiz-adv-x="330" 
d="M83 35v630h-54v165h239v-960h-239v165h54z" />
    <glyph glyph-name="asciicircum" unicode="^" horiz-adv-x="609" 
d="M305 596l-46 -98l-47 -98h-194l205 396h163l205 -396h-194z" />
    <glyph glyph-name="underscore" unicode="_" horiz-adv-x="348" 
d="M326 -200h-304v125h304v-125z" />
    <glyph glyph-name="grave" unicode="`" horiz-adv-x="600" 
d="M104 800h196l94 -208h-179z" />
    <glyph glyph-name="a" unicode="a" horiz-adv-x="612" 
d="M20 145q0 85 47.5 119.5t143.5 48.5l175 25v15q0 48 -76 48q-45 0 -63 -12.5t-20 -37.5l-182 22q0 41 11.5 70.5t39.5 53.5t81.5 36.5t132.5 12.5q134 0 195 -50.5t61 -159.5v-182l10 -154h-165l-12 57q-30 -32 -83.5 -52.5t-120.5 -20.5q-80 0 -127.5 46.5t-47.5 114.5z
M220 170q0 -18 12 -29.5t33 -11.5q33 0 67.5 15t53.5 34v55l-109 -16q-57 -10 -57 -47z" />
    <glyph glyph-name="b" unicode="b" horiz-adv-x="647" 
d="M232 800v-316q60 62 155 62q113 0 172.5 -71.5t59.5 -209.5t-59.5 -209.5t-172.5 -71.5q-99 0 -168 73l-12 -57h-165l10 154v646h180zM435 265q0 59 -27 88.5t-70 29.5q-68 0 -106 -50v-136q38 -50 106 -50q43 0 70 29.5t27 88.5z" />
    <glyph glyph-name="c" unicode="c" horiz-adv-x="576" 
d="M210 265q0 -64 21 -92t67 -28q42 0 58 12.5t18 39.5l182 -22q-1 -42 -12.5 -74.5t-39.5 -60t-79.5 -42t-126.5 -14.5q-132 0 -201 71.5t-69 209.5t69 209.5t201 71.5q75 0 126.5 -14.5t79.5 -42t39.5 -60t12.5 -74.5l-182 -22q-2 27 -18 39.5t-58 12.5q-46 0 -67 -28
t-21 -92z" />
    <glyph glyph-name="d" unicode="d" horiz-adv-x="647" 
d="M415 484v316h180v-646l10 -154h-165l-12 57q-69 -73 -168 -73q-113 0 -172.5 71.5t-59.5 209.5t59.5 209.5t172.5 71.5q95 0 155 -62zM212 265q0 -59 27 -88.5t70 -29.5q68 0 106 50v136q-38 50 -106 50q-43 0 -70 -29.5t-27 -88.5z" />
    <glyph glyph-name="e" unicode="e" horiz-adv-x="615" 
d="M312 546q134 0 205.5 -72t71.5 -209v-51h-376q0 -40 27 -61.5t76 -21.5q81 0 84 34l182 -22q-2 -71 -64.5 -115t-194.5 -44q-141 0 -218 72.5t-77 208.5t75 208.5t209 72.5zM313 399q-43 0 -69 -22t-28 -57h181q2 38 -21 58.5t-63 20.5z" />
    <glyph glyph-name="f" unicode="f" horiz-adv-x="464" 
d="M15 380v150h107v93q0 37 11 69.5t36 61t71.5 45.5t110.5 17q66 0 113 -20l-13 -162q-45 29 -94 24q-55 -6 -55 -60v-68h150v-150h-150v-380h-180v380h-107z" />
    <glyph glyph-name="g" unicode="g" horiz-adv-x="644" 
d="M305 -69q110 0 110 71v67q-55 -59 -155 -59q-110 0 -171 67.5t-61 200.5t61 200.5t171 67.5q107 0 168 -73l12 57h165l-10 -154v-382q0 -55 -23.5 -96.5t-64 -65.5t-89 -36t-103.5 -12q-148 0 -215.5 38.5t-68.5 131.5l182 29q1 -28 21.5 -40t70.5 -12zM212 278
q0 -105 97 -105q68 0 106 50v110q-38 50 -106 50q-97 0 -97 -105z" />
    <glyph glyph-name="h" unicode="h" horiz-adv-x="639" 
d="M44 0v800h180v-314q58 60 155 60q108 0 163 -52.5t55 -168.5v-325h-180v302q0 44 -20 63t-58 18q-39 -1 -69.5 -16t-45.5 -34v-333h-180z" />
    <glyph glyph-name="i" unicode="i" horiz-adv-x="290" 
d="M237 780v-182h-184v182h184zM55 0v530h180v-530h-180z" />
    <glyph glyph-name="j" unicode="j" horiz-adv-x="290" 
d="M0 -58q55 6 55 60v528h180v-553q0 -37 -11 -69.5t-36 -61t-71.5 -45.5t-110.5 -17q-66 0 -113 20l13 162q45 -29 94 -24zM237 780v-182h-184v182h184z" />
    <glyph glyph-name="k" unicode="k" horiz-adv-x="640" 
d="M224 0h-180v800h180v-449l48 60l101 119h257l-213 -208l225 -322h-234l-122 202l-62 -59v-143z" />
    <glyph glyph-name="l" unicode="l" horiz-adv-x="290" 
d="M55 0v800h180v-800h-180z" />
    <glyph glyph-name="m" unicode="m" horiz-adv-x="978" 
d="M205 530l12 -57q54 73 163 73q115 0 168 -75q74 75 185 75q97 0 150 -51t53 -153v-342h-180v322q0 61 -72 61q-61 0 -101 -50v-333h-180v322q0 61 -72 61q-61 0 -101 -50v-333h-180v376l-10 154h165z" />
    <glyph glyph-name="n" unicode="n" horiz-adv-x="645" 
d="M205 530l12 -57q64 73 168 73q108 0 163 -52.5t55 -168.5v-325h-180v302q0 44 -20 63t-58 18q-39 -1 -69.5 -16t-45.5 -34v-333h-180v376l-10 154h165z" />
    <glyph glyph-name="o" unicode="o" horiz-adv-x="620" 
d="M310 -16q-133 0 -207.5 71.5t-74.5 209.5t74.5 209.5t207.5 71.5t207.5 -71.5t74.5 -209.5t-74.5 -209.5t-207.5 -71.5zM310 384q-49 0 -74.5 -26.5t-25.5 -92.5t25.5 -92.5t74.5 -26.5t74.5 26.5t25.5 92.5t-25.5 92.5t-74.5 26.5z" />
    <glyph glyph-name="p" unicode="p" horiz-adv-x="645" 
d="M230 46v-246h-180v576l-10 154h165l12 -57q69 73 168 73q113 0 172.5 -71.5t59.5 -209.5t-59.5 -209.5t-172.5 -71.5q-95 0 -155 62zM433 265q0 59 -27 88.5t-70 29.5q-68 0 -106 -50v-136q38 -50 106 -50q43 0 70 29.5t27 88.5z" />
    <glyph glyph-name="q" unicode="q" horiz-adv-x="647" 
d="M415 -200v246q-60 -62 -155 -62q-113 0 -172.5 71.5t-59.5 209.5t59.5 209.5t172.5 71.5q99 0 168 -73l12 57h165l-10 -154v-576h-180zM212 265q0 -59 27 -88.5t70 -29.5q68 0 106 50v136q-38 50 -106 50q-43 0 -70 -29.5t-27 -88.5z" />
    <glyph glyph-name="r" unicode="r" horiz-adv-x="436" 
d="M352 546q45 0 74 -13l-13 -168q-28 8 -50 8q-94 0 -133 -50v-323h-180v376l-10 154h165l12 -57q22 34 58.5 53.5t76.5 19.5z" />
    <glyph glyph-name="s" unicode="s" horiz-adv-x="570" 
d="M279 125q83 0 83 43q0 20 -20 26.5t-71 9.5q-122 9 -162 24q-76 28 -80 119v12q0 50 23.5 88t62 58.5t81.5 30.5t88 10q128 0 190.5 -38.5t63.5 -127.5l-182 -22q-1 24 -16 35.5t-56 11.5q-27 0 -44 -10.5t-17 -27.5q0 -19 18 -26.5t67 -10.5q115 -7 153 -19
q81 -27 88 -118q1 -10 1 -21q0 -51 -23.5 -89t-64 -59t-86.5 -30.5t-98 -9.5q-136 0 -197.5 40t-62.5 133l182 22q1 -54 79 -54z" />
    <glyph glyph-name="t" unicode="t" horiz-adv-x="480" 
d="M15 380v150h97v160h180v-160h160v-150h-160v-178q0 -54 55 -60q49 -5 94 24l13 -162q-47 -20 -113 -20q-64 0 -110.5 17t-71.5 45.5t-36 61t-11 69.5v203h-97z" />
    <glyph glyph-name="u" unicode="u" horiz-adv-x="645" 
d="M440 0l-12 57q-64 -73 -168 -73q-108 0 -163 52.5t-55 168.5v325h180v-302q0 -44 20 -63t58 -18q39 1 69.5 16t45.5 34v333h180v-376l10 -154h-165z" />
    <glyph glyph-name="v" unicode="v" horiz-adv-x="612" 
d="M621 530l-221 -530h-188l-221 530h198l59 -173l58 -174l59 174l58 173h198z" />
    <glyph glyph-name="w" unicode="w" horiz-adv-x="850" 
d="M450 193l-25 177l-25 -177l-33 -193h-252l-96 530h187l23 -200l14 -159l30 171l36 188h232l36 -188l30 -171l14 159l23 200h187l-96 -530h-252z" />
    <glyph glyph-name="x" unicode="x" horiz-adv-x="638" 
d="M319 153l-52 -75l-53 -78h-223l170 214l50 61l-50 60l-155 195h220l47 -70l46 -69l47 69l46 70h220l-160 -200l-45 -55l47 -57l173 -218h-223l-52 78z" />
    <glyph glyph-name="y" unicode="y" horiz-adv-x="626" 
d="M635 530l-228 -497l-98 -233h-208l113 242l-223 488h201l61 -163l60 -171l61 171l60 163h201z" />
    <glyph glyph-name="z" unicode="z" horiz-adv-x="566" 
d="M13 0v121l264 250h-246v159h511v-121l-264 -250h275v-159h-540z" />
    <glyph glyph-name="braceleft" unicode="{" horiz-adv-x="359" 
d="M9 432h24q55 0 55 48v147q0 203 218 203h42v-165h-24q-55 0 -55 -48v-155q0 -83 -71 -112q71 -29 71 -111v-156q0 -48 55 -48h24v-165h-42q-218 0 -218 203v148q0 48 -55 48h-24v163z" />
    <glyph glyph-name="bar" unicode="|" horiz-adv-x="331" 
d="M258 830v-960h-185v960h185z" />
    <glyph glyph-name="braceright" unicode="}" horiz-adv-x="359" 
d="M350 268h-24q-55 0 -55 -48v-147q0 -203 -218 -203h-42v165h24q55 0 55 48v155q0 83 71 112q-71 29 -71 111v156q0 48 -55 48h-24v165h42q218 0 218 -203v-148q0 -48 55 -48h24v-163z" />
    <glyph glyph-name="asciitilde" unicode="~" horiz-adv-x="500" 
d="M345 383q25 0 44 11.5t25 19.5l72 -93q-8 -23 -48.5 -54.5t-97.5 -31.5q-49 0 -103.5 26.5t-81.5 26.5q-25 0 -44 -11.5t-25 -19.5l-72 93q8 23 48.5 54.5t97.5 31.5q49 0 103.5 -26.5t81.5 -26.5z" />
    <glyph glyph-name="nbspace" unicode="&#xa0;" horiz-adv-x="220" 
 />
    <glyph glyph-name="exclamdown" unicode="&#xa1;" horiz-adv-x="300" 
d="M248 -200h-196l26 481h144zM242 530v-182h-184v182h184z" />
    <glyph glyph-name="cent" unicode="&#xa2;" horiz-adv-x="596" 
d="M485 764l-33 -122q120 -40 124 -172l-182 -22q-2 27 -20.5 39.5t-65.5 12.5q-98 0 -98 -120t98 -120q47 0 65.5 12.5t20.5 39.5l182 -22q-2 -88 -59.5 -139t-198.5 -52l-27 -99h-157l34 126q-140 62 -140 254q0 134 71 206.5t201 74.5l28 103h157z" />
    <glyph glyph-name="sterling" unicode="&#xa3;" horiz-adv-x="784" 
d="M36 0v164h108v143h-108v164h108v36q0 145 77.5 209t240.5 64q151 0 223.5 -56t74.5 -170l-183 -22q-4 93 -115 92q-78 -1 -108.5 -29.5t-30.5 -93.5v-30h238v-164h-238v-143h429v-164h-716z" />
    <glyph glyph-name="currency" unicode="&#xa4;" horiz-adv-x="800" 
d="M400 247q63 0 95 32t32 103t-32 103t-95 32t-95 -32t-32 -103t32 -103t95 -32zM19 125l104 104q-34 66 -34 153t34 153l-104 104l116 116l107 -107q69 32 158 32t158 -32l107 107l116 -116l-104 -104q34 -65 34 -153t-34 -153l104 -104l-116 -116l-107 107
q-69 -32 -158 -32t-158 32l-107 -107z" />
    <glyph glyph-name="yen" unicode="&#xa5;" horiz-adv-x="810" 
d="M7 764h208l156 -239l34 -52l34 52l156 239h208l-249 -363h135v-114h-191v-30h191v-114h-191v-143h-186v143h-191v114h191v30h-191v114h135z" />
    <glyph glyph-name="brokenbar" unicode="&#xa6;" horiz-adv-x="331" 
d="M258 295v-425h-185v425h185zM258 830v-425h-185v425h185z" />
    <glyph glyph-name="section" unicode="&#xa7;" horiz-adv-x="710" 
d="M378 515q42 -4 71 -7.5t63.5 -11t57.5 -17.5t46 -26t36.5 -37.5t22 -51.5t8.5 -68q0 -57 -26.5 -102.5t-70.5 -71.5q43 -40 43 -115t-42.5 -127t-105.5 -74t-141 -22q-309 0 -312 231l188 23q1 -52 31.5 -72.5t92.5 -20.5q37 0 68.5 15t31.5 49q-1 24 -25.5 37.5
t-82.5 18.5q-42 4 -71 7.5t-63.5 11t-57.5 17.5t-46 26t-36.5 37.5t-22 51.5t-8.5 68q0 57 26.5 102.5t70.5 71.5q-43 40 -43 115t42.5 127t105.5 74t141 22q309 0 312 -231l-188 -23q-1 52 -31.5 72.5t-92.5 20.5q-37 0 -68.5 -15t-31.5 -49q1 -24 25.5 -37.5t82.5 -18.5z
M206 287q0 -40 33 -56t108 -22q35 -3 69.5 4t61.5 27.5t27 52.5q0 40 -33 56t-108 22q-35 3 -69.5 -3.5t-61.5 -27t-27 -53.5z" />
    <glyph glyph-name="dieresis" unicode="&#xa8;" horiz-adv-x="600" 
d="M272 780v-182h-184v182h184zM512 780v-182h-184v182h184z" />
    <glyph glyph-name="copyright" unicode="&#xa9;" horiz-adv-x="900" 
d="M44 390q0 168 119 287t287 119t287 -119t119 -287t-119 -287t-287 -119t-287 119t-119 287zM362 390q0 64 21 92t67 28t60 -12t16 -40l182 22q-2 86 -63.5 138.5t-194.5 52.5q-120 0 -195 -74.5t-75 -206.5t75 -206.5t195 -74.5q133 0 194.5 52.5t63.5 138.5l-182 22
q-2 -28 -16 -40t-60 -12t-67 28t-21 92z" />
    <glyph glyph-name="ordfeminine" unicode="&#xaa;" horiz-adv-x="472" 
d="M20 499q0 64 42.5 89.5t149.5 40.5l78 11v9q0 26 -49 26q-50 1 -54 -31l-148 18q4 134 197 134q200 0 200 -157v-134l8 -115h-136l-9 36q-47 -52 -138 -52q-68 0 -104.5 33.5t-36.5 91.5zM175 518q0 -26 31 -26q29 0 53 16.5t31 34.5v20l-73 -11q-42 -6 -42 -34z" />
    <glyph glyph-name="guillemotleft" unicode="&#xab;" horiz-adv-x="520" 
d="M250 261v-142l-208 143v106l208 143v-141l-59 -55zM470 261v-142l-208 143v106l208 143v-141l-59 -55z" />
    <glyph glyph-name="logicalnot" unicode="&#xac;" 
d="M456 208v200h-376v164h540v-364h-164z" />
    <glyph glyph-name="uni00AD" unicode="&#xad;" horiz-adv-x="392" 
d="M348 253h-304v164h304v-164z" />
    <glyph glyph-name="registered" unicode="&#xae;" horiz-adv-x="900" 
d="M44 390q0 168 119 287t287 119t287 -119t119 -287t-119 -287t-287 -119t-287 119t-119 287zM434 314l88 -189h173l-108 210q80 39 80 150q0 170 -184 170h-243v-530h144v189h50zM485 456h-101v58h101q35 0 35 -29t-35 -29z" />
    <glyph glyph-name="macron" unicode="&#xaf;" horiz-adv-x="600" 
d="M134 616v164h332v-164h-332z" />
    <glyph glyph-name="degree" unicode="&#xb0;" horiz-adv-x="472" 
d="M236 536q61 0 61 58q0 59 -61 59t-61 -59q0 -58 61 -58zM236 408q-88 0 -142 47.5t-54 138.5t54 138.5t142 47.5t142 -47.5t54 -138.5t-54 -138.5t-142 -47.5z" />
    <glyph glyph-name="plusminus" unicode="&#xb1;" 
d="M268 300v123h-188v164h188v123h164v-123h188v-164h-188v-123h-164zM620 70h-540v164h540v-164z" />
    <glyph glyph-name="twosuperior" unicode="&#xb2;" horiz-adv-x="460" 
d="M229 780q90 0 141.5 -35t51.5 -100q0 -62 -37.5 -86.5t-130.5 -39.5q-53 -8 -56 -30l65 2h167v-137h-399q-2 48 1 82.5t14 59.5t23.5 41t37.5 28t47.5 18.5t61.5 14.5q57 12 57 30q0 24 -38 25q-47 2 -49 -32l-151 11q1 44 15.5 73.5t42.5 45.5t60.5 22.5t75.5 6.5z" />
    <glyph glyph-name="threesuperior" unicode="&#xb3;" horiz-adv-x="466" 
d="M436 475q0 -133 -208 -133q-200 0 -203 158l151 11q2 -34 57 -32q54 2 54 26q0 21 -42 21h-86v83h91q25 0 25 20q0 23 -36 24q-49 2 -51 -32l-151 11q1 84 49.5 116t148.5 32q191 0 191 -133q0 -55 -36 -80q46 -24 46 -92z" />
    <glyph glyph-name="acute" unicode="&#xb4;" horiz-adv-x="600" 
d="M300 800h196l-111 -208h-179z" />
    <glyph glyph-name="mu" unicode="&#xb5;" horiz-adv-x="645" 
d="M440 0l-12 47q-26 -28 -72.5 -45.5t-95.5 -17.5q-22 0 -38 6v-190h-180v730h180v-302q0 -44 20 -63t58 -18q39 1 69.5 16t45.5 34v333h180v-376l10 -154h-165z" />
    <glyph glyph-name="paragraph" unicode="&#xb6;" horiz-adv-x="681" 
d="M374 615v-615h-70v249q-285 0 -285 266q0 77 24.5 131.5t68 82t91 39.5t105.5 12h321v-780h-185v615h-70z" />
    <glyph glyph-name="periodcentered" unicode="&#xb7;" horiz-adv-x="300" 
d="M242 427v-182h-184v182h184z" />
    <glyph glyph-name="cedilla" unicode="&#xb8;" horiz-adv-x="600" 
d="M236 12h94l-12 -45q54 -11 82 -35t23 -64q-5 -42 -42 -63t-91 -21q-76 0 -129 23l25 76q24 -13 50 -17q48 -7 48 21q0 14 -21 24t-57 14z" />
    <glyph glyph-name="onesuperior" unicode="&#xb9;" horiz-adv-x="420" 
d="M294 780v-289h96v-137h-351v137h106v101q-48 -29 -116 -29v139q97 15 147 78h118z" />
    <glyph glyph-name="ordmasculine" unicode="&#xba;" horiz-adv-x="493" 
d="M248 374q-103 0 -161.5 55t-58.5 156t58.5 156t161.5 55q102 0 159.5 -55t57.5 -156t-57.5 -156t-159.5 -55zM248 664q-37 0 -56 -18t-19 -61t19 -61t56 -18q75 0 75 79t-75 79z" />
    <glyph glyph-name="guillemotright" unicode="&#xbb;" horiz-adv-x="520" 
d="M270 119v142l59 54l-59 55v141l208 -143v-106zM50 119v142l59 54l-59 55v141l208 -143v-106z" />
    <glyph glyph-name="onequarter" unicode="&#xbc;" horiz-adv-x="1082" 
d="M1057 53h-70v-53h-149v53h-207v126l205 247h151v-235h70v-138zM838 191v74l-58 -74h58zM190 0l551 764h196l-551 -764h-196zM294 780v-289h96v-137h-351v137h106v101q-48 -29 -116 -29v139q97 15 147 78h118z" />
    <glyph glyph-name="onehalf" unicode="&#xbd;" horiz-adv-x="1132" 
d="M901 426q90 0 141.5 -35t51.5 -100q0 -62 -37.5 -86.5t-130.5 -39.5q-53 -8 -56 -30l65 2h167v-137h-399q-2 48 1 82.5t14 59.5t23.5 41t37.5 28t47.5 18.5t61.5 14.5q57 12 57 30q0 24 -38 25q-47 2 -49 -32l-151 11q1 44 15.5 73.5t42.5 45.5t60.5 22.5t75.5 6.5z
M190 0l551 764h196l-551 -764h-196zM294 780v-289h96v-137h-351v137h106v101q-48 -29 -116 -29v139q97 15 147 78h118z" />
    <glyph glyph-name="threequarters" unicode="&#xbe;" horiz-adv-x="1096" 
d="M951 764l-551 -764h-196l551 764h196zM436 475q0 -133 -208 -133q-200 0 -203 158l151 11q2 -34 57 -32q54 2 54 26q0 21 -42 21h-86v83h91q25 0 25 20q0 23 -36 24q-49 2 -51 -32l-151 11q1 84 49.5 116t148.5 32q191 0 191 -133q0 -55 -36 -80q46 -24 46 -92zM1071 53
h-70v-53h-149v53h-207v126l205 247h151v-235h70v-138zM852 191v74l-58 -74h58z" />
    <glyph glyph-name="questiondown" unicode="&#xbf;" horiz-adv-x="623" 
d="M266 281h147q9 -10 20 -35.5t11 -51.5q0 -22 -4.5 -38.5t-17.5 -29.5t-21.5 -20.5t-32 -15.5t-33 -11t-38.5 -11q-81 -21 -81 -62q0 -58 91 -58q54 0 83.5 22t30.5 80l182 -22q-1 -120 -76.5 -182t-219.5 -62q-132 0 -205.5 55.5t-73.5 165.5q0 50 14 85.5t43.5 57.5
t52 32t62.5 24l9 3q67 22 67 35q0 7 -10 39zM241 348v182h184v-182h-184z" />
    <glyph glyph-name="Agrave" unicode="&#xc0;" horiz-adv-x="754" 
d="M174 1030h196l94 -208h-179zM561 0l-41 133h-286l-41 -133h-198l273 790h218l273 -790h-198zM354 520l-74 -237h193l-73 237l-23 79z" />
    <glyph glyph-name="Aacute" unicode="&#xc1;" horiz-adv-x="754" 
d="M384 1030h196l-111 -208h-179zM561 0l-41 133h-286l-41 -133h-198l273 790h218l273 -790h-198zM354 520l-74 -237h193l-73 237l-23 79z" />
    <glyph glyph-name="Acircumflex" unicode="&#xc2;" horiz-adv-x="754" 
d="M324 822h-183l158 208h156l158 -208h-183l-53 59zM561 0l-41 133h-286l-41 -133h-198l273 790h218l273 -790h-198zM354 520l-74 -237h193l-73 237l-23 79z" />
    <glyph glyph-name="Atilde" unicode="&#xc3;" horiz-adv-x="754" 
d="M458 806q-36 0 -66 12t-45.5 26t-32.5 26t-32 12q-16 0 -25 -12t-11 -24l-1 -11l-124 15q5 52 23 94t57 72t95 30q36 0 66 -12t45.5 -26t32.5 -26t32 -12q16 0 25 12t11 24l1 11l124 -15q-5 -52 -23 -94t-57 -72t-95 -30zM561 0l-41 133h-286l-41 -133h-198l273 790h218
l273 -790h-198zM354 520l-74 -237h193l-73 237l-23 79z" />
    <glyph glyph-name="Adieresis" unicode="&#xc4;" horiz-adv-x="754" 
d="M349 1010v-182h-184v182h184zM589 1010v-182h-184v182h184zM561 0l-41 133h-286l-41 -133h-198l273 790h218l273 -790h-198zM354 520l-74 -237h193l-73 237l-23 79z" />
    <glyph glyph-name="Aring" unicode="&#xc5;" horiz-adv-x="754" 
d="M257 926q0 54 32 87t88 33t88 -33t32 -87t-32 -87t-88 -33t-88 33t-32 87zM561 0l-41 133h-286l-41 -133h-198l273 790h218l273 -790h-198zM354 520l-74 -237h193l-73 237l-23 79zM405 926q0 28 -28 28t-28 -28t28 -28t28 28z" />
    <glyph glyph-name="AE" unicode="&#xc6;" horiz-adv-x="1060" 
d="M541 0l-24 166h-253l-81 -166h-204l418 780h613v-165h-381l22 -134h305v-165h-278l25 -151h327v-165h-489zM461 570l-124 -254h159l-29 210z" />
    <glyph glyph-name="Ccedilla" unicode="&#xc7;" horiz-adv-x="743" 
d="M41 390q0 406 353 406q158 0 241 -68.5t85 -192.5l-188 -23q-1 65 -34 92t-104 27q-52 0 -86.5 -19t-51 -55.5t-22.5 -75t-6 -91.5t6 -91.5t22.5 -75t51 -55.5t86.5 -19q71 0 104 27t34 92l188 -23q-2 -115 -72.5 -182t-206.5 -77l-5 -19q54 -11 82 -35t23 -64
q-5 -42 -42 -63t-91 -21q-76 0 -129 23l25 76q24 -13 50 -17q48 -7 48 21q0 14 -21 24t-57 14l21 61q-304 28 -304 404z" />
    <glyph glyph-name="Egrave" unicode="&#xc8;" horiz-adv-x="668" 
d="M52 780h566v-165h-381v-134h327v-165h-327v-151h401v-165h-586v780zM154 1030h196l94 -208h-179z" />
    <glyph glyph-name="Eacute" unicode="&#xc9;" horiz-adv-x="668" 
d="M52 780h566v-165h-381v-134h327v-165h-327v-151h401v-165h-586v780zM350 1030h196l-111 -208h-179z" />
    <glyph glyph-name="Ecircumflex" unicode="&#xca;" horiz-adv-x="668" 
d="M52 780h566v-165h-381v-134h327v-165h-327v-151h401v-165h-586v780zM287 822h-183l158 208h156l158 -208h-183l-53 59z" />
    <glyph glyph-name="Edieresis" unicode="&#xcb;" horiz-adv-x="668" 
d="M52 780h566v-165h-381v-134h327v-165h-327v-151h401v-165h-586v780zM312 1010v-182h-184v182h184zM552 1010v-182h-184v182h184z" />
    <glyph glyph-name="Igrave" unicode="&#xcc;" horiz-adv-x="311" 
d="M248 780v-780h-185v780h185zM-48 1030h196l94 -208h-179z" />
    <glyph glyph-name="Iacute" unicode="&#xcd;" horiz-adv-x="311" 
d="M248 780v-780h-185v780h185zM163 1030h196l-111 -208h-179z" />
    <glyph glyph-name="Icircumflex" unicode="&#xce;" horiz-adv-x="311" 
d="M248 780v-780h-185v780h185zM102 822h-183l158 208h156l158 -208h-183l-53 59z" />
    <glyph glyph-name="Idieresis" unicode="&#xcf;" horiz-adv-x="311" 
d="M248 780v-780h-185v780h185zM127 1010v-182h-184v182h184zM367 1010v-182h-184v182h184z" />
    <glyph glyph-name="Eth" unicode="&#xd0;" horiz-adv-x="797" 
d="M395 0h-293v338h-100v124h100v318h293q191 0 284.5 -95t93.5 -295t-93.5 -295t-284.5 -95zM287 165h108q104 0 147.5 57.5t43.5 167.5t-43.5 167.5t-147.5 57.5h-108v-153h158v-124h-158v-173z" />
    <glyph glyph-name="Ntilde" unicode="&#xd1;" horiz-adv-x="768" 
d="M223 780l237 -344l72 -109l-1 145v308h185v-780h-171l-237 344l-72 109l1 -145v-308h-185v780h171zM465 806q-36 0 -66 12t-45.5 26t-32.5 26t-32 12q-16 0 -25 -12t-10 -24l-2 -11l-124 15q9 83 51.5 139.5t123.5 56.5q36 0 66 -12t45.5 -26t32.5 -26t32 -12q16 0 25 12
t10 24l2 11l124 -15q-9 -83 -51.5 -139.5t-123.5 -56.5z" />
    <glyph glyph-name="Ograve" unicode="&#xd2;" horiz-adv-x="820" 
d="M410 -16q-189 0 -278.5 107.5t-89.5 298.5t89 298.5t279 107.5q189 0 278.5 -107.5t89.5 -298.5t-89 -298.5t-279 -107.5zM410 631q-53 0 -90 -19t-56 -54.5t-27 -76t-8 -91.5t8 -91.5t27 -76t56 -54.5t90 -19t90 19t56 54.5t27 76t8 91.5t-8 91.5t-27 76t-56 54.5
t-90 19zM214 1030h196l94 -208h-179z" />
    <glyph glyph-name="Oacute" unicode="&#xd3;" horiz-adv-x="820" 
d="M410 -16q-189 0 -278.5 107.5t-89.5 298.5t89 298.5t279 107.5q189 0 278.5 -107.5t89.5 -298.5t-89 -298.5t-279 -107.5zM410 631q-53 0 -90 -19t-56 -54.5t-27 -76t-8 -91.5t8 -91.5t27 -76t56 -54.5t90 -19t90 19t56 54.5t27 76t8 91.5t-8 91.5t-27 76t-56 54.5
t-90 19zM410 1030h196l-111 -208h-179z" />
    <glyph glyph-name="Ocircumflex" unicode="&#xd4;" horiz-adv-x="820" 
d="M410 631q-53 0 -90 -19t-56 -54.5t-27 -76t-8 -91.5t8 -91.5t27 -76t56 -54.5t90 -19t90 19t56 54.5t27 76t8 91.5t-8 91.5t-27 76t-56 54.5t-90 19zM410 -16q-189 0 -278.5 107.5t-89.5 298.5t89 298.5t279 107.5q189 0 278.5 -107.5t89.5 -298.5t-89 -298.5
t-279 -107.5zM357 822h-183l158 208h156l158 -208h-183l-53 59z" />
    <glyph glyph-name="Otilde" unicode="&#xd5;" horiz-adv-x="820" 
d="M410 631q-53 0 -90 -19t-56 -54.5t-27 -76t-8 -91.5t8 -91.5t27 -76t56 -54.5t90 -19t90 19t56 54.5t27 76t8 91.5t-8 91.5t-27 76t-56 54.5t-90 19zM410 -16q-189 0 -278.5 107.5t-89.5 298.5t89 298.5t279 107.5q189 0 278.5 -107.5t89.5 -298.5t-89 -298.5
t-279 -107.5zM491 806q-36 0 -66 12t-45.5 26t-32.5 26t-32 12q-16 0 -25 -12t-10 -24l-2 -11l-124 15q9 83 51.5 139.5t123.5 56.5q36 0 66 -12t45.5 -26t32.5 -26t32 -12q16 0 25 12t10 24l2 11l124 -15q-9 -83 -51.5 -139.5t-123.5 -56.5z" />
    <glyph glyph-name="Odieresis" unicode="&#xd6;" horiz-adv-x="820" 
d="M410 631q-53 0 -90 -19t-56 -54.5t-27 -76t-8 -91.5t8 -91.5t27 -76t56 -54.5t90 -19t90 19t56 54.5t27 76t8 91.5t-8 91.5t-27 76t-56 54.5t-90 19zM410 -16q-189 0 -278.5 107.5t-89.5 298.5t89 298.5t279 107.5q189 0 278.5 -107.5t89.5 -298.5t-89 -298.5
t-279 -107.5zM382 1010v-182h-184v182h184zM622 1010v-182h-184v182h184z" />
    <glyph glyph-name="multiply" unicode="&#xd7;" 
d="M85 241l149 149l-149 149l116 116l149 -149l149 149l116 -116l-149 -149l149 -149l-116 -116l-149 149l-149 -149z" />
    <glyph glyph-name="Oslash" unicode="&#xd8;" horiz-adv-x="820" 
d="M778 390q0 -191 -89 -298.5t-279 -107.5q-114 0 -195 42l-18 -26h-106l53 78q-102 105 -102 312q0 191 89 298.5t279 107.5q114 0 195 -42l18 26h106l-53 -78q102 -105 102 -312zM410 631q-53 0 -90 -19t-56 -54.5t-27 -76t-8 -91.5q0 -95 25 -150l251 368q-39 23 -95 23
zM410 149q53 0 90 19t56 54.5t27 76t8 91.5q0 95 -25 150l-251 -368q39 -23 95 -23z" />
    <glyph glyph-name="Ugrave" unicode="&#xd9;" horiz-adv-x="746" 
d="M373 148q89 0 117.5 36.5t28.5 106.5v489h185v-493q0 -69 -15.5 -121t-52 -94.5t-102.5 -65t-161 -22.5t-161 22.5t-102.5 65t-52 94.5t-15.5 121v493h185v-489q0 -70 28.5 -106.5t117.5 -36.5zM177 1030h196l94 -208h-179z" />
    <glyph glyph-name="Uacute" unicode="&#xda;" horiz-adv-x="746" 
d="M373 148q89 0 117.5 36.5t28.5 106.5v489h185v-493q0 -69 -15.5 -121t-52 -94.5t-102.5 -65t-161 -22.5t-161 22.5t-102.5 65t-52 94.5t-15.5 121v493h185v-489q0 -70 28.5 -106.5t117.5 -36.5zM373 1030h196l-111 -208h-179z" />
    <glyph glyph-name="Ucircumflex" unicode="&#xdb;" horiz-adv-x="746" 
d="M373 148q89 0 117.5 36.5t28.5 106.5v489h185v-493q0 -69 -15.5 -121t-52 -94.5t-102.5 -65t-161 -22.5t-161 22.5t-102.5 65t-52 94.5t-15.5 121v493h185v-489q0 -70 28.5 -106.5t117.5 -36.5zM320 822h-183l158 208h156l158 -208h-183l-53 59z" />
    <glyph glyph-name="Udieresis" unicode="&#xdc;" horiz-adv-x="746" 
d="M373 148q89 0 117.5 36.5t28.5 106.5v489h185v-493q0 -69 -15.5 -121t-52 -94.5t-102.5 -65t-161 -22.5t-161 22.5t-102.5 65t-52 94.5t-15.5 121v493h185v-489q0 -70 28.5 -106.5t117.5 -36.5zM345 1010v-182h-184v182h184zM585 1010v-182h-184v182h184z" />
    <glyph glyph-name="Yacute" unicode="&#xdd;" horiz-adv-x="730" 
d="M365 1030h196l-111 -208h-179zM-30 780h218l125 -219l52 -91l52 92l125 218h218l-302 -485v-295h-186v295z" />
    <glyph glyph-name="Thorn" unicode="&#xde;" horiz-adv-x="690" 
d="M237 780v-115h135q58 0 105.5 -12t91 -39.5t68 -82t24.5 -131.5q0 -266 -285 -266h-139v-134h-185v780h185zM237 300h149q87 0 87 100q0 56 -25.5 78t-61.5 22h-149v-200z" />
    <glyph glyph-name="germandbls" unicode="&#xdf;" horiz-adv-x="732" 
d="M369 816q123 0 208.5 -59t85.5 -156q0 -46 -12 -80t-32.5 -51.5t-37.5 -26.5t-37 -16q-5 -1 -7 -2l-21 -6t-22 -7t-17 -8t-13.5 -11.5t-4.5 -15.5q0 -14 16.5 -20.5t54 -10.5t46.5 -6q28 -5 47 -12t43.5 -24t37.5 -50t13 -80q0 -96 -61.5 -143t-162.5 -47
q-132 0 -185.5 45t-55.5 138l182 22q3 -49 57 -49q46 0 46 33q0 20 -18.5 29t-68.5 17q-28 4 -46.5 8t-44.5 15t-41 26t-26.5 41.5t-11.5 61.5q0 27 5 49t16 38t20.5 27.5t27 21t25.5 13.5t27.5 11t21.5 8q34 14 45.5 24t11.5 32q0 65 -111 65q-83 0 -114 -37.5t-31 -105.5
v-517h-180v523q0 151 77 222t248 71z" />
    <glyph glyph-name="agrave" unicode="&#xe0;" horiz-adv-x="612" 
d="M101 800h196l94 -208h-179zM20 145q0 85 47.5 119.5t143.5 48.5l175 25v15q0 48 -76 48q-45 0 -63 -12.5t-20 -37.5l-182 22q0 41 11.5 70.5t39.5 53.5t81.5 36.5t132.5 12.5q134 0 195 -50.5t61 -159.5v-182l10 -154h-165l-12 57q-30 -32 -83.5 -52.5t-120.5 -20.5
q-80 0 -127.5 46.5t-47.5 114.5zM220 170q0 -18 12 -29.5t33 -11.5q33 0 67.5 15t53.5 34v55l-109 -16q-57 -10 -57 -47z" />
    <glyph glyph-name="aacute" unicode="&#xe1;" horiz-adv-x="612" 
d="M297 800h196l-111 -208h-179zM20 145q0 85 47.5 119.5t143.5 48.5l175 25v15q0 48 -76 48q-45 0 -63 -12.5t-20 -37.5l-182 22q0 41 11.5 70.5t39.5 53.5t81.5 36.5t132.5 12.5q134 0 195 -50.5t61 -159.5v-182l10 -154h-165l-12 57q-30 -32 -83.5 -52.5t-120.5 -20.5
q-80 0 -127.5 46.5t-47.5 114.5zM220 170q0 -18 12 -29.5t33 -11.5q33 0 67.5 15t53.5 34v55l-109 -16q-57 -10 -57 -47z" />
    <glyph glyph-name="acircumflex" unicode="&#xe2;" horiz-adv-x="612" 
d="M244 592h-183l158 208h156l158 -208h-183l-53 59zM20 145q0 85 47.5 119.5t143.5 48.5l175 25v15q0 48 -76 48q-45 0 -63 -12.5t-20 -37.5l-182 22q0 41 11.5 70.5t39.5 53.5t81.5 36.5t132.5 12.5q134 0 195 -50.5t61 -159.5v-182l10 -154h-165l-12 57
q-30 -32 -83.5 -52.5t-120.5 -20.5q-80 0 -127.5 46.5t-47.5 114.5zM220 170q0 -18 12 -29.5t33 -11.5q33 0 67.5 15t53.5 34v55l-109 -16q-57 -10 -57 -47z" />
    <glyph glyph-name="atilde" unicode="&#xe3;" horiz-adv-x="612" 
d="M378 576q-36 0 -66 12t-45.5 26t-32.5 26t-32 12q-16 0 -25 -12t-11 -24l-1 -11l-124 15q5 52 23 94t57 72t95 30q36 0 66 -12t45.5 -26t32.5 -26t32 -12q16 0 25 12t11 24l1 11l124 -15q-5 -52 -23 -94t-57 -72t-95 -30zM20 145q0 85 47.5 119.5t143.5 48.5l175 25v15
q0 48 -76 48q-45 0 -63 -12.5t-20 -37.5l-182 22q0 41 11.5 70.5t39.5 53.5t81.5 36.5t132.5 12.5q134 0 195 -50.5t61 -159.5v-182l10 -154h-165l-12 57q-30 -32 -83.5 -52.5t-120.5 -20.5q-80 0 -127.5 46.5t-47.5 114.5zM220 170q0 -18 12 -29.5t33 -11.5q33 0 67.5 15
t53.5 34v55l-109 -16q-57 -10 -57 -47z" />
    <glyph glyph-name="adieresis" unicode="&#xe4;" horiz-adv-x="612" 
d="M269 780v-182h-184v182h184zM509 780v-182h-184v182h184zM20 145q0 85 47.5 119.5t143.5 48.5l175 25v15q0 48 -76 48q-45 0 -63 -12.5t-20 -37.5l-182 22q0 41 11.5 70.5t39.5 53.5t81.5 36.5t132.5 12.5q134 0 195 -50.5t61 -159.5v-182l10 -154h-165l-12 57
q-30 -32 -83.5 -52.5t-120.5 -20.5q-80 0 -127.5 46.5t-47.5 114.5zM220 170q0 -18 12 -29.5t33 -11.5q33 0 67.5 15t53.5 34v55l-109 -16q-57 -10 -57 -47z" />
    <glyph glyph-name="aring" unicode="&#xe5;" horiz-adv-x="612" 
d="M177 696q0 54 32 87t88 33t88 -33t32 -87t-32 -87t-88 -33t-88 33t-32 87zM325 696q0 28 -28 28t-28 -28t28 -28t28 28zM20 145q0 85 47.5 119.5t143.5 48.5l175 25v15q0 48 -76 48q-45 0 -63 -12.5t-20 -37.5l-182 22q0 41 11.5 70.5t39.5 53.5t81.5 36.5t132.5 12.5
q134 0 195 -50.5t61 -159.5v-182l10 -154h-165l-12 57q-30 -32 -83.5 -52.5t-120.5 -20.5q-80 0 -127.5 46.5t-47.5 114.5zM220 170q0 -18 12 -29.5t33 -11.5q33 0 67.5 15t53.5 34v55l-109 -16q-57 -10 -57 -47z" />
    <glyph glyph-name="ae" unicode="&#xe6;" horiz-adv-x="966" 
d="M663 546q134 0 205.5 -72t71.5 -209v-51h-376q0 -40 27 -61.5t76 -21.5q81 0 84 34l182 -22q-2 -71 -64.5 -115t-194.5 -44q-136 0 -201 70q-90 -70 -227 -70q-113 0 -169.5 47t-56.5 122q0 167 211 167h155v33q0 48 -76 48q-45 0 -63 -12.5t-20 -37.5l-182 22
q0 41 11.5 70.5t39.5 53.5t81.5 36.5t132.5 12.5q124 0 182 -57q65 57 171 57zM205 167q0 -19 14.5 -31t40.5 -12q38 0 73 10.5t53 26.5v53h-118q-63 0 -63 -47zM664 399q-43 0 -69 -22t-28 -57h181q2 38 -21 58.5t-63 20.5z" />
    <glyph glyph-name="ccedilla" unicode="&#xe7;" horiz-adv-x="596" 
d="M210 265q0 -64 21 -92t67 -28q42 0 58 12.5t18 39.5l182 -22q-2 -83 -50 -132.5t-169 -57.5l-5 -18q54 -11 82 -35t23 -64q-5 -42 -42 -63t-91 -21q-76 0 -129 23l25 76q24 -13 50 -17q48 -7 48 21q0 14 -21 24t-57 14l21 63q-104 14 -158.5 84.5t-54.5 192.5
q0 138 69 209.5t201 71.5q75 0 126.5 -14.5t79.5 -42t39.5 -60t12.5 -74.5l-182 -22q-2 27 -18 39.5t-58 12.5q-46 0 -67 -28t-21 -92z" />
    <glyph glyph-name="egrave" unicode="&#xe8;" horiz-adv-x="615" 
d="M589 214h-376q0 -40 27 -61.5t76 -21.5q81 0 84 34l182 -22q-2 -71 -64.5 -115t-194.5 -44q-141 0 -218 72.5t-77 208.5t75 208.5t209 72.5t205.5 -72t71.5 -209v-51zM117 800h196l94 -208h-179zM313 399q-43 0 -69 -22t-28 -57h181q2 38 -21 58.5t-63 20.5z" />
    <glyph glyph-name="eacute" unicode="&#xe9;" horiz-adv-x="615" 
d="M589 214h-376q0 -40 27 -61.5t76 -21.5q81 0 84 34l182 -22q-2 -71 -64.5 -115t-194.5 -44q-141 0 -218 72.5t-77 208.5t75 208.5t209 72.5t205.5 -72t71.5 -209v-51zM313 800h196l-111 -208h-179zM313 399q-43 0 -69 -22t-28 -57h181q2 38 -21 58.5t-63 20.5z" />
    <glyph glyph-name="ecircumflex" unicode="&#xea;" horiz-adv-x="615" 
d="M589 214h-376q0 -40 27 -61.5t76 -21.5q81 0 84 34l182 -22q-2 -71 -64.5 -115t-194.5 -44q-141 0 -218 72.5t-77 208.5t75 208.5t209 72.5t205.5 -72t71.5 -209v-51zM313 399q-43 0 -69 -22t-28 -57h181q2 38 -21 58.5t-63 20.5zM260 592h-183l158 208h156l158 -208
h-183l-53 59z" />
    <glyph glyph-name="edieresis" unicode="&#xeb;" horiz-adv-x="615" 
d="M589 214h-376q0 -40 27 -61.5t76 -21.5q81 0 84 34l182 -22q-2 -71 -64.5 -115t-194.5 -44q-141 0 -218 72.5t-77 208.5t75 208.5t209 72.5t205.5 -72t71.5 -209v-51zM313 399q-43 0 -69 -22t-28 -57h181q2 38 -21 58.5t-63 20.5zM285 780v-182h-184v182h184zM525 780
v-182h-184v182h184z" />
    <glyph glyph-name="igrave" unicode="&#xec;" horiz-adv-x="290" 
d="M55 0v530h180v-530h-180zM-56 800h196l94 -208h-179z" />
    <glyph glyph-name="iacute" unicode="&#xed;" horiz-adv-x="290" 
d="M55 0v530h180v-530h-180zM150 800h196l-111 -208h-179z" />
    <glyph glyph-name="icircumflex" unicode="&#xee;" horiz-adv-x="290" 
d="M55 0v530h180v-530h-180zM92 592h-183l158 208h156l158 -208h-183l-53 59z" />
    <glyph glyph-name="idieresis" unicode="&#xef;" horiz-adv-x="290" 
d="M55 0v530h180v-530h-180zM117 780v-182h-184v182h184zM357 780v-182h-184v182h184z" />
    <glyph glyph-name="eth" unicode="&#xf0;" horiz-adv-x="620" 
d="M310 -16q-133 0 -207.5 71.5t-74.5 209.5q0 76 23 133.5t61 88t78 45t82 14.5q69 0 95 -21q-26 51 -54 85l-208 -73v112l124 43q-14 11 -29 21t-32.5 20l-28.5 16t-31.5 15.5t-26.5 12.5t-28.5 12.5t-23.5 10.5h278q38 -19 83 -51l139 49v-112l-55 -19q118 -149 118 -402
q0 -138 -74.5 -209.5t-207.5 -71.5zM310 146q49 0 74.5 26.5t25.5 92.5t-25.5 92.5t-74.5 26.5t-74.5 -26.5t-25.5 -92.5t25.5 -92.5t74.5 -26.5z" />
    <glyph glyph-name="ntilde" unicode="&#xf1;" horiz-adv-x="645" 
d="M413 576q-36 0 -66 12t-45.5 26t-32.5 26t-32 12q-16 0 -25 -12t-10 -24l-2 -11l-124 15q9 83 51.5 139.5t123.5 56.5q36 0 66 -12t45.5 -26t32.5 -26t32 -12q16 0 25 12t10 24l2 11l124 -15q-5 -52 -23 -94t-57 -72t-95 -30zM205 530l12 -57q64 73 168 73
q108 0 163 -52.5t55 -168.5v-325h-180v302q0 44 -20 63t-58 18q-39 -1 -69.5 -16t-45.5 -34v-333h-180v376l-10 154h165z" />
    <glyph glyph-name="ograve" unicode="&#xf2;" horiz-adv-x="620" 
d="M310 -16q-133 0 -207.5 71.5t-74.5 209.5t74.5 209.5t207.5 71.5t207.5 -71.5t74.5 -209.5t-74.5 -209.5t-207.5 -71.5zM310 146q49 0 74.5 26.5t25.5 92.5t-25.5 92.5t-74.5 26.5t-74.5 -26.5t-25.5 -92.5t25.5 -92.5t74.5 -26.5zM114 800h196l94 -208h-179z" />
    <glyph glyph-name="oacute" unicode="&#xf3;" horiz-adv-x="620" 
d="M310 -16q-133 0 -207.5 71.5t-74.5 209.5t74.5 209.5t207.5 71.5t207.5 -71.5t74.5 -209.5t-74.5 -209.5t-207.5 -71.5zM310 146q49 0 74.5 26.5t25.5 92.5t-25.5 92.5t-74.5 26.5t-74.5 -26.5t-25.5 -92.5t25.5 -92.5t74.5 -26.5zM310 800h196l-111 -208h-179z" />
    <glyph glyph-name="ocircumflex" unicode="&#xf4;" horiz-adv-x="620" 
d="M310 146q49 0 74.5 26.5t25.5 92.5t-25.5 92.5t-74.5 26.5t-74.5 -26.5t-25.5 -92.5t25.5 -92.5t74.5 -26.5zM310 -16q-133 0 -207.5 71.5t-74.5 209.5t74.5 209.5t207.5 71.5t207.5 -71.5t74.5 -209.5t-74.5 -209.5t-207.5 -71.5zM546 592h-184l-52 59l-53 -59h-183
l158 208h156z" />
    <glyph glyph-name="otilde" unicode="&#xf5;" horiz-adv-x="620" 
d="M310 146q49 0 74.5 26.5t25.5 92.5t-25.5 92.5t-74.5 26.5t-74.5 -26.5t-25.5 -92.5t25.5 -92.5t74.5 -26.5zM310 -16q-133 0 -207.5 71.5t-74.5 209.5t74.5 209.5t207.5 71.5t207.5 -71.5t74.5 -209.5t-74.5 -209.5t-207.5 -71.5zM391 576q-36 0 -66 12t-45.5 26
t-32.5 26t-32 12q-16 0 -25 -12t-10 -24l-2 -11l-124 15q9 83 51.5 139.5t123.5 56.5q36 0 66 -12t45.5 -26t32.5 -26t32 -12q16 0 25 12t10 24l2 11l124 -15q-9 -83 -51.5 -139.5t-123.5 -56.5z" />
    <glyph glyph-name="odieresis" unicode="&#xf6;" horiz-adv-x="620" 
d="M310 146q49 0 74.5 26.5t25.5 92.5t-25.5 92.5t-74.5 26.5t-74.5 -26.5t-25.5 -92.5t25.5 -92.5t74.5 -26.5zM310 -16q-133 0 -207.5 71.5t-74.5 209.5t74.5 209.5t207.5 71.5t207.5 -71.5t74.5 -209.5t-74.5 -209.5t-207.5 -71.5zM282 780v-182h-184v182h184zM522 780
v-182h-184v182h184z" />
    <glyph glyph-name="divide" unicode="&#xf7;" 
d="M620 308h-540v164h540v-164zM441 273v-183h-182v183h182zM441 690v-183h-182v183h182z" />
    <glyph glyph-name="oslash" unicode="&#xf8;" horiz-adv-x="620" 
d="M310 -16q-78 0 -139 26l-7 -10h-88l35 48q-83 74 -83 217q0 138 74.5 209.5t207.5 71.5q78 0 139 -26l7 10h88l-35 -48q83 -74 83 -217q0 -138 -74.5 -209.5t-207.5 -71.5zM310 384q-49 0 -74.5 -26.5t-25.5 -92.5q0 -37 10 -65l128 179q-20 5 -38 5zM410 265
q0 37 -10 65l-128 -179q20 -5 38 -5q49 0 74.5 26.5t25.5 92.5z" />
    <glyph glyph-name="ugrave" unicode="&#xf9;" horiz-adv-x="645" 
d="M128 800h196l94 -208h-179zM440 0l-12 57q-64 -73 -168 -73q-108 0 -163 52.5t-55 168.5v325h180v-302q0 -44 20 -63t58 -18q39 1 69.5 16t45.5 34v333h180v-376l10 -154h-165z" />
    <glyph glyph-name="uacute" unicode="&#xfa;" horiz-adv-x="645" 
d="M324 800h196l-111 -208h-179zM440 0l-12 57q-64 -73 -168 -73q-108 0 -163 52.5t-55 168.5v325h180v-302q0 -44 20 -63t58 -18q39 1 69.5 16t45.5 34v333h180v-376l10 -154h-165z" />
    <glyph glyph-name="ucircumflex" unicode="&#xfb;" horiz-adv-x="645" 
d="M271 592h-183l158 208h156l158 -208h-183l-53 59zM440 0l-12 57q-64 -73 -168 -73q-108 0 -163 52.5t-55 168.5v325h180v-302q0 -44 20 -63t58 -18q39 1 69.5 16t45.5 34v333h180v-376l10 -154h-165z" />
    <glyph glyph-name="udieresis" unicode="&#xfc;" horiz-adv-x="645" 
d="M291 780v-182h-184v182h184zM531 780v-182h-184v182h184zM440 0l-12 57q-64 -73 -168 -73q-108 0 -163 52.5t-55 168.5v325h180v-302q0 -44 20 -63t58 -18q39 1 69.5 16t45.5 34v333h180v-376l10 -154h-165z" />
    <glyph glyph-name="yacute" unicode="&#xfd;" horiz-adv-x="626" 
d="M313 800h196l-111 -208h-179zM635 530l-228 -497l-98 -233h-208l113 242l-223 488h201l61 -163l60 -171l61 171l60 163h201z" />
    <glyph glyph-name="thorn" unicode="&#xfe;" horiz-adv-x="639" 
d="M611 265q0 -138 -59.5 -209.5t-172.5 -71.5q-93 0 -155 59v-243h-180v1000h180v-314q64 60 155 60q113 0 172.5 -71.5t59.5 -209.5zM427 265q0 59 -27 88.5t-70 29.5q-68 0 -106 -50v-136q38 -50 106 -50q43 0 70 29.5t27 88.5z" />
    <glyph glyph-name="ydieresis" unicode="&#xff;" horiz-adv-x="626" 
d="M285 780v-182h-184v182h184zM525 780v-182h-184v182h184zM635 530l-228 -497l-98 -233h-208l113 242l-223 488h201l61 -163l60 -171l61 171l60 163h201z" />
    <glyph glyph-name="Amacron" unicode="&#x100;" horiz-adv-x="754" 
d="M543 846h-332v164h332v-164zM561 0l-41 133h-286l-41 -133h-198l273 790h218l273 -790h-198zM354 520l-74 -237h193l-73 237l-23 79z" />
    <glyph glyph-name="amacron" unicode="&#x101;" horiz-adv-x="612" 
d="M463 616h-332v164h332v-164zM20 145q0 85 47.5 119.5t143.5 48.5l175 25v15q0 48 -76 48q-45 0 -63 -12.5t-20 -37.5l-182 22q0 41 11.5 70.5t39.5 53.5t81.5 36.5t132.5 12.5q134 0 195 -50.5t61 -159.5v-182l10 -154h-165l-12 57q-30 -32 -83.5 -52.5t-120.5 -20.5
q-80 0 -127.5 46.5t-47.5 114.5zM220 170q0 -18 12 -29.5t33 -11.5q33 0 67.5 15t53.5 34v55l-109 -16q-57 -10 -57 -47z" />
    <glyph glyph-name="Abreve" unicode="&#x102;" horiz-adv-x="754" 
d="M377 806q-115 0 -165 56.5t-48 167.5h140q-1 -33 16.5 -47.5t56.5 -14.5t56.5 14.5t16.5 47.5h140q2 -111 -48 -167.5t-165 -56.5zM561 0l-41 133h-286l-41 -133h-198l273 790h218l273 -790h-198zM354 520l-74 -237h193l-73 237l-23 79z" />
    <glyph glyph-name="abreve" unicode="&#x103;" horiz-adv-x="612" 
d="M297 576q-115 0 -165 56.5t-48 167.5h140q-1 -33 16.5 -47.5t56.5 -14.5t56.5 14.5t16.5 47.5h140q2 -111 -48 -167.5t-165 -56.5zM20 145q0 85 47.5 119.5t143.5 48.5l175 25v15q0 48 -76 48q-45 0 -63 -12.5t-20 -37.5l-182 22q0 41 11.5 70.5t39.5 53.5t81.5 36.5
t132.5 12.5q134 0 195 -50.5t61 -159.5v-182l10 -154h-165l-12 57q-30 -32 -83.5 -52.5t-120.5 -20.5q-80 0 -127.5 46.5t-47.5 114.5zM220 170q0 -18 12 -29.5t33 -11.5q33 0 67.5 15t53.5 34v55l-109 -16q-57 -10 -57 -47z" />
    <glyph glyph-name="Aogonek" unicode="&#x104;" horiz-adv-x="754" 
d="M486 790l273 -790q-47 -4 -76.5 -27t-25.5 -46q5 -28 43 -20q9 2 18 6t14 7l4 3l34 -114q-40 -25 -105 -25q-111 0 -133 91q-17 64 31 118l-43 140h-286l-41 -133h-198l273 790h218zM354 520l-74 -237h193l-73 237l-23 79z" />
    <glyph glyph-name="aogonek" unicode="&#x105;" horiz-adv-x="612" 
d="M566 154l10 -154q-47 -4 -76.5 -27t-25.5 -46q5 -28 43 -20q9 2 18 6t13 7l5 3l34 -114q-40 -25 -105 -25q-111 0 -133 91q-20 82 58 144l-8 38q-30 -32 -83.5 -52.5t-120.5 -20.5q-80 0 -127.5 46.5t-47.5 114.5q0 85 47.5 119.5t143.5 48.5l175 25v15q0 48 -76 48
q-45 0 -63 -12.5t-20 -37.5l-182 22q0 41 11.5 70.5t39.5 53.5t81.5 36.5t132.5 12.5q134 0 195 -50.5t61 -159.5v-182zM220 170q0 -18 12 -29.5t33 -11.5q33 0 67.5 15t53.5 34v55l-109 -16q-57 -10 -57 -47z" />
    <glyph glyph-name="Cacute" unicode="&#x106;" horiz-adv-x="743" 
d="M390 1030h196l-111 -208h-179zM41 390q0 406 353 406q158 0 241 -68.5t85 -192.5l-188 -23q-1 65 -34 92t-104 27q-52 0 -86.5 -19t-51 -55.5t-22.5 -75t-6 -91.5t6 -91.5t22.5 -75t51 -55.5t86.5 -19q71 0 104 27t34 92l188 -23q-2 -124 -85 -192.5t-241 -68.5
q-353 0 -353 406z" />
    <glyph glyph-name="cacute" unicode="&#x107;" horiz-adv-x="576" 
d="M294 800h196l-111 -208h-179zM210 265q0 -64 21 -92t67 -28q42 0 58 12.5t18 39.5l182 -22q-1 -42 -12.5 -74.5t-39.5 -60t-79.5 -42t-126.5 -14.5q-132 0 -201 71.5t-69 209.5t69 209.5t201 71.5q75 0 126.5 -14.5t79.5 -42t39.5 -60t12.5 -74.5l-182 -22
q-2 27 -18 39.5t-58 12.5q-46 0 -67 -28t-21 -92z" />
    <glyph glyph-name="Ccircumflex" unicode="&#x108;" horiz-adv-x="743" 
d="M337 822h-183l158 208h156l158 -208h-183l-53 59zM41 390q0 406 353 406q158 0 241 -68.5t85 -192.5l-188 -23q-1 65 -34 92t-104 27q-52 0 -86.5 -19t-51 -55.5t-22.5 -75t-6 -91.5t6 -91.5t22.5 -75t51 -55.5t86.5 -19q71 0 104 27t34 92l188 -23q-2 -124 -85 -192.5
t-241 -68.5q-353 0 -353 406z" />
    <glyph glyph-name="ccircumflex" unicode="&#x109;" horiz-adv-x="576" 
d="M241 592h-183l158 208h156l158 -208h-183l-53 59zM210 265q0 -64 21 -92t67 -28q42 0 58 12.5t18 39.5l182 -22q-1 -42 -12.5 -74.5t-39.5 -60t-79.5 -42t-126.5 -14.5q-132 0 -201 71.5t-69 209.5t69 209.5t201 71.5q75 0 126.5 -14.5t79.5 -42t39.5 -60t12.5 -74.5
l-182 -22q-2 27 -18 39.5t-58 12.5q-46 0 -67 -28t-21 -92z" />
    <glyph glyph-name="Cdotaccent" unicode="&#x10a;" horiz-adv-x="743" 
d="M482 1010v-182h-184v182h184zM41 390q0 406 353 406q158 0 241 -68.5t85 -192.5l-188 -23q-1 65 -34 92t-104 27q-52 0 -86.5 -19t-51 -55.5t-22.5 -75t-6 -91.5t6 -91.5t22.5 -75t51 -55.5t86.5 -19q71 0 104 27t34 92l188 -23q-2 -124 -85 -192.5t-241 -68.5
q-353 0 -353 406z" />
    <glyph glyph-name="cdotaccent" unicode="&#x10b;" horiz-adv-x="576" 
d="M386 780v-182h-184v182h184zM210 265q0 -64 21 -92t67 -28q42 0 58 12.5t18 39.5l182 -22q-1 -42 -12.5 -74.5t-39.5 -60t-79.5 -42t-126.5 -14.5q-132 0 -201 71.5t-69 209.5t69 209.5t201 71.5q75 0 126.5 -14.5t79.5 -42t39.5 -60t12.5 -74.5l-182 -22q-2 27 -18 39.5
t-58 12.5q-46 0 -67 -28t-21 -92z" />
    <glyph glyph-name="Ccaron" unicode="&#x10c;" horiz-adv-x="743" 
d="M443 1030h183l-158 -208h-156l-158 208h183l53 -59zM41 390q0 406 353 406q158 0 241 -68.5t85 -192.5l-188 -23q-1 65 -34 92t-104 27q-52 0 -86.5 -19t-51 -55.5t-22.5 -75t-6 -91.5t6 -91.5t22.5 -75t51 -55.5t86.5 -19q71 0 104 27t34 92l188 -23q-2 -124 -85 -192.5
t-241 -68.5q-353 0 -353 406z" />
    <glyph glyph-name="ccaron" unicode="&#x10d;" horiz-adv-x="576" 
d="M347 800h183l-158 -208h-156l-158 208h183l53 -59zM210 265q0 -64 21 -92t67 -28q42 0 58 12.5t18 39.5l182 -22q-1 -42 -12.5 -74.5t-39.5 -60t-79.5 -42t-126.5 -14.5q-132 0 -201 71.5t-69 209.5t69 209.5t201 71.5q75 0 126.5 -14.5t79.5 -42t39.5 -60t12.5 -74.5
l-182 -22q-2 27 -18 39.5t-58 12.5q-46 0 -67 -28t-21 -92z" />
    <glyph glyph-name="Dcaron" unicode="&#x10e;" horiz-adv-x="763" 
d="M345 0h-293v780h293q191 0 284.5 -95t93.5 -295t-93.5 -295t-284.5 -95zM237 165h108q104 0 147.5 57.5t43.5 167.5t-43.5 167.5t-147.5 57.5h-108v-450zM442 -40v-160h-184v160h184z" />
    <glyph glyph-name="dcaron" unicode="&#x10f;" horiz-adv-x="647" 
d="M645 800h151l-53 -208h-115zM415 484v316h180v-646l10 -154h-165l-12 57q-69 -73 -168 -73q-113 0 -172.5 71.5t-59.5 209.5t59.5 209.5t172.5 71.5q95 0 155 -62zM212 265q0 -59 27 -88.5t70 -29.5q68 0 106 50v136q-38 50 -106 50q-43 0 -70 -29.5t-27 -88.5z" />
    <glyph glyph-name="Dcroat" unicode="&#x110;" horiz-adv-x="833" 
d="M415 0h-293v338h-100v124h100v318h293q191 0 284.5 -95t93.5 -295t-93.5 -295t-284.5 -95zM307 165h108q104 0 147.5 57.5t43.5 167.5t-43.5 167.5t-147.5 57.5h-108v-153h158v-124h-158v-173z" />
    <glyph glyph-name="dcroat" unicode="&#x111;" horiz-adv-x="662" 
d="M415 484v112h-121v124h121v80h180v-80h80v-124h-80v-442l10 -154h-165l-12 57q-69 -73 -168 -73q-113 0 -172.5 71.5t-59.5 209.5t59.5 209.5t172.5 71.5q95 0 155 -62zM212 265q0 -59 27 -88.5t70 -29.5q68 0 106 50v136q-38 50 -106 50q-43 0 -70 -29.5t-27 -88.5z" />
    <glyph glyph-name="Emacron" unicode="&#x112;" horiz-adv-x="668" 
d="M52 780h566v-165h-381v-134h327v-165h-327v-151h401v-165h-586v780zM506 846h-332v164h332v-164z" />
    <glyph glyph-name="emacron" unicode="&#x113;" horiz-adv-x="615" 
d="M589 214h-376q0 -40 27 -61.5t76 -21.5q81 0 84 34l182 -22q-2 -71 -64.5 -115t-194.5 -44q-141 0 -218 72.5t-77 208.5t75 208.5t209 72.5t205.5 -72t71.5 -209v-51zM479 616h-332v164h332v-164zM313 399q-43 0 -69 -22t-28 -57h181q2 38 -21 58.5t-63 20.5z" />
    <glyph glyph-name="Ebreve" unicode="&#x114;" horiz-adv-x="668" 
d="M52 780h566v-165h-381v-134h327v-165h-327v-151h401v-165h-586v780zM340 806q-115 0 -165 56.5t-48 167.5h140q-1 -33 16.5 -47.5t56.5 -14.5t56.5 14.5t16.5 47.5h140q2 -111 -48 -167.5t-165 -56.5z" />
    <glyph glyph-name="ebreve" unicode="&#x115;" horiz-adv-x="615" 
d="M589 214h-376q0 -40 27 -61.5t76 -21.5q81 0 84 34l182 -22q-2 -71 -64.5 -115t-194.5 -44q-141 0 -218 72.5t-77 208.5t75 208.5t209 72.5t205.5 -72t71.5 -209v-51zM313 399q-43 0 -69 -22t-28 -57h181q2 38 -21 58.5t-63 20.5zM313 576q-115 0 -165 56.5t-48 167.5
h140q-1 -33 16.5 -47.5t56.5 -14.5t56.5 14.5t16.5 47.5h140q2 -111 -48 -167.5t-165 -56.5z" />
    <glyph glyph-name="Edotaccent" unicode="&#x116;" horiz-adv-x="668" 
d="M52 780h566v-165h-381v-134h327v-165h-327v-151h401v-165h-586v780zM432 1010v-182h-184v182h184z" />
    <glyph glyph-name="edotaccent" unicode="&#x117;" horiz-adv-x="615" 
d="M589 214h-376q0 -40 27 -61.5t76 -21.5q81 0 84 34l182 -22q-2 -71 -64.5 -115t-194.5 -44q-141 0 -218 72.5t-77 208.5t75 208.5t209 72.5t205.5 -72t71.5 -209v-51zM405 780v-182h-184v182h184zM313 399q-43 0 -69 -22t-28 -57h181q2 38 -21 58.5t-63 20.5z" />
    <glyph glyph-name="Eogonek" unicode="&#x118;" horiz-adv-x="668" 
d="M52 780h566v-165h-381v-134h327v-165h-327v-151h401v-165q-47 -4 -76.5 -27t-25.5 -46q5 -28 43 -20q9 2 18 6t13 7l5 3l34 -114q-40 -25 -105 -25q-111 0 -133 91q-18 68 38 125h-397v780z" />
    <glyph glyph-name="eogonek" unicode="&#x119;" horiz-adv-x="615" 
d="M589 214h-376q0 -40 27 -61.5t76 -21.5q81 0 84 34l182 -22q-2 -56 -41 -95.5t-120 -55.5q-40 -8 -65.5 -25.5t-22.5 -39.5q5 -28 43 -20q9 2 18 6t14 7l4 3l34 -114q-40 -25 -105 -25q-109 0 -133 91q-17 66 30 117q-210 43 -210 273q0 136 75 208.5t209 72.5t205.5 -72
t71.5 -209v-51zM313 399q-43 0 -69 -22t-28 -57h181q2 38 -21 58.5t-63 20.5z" />
    <glyph glyph-name="Ecaron" unicode="&#x11a;" horiz-adv-x="668" 
d="M52 780h566v-165h-381v-134h327v-165h-327v-151h401v-165h-586v780zM393 1030h183l-158 -208h-156l-158 208h183l53 -59z" />
    <glyph glyph-name="ecaron" unicode="&#x11b;" horiz-adv-x="615" 
d="M589 214h-376q0 -40 27 -61.5t76 -21.5q81 0 84 34l182 -22q-2 -71 -64.5 -115t-194.5 -44q-141 0 -218 72.5t-77 208.5t75 208.5t209 72.5t205.5 -72t71.5 -209v-51zM313 399q-43 0 -69 -22t-28 -57h181q2 38 -21 58.5t-63 20.5zM366 800h183l-158 -208h-156l-158 208
h183l53 -59z" />
    <glyph glyph-name="Gcircumflex" unicode="&#x11c;" horiz-adv-x="805" 
d="M41 390q0 190 91 298t277 108q160 0 249.5 -69t91.5 -192l-188 -23q-1 64 -40.5 91.5t-112.5 27.5q-181 0 -181 -241q0 -237 181 -241q94 -2 151 21v127h-160v150h344v-383q-81 -48 -158.5 -64.5t-177.5 -15.5q-186 1 -276.5 108.5t-90.5 297.5zM352 822h-183l158 208
h156l158 -208h-183l-53 59z" />
    <glyph glyph-name="gcircumflex" unicode="&#x11d;" horiz-adv-x="644" 
d="M260 592h-183l158 208h156l158 -208h-183l-53 59zM305 -69q110 0 110 71v67q-55 -59 -155 -59q-110 0 -171 67.5t-61 200.5t61 200.5t171 67.5q107 0 168 -73l12 57h165l-10 -154v-382q0 -55 -23.5 -96.5t-64 -65.5t-89 -36t-103.5 -12q-148 0 -215.5 38.5t-68.5 131.5
l182 29q1 -28 21.5 -40t70.5 -12zM212 278q0 -105 97 -105q68 0 106 50v110q-38 50 -106 50q-97 0 -97 -105z" />
    <glyph glyph-name="Gbreve" unicode="&#x11e;" horiz-adv-x="805" 
d="M41 390q0 190 91 298t277 108q160 0 249.5 -69t91.5 -192l-188 -23q-1 64 -40.5 91.5t-112.5 27.5q-181 0 -181 -241q0 -237 181 -241q94 -2 151 21v127h-160v150h344v-383q-81 -48 -158.5 -64.5t-177.5 -15.5q-186 1 -276.5 108.5t-90.5 297.5zM405 806
q-115 0 -165 56.5t-48 167.5h140q-1 -33 16.5 -47.5t56.5 -14.5t56.5 14.5t16.5 47.5h140q2 -111 -48 -167.5t-165 -56.5z" />
    <glyph glyph-name="gbreve" unicode="&#x11f;" horiz-adv-x="644" 
d="M313 576q-115 0 -165 56.5t-48 167.5h140q-1 -33 16.5 -47.5t56.5 -14.5t56.5 14.5t16.5 47.5h140q2 -111 -48 -167.5t-165 -56.5zM305 -69q110 0 110 71v67q-55 -59 -155 -59q-110 0 -171 67.5t-61 200.5t61 200.5t171 67.5q107 0 168 -73l12 57h165l-10 -154v-382
q0 -55 -23.5 -96.5t-64 -65.5t-89 -36t-103.5 -12q-148 0 -215.5 38.5t-68.5 131.5l182 29q1 -28 21.5 -40t70.5 -12zM212 278q0 -105 97 -105q68 0 106 50v110q-38 50 -106 50q-97 0 -97 -105z" />
    <glyph glyph-name="Gdotaccent" unicode="&#x120;" horiz-adv-x="805" 
d="M41 390q0 190 91 298t277 108q160 0 249.5 -69t91.5 -192l-188 -23q-1 64 -40.5 91.5t-112.5 27.5q-181 0 -181 -241q0 -237 181 -241q94 -2 151 21v127h-160v150h344v-383q-81 -48 -158.5 -64.5t-177.5 -15.5q-186 1 -276.5 108.5t-90.5 297.5zM497 1010v-182h-184v182
h184z" />
    <glyph glyph-name="gdotaccent" unicode="&#x121;" horiz-adv-x="644" 
d="M405 780v-182h-184v182h184zM305 -69q110 0 110 71v67q-55 -59 -155 -59q-110 0 -171 67.5t-61 200.5t61 200.5t171 67.5q107 0 168 -73l12 57h165l-10 -154v-382q0 -55 -23.5 -96.5t-64 -65.5t-89 -36t-103.5 -12q-148 0 -215.5 38.5t-68.5 131.5l182 29q1 -28 21.5 -40
t70.5 -12zM212 278q0 -105 97 -105q68 0 106 50v110q-38 50 -106 50q-97 0 -97 -105z" />
    <glyph glyph-name="Gcommaaccent" unicode="&#x122;" horiz-adv-x="805" 
d="M41 390q0 190 91 298t277 108q160 0 249.5 -69t91.5 -192l-188 -23q-1 64 -40.5 91.5t-112.5 27.5q-181 0 -181 -241q0 -237 181 -241q94 -2 151 21v127h-160v150h344v-383q-81 -48 -158.5 -64.5t-177.5 -15.5q-186 1 -276.5 108.5t-90.5 297.5zM310 -62h191l-35 -138
h-167z" />
    <glyph glyph-name="gcommaaccent" unicode="&#x123;" horiz-adv-x="644" 
d="M405 592h-191l53 208h155zM305 -69q110 0 110 71v67q-55 -59 -155 -59q-110 0 -171 67.5t-61 200.5t61 200.5t171 67.5q107 0 168 -73l12 57h165l-10 -154v-382q0 -55 -23.5 -96.5t-64 -65.5t-89 -36t-103.5 -12q-148 0 -215.5 38.5t-68.5 131.5l182 29q1 -28 21.5 -40
t70.5 -12zM212 278q0 -105 97 -105q68 0 106 50v110q-38 50 -106 50q-97 0 -97 -105z" />
    <glyph glyph-name="Hcircumflex" unicode="&#x124;" horiz-adv-x="748" 
d="M511 780h185v-780h-185v316h-274v-316h-185v780h185v-299h274v299zM321 822h-183l158 208h156l158 -208h-183l-53 59z" />
    <glyph glyph-name="hcircumflex" unicode="&#x125;" horiz-adv-x="639" 
d="M81 822h-183l158 208h156l158 -208h-183l-53 59zM44 0v800h180v-314q58 60 155 60q108 0 163 -52.5t55 -168.5v-325h-180v302q0 44 -20 63t-58 18q-39 -1 -69.5 -16t-45.5 -34v-333h-180z" />
    <glyph glyph-name="Hbar" unicode="&#x126;" horiz-adv-x="748" 
d="M511 780h185v-780h-185v316h-274v-316h-185v780h185v-103h274v103zM237 481h274v72h-274v-72z" />
    <glyph glyph-name="hbar" unicode="&#x127;" horiz-adv-x="654" 
d="M59 0v596h-79v124h79v80h180v-80h123v-124h-123v-110q58 60 155 60q108 0 163 -52.5t55 -168.5v-325h-180v302q0 44 -20 63t-58 18q-39 -1 -69.5 -16t-45.5 -34v-333h-180z" />
    <glyph glyph-name="Itilde" unicode="&#x128;" horiz-adv-x="311" 
d="M248 780v-780h-185v780h185zM236 806q-36 0 -66 12t-45.5 26t-32.5 26t-32 12q-16 0 -25 -12t-11 -24l-1 -11l-124 15q5 52 23 94t57 72t95 30q36 0 66 -12t45.5 -26t32.5 -26t32 -12q16 0 25 12t11 24l1 11l124 -15q-5 -52 -23 -94t-57 -72t-95 -30z" />
    <glyph glyph-name="itilde" unicode="&#x129;" horiz-adv-x="290" 
d="M55 0v530h180v-530h-180zM226 576q-36 0 -66 12t-45.5 26t-32.5 26t-32 12q-16 0 -25 -12t-11 -24l-1 -11l-124 15q5 52 23 94t57 72t95 30q36 0 66 -12t45.5 -26t32.5 -26t32 -12q16 0 25 12t11 24l1 11l124 -15q-5 -52 -23 -94t-57 -72t-95 -30z" />
    <glyph glyph-name="Imacron" unicode="&#x12a;" horiz-adv-x="311" 
d="M248 780v-780h-185v780h185zM321 846h-332v164h332v-164z" />
    <glyph glyph-name="imacron" unicode="&#x12b;" horiz-adv-x="290" 
d="M55 0v530h180v-530h-180zM311 616h-332v164h332v-164z" />
    <glyph glyph-name="Ibreve" unicode="&#x12c;" horiz-adv-x="311" 
d="M248 780v-780h-185v780h185zM155 806q-115 0 -165 56.5t-48 167.5h140q-1 -33 16.5 -47.5t56.5 -14.5t56.5 14.5t16.5 47.5h140q2 -111 -48 -167.5t-165 -56.5z" />
    <glyph glyph-name="ibreve" unicode="&#x12d;" horiz-adv-x="290" 
d="M55 0v530h180v-530h-180zM145 576q-115 0 -165 56.5t-48 167.5h140q-1 -33 16.5 -47.5t56.5 -14.5t56.5 14.5t16.5 47.5h140q2 -111 -48 -167.5t-165 -56.5z" />
    <glyph glyph-name="Iogonek" unicode="&#x12e;" horiz-adv-x="311" 
d="M248 780v-780q-47 -4 -76.5 -27t-25.5 -46q5 -28 43 -20q15 3 36.5 15.5t32.5 24.5l36 -119q-61 -44 -140 -44q-111 0 -133 91q-18 71 42 129v776h185z" />
    <glyph glyph-name="iogonek" unicode="&#x12f;" horiz-adv-x="290" 
d="M235 530v-530q-47 -4 -76.5 -27t-25.5 -46q5 -28 43 -20q15 3 36.5 15.5t32.5 24.5l36 -119q-61 -44 -140 -44q-111 0 -133 91q-10 41 6 78.5t41 55.5v521h180zM237 780v-182h-184v182h184z" />
    <glyph glyph-name="Idotaccent" unicode="&#x130;" horiz-adv-x="311" 
d="M248 780v-780h-185v780h185zM248 1010v-182h-185v182h185z" />
    <glyph glyph-name="dotlessi" unicode="&#x131;" horiz-adv-x="290" 
d="M55 0v530h180v-530h-180z" />
    <glyph glyph-name="IJ" unicode="&#x132;" horiz-adv-x="696" 
d="M248 780v-780h-185v780h185zM468 206v574h186v-597q0 -38 -11.5 -71.5t-37 -63t-73.5 -47t-114 -17.5q-71 0 -117 21l13 167q45 -27 97 -23q30 2 43.5 15t13.5 42z" />
    <glyph glyph-name="ij" unicode="&#x133;" horiz-adv-x="530" 
d="M55 0v530h180v-530h-180zM237 780v-182h-184v182h184zM477 780v-182h-184v182h184zM295 2v528h180v-553q0 -37 -11 -69.5t-36 -61t-71.5 -45.5t-110.5 -17q-66 0 -113 20l13 162q45 -29 94 -24q55 6 55 60z" />
    <glyph glyph-name="Jcircumflex" unicode="&#x134;" horiz-adv-x="555" 
d="M367 822h-183l158 208h156l158 -208h-183l-53 59zM328 780h185v-561q0 -235 -255 -235q-137 0 -192.5 61t-57.5 166l183 22q2 -44 15.5 -64.5t51.5 -20.5q39 0 54.5 17t15.5 53v562z" />
    <glyph glyph-name="jcircumflex" unicode="&#x135;" horiz-adv-x="290" 
d="M55 2v528h180v-553q0 -37 -11 -69.5t-36 -61t-71.5 -45.5t-110.5 -17q-66 0 -113 20l13 162q45 -29 94 -24q55 6 55 60zM92 592h-183l158 208h156l158 -208h-183l-53 59z" />
    <glyph glyph-name="Kcommaaccent" unicode="&#x136;" horiz-adv-x="761" 
d="M267 -62h191l-35 -138h-167zM237 780v-333l101 128l168 205h246l-276 -308l287 -472h-241l-181 325l-104 -121v-204h-185v780h185z" />
    <glyph glyph-name="kcommaaccent" unicode="&#x137;" horiz-adv-x="640" 
d="M224 -62h191l-35 -138h-167zM224 0h-180v800h180v-449l48 60l101 119h257l-213 -208l225 -322h-234l-122 202l-62 -59v-143z" />
    <glyph glyph-name="kgreenlandic" unicode="&#x138;" horiz-adv-x="640" 
d="M224 0h-180v530h180v-179l48 60l101 119h257l-213 -208l225 -322h-234l-122 202l-62 -59v-143z" />
    <glyph glyph-name="Lacute" unicode="&#x139;" horiz-adv-x="600" 
d="M237 780v-615h355v-165h-540v780h185zM152 1030h196l-111 -208h-179z" />
    <glyph glyph-name="lacute" unicode="&#x13a;" horiz-adv-x="290" 
d="M55 0v800h180v-800h-180zM150 1030h196l-111 -208h-179z" />
    <glyph glyph-name="Lcommaaccent" unicode="&#x13b;" horiz-adv-x="600" 
d="M237 780v-615h355v-165h-540v780h185zM227 -62h191l-35 -138h-167z" />
    <glyph glyph-name="lcommaaccent" unicode="&#x13c;" horiz-adv-x="290" 
d="M55 0v800h180v-800h-180zM50 -62h191l-35 -138h-167z" />
    <glyph glyph-name="Lcaron" unicode="&#x13d;" horiz-adv-x="600" 
d="M237 780v-615h355v-165h-540v780h185zM340 800h151l-53 -208h-115z" />
    <glyph glyph-name="lcaron" unicode="&#x13e;" horiz-adv-x="290" 
d="M55 0v800h180v-800h-180zM285 800h151l-53 -208h-115z" />
    <glyph glyph-name="Ldot" unicode="&#x13f;" horiz-adv-x="600" 
d="M237 780v-615h355v-165h-540v780h185zM542 490v-182h-184v182h184z" />
    <glyph glyph-name="ldot" unicode="&#x140;" horiz-adv-x="444" 
d="M55 0v800h180v-800h-180zM459 481v-182h-184v182h184z" />
    <glyph glyph-name="Lslash" unicode="&#x141;" horiz-adv-x="630" 
d="M483 416l-216 -108v-143h355v-165h-540v216l-53 -26v134l53 26v430h185v-338l216 108v-134z" />
    <glyph glyph-name="lslash" unicode="&#x142;" horiz-adv-x="335" 
d="M322 416l-72 -46v-370h-180v257l-52 -33v134l52 33v409h180v-296l72 46v-134z" />
    <glyph glyph-name="Nacute" unicode="&#x143;" horiz-adv-x="768" 
d="M223 780l237 -344l72 -109l-1 145v308h185v-780h-171l-237 344l-72 109l1 -145v-308h-185v780h171zM384 1030h196l-111 -208h-179z" />
    <glyph glyph-name="nacute" unicode="&#x144;" horiz-adv-x="645" 
d="M329 800h196l-111 -208h-179zM205 530l12 -57q64 73 168 73q108 0 163 -52.5t55 -168.5v-325h-180v302q0 44 -20 63t-58 18q-39 -1 -69.5 -16t-45.5 -34v-333h-180v376l-10 154h165z" />
    <glyph glyph-name="Ncommaaccent" unicode="&#x145;" horiz-adv-x="768" 
d="M223 780l237 -344l72 -109l-1 145v308h185v-780h-171l-237 344l-72 109l1 -145v-308h-185v780h171zM299 -62h191l-35 -138h-167z" />
    <glyph glyph-name="ncommaaccent" unicode="&#x146;" horiz-adv-x="645" 
d="M242 -62h191l-35 -138h-167zM205 530l12 -57q64 73 168 73q108 0 163 -52.5t55 -168.5v-325h-180v302q0 44 -20 63t-58 18q-39 -1 -69.5 -16t-45.5 -34v-333h-180v376l-10 154h165z" />
    <glyph glyph-name="Ncaron" unicode="&#x147;" horiz-adv-x="768" 
d="M223 780l237 -344l72 -109l-1 145v308h185v-780h-171l-237 344l-72 109l1 -145v-308h-185v780h171zM437 1030h183l-158 -208h-156l-158 208h183l53 -59z" />
    <glyph glyph-name="ncaron" unicode="&#x148;" horiz-adv-x="645" 
d="M382 800h183l-158 -208h-156l-158 208h183l53 -59zM205 530l12 -57q64 73 168 73q108 0 163 -52.5t55 -168.5v-325h-180v302q0 44 -20 63t-58 18q-39 -1 -69.5 -16t-45.5 -34v-333h-180v376l-10 154h165z" />
    <glyph glyph-name="Eng" unicode="&#x14a;" horiz-adv-x="768" 
d="M478 -58q27 3 40 16.5t13 43.5v18l-223 324l-72 109l1 -145v-308h-185v780h171l237 -344l72 -109l-1 145v308h185v-803q0 -37 -11 -69.5t-36 -61t-71.5 -45.5t-110.5 -17q-66 0 -113 20l13 162q45 -29 91 -24z" />
    <glyph glyph-name="eng" unicode="&#x14b;" horiz-adv-x="645" 
d="M603 325v-348q0 -37 -11 -69.5t-36 -61t-71.5 -45.5t-110.5 -17q-66 0 -113 20l13 162q45 -29 94 -24q55 6 55 60v300q0 44 -20 63t-58 18q-39 -1 -69.5 -16t-45.5 -34v-333h-180v376l-10 154h165l12 -57q64 73 168 73q108 0 163 -52.5t55 -168.5z" />
    <glyph glyph-name="Omacron" unicode="&#x14c;" horiz-adv-x="820" 
d="M410 -16q-189 0 -278.5 107.5t-89.5 298.5t89 298.5t279 107.5q189 0 278.5 -107.5t89.5 -298.5t-89 -298.5t-279 -107.5zM410 631q-53 0 -90 -19t-56 -54.5t-27 -76t-8 -91.5t8 -91.5t27 -76t56 -54.5t90 -19t90 19t56 54.5t27 76t8 91.5t-8 91.5t-27 76t-56 54.5
t-90 19zM576 846h-332v164h332v-164z" />
    <glyph glyph-name="omacron" unicode="&#x14d;" horiz-adv-x="620" 
d="M476 616h-332v164h332v-164zM310 146q49 0 74.5 26.5t25.5 92.5t-25.5 92.5t-74.5 26.5t-74.5 -26.5t-25.5 -92.5t25.5 -92.5t74.5 -26.5zM310 -16q-133 0 -207.5 71.5t-74.5 209.5t74.5 209.5t207.5 71.5t207.5 -71.5t74.5 -209.5t-74.5 -209.5t-207.5 -71.5z" />
    <glyph glyph-name="Obreve" unicode="&#x14e;" horiz-adv-x="820" 
d="M410 631q-53 0 -90 -19t-56 -54.5t-27 -76t-8 -91.5t8 -91.5t27 -76t56 -54.5t90 -19t90 19t56 54.5t27 76t8 91.5t-8 91.5t-27 76t-56 54.5t-90 19zM410 -16q-189 0 -278.5 107.5t-89.5 298.5t89 298.5t279 107.5q189 0 278.5 -107.5t89.5 -298.5t-89 -298.5
t-279 -107.5zM410 806q-115 0 -165 56.5t-48 167.5h140q-1 -33 16.5 -47.5t56.5 -14.5t56.5 14.5t16.5 47.5h140q2 -111 -48 -167.5t-165 -56.5z" />
    <glyph glyph-name="obreve" unicode="&#x14f;" horiz-adv-x="620" 
d="M310 576q-115 0 -165 56.5t-48 167.5h140q-1 -33 16.5 -47.5t56.5 -14.5t56.5 14.5t16.5 47.5h140q2 -111 -48 -167.5t-165 -56.5zM310 146q49 0 74.5 26.5t25.5 92.5t-25.5 92.5t-74.5 26.5t-74.5 -26.5t-25.5 -92.5t25.5 -92.5t74.5 -26.5zM310 -16q-133 0 -207.5 71.5
t-74.5 209.5t74.5 209.5t207.5 71.5t207.5 -71.5t74.5 -209.5t-74.5 -209.5t-207.5 -71.5z" />
    <glyph glyph-name="Ohungarumlaut" unicode="&#x150;" horiz-adv-x="820" 
d="M410 -16q-189 0 -278.5 107.5t-89.5 298.5t89 298.5t279 107.5q189 0 278.5 -107.5t89.5 -298.5t-89 -298.5t-279 -107.5zM410 631q-53 0 -90 -19t-56 -54.5t-27 -76t-8 -91.5t8 -91.5t27 -76t56 -54.5t90 -19t90 19t56 54.5t27 76t8 91.5t-8 91.5t-27 76t-56 54.5
t-90 19zM308 1030h196l-111 -208h-179zM524 1030h196l-111 -208h-179z" />
    <glyph glyph-name="ohungarumlaut" unicode="&#x151;" horiz-adv-x="620" 
d="M310 -16q-133 0 -207.5 71.5t-74.5 209.5t74.5 209.5t207.5 71.5t207.5 -71.5t74.5 -209.5t-74.5 -209.5t-207.5 -71.5zM310 146q49 0 74.5 26.5t25.5 92.5t-25.5 92.5t-74.5 26.5t-74.5 -26.5t-25.5 -92.5t25.5 -92.5t74.5 -26.5zM198 800h196l-111 -208h-179zM414 800
h196l-111 -208h-179z" />
    <glyph glyph-name="OE" unicode="&#x152;" horiz-adv-x="1102" 
d="M418 780h634v-165h-371v-134h317v-165h-317v-151h391v-165h-654q-191 0 -284.5 95t-93.5 295t93.5 295t284.5 95zM496 615h-78q-104 0 -147.5 -57.5t-43.5 -167.5t43.5 -167.5t147.5 -57.5h78v450z" />
    <glyph glyph-name="oe" unicode="&#x153;" horiz-adv-x="997" 
d="M310 146q49 0 74.5 26.5t25.5 92.5t-25.5 92.5t-74.5 26.5t-74.5 -26.5t-25.5 -92.5t25.5 -92.5t74.5 -26.5zM695 399q-43 0 -69 -22t-28 -57h181q2 38 -21 58.5t-63 20.5zM971 214h-376q0 -40 27 -61.5t76 -21.5q81 0 84 34l182 -22q-2 -71 -64.5 -115t-194.5 -44
q-122 0 -202 62q-76 -62 -193 -62q-133 0 -207.5 71.5t-74.5 209.5t74.5 209.5t207.5 71.5q114 0 192 -62q78 62 192 62q134 0 205.5 -72t71.5 -209v-51z" />
    <glyph glyph-name="Racute" unicode="&#x154;" horiz-adv-x="725" 
d="M237 269v-269h-185v780h345q294 0 294 -255q0 -181 -140 -233l178 -292h-222l-152 269h-118zM237 435h174q18 0 31.5 2.5t28.5 11t23.5 28t8.5 48.5q0 38 -16 59.5t-33.5 26t-42.5 4.5h-174v-180zM346 1030h196l-111 -208h-179z" />
    <glyph glyph-name="racute" unicode="&#x155;" horiz-adv-x="436" 
d="M225 800h196l-111 -208h-179zM352 546q45 0 74 -13l-13 -168q-28 8 -50 8q-94 0 -133 -50v-323h-180v376l-10 154h165l12 -57q22 34 58.5 53.5t76.5 19.5z" />
    <glyph glyph-name="Rcommaaccent" unicode="&#x156;" horiz-adv-x="725" 
d="M237 269v-269h-185v780h345q294 0 294 -255q0 -181 -140 -233l178 -292h-222l-152 269h-118zM237 435h174q18 0 31.5 2.5t28.5 11t23.5 28t8.5 48.5q0 38 -16 59.5t-33.5 26t-42.5 4.5h-174v-180zM271 -62h191l-35 -138h-167z" />
    <glyph glyph-name="rcommaaccent" unicode="&#x157;" horiz-adv-x="436" 
d="M45 -62h191l-35 -138h-167zM352 546q45 0 74 -13l-13 -168q-28 8 -50 8q-94 0 -133 -50v-323h-180v376l-10 154h165l12 -57q22 34 58.5 53.5t76.5 19.5z" />
    <glyph glyph-name="Rcaron" unicode="&#x158;" horiz-adv-x="725" 
d="M237 269v-269h-185v780h345q294 0 294 -255q0 -181 -140 -233l178 -292h-222l-152 269h-118zM237 435h174q18 0 31.5 2.5t28.5 11t23.5 28t8.5 48.5q0 38 -16 59.5t-33.5 26t-42.5 4.5h-174v-180zM399 1030h183l-158 -208h-156l-158 208h183l53 -59z" />
    <glyph glyph-name="rcaron" unicode="&#x159;" horiz-adv-x="436" 
d="M278 800h183l-158 -208h-156l-158 208h183l53 -59zM352 546q45 0 74 -13l-13 -168q-28 8 -50 8q-94 0 -133 -50v-323h-180v376l-10 154h165l12 -57q22 34 58.5 53.5t76.5 19.5z" />
    <glyph glyph-name="Sacute" unicode="&#x15a;" horiz-adv-x="722" 
d="M367 149q64 2 104.5 22t39.5 68q-1 40 -33.5 58t-118.5 22q-55 2 -94 7t-83 19t-71 36t-45.5 61t-19.5 93q-3 128 85 194.5t221 66.5q168 0 253.5 -68t87.5 -193l-188 -23q-1 65 -39 93t-114 26q-49 -1 -85.5 -22.5t-35.5 -69.5q1 -33 26.5 -44t109.5 -16
q70 -4 116.5 -11t89 -22t67 -40.5t39 -65.5t15.5 -97q1 -67 -26 -118.5t-74.5 -81.5t-104.5 -44.5t-122 -14.5q-182 0 -260.5 66t-80.5 195l188 23q1 -65 39.5 -93t113.5 -26zM347 1030h196l-111 -208h-179z" />
    <glyph glyph-name="sacute" unicode="&#x15b;" horiz-adv-x="570" 
d="M279 125q83 0 83 43q0 20 -20 26.5t-71 9.5q-122 9 -162 24q-76 28 -80 119v12q0 50 23.5 88t62 58.5t81.5 30.5t88 10q128 0 190.5 -38.5t63.5 -127.5l-182 -22q-1 24 -16 35.5t-56 11.5q-27 0 -44 -10.5t-17 -27.5q0 -19 18 -26.5t67 -10.5q115 -7 153 -19
q81 -27 88 -118q1 -10 1 -21q0 -51 -23.5 -89t-64 -59t-86.5 -30.5t-98 -9.5q-136 0 -197.5 40t-62.5 133l182 22q1 -54 79 -54zM280 800h196l-111 -208h-179z" />
    <glyph glyph-name="Scircumflex" unicode="&#x15c;" horiz-adv-x="722" 
d="M367 149q64 2 104.5 22t39.5 68q-1 40 -33.5 58t-118.5 22q-55 2 -94 7t-83 19t-71 36t-45.5 61t-19.5 93q-3 128 85 194.5t221 66.5q168 0 253.5 -68t87.5 -193l-188 -23q-1 65 -39 93t-114 26q-49 -1 -85.5 -22.5t-35.5 -69.5q1 -33 26.5 -44t109.5 -16
q70 -4 116.5 -11t89 -22t67 -40.5t39 -65.5t15.5 -97q1 -67 -26 -118.5t-74.5 -81.5t-104.5 -44.5t-122 -14.5q-182 0 -260.5 66t-80.5 195l188 23q1 -65 39.5 -93t113.5 -26zM304 822h-183l158 208h156l158 -208h-183l-53 59z" />
    <glyph glyph-name="scircumflex" unicode="&#x15d;" horiz-adv-x="570" 
d="M279 125q83 0 83 43q0 20 -20 26.5t-71 9.5q-122 9 -162 24q-76 28 -80 119v12q0 50 23.5 88t62 58.5t81.5 30.5t88 10q128 0 190.5 -38.5t63.5 -127.5l-182 -22q-1 24 -16 35.5t-56 11.5q-27 0 -44 -10.5t-17 -27.5q0 -19 18 -26.5t67 -10.5q115 -7 153 -19
q81 -27 88 -118q1 -10 1 -21q0 -51 -23.5 -89t-64 -59t-86.5 -30.5t-98 -9.5q-136 0 -197.5 40t-62.5 133l182 22q1 -54 79 -54zM227 592h-183l158 208h156l158 -208h-183l-53 59z" />
    <glyph glyph-name="Scedilla" unicode="&#x15e;" horiz-adv-x="722" 
d="M367 149q64 2 104.5 22t39.5 68q-1 40 -33.5 58t-118.5 22q-55 2 -94 7t-83 19t-71 36t-45.5 61t-19.5 93q-3 128 85 194.5t221 66.5q168 0 253.5 -68t87.5 -193l-188 -23q-1 65 -39 93t-114 26q-49 -1 -85.5 -22.5t-35.5 -69.5q1 -33 26.5 -44t109.5 -16
q70 -4 116.5 -11t89 -22t67 -40.5t39 -65.5t15.5 -97q1 -63 -22.5 -112t-65.5 -79t-93 -46.5t-111 -20.5l-5 -18q54 -11 82 -35t23 -64q-5 -42 -42 -63t-91 -21q-76 0 -129 23l25 76q24 -13 50 -17q48 -7 48 21q0 14 -21 24t-57 14l21 61q-148 11 -213 76.5t-67 182.5
l188 23q1 -65 39.5 -93t113.5 -26z" />
    <glyph glyph-name="scedilla" unicode="&#x15f;" horiz-adv-x="570" 
d="M279 125q83 0 83 43q0 20 -20 26.5t-71 9.5q-122 9 -162 24q-76 28 -80 119v12q0 50 23.5 88t62 58.5t81.5 30.5t88 10q128 0 190.5 -38.5t63.5 -127.5l-182 -22q-1 24 -16 35.5t-56 11.5q-27 0 -44 -10.5t-17 -27.5q0 -19 18 -26.5t67 -10.5q115 -7 153 -19
q81 -27 88 -118q1 -10 1 -21q0 -60 -33 -101.5t-80.5 -60t-109.5 -24.5l-5 -19q54 -11 82 -35t23 -64q-5 -42 -42 -63t-91 -21q-76 0 -129 23l25 76q24 -13 50 -17q48 -7 48 21q0 14 -21 24t-57 14l21 61q-111 6 -161.5 46t-51.5 125l182 22q1 -54 79 -54z" />
    <glyph glyph-name="Scaron" unicode="&#x160;" horiz-adv-x="722" 
d="M367 149q64 2 104.5 22t39.5 68q-1 40 -33.5 58t-118.5 22q-55 2 -94 7t-83 19t-71 36t-45.5 61t-19.5 93q-3 128 85 194.5t221 66.5q168 0 253.5 -68t87.5 -193l-188 -23q-1 65 -39 93t-114 26q-49 -1 -85.5 -22.5t-35.5 -69.5q1 -33 26.5 -44t109.5 -16
q70 -4 116.5 -11t89 -22t67 -40.5t39 -65.5t15.5 -97q1 -67 -26 -118.5t-74.5 -81.5t-104.5 -44.5t-122 -14.5q-182 0 -260.5 66t-80.5 195l188 23q1 -65 39.5 -93t113.5 -26zM410 1030h183l-158 -208h-156l-158 208h183l53 -59z" />
    <glyph glyph-name="scaron" unicode="&#x161;" horiz-adv-x="570" 
d="M279 125q83 0 83 43q0 20 -20 26.5t-71 9.5q-122 9 -162 24q-76 28 -80 119v12q0 50 23.5 88t62 58.5t81.5 30.5t88 10q128 0 190.5 -38.5t63.5 -127.5l-182 -22q-1 24 -16 35.5t-56 11.5q-27 0 -44 -10.5t-17 -27.5q0 -19 18 -26.5t67 -10.5q115 -7 153 -19
q81 -27 88 -118q1 -10 1 -21q0 -51 -23.5 -89t-64 -59t-86.5 -30.5t-98 -9.5q-136 0 -197.5 40t-62.5 133l182 22q1 -54 79 -54zM333 800h183l-158 -208h-156l-158 208h183l53 -59z" />
    <glyph glyph-name="Tcommaaccent" unicode="&#x162;" horiz-adv-x="647" 
d="M416 615v-615h-185v615h-214v165h613v-165h-214zM228 -62h191l-35 -138h-167z" />
    <glyph glyph-name="tcommaaccent" unicode="&#x163;" horiz-adv-x="480" 
d="M15 380v150h97v160h180v-160h160v-150h-160v-178q0 -54 55 -60q49 -5 94 24l13 -162q-47 -20 -113 -20q-64 0 -110.5 17t-71.5 45.5t-36 61t-11 69.5v203h-97zM161 -62h191l-35 -138h-167z" />
    <glyph glyph-name="Tcaron" unicode="&#x164;" horiz-adv-x="647" 
d="M416 615v-615h-185v615h-214v165h613v-165h-214zM376 1050h183l-158 -208h-156l-158 208h183l53 -59z" />
    <glyph glyph-name="tcaron" unicode="&#x165;" horiz-adv-x="480" 
d="M15 380v150h97v160h180v-160h160v-150h-160v-178q0 -54 55 -60q49 -5 94 24l13 -162q-47 -20 -113 -20q-64 0 -110.5 17t-71.5 45.5t-36 61t-11 69.5v203h-97zM363 800h151l-53 -208h-115z" />
    <glyph glyph-name="Tbar" unicode="&#x166;" horiz-adv-x="647" 
d="M416 615v-153h100v-124h-100v-338h-185v338h-100v124h100v153h-214v165h613v-165h-214z" />
    <glyph glyph-name="tbar" unicode="&#x167;" horiz-adv-x="480" 
d="M15 380v150h97v160h180v-160h160v-150h-160v-49h139v-124h-139v-5q0 -54 55 -60q49 -5 94 24l13 -162q-47 -20 -113 -20q-64 0 -110.5 17t-71.5 45.5t-36 61t-11 69.5v30h-86v124h86v49h-97z" />
    <glyph glyph-name="Utilde" unicode="&#x168;" horiz-adv-x="746" 
d="M373 148q89 0 117.5 36.5t28.5 106.5v489h185v-493q0 -69 -15.5 -121t-52 -94.5t-102.5 -65t-161 -22.5t-161 22.5t-102.5 65t-52 94.5t-15.5 121v493h185v-489q0 -70 28.5 -106.5t117.5 -36.5zM454 806q-36 0 -66 12t-45.5 26t-32.5 26t-32 12q-16 0 -25 -12t-11 -24
l-1 -11l-124 15q9 83 51.5 139.5t123.5 56.5q36 0 66 -12t45.5 -26t32.5 -26t32 -12q16 0 25 12t11 24l1 11l124 -15q-5 -52 -23 -94t-57 -72t-95 -30z" />
    <glyph glyph-name="utilde" unicode="&#x169;" horiz-adv-x="645" 
d="M405 576q-36 0 -66 12t-45.5 26t-32.5 26t-32 12q-16 0 -25 -12t-10 -24l-2 -11l-124 15q9 83 51.5 139.5t123.5 56.5q36 0 66 -12t45.5 -26t32.5 -26t32 -12q16 0 25 12t10 24l2 11l124 -15q-9 -83 -51.5 -139.5t-123.5 -56.5zM440 0l-12 57q-64 -73 -168 -73
q-108 0 -163 52.5t-55 168.5v325h180v-302q0 -44 20 -63t58 -18q39 1 69.5 16t45.5 34v333h180v-376l10 -154h-165z" />
    <glyph glyph-name="Umacron" unicode="&#x16a;" horiz-adv-x="746" 
d="M373 148q89 0 117.5 36.5t28.5 106.5v489h185v-493q0 -69 -15.5 -121t-52 -94.5t-102.5 -65t-161 -22.5t-161 22.5t-102.5 65t-52 94.5t-15.5 121v493h185v-489q0 -70 28.5 -106.5t117.5 -36.5zM539 846h-332v164h332v-164z" />
    <glyph glyph-name="umacron" unicode="&#x16b;" horiz-adv-x="645" 
d="M490 616h-332v164h332v-164zM440 0l-12 57q-64 -73 -168 -73q-108 0 -163 52.5t-55 168.5v325h180v-302q0 -44 20 -63t58 -18q39 1 69.5 16t45.5 34v333h180v-376l10 -154h-165z" />
    <glyph glyph-name="Ubreve" unicode="&#x16c;" horiz-adv-x="746" 
d="M373 148q89 0 117.5 36.5t28.5 106.5v489h185v-493q0 -69 -15.5 -121t-52 -94.5t-102.5 -65t-161 -22.5t-161 22.5t-102.5 65t-52 94.5t-15.5 121v493h185v-489q0 -70 28.5 -106.5t117.5 -36.5zM373 806q-115 0 -165 56.5t-48 167.5h140q-1 -33 16.5 -47.5t56.5 -14.5
t56.5 14.5t16.5 47.5h140q2 -111 -48 -167.5t-165 -56.5z" />
    <glyph glyph-name="ubreve" unicode="&#x16d;" horiz-adv-x="645" 
d="M324 576q-115 0 -165 56.5t-48 167.5h140q-1 -33 16.5 -47.5t56.5 -14.5t56.5 14.5t16.5 47.5h140q2 -111 -48 -167.5t-165 -56.5zM440 0l-12 57q-64 -73 -168 -73q-108 0 -163 52.5t-55 168.5v325h180v-302q0 -44 20 -63t58 -18q39 1 69.5 16t45.5 34v333h180v-376
l10 -154h-165z" />
    <glyph glyph-name="Uring" unicode="&#x16e;" horiz-adv-x="746" 
d="M373 148q89 0 117.5 36.5t28.5 106.5v489h185v-493q0 -69 -15.5 -121t-52 -94.5t-102.5 -65t-161 -22.5t-161 22.5t-102.5 65t-52 94.5t-15.5 121v493h185v-489q0 -70 28.5 -106.5t117.5 -36.5zM253 926q0 54 32 87t88 33t88 -33t32 -87t-32 -87t-88 -33t-88 33t-32 87z
M401 926q0 28 -28 28t-28 -28t28 -28t28 28z" />
    <glyph glyph-name="uring" unicode="&#x16f;" horiz-adv-x="645" 
d="M204 696q0 54 32 87t88 33t88 -33t32 -87t-32 -87t-88 -33t-88 33t-32 87zM352 696q0 28 -28 28t-28 -28t28 -28t28 28zM440 0l-12 57q-64 -73 -168 -73q-108 0 -163 52.5t-55 168.5v325h180v-302q0 -44 20 -63t58 -18q39 1 69.5 16t45.5 34v333h180v-376l10 -154h-165z
" />
    <glyph glyph-name="Uhungarumlaut" unicode="&#x170;" horiz-adv-x="746" 
d="M373 148q89 0 117.5 36.5t28.5 106.5v489h185v-493q0 -69 -15.5 -121t-52 -94.5t-102.5 -65t-161 -22.5t-161 22.5t-102.5 65t-52 94.5t-15.5 121v493h185v-489q0 -70 28.5 -106.5t117.5 -36.5zM487 1030h196l-111 -208h-179zM271 1030h196l-111 -208h-179z" />
    <glyph glyph-name="uhungarumlaut" unicode="&#x171;" horiz-adv-x="645" 
d="M428 800h196l-111 -208h-179zM212 800h196l-111 -208h-179zM440 0l-12 57q-64 -73 -168 -73q-108 0 -163 52.5t-55 168.5v325h180v-302q0 -44 20 -63t58 -18q39 1 69.5 16t45.5 34v333h180v-376l10 -154h-165z" />
    <glyph glyph-name="Uogonek" unicode="&#x172;" horiz-adv-x="746" 
d="M373 148q89 0 117.5 36.5t28.5 106.5v489h185v-493q0 -114 -45.5 -188t-155.5 -101q-38 -9 -62.5 -30.5t-21.5 -40.5q5 -28 43 -20q9 2 18 6t14 7l4 3l34 -114q-40 -25 -105 -25q-112 0 -133 91q-14 61 11 113q-144 14 -203.5 92t-59.5 207v493h185v-489
q0 -70 28.5 -106.5t117.5 -36.5z" />
    <glyph glyph-name="uogonek" unicode="&#x173;" horiz-adv-x="645" 
d="M595 154l10 -154q-47 -4 -76.5 -27t-25.5 -46q5 -28 43 -20q9 2 18 6t14 7l4 3l34 -114q-40 -25 -105 -25q-111 0 -133 91q-10 42 6.5 80t51.5 63l-8 39q-64 -73 -168 -73q-108 0 -163 52.5t-55 168.5v325h180v-302q0 -44 20 -63t58 -18q39 1 69.5 16t45.5 34v333h180
v-376z" />
    <glyph glyph-name="Wcircumflex" unicode="&#x174;" horiz-adv-x="1020" 
d="M457 822h-183l158 208h156l158 -208h-183l-53 59zM555 373l-45 233l-45 -233l-74 -381h-226l-149 788h200l49 -344l22 -178l32 182l68 340h246l68 -340l32 -182l22 178l49 344h200l-149 -788h-226z" />
    <glyph glyph-name="wcircumflex" unicode="&#x175;" horiz-adv-x="850" 
d="M450 193l-25 177l-25 -177l-33 -193h-252l-96 530h187l23 -200l14 -159l30 171l36 188h232l36 -188l30 -171l14 159l23 200h187l-96 -530h-252zM372 592h-183l158 208h156l158 -208h-183l-53 59z" />
    <glyph glyph-name="Ycircumflex" unicode="&#x176;" horiz-adv-x="730" 
d="M312 822h-183l158 208h156l158 -208h-183l-53 59zM-30 780h218l125 -219l52 -91l52 92l125 218h218l-302 -485v-295h-186v295z" />
    <glyph glyph-name="ycircumflex" unicode="&#x177;" horiz-adv-x="626" 
d="M260 592h-183l158 208h156l158 -208h-183l-53 59zM635 530l-228 -497l-98 -233h-208l113 242l-223 488h201l61 -163l60 -171l61 171l60 163h201z" />
    <glyph glyph-name="Ydieresis" unicode="&#x178;" horiz-adv-x="730" 
d="M337 1010v-182h-184v182h184zM577 1010v-182h-184v182h184zM-30 780h218l125 -219l52 -91l52 92l125 218h218l-302 -485v-295h-186v295z" />
    <glyph glyph-name="Zacute" unicode="&#x179;" horiz-adv-x="682" 
d="M14 0v123l352 441l44 52l-128 -1h-250v165h629v-123l-352 -441l-44 -52l128 1h268v-165h-647zM338 1030h196l-111 -208h-179z" />
    <glyph glyph-name="zacute" unicode="&#x17a;" horiz-adv-x="566" 
d="M13 0v121l264 250h-246v159h511v-121l-264 -250h275v-159h-540zM282 800h196l-111 -208h-179z" />
    <glyph glyph-name="Zdotaccent" unicode="&#x17b;" horiz-adv-x="682" 
d="M14 0v123l352 441l44 52l-128 -1h-250v165h629v-123l-352 -441l-44 -52l128 1h268v-165h-647zM430 1010v-182h-184v182h184z" />
    <glyph glyph-name="zdotaccent" unicode="&#x17c;" horiz-adv-x="566" 
d="M13 0v121l264 250h-246v159h511v-121l-264 -250h275v-159h-540zM374 780v-182h-184v182h184z" />
    <glyph glyph-name="Zcaron" unicode="&#x17d;" horiz-adv-x="682" 
d="M14 0v123l352 441l44 52l-128 -1h-250v165h629v-123l-352 -441l-44 -52l128 1h268v-165h-647zM391 1030h183l-158 -208h-156l-158 208h183l53 -59z" />
    <glyph glyph-name="zcaron" unicode="&#x17e;" horiz-adv-x="566" 
d="M13 0v121l264 250h-246v159h511v-121l-264 -250h275v-159h-540zM335 800h183l-158 -208h-156l-158 208h183l53 -59z" />
    <glyph glyph-name="Schwa" unicode="&#x18f;" horiz-adv-x="743" 
d="M21 390v71h509q-8 80 -45 125t-118 45q-78 0 -112.5 -26.5t-35.5 -92.5l-188 23q2 125 86.5 193t249.5 68q353 0 353 -406t-353 -406q-184 0 -265 106t-81 300zM367 149q78 0 114.5 41.5t46.5 115.5h-317q8 -74 43 -115.5t113 -41.5z" />
    <glyph glyph-name="florin" unicode="&#x192;" horiz-adv-x="464" 
d="M119 2v312h-107v150h107v123q0 37 11 69.5t36 61t71.5 45.5t110.5 17q66 0 113 -20l-13 -162q-45 29 -94 24q-55 -6 -55 -60v-98h145v-150h-145v-337q0 -37 -11 -69.5t-36 -61t-71.5 -45.5t-110.5 -17q-66 0 -113 20l13 162q45 -29 94 -24q55 6 55 60z" />
    <glyph glyph-name="Khook" unicode="&#x198;" horiz-adv-x="761" 
d="M237 780l1 -344q42 15 73 43t49 60.5t34 68.5t34.5 69t44 60t69.5 43t105 16q70 0 95 -16l-19 -164q-20 12 -53 12q-37 0 -62.5 -26t-37.5 -59.5t-31.5 -75.5t-42.5 -63l268 -404h-246l-171 281q-13 -12 -40.5 -25.5t-48.5 -20.5l-21 -7l1 -228h-185l-1 780h185z" />
    <glyph glyph-name="khook" unicode="&#x199;" horiz-adv-x="640" 
d="M44 0v623q0 37 11 69.5t36 61t71.5 45.5t110.5 17q66 0 113 -20l-13 -162q-45 29 -94 24q-55 -6 -55 -60v-247l48 60l101 119h257l-213 -208l225 -322h-234l-122 202l-62 -59v-143h-180z" />
    <glyph glyph-name="Ezh" unicode="&#x1b7;" horiz-adv-x="750" 
d="M177 322l194 242l44 52l-128 -1h-220v165h599v-123l-160 -200l-35 -41q115 -20 180.5 -98.5t65.5 -216.5q0 -84 -29 -147t-79 -99t-110 -53.5t-129 -17.5q-170 0 -255 71.5t-87 198.5l188 23q3 -128 154 -128q77 0 121 37t44 115q0 82 -40 124t-115 42q-65 0 -107 -54z
" />
    <glyph glyph-name="Acaron" unicode="&#x1cd;" horiz-adv-x="754" 
d="M430 1030h183l-158 -208h-156l-158 208h183l53 -59zM561 0l-41 133h-286l-41 -133h-198l273 790h218l273 -790h-198zM354 520l-74 -237h193l-73 237l-23 79z" />
    <glyph glyph-name="acaron" unicode="&#x1ce;" horiz-adv-x="612" 
d="M350 800h183l-158 -208h-156l-158 208h183l53 -59zM20 145q0 85 47.5 119.5t143.5 48.5l175 25v15q0 48 -76 48q-45 0 -63 -12.5t-20 -37.5l-182 22q0 41 11.5 70.5t39.5 53.5t81.5 36.5t132.5 12.5q134 0 195 -50.5t61 -159.5v-182l10 -154h-165l-12 57
q-30 -32 -83.5 -52.5t-120.5 -20.5q-80 0 -127.5 46.5t-47.5 114.5zM220 170q0 -18 12 -29.5t33 -11.5q33 0 67.5 15t53.5 34v55l-109 -16q-57 -10 -57 -47z" />
    <glyph glyph-name="Icaron" unicode="&#x1cf;" horiz-adv-x="311" 
d="M248 780v-780h-185v780h185zM208 1030h183l-158 -208h-156l-158 208h183l53 -59z" />
    <glyph glyph-name="icaron" unicode="&#x1d0;" horiz-adv-x="290" 
d="M55 0v530h180v-530h-180zM198 800h183l-158 -208h-156l-158 208h183l53 -59z" />
    <glyph glyph-name="Ocaron" unicode="&#x1d1;" horiz-adv-x="820" 
d="M410 631q-53 0 -90 -19t-56 -54.5t-27 -76t-8 -91.5t8 -91.5t27 -76t56 -54.5t90 -19t90 19t56 54.5t27 76t8 91.5t-8 91.5t-27 76t-56 54.5t-90 19zM410 -16q-189 0 -278.5 107.5t-89.5 298.5t89 298.5t279 107.5q189 0 278.5 -107.5t89.5 -298.5t-89 -298.5
t-279 -107.5zM463 1030h183l-158 -208h-156l-158 208h183l53 -59z" />
    <glyph glyph-name="ocaron" unicode="&#x1d2;" horiz-adv-x="620" 
d="M310 146q49 0 74.5 26.5t25.5 92.5t-25.5 92.5t-74.5 26.5t-74.5 -26.5t-25.5 -92.5t25.5 -92.5t74.5 -26.5zM310 -16q-133 0 -207.5 71.5t-74.5 209.5t74.5 209.5t207.5 71.5t207.5 -71.5t74.5 -209.5t-74.5 -209.5t-207.5 -71.5zM74 800h184l52 -59l53 59h183
l-158 -208h-156z" />
    <glyph glyph-name="Ucaron" unicode="&#x1d3;" horiz-adv-x="746" 
d="M373 148q89 0 117.5 36.5t28.5 106.5v489h185v-493q0 -69 -15.5 -121t-52 -94.5t-102.5 -65t-161 -22.5t-161 22.5t-102.5 65t-52 94.5t-15.5 121v493h185v-489q0 -70 28.5 -106.5t117.5 -36.5zM426 1030h183l-158 -208h-156l-158 208h183l53 -59z" />
    <glyph glyph-name="ucaron" unicode="&#x1d4;" horiz-adv-x="645" 
d="M377 800h183l-158 -208h-156l-158 208h183l53 -59zM440 0l-12 57q-64 -73 -168 -73q-108 0 -163 52.5t-55 168.5v325h180v-302q0 -44 20 -63t58 -18q39 1 69.5 16t45.5 34v333h180v-376l10 -154h-165z" />
    <glyph glyph-name="Adieresismacron" unicode="&#x1de;" horiz-adv-x="754" 
d="M561 0l-41 133h-286l-41 -133h-198l273 790h218l273 -790h-198zM354 520l-74 -237h193l-73 237l-23 79zM349 1010v-182h-184v182h184zM589 1010v-182h-184v182h184zM543 1036h-332v164h332v-164z" />
    <glyph glyph-name="adieresismacron" unicode="&#x1df;" horiz-adv-x="612" 
d="M269 760v-182h-184v182h184zM509 760v-182h-184v182h184zM463 786h-332v164h332v-164zM20 145q0 85 47.5 119.5t143.5 48.5l175 25v15q0 48 -76 48q-45 0 -63 -12.5t-20 -37.5l-182 22q0 41 11.5 70.5t39.5 53.5t81.5 36.5t132.5 12.5q134 0 195 -50.5t61 -159.5v-182
l10 -154h-165l-12 57q-30 -32 -83.5 -52.5t-120.5 -20.5q-80 0 -127.5 46.5t-47.5 114.5zM220 170q0 -18 12 -29.5t33 -11.5q33 0 67.5 15t53.5 34v55l-109 -16q-57 -10 -57 -47z" />
    <glyph glyph-name="AEmacron" unicode="&#x1e2;" horiz-adv-x="1060" 
d="M696 846h-332v164h332v-164zM541 0l-24 166h-253l-81 -166h-204l418 780h613v-165h-381l22 -134h305v-165h-278l25 -151h327v-165h-489zM461 570l-124 -254h159l-29 210z" />
    <glyph glyph-name="aemacron" unicode="&#x1e3;" horiz-adv-x="966" 
d="M663 546q134 0 205.5 -72t71.5 -209v-51h-376q0 -40 27 -61.5t76 -21.5q81 0 84 34l182 -22q-2 -71 -64.5 -115t-194.5 -44q-136 0 -201 70q-90 -70 -227 -70q-113 0 -169.5 47t-56.5 122q0 167 211 167h155v33q0 48 -76 48q-45 0 -63 -12.5t-20 -37.5l-182 22
q0 41 11.5 70.5t39.5 53.5t81.5 36.5t132.5 12.5q124 0 182 -57q65 57 171 57zM644 616h-332v164h332v-164zM205 167q0 -19 14.5 -31t40.5 -12q38 0 73 10.5t53 26.5v53h-118q-63 0 -63 -47zM664 399q-43 0 -69 -22t-28 -57h181q2 38 -21 58.5t-63 20.5z" />
    <glyph glyph-name="Gstroke" unicode="&#x1e4;" horiz-adv-x="866" 
d="M41 390q0 190 91 298t277 108q160 0 249.5 -69t91.5 -192l-188 -23q-1 64 -40.5 91.5t-112.5 27.5q-181 0 -181 -241q0 -237 181 -241q94 -2 151 21v22h-151v66h151v39h-160v150h344v-189h100v-66h-100v-128q-81 -48 -158.5 -64.5t-177.5 -15.5q-186 1 -276.5 108.5
t-90.5 297.5z" />
    <glyph glyph-name="gstroke" unicode="&#x1e5;" horiz-adv-x="644" 
d="M305 -69q58 0 86 20h-55v62h79v56q-55 -59 -155 -59q-110 0 -171 67.5t-61 200.5t61 200.5t171 67.5q107 0 168 -73l12 57h165l-10 -154v-363h55v-62h-59q-17 -84 -94.5 -125.5t-181.5 -41.5q-148 0 -215.5 38.5t-68.5 131.5l182 29q1 -28 21.5 -40t70.5 -12zM212 278
q0 -105 97 -105q68 0 106 50v110q-38 50 -106 50q-97 0 -97 -105z" />
    <glyph glyph-name="Gcaron" unicode="&#x1e6;" horiz-adv-x="805" 
d="M41 390q0 190 91 298t277 108q160 0 249.5 -69t91.5 -192l-188 -23q-1 64 -40.5 91.5t-112.5 27.5q-181 0 -181 -241q0 -237 181 -241q94 -2 151 21v127h-160v150h344v-383q-81 -48 -158.5 -64.5t-177.5 -15.5q-186 1 -276.5 108.5t-90.5 297.5zM458 1030h183l-158 -208
h-156l-158 208h183l53 -59z" />
    <glyph glyph-name="gcaron" unicode="&#x1e7;" horiz-adv-x="644" 
d="M366 800h183l-158 -208h-156l-158 208h183l53 -59zM305 -69q110 0 110 71v67q-55 -59 -155 -59q-110 0 -171 67.5t-61 200.5t61 200.5t171 67.5q107 0 168 -73l12 57h165l-10 -154v-382q0 -55 -23.5 -96.5t-64 -65.5t-89 -36t-103.5 -12q-148 0 -215.5 38.5t-68.5 131.5
l182 29q1 -28 21.5 -40t70.5 -12zM212 278q0 -105 97 -105q68 0 106 50v110q-38 50 -106 50q-97 0 -97 -105z" />
    <glyph glyph-name="Kcaron" unicode="&#x1e8;" horiz-adv-x="761" 
d="M418 1030h183l-158 -208h-156l-158 208h183l53 -59zM237 780v-333l101 128l168 205h246l-276 -308l287 -472h-241l-181 325l-104 -121v-204h-185v780h185z" />
    <glyph glyph-name="kcaron" unicode="&#x1e9;" horiz-adv-x="640" 
d="M187 1030h183l-158 -208h-156l-158 208h183l53 -59zM224 0h-180v800h180v-449l48 60l101 119h257l-213 -208l225 -322h-234l-122 202l-62 -59v-143z" />
    <glyph glyph-name="Oogonek" unicode="&#x1ea;" horiz-adv-x="820" 
d="M778 390q0 -341 -263 -396q-36 -9 -56.5 -28.5t-17.5 -38.5q5 -28 43 -20q9 2 18 6t14 7l4 3l34 -114q-40 -25 -105 -25q-111 0 -133 91q-15 61 27 113q-154 19 -227.5 124t-73.5 278q0 191 89 298.5t279 107.5q189 0 278.5 -107.5t89.5 -298.5zM410 631q-53 0 -90 -19
t-56 -54.5t-27 -76t-8 -91.5t8 -91.5t27 -76t56 -54.5t90 -19t90 19t56 54.5t27 76t8 91.5t-8 91.5t-27 76t-56 54.5t-90 19z" />
    <glyph glyph-name="oogonek" unicode="&#x1eb;" horiz-adv-x="620" 
d="M592 265q0 -108 -46 -175.5t-131 -91.5q-2 0 -3 -1q-37 -9 -59 -29.5t-19 -40.5q5 -28 43 -20q9 2 18 6t13 7l5 3l34 -114q-40 -25 -105 -25q-111 0 -133 91q-16 62 30 115q-101 18 -156 87.5t-55 187.5q0 138 74.5 209.5t207.5 71.5t207.5 -71.5t74.5 -209.5zM310 146
q49 0 74.5 26.5t25.5 92.5t-25.5 92.5t-74.5 26.5t-74.5 -26.5t-25.5 -92.5t25.5 -92.5t74.5 -26.5z" />
    <glyph glyph-name="uni004F02DB00AF" unicode="&#x1ec;" horiz-adv-x="820" 
d="M778 390q0 -341 -263 -396q-36 -9 -56.5 -28.5t-17.5 -38.5q5 -28 43 -20q9 2 18 6t14 7l4 3l34 -114q-40 -25 -105 -25q-111 0 -133 91q-15 61 27 113q-154 19 -227.5 124t-73.5 278q0 191 89 298.5t279 107.5q189 0 278.5 -107.5t89.5 -298.5zM410 631q-53 0 -90 -19
t-56 -54.5t-27 -76t-8 -91.5t8 -91.5t27 -76t56 -54.5t90 -19t90 19t56 54.5t27 76t8 91.5t-8 91.5t-27 76t-56 54.5t-90 19zM576 846h-332v164h332v-164z" />
    <glyph glyph-name="oogonekmacron" unicode="&#x1ed;" horiz-adv-x="620" 
d="M592 265q0 -108 -46 -175.5t-131 -91.5q-2 0 -3 -1q-37 -9 -59 -29.5t-19 -40.5q5 -28 43 -20q9 2 18 6t13 7l5 3l34 -114q-40 -25 -105 -25q-111 0 -133 91q-16 62 30 115q-101 18 -156 87.5t-55 187.5q0 138 74.5 209.5t207.5 71.5t207.5 -71.5t74.5 -209.5zM476 616
h-332v164h332v-164zM310 146q49 0 74.5 26.5t25.5 92.5t-25.5 92.5t-74.5 26.5t-74.5 -26.5t-25.5 -92.5t25.5 -92.5t74.5 -26.5z" />
    <glyph glyph-name="Ezhcaron" unicode="&#x1ee;" horiz-adv-x="750" 
d="M177 322l194 242l44 52l-128 -1h-220v165h599v-123l-160 -200l-35 -41q115 -20 180.5 -98.5t65.5 -216.5q0 -84 -29 -147t-79 -99t-110 -53.5t-129 -17.5q-170 0 -255 71.5t-87 198.5l188 23q3 -128 154 -128q77 0 121 37t44 115q0 82 -40 124t-115 42q-65 0 -107 -54z
M411 1030h183l-158 -208h-156l-158 208h183l53 -59z" />
    <glyph glyph-name="ezhcaron" unicode="&#x1ef;" horiz-adv-x="645" 
d="M310 -58q74 0 106.5 22.5t32.5 73.5q0 89 -122 95q-61 3 -115 -37l-81 90l199 185h-286v159h551v-121l-152 -139q189 -35 189 -235q0 -126 -85.5 -188.5t-233.5 -62.5q-313 0 -316 219l191 22q2 -39 32 -61t90 -22zM368 800h183l-158 -208h-156l-158 208h183l53 -59z" />
    <glyph glyph-name="jcaron" unicode="&#x1f0;" horiz-adv-x="290" 
d="M198 800h183l-158 -208h-156l-158 208h183l53 -59zM55 2v528h180v-553q0 -37 -11 -69.5t-36 -61t-71.5 -45.5t-110.5 -17q-66 0 -113 20l13 162q45 -29 94 -24q55 6 55 60z" />
    <glyph glyph-name="jcaron" unicode="&#xe10c;" horiz-adv-x="290" 
d="M198 800h183l-158 -208h-156l-158 208h183l53 -59zM55 2v528h180v-553q0 -37 -11 -69.5t-36 -61t-71.5 -45.5t-110.5 -17q-66 0 -113 20l13 162q45 -29 94 -24q55 6 55 60z" />
    <glyph glyph-name="Gacute" unicode="&#x1f4;" horiz-adv-x="805" 
d="M41 390q0 190 91 298t277 108q160 0 249.5 -69t91.5 -192l-188 -23q-1 64 -40.5 91.5t-112.5 27.5q-181 0 -181 -241q0 -237 181 -241q94 -2 151 21v127h-160v150h344v-383q-81 -48 -158.5 -64.5t-177.5 -15.5q-186 1 -276.5 108.5t-90.5 297.5zM405 1030h196l-111 -208
h-179z" />
    <glyph glyph-name="gacute" unicode="&#x1f5;" horiz-adv-x="644" 
d="M313 800h196l-111 -208h-179zM305 -69q110 0 110 71v67q-55 -59 -155 -59q-110 0 -171 67.5t-61 200.5t61 200.5t171 67.5q107 0 168 -73l12 57h165l-10 -154v-382q0 -55 -23.5 -96.5t-64 -65.5t-89 -36t-103.5 -12q-148 0 -215.5 38.5t-68.5 131.5l182 29
q1 -28 21.5 -40t70.5 -12zM212 278q0 -105 97 -105q68 0 106 50v110q-38 50 -106 50q-97 0 -97 -105z" />
    <glyph glyph-name="Ngrave" unicode="&#x1f8;" horiz-adv-x="768" 
d="M223 780l237 -344l72 -109l-1 145v308h185v-780h-171l-237 344l-72 109l1 -145v-308h-185v780h171zM188 1030h196l94 -208h-179z" />
    <glyph glyph-name="ngrave" unicode="&#x1f9;" horiz-adv-x="645" 
d="M133 800h196l94 -208h-179zM205 530l12 -57q64 73 168 73q108 0 163 -52.5t55 -168.5v-325h-180v302q0 44 -20 63t-58 18q-39 -1 -69.5 -16t-45.5 -34v-333h-180v376l-10 154h165z" />
    <glyph glyph-name="Aringacute" unicode="&#x1fa;" horiz-adv-x="754" 
d="M314 1134h148l-53 -92q42 -9 65 -40t23 -76q0 -54 -32 -87t-88 -33t-88 33t-32 87q0 29 8 48zM561 0l-41 133h-286l-41 -133h-198l273 790h218l273 -790h-198zM354 520l-74 -237h193l-73 237l-23 79zM405 926q0 28 -28 28t-28 -28t28 -28t28 28z" />
    <glyph glyph-name="aringacute" unicode="&#x1fb;" horiz-adv-x="612" 
d="M234 904h148l-53 -92q42 -9 65 -40t23 -76q0 -54 -32 -87t-88 -33t-88 33t-32 87q0 22 6 42zM325 696q0 28 -28 28t-28 -28t28 -28t28 28zM20 145q0 85 47.5 119.5t143.5 48.5l175 25v15q0 48 -76 48q-45 0 -63 -12.5t-20 -37.5l-182 22q0 41 11.5 70.5t39.5 53.5
t81.5 36.5t132.5 12.5q134 0 195 -50.5t61 -159.5v-182l10 -154h-165l-12 57q-30 -32 -83.5 -52.5t-120.5 -20.5q-80 0 -127.5 46.5t-47.5 114.5zM220 170q0 -18 12 -29.5t33 -11.5q33 0 67.5 15t53.5 34v55l-109 -16q-57 -10 -57 -47z" />
    <glyph glyph-name="AEacute" unicode="&#x1fc;" horiz-adv-x="1060" 
d="M540 1030h196l-111 -208h-179zM541 0l-24 166h-253l-81 -166h-204l418 780h613v-165h-381l22 -134h305v-165h-278l25 -151h327v-165h-489zM461 570l-124 -254h159l-29 210z" />
    <glyph glyph-name="aeacute" unicode="&#x1fd;" horiz-adv-x="966" 
d="M663 546q134 0 205.5 -72t71.5 -209v-51h-376q0 -40 27 -61.5t76 -21.5q81 0 84 34l182 -22q-2 -71 -64.5 -115t-194.5 -44q-136 0 -201 70q-90 -70 -227 -70q-113 0 -169.5 47t-56.5 122q0 167 211 167h155v33q0 48 -76 48q-45 0 -63 -12.5t-20 -37.5l-182 22
q0 41 11.5 70.5t39.5 53.5t81.5 36.5t132.5 12.5q124 0 182 -57q65 57 171 57zM478 800h196l-111 -208h-179zM205 167q0 -19 14.5 -31t40.5 -12q38 0 73 10.5t53 26.5v53h-118q-63 0 -63 -47zM664 399q-43 0 -69 -22t-28 -57h181q2 38 -21 58.5t-63 20.5z" />
    <glyph glyph-name="Oslashacute" unicode="&#x1fe;" horiz-adv-x="820" 
d="M778 390q0 -191 -89 -298.5t-279 -107.5q-114 0 -195 42l-18 -26h-106l53 78q-102 105 -102 312q0 191 89 298.5t279 107.5q114 0 195 -42l18 26h106l-53 -78q102 -105 102 -312zM410 631q-53 0 -90 -19t-56 -54.5t-27 -76t-8 -91.5q0 -95 25 -150l251 368q-39 23 -95 23
zM410 149q53 0 90 19t56 54.5t27 76t8 91.5q0 95 -25 150l-251 -368q39 -23 95 -23zM410 1030h196l-111 -208h-179z" />
    <glyph glyph-name="oslashacute" unicode="&#x1ff;" horiz-adv-x="620" 
d="M28 265q0 138 74.5 209.5t207.5 71.5q78 0 139 -26l7 10h88l-35 -48q83 -74 83 -217q0 -138 -74.5 -209.5t-207.5 -71.5q-78 0 -139 26l-7 -10h-88l35 48q-83 74 -83 217zM310 800h196l-111 -208h-179zM220 200l128 179q-20 5 -38 5q-49 0 -74.5 -26.5t-25.5 -92.5
q0 -37 10 -65zM400 330l-128 -179q20 -5 38 -5q49 0 74.5 26.5t25.5 92.5q0 37 -10 65z" />
    <glyph glyph-name="Adoublegrave" unicode="&#x200;" horiz-adv-x="754" 
d="M283 1030h196l94 -208h-179zM67 1030h196l94 -208h-179zM561 0l-41 133h-286l-41 -133h-198l273 790h218l273 -790h-198zM354 520l-74 -237h193l-73 237l-23 79z" />
    <glyph glyph-name="edoublegrave" unicode="&#x201;" horiz-adv-x="615" 
d="M589 214h-376q0 -40 27 -61.5t76 -21.5q81 0 84 34l182 -22q-2 -71 -64.5 -115t-194.5 -44q-141 0 -218 72.5t-77 208.5t75 208.5t209 72.5t205.5 -72t71.5 -209v-51zM313 399q-43 0 -69 -22t-28 -57h181q2 38 -21 58.5t-63 20.5zM228 800h196l94 -208h-179zM12 800h196
l94 -208h-179z" />
    <glyph glyph-name="edoublegrave" unicode="&#x205;" horiz-adv-x="615" 
d="M589 214h-376q0 -40 27 -61.5t76 -21.5q81 0 84 34l182 -22q-2 -71 -64.5 -115t-194.5 -44q-141 0 -218 72.5t-77 208.5t75 208.5t209 72.5t205.5 -72t71.5 -209v-51zM313 399q-43 0 -69 -22t-28 -57h181q2 38 -21 58.5t-63 20.5zM228 800h196l94 -208h-179zM12 800h196
l94 -208h-179z" />
    <glyph glyph-name="Ainvertedbreve" unicode="&#x202;" horiz-adv-x="754" 
d="M377 1046q115 0 165 -56.5t48 -167.5h-140q1 33 -16.5 47.5t-56.5 14.5t-56.5 -14.5t-16.5 -47.5h-140q-2 111 48 167.5t165 56.5zM561 0l-41 133h-286l-41 -133h-198l273 790h218l273 -790h-198zM354 520l-74 -237h193l-73 237l-23 79z" />
    <glyph glyph-name="ainvertedbreve" unicode="&#x203;" horiz-adv-x="612" 
d="M297 816q115 0 165 -56.5t48 -167.5h-140q1 33 -16.5 47.5t-56.5 14.5t-56.5 -14.5t-16.5 -47.5h-140q-2 111 48 167.5t165 56.5zM20 145q0 85 47.5 119.5t143.5 48.5l175 25v15q0 48 -76 48q-45 0 -63 -12.5t-20 -37.5l-182 22q0 41 11.5 70.5t39.5 53.5t81.5 36.5
t132.5 12.5q134 0 195 -50.5t61 -159.5v-182l10 -154h-165l-12 57q-30 -32 -83.5 -52.5t-120.5 -20.5q-80 0 -127.5 46.5t-47.5 114.5zM220 170q0 -18 12 -29.5t33 -11.5q33 0 67.5 15t53.5 34v55l-109 -16q-57 -10 -57 -47z" />
    <glyph glyph-name="Edoublegrave" unicode="&#x204;" horiz-adv-x="668" 
d="M52 780h566v-165h-381v-134h327v-165h-327v-151h401v-165h-586v780zM246 1030h196l94 -208h-179zM30 1030h196l94 -208h-179z" />
    <glyph glyph-name="Einvertedbreve" unicode="&#x206;" horiz-adv-x="668" 
d="M52 780h566v-165h-381v-134h327v-165h-327v-151h401v-165h-586v780zM340 1046q115 0 165 -56.5t48 -167.5h-140q1 33 -16.5 47.5t-56.5 14.5t-56.5 -14.5t-16.5 -47.5h-140q-2 111 48 167.5t165 56.5z" />
    <glyph glyph-name="einvertedbreve" unicode="&#x207;" horiz-adv-x="615" 
d="M589 214h-376q0 -40 27 -61.5t76 -21.5q81 0 84 34l182 -22q-2 -71 -64.5 -115t-194.5 -44q-141 0 -218 72.5t-77 208.5t75 208.5t209 72.5t205.5 -72t71.5 -209v-51zM313 399q-43 0 -69 -22t-28 -57h181q2 38 -21 58.5t-63 20.5zM312 816q115 0 165 -56.5t48 -167.5
h-140q1 33 -16.5 47.5t-56.5 14.5t-56.5 -14.5t-16.5 -47.5h-140q-2 111 48 167.5t165 56.5z" />
    <glyph glyph-name="Idoublegrave" unicode="&#x208;" horiz-adv-x="311" 
d="M248 780v-780h-185v780h185zM61 1030h196l94 -208h-179zM-155 1030h196l94 -208h-179z" />
    <glyph glyph-name="idoublegrave" unicode="&#x209;" horiz-adv-x="290" 
d="M55 0v530h180v-530h-180zM61 800h196l94 -208h-179zM-155 800h196l94 -208h-179z" />
    <glyph glyph-name="Iinvertedbreve" unicode="&#x20a;" horiz-adv-x="311" 
d="M248 780v-780h-185v780h185zM155 1046q115 0 165 -56.5t48 -167.5h-140q1 33 -16.5 47.5t-56.5 14.5t-56.5 -14.5t-16.5 -47.5h-140q-2 111 48 167.5t165 56.5z" />
    <glyph glyph-name="iinvertedbreve" unicode="&#x20b;" horiz-adv-x="290" 
d="M55 0v530h180v-530h-180zM145 816q115 0 165 -56.5t48 -167.5h-140q1 33 -16.5 47.5t-56.5 14.5t-56.5 -14.5t-16.5 -47.5h-140q-2 111 48 167.5t165 56.5z" />
    <glyph glyph-name="Odoublegrave" unicode="&#x20c;" horiz-adv-x="820" 
d="M410 -16q-189 0 -278.5 107.5t-89.5 298.5t89 298.5t279 107.5q189 0 278.5 -107.5t89.5 -298.5t-89 -298.5t-279 -107.5zM410 631q-53 0 -90 -19t-56 -54.5t-27 -76t-8 -91.5t8 -91.5t27 -76t56 -54.5t90 -19t90 19t56 54.5t27 76t8 91.5t-8 91.5t-27 76t-56 54.5
t-90 19zM316 1030h196l94 -208h-179zM100 1030h196l94 -208h-179z" />
    <glyph glyph-name="odoublegrave" unicode="&#x20d;" horiz-adv-x="620" 
d="M310 -16q-133 0 -207.5 71.5t-74.5 209.5t74.5 209.5t207.5 71.5t207.5 -71.5t74.5 -209.5t-74.5 -209.5t-207.5 -71.5zM310 146q49 0 74.5 26.5t25.5 92.5t-25.5 92.5t-74.5 26.5t-74.5 -26.5t-25.5 -92.5t25.5 -92.5t74.5 -26.5zM226 800h196l94 -208h-179zM10 800h196
l94 -208h-179z" />
    <glyph glyph-name="Oinvertedbreve" unicode="&#x20e;" horiz-adv-x="820" 
d="M410 631q-53 0 -90 -19t-56 -54.5t-27 -76t-8 -91.5t8 -91.5t27 -76t56 -54.5t90 -19t90 19t56 54.5t27 76t8 91.5t-8 91.5t-27 76t-56 54.5t-90 19zM410 -16q-189 0 -278.5 107.5t-89.5 298.5t89 298.5t279 107.5q189 0 278.5 -107.5t89.5 -298.5t-89 -298.5
t-279 -107.5zM410 1046q115 0 165 -56.5t48 -167.5h-140q1 33 -16.5 47.5t-56.5 14.5t-56.5 -14.5t-16.5 -47.5h-140q-2 111 48 167.5t165 56.5z" />
    <glyph glyph-name="oinvertedbreve" unicode="&#x20f;" horiz-adv-x="620" 
d="M310 146q49 0 74.5 26.5t25.5 92.5t-25.5 92.5t-74.5 26.5t-74.5 -26.5t-25.5 -92.5t25.5 -92.5t74.5 -26.5zM310 -16q-133 0 -207.5 71.5t-74.5 209.5t74.5 209.5t207.5 71.5t207.5 -71.5t74.5 -209.5t-74.5 -209.5t-207.5 -71.5zM310 816q115 0 165 -56.5t48 -167.5
h-140q1 33 -16.5 47.5t-56.5 14.5t-56.5 -14.5t-16.5 -47.5h-140q-2 111 48 167.5t165 56.5z" />
    <glyph glyph-name="Rinvertedbreve" unicode="&#x212;" horiz-adv-x="725" 
d="M237 269v-269h-185v780h345q294 0 294 -255q0 -181 -140 -233l178 -292h-222l-152 269h-118zM237 435h174q18 0 31.5 2.5t28.5 11t23.5 28t8.5 48.5q0 38 -16 59.5t-33.5 26t-42.5 4.5h-174v-180zM346 1046q115 0 165 -56.5t48 -167.5h-140q1 33 -16.5 47.5t-56.5 14.5
t-56.5 -14.5t-16.5 -47.5h-140q-2 111 48 167.5t165 56.5z" />
    <glyph glyph-name="rinvertedbreve" unicode="&#x213;" horiz-adv-x="436" 
d="M225 816q115 0 165 -56.5t48 -167.5h-140q1 33 -16.5 47.5t-56.5 14.5t-56.5 -14.5t-16.5 -47.5h-140q-2 111 48 167.5t165 56.5zM352 546q45 0 74 -13l-13 -168q-28 8 -50 8q-94 0 -133 -50v-323h-180v376l-10 154h165l12 -57q22 34 58.5 53.5t76.5 19.5z" />
    <glyph glyph-name="Udoublegrave" unicode="&#x214;" horiz-adv-x="746" 
d="M373 148q89 0 117.5 36.5t28.5 106.5v489h185v-493q0 -69 -15.5 -121t-52 -94.5t-102.5 -65t-161 -22.5t-161 22.5t-102.5 65t-52 94.5t-15.5 121v493h185v-489q0 -70 28.5 -106.5t117.5 -36.5zM63 1030h196l94 -208h-179zM279 1030h196l94 -208h-179z" />
    <glyph glyph-name="udoublegrave" unicode="&#x215;" horiz-adv-x="645" 
d="M18 800h196l94 -208h-179zM234 800h196l94 -208h-179zM440 0l-12 57q-64 -73 -168 -73q-108 0 -163 52.5t-55 168.5v325h180v-302q0 -44 20 -63t58 -18q39 1 69.5 16t45.5 34v333h180v-376l10 -154h-165z" />
    <glyph glyph-name="Uinvertedbreve" unicode="&#x216;" horiz-adv-x="746" 
d="M373 148q89 0 117.5 36.5t28.5 106.5v489h185v-493q0 -69 -15.5 -121t-52 -94.5t-102.5 -65t-161 -22.5t-161 22.5t-102.5 65t-52 94.5t-15.5 121v493h185v-489q0 -70 28.5 -106.5t117.5 -36.5zM373 1046q115 0 165 -56.5t48 -167.5h-140q1 33 -16.5 47.5t-56.5 14.5
t-56.5 -14.5t-16.5 -47.5h-140q-2 111 48 167.5t165 56.5z" />
    <glyph glyph-name="uinvertedbreve" unicode="&#x217;" horiz-adv-x="645" 
d="M324 816q115 0 165 -56.5t48 -167.5h-140q1 33 -16.5 47.5t-56.5 14.5t-56.5 -14.5t-16.5 -47.5h-140q-2 111 48 167.5t165 56.5zM440 0l-12 57q-64 -73 -168 -73q-108 0 -163 52.5t-55 168.5v325h180v-302q0 -44 20 -63t58 -18q39 1 69.5 16t45.5 34v333h180v-376
l10 -154h-165z" />
    <glyph glyph-name="Scommaaccent" unicode="&#x218;" horiz-adv-x="722" 
d="M367 149q64 2 104.5 22t39.5 68q-1 40 -33.5 58t-118.5 22q-55 2 -94 7t-83 19t-71 36t-45.5 61t-19.5 93q-3 128 85 194.5t221 66.5q168 0 253.5 -68t87.5 -193l-188 -23q-1 65 -39 93t-114 26q-49 -1 -85.5 -22.5t-35.5 -69.5q1 -33 26.5 -44t109.5 -16
q70 -4 116.5 -11t89 -22t67 -40.5t39 -65.5t15.5 -97q1 -67 -26 -118.5t-74.5 -81.5t-104.5 -44.5t-122 -14.5q-182 0 -260.5 66t-80.5 195l188 23q1 -65 39.5 -93t113.5 -26zM262 -62h191l-35 -138h-167z" />
    <glyph glyph-name="scommaaccent" unicode="&#x219;" horiz-adv-x="570" 
d="M279 125q83 0 83 43q0 20 -20 26.5t-71 9.5q-122 9 -162 24q-76 28 -80 119v12q0 50 23.5 88t62 58.5t81.5 30.5t88 10q128 0 190.5 -38.5t63.5 -127.5l-182 -22q-1 24 -16 35.5t-56 11.5q-27 0 -44 -10.5t-17 -27.5q0 -19 18 -26.5t67 -10.5q115 -7 153 -19
q81 -27 88 -118q1 -10 1 -21q0 -51 -23.5 -89t-64 -59t-86.5 -30.5t-98 -9.5q-136 0 -197.5 40t-62.5 133l182 22q1 -54 79 -54zM185 -62h191l-35 -138h-167z" />
    <glyph glyph-name="Hcaron" unicode="&#x21e;" horiz-adv-x="748" 
d="M511 780h185v-780h-185v316h-274v-316h-185v780h185v-299h274v299zM427 1030h183l-158 -208h-156l-158 208h183l53 -59z" />
    <glyph glyph-name="hcaron" unicode="&#x21f;" horiz-adv-x="639" 
d="M187 1030h183l-158 -208h-156l-158 208h183l53 -59zM44 0v800h180v-314q58 60 155 60q108 0 163 -52.5t55 -168.5v-325h-180v302q0 44 -20 63t-58 18q-39 -1 -69.5 -16t-45.5 -34v-333h-180z" />
    <glyph glyph-name="Adotabove" unicode="&#x226;" horiz-adv-x="754" 
d="M469 1010v-182h-184v182h184zM561 0l-41 133h-286l-41 -133h-198l273 790h218l273 -790h-198zM354 520l-74 -237h193l-73 237l-23 79z" />
    <glyph glyph-name="adotabove" unicode="&#x227;" horiz-adv-x="612" 
d="M388 780v-182h-184v182h184zM20 145q0 85 47.5 119.5t143.5 48.5l175 25v15q0 48 -76 48q-45 0 -63 -12.5t-20 -37.5l-182 22q0 41 11.5 70.5t39.5 53.5t81.5 36.5t132.5 12.5q134 0 195 -50.5t61 -159.5v-182l10 -154h-165l-12 57q-30 -32 -83.5 -52.5t-120.5 -20.5
q-80 0 -127.5 46.5t-47.5 114.5zM220 170q0 -18 12 -29.5t33 -11.5q33 0 67.5 15t53.5 34v55l-109 -16q-57 -10 -57 -47z" />
    <glyph glyph-name="Otildemacron" unicode="&#x22c;" horiz-adv-x="820" 
d="M410 -16q-189 0 -278.5 107.5t-89.5 298.5t89 298.5t279 107.5q189 0 278.5 -107.5t89.5 -298.5t-89 -298.5t-279 -107.5zM410 631q-53 0 -90 -19t-56 -54.5t-27 -76t-8 -91.5t8 -91.5t27 -76t56 -54.5t90 -19t90 19t56 54.5t27 76t8 91.5t-8 91.5t-27 76t-56 54.5
t-90 19zM491 806q-36 0 -66 12t-45.5 26t-32.5 26t-32 12q-16 0 -25 -12t-10 -24l-2 -11l-124 15q9 83 51.5 139.5t123.5 56.5q36 0 66 -12t45.5 -26t32.5 -26t32 -12q16 0 25 12t10 24l2 11l124 -15q-9 -83 -51.5 -139.5t-123.5 -56.5zM576 1066h-332v164h332v-164z" />
    <glyph glyph-name="otildemacron" unicode="&#x22d;" horiz-adv-x="620" 
d="M310 146q49 0 74.5 26.5t25.5 92.5t-25.5 92.5t-74.5 26.5t-74.5 -26.5t-25.5 -92.5t25.5 -92.5t74.5 -26.5zM310 -16q-133 0 -207.5 71.5t-74.5 209.5t74.5 209.5t207.5 71.5t207.5 -71.5t74.5 -209.5t-74.5 -209.5t-207.5 -71.5zM391 556q-36 0 -66 12t-45.5 26
t-32.5 26t-32 12q-16 0 -25 -12t-10 -24l-2 -11l-124 15q9 83 51.5 139.5t123.5 56.5q36 0 66 -12t45.5 -26t32.5 -26t32 -12q16 0 25 12t10 24l2 11l124 -15q-9 -83 -51.5 -139.5t-123.5 -56.5zM476 816h-332v164h332v-164z" />
    <glyph glyph-name="Odotabove" unicode="&#x22e;" horiz-adv-x="820" 
d="M410 631q-53 0 -90 -19t-56 -54.5t-27 -76t-8 -91.5t8 -91.5t27 -76t56 -54.5t90 -19t90 19t56 54.5t27 76t8 91.5t-8 91.5t-27 76t-56 54.5t-90 19zM410 -16q-189 0 -278.5 107.5t-89.5 298.5t89 298.5t279 107.5q189 0 278.5 -107.5t89.5 -298.5t-89 -298.5
t-279 -107.5zM502 1010v-182h-184v182h184z" />
    <glyph glyph-name="odotabove" unicode="&#x22f;" horiz-adv-x="620" 
d="M310 146q49 0 74.5 26.5t25.5 92.5t-25.5 92.5t-74.5 26.5t-74.5 -26.5t-25.5 -92.5t25.5 -92.5t74.5 -26.5zM310 -16q-133 0 -207.5 71.5t-74.5 209.5t74.5 209.5t207.5 71.5t207.5 -71.5t74.5 -209.5t-74.5 -209.5t-207.5 -71.5zM402 780v-182h-184v182h184z" />
    <glyph glyph-name="odotabovemacron" unicode="&#x231;" horiz-adv-x="620" 
d="M310 146q49 0 74.5 26.5t25.5 92.5t-25.5 92.5t-74.5 26.5t-74.5 -26.5t-25.5 -92.5t25.5 -92.5t74.5 -26.5zM310 -16q-133 0 -207.5 71.5t-74.5 209.5t74.5 209.5t207.5 71.5t207.5 -71.5t74.5 -209.5t-74.5 -209.5t-207.5 -71.5zM402 760v-182h-184v182h184zM476 786
h-332v164h332v-164z" />
    <glyph glyph-name="odotabovemacron" unicode="&#xe11e;" horiz-adv-x="620" 
d="M310 146q49 0 74.5 26.5t25.5 92.5t-25.5 92.5t-74.5 26.5t-74.5 -26.5t-25.5 -92.5t25.5 -92.5t74.5 -26.5zM310 -16q-133 0 -207.5 71.5t-74.5 209.5t74.5 209.5t207.5 71.5t207.5 -71.5t74.5 -209.5t-74.5 -209.5t-207.5 -71.5zM402 760v-182h-184v182h184zM476 786
h-332v164h332v-164z" />
    <glyph glyph-name="Ymacron" unicode="&#x232;" horiz-adv-x="730" 
d="M531 846h-332v164h332v-164zM-30 780h218l125 -219l52 -91l52 92l125 218h218l-302 -485v-295h-186v295z" />
    <glyph glyph-name="ymacron" unicode="&#x233;" horiz-adv-x="626" 
d="M479 616h-332v164h332v-164zM635 530l-228 -497l-98 -233h-208l113 242l-223 488h201l61 -163l60 -171l61 171l60 163h201z" />
    <glyph glyph-name="dotlessj" unicode="&#x237;" horiz-adv-x="290" 
d="M55 2v528h180v-553q0 -37 -11 -69.5t-36 -61t-71.5 -45.5t-110.5 -17q-66 0 -113 20l13 162q45 -29 94 -24q55 6 55 60z" />
    <glyph glyph-name="schwa" unicode="&#x259;" horiz-adv-x="615" 
d="M303 -16q-134 0 -205.5 72t-71.5 209v51h376q0 40 -27 61.5t-76 21.5q-81 0 -84 -34l-182 22q2 71 64.5 115t194.5 44q141 0 218 -72.5t77 -208.5t-75 -208.5t-209 -72.5zM302 131q43 0 69 22t28 57h-181q-2 -38 21 -58.5t63 -20.5z" />
    <glyph glyph-name="ezh" unicode="&#x292;" horiz-adv-x="645" 
d="M313 -216q-313 0 -316 219l191 22q2 -39 32 -61t90 -22q74 0 106.5 22.5t32.5 73.5q0 89 -122 95q-61 3 -115 -37l-81 90l100 93l99 92h-286v159h551v-121l-152 -139q189 -35 189 -235q0 -126 -85.5 -188.5t-233.5 -62.5z" />
    <glyph glyph-name="circumflex" unicode="&#x2c6;" horiz-adv-x="600" 
d="M247 592h-183l158 208h156l158 -208h-183l-53 59z" />
    <glyph glyph-name="caron" unicode="&#x2c7;" horiz-adv-x="600" 
d="M353 800h183l-158 -208h-156l-158 208h183l53 -59z" />
    <glyph glyph-name="breve" unicode="&#x2d8;" horiz-adv-x="600" 
d="M300 576q-115 0 -165 56.5t-48 167.5h140q-1 -33 16.5 -47.5t56.5 -14.5t56.5 14.5t16.5 47.5h140q2 -111 -48 -167.5t-165 -56.5z" />
    <glyph glyph-name="dotaccent" unicode="&#x2d9;" horiz-adv-x="600" 
d="M392 780v-182h-184v182h184z" />
    <glyph glyph-name="ring" unicode="&#x2da;" horiz-adv-x="600" 
d="M180 696q0 54 32 87t88 33t88 -33t32 -87t-32 -87t-88 -33t-88 33t-32 87zM321 696q0 21 -21 21t-21 -21t21 -21t21 21z" />
    <glyph glyph-name="ogonek" unicode="&#x2db;" horiz-adv-x="600" 
d="M456 77l50 -77q-47 -4 -76.5 -27t-25.5 -46q5 -28 43 -20q9 2 18 6t13 7l5 3l34 -114q-40 -25 -105 -25q-111 0 -133 91q-18 73 40 127.5t137 74.5z" />
    <glyph glyph-name="tilde" unicode="&#x2dc;" horiz-adv-x="600" 
d="M381 576q-36 0 -66 12t-45.5 26t-32.5 26t-32 12q-16 0 -25 -12t-10 -24l-2 -11l-124 15q9 83 51.5 139.5t123.5 56.5q36 0 66 -12t45.5 -26t32.5 -26t32 -12q16 0 25 12t10 24l2 11l124 -15q-9 -83 -51.5 -139.5t-123.5 -56.5z" />
    <glyph glyph-name="hungarumlaut" unicode="&#x2dd;" horiz-adv-x="600" 
d="M198 800h196l-111 -208h-179zM414 800h196l-111 -208h-179z" />
    <glyph glyph-name="uni0312" unicode="&#x312;" horiz-adv-x="600" 
d="M392 592h-191l53 208h155z" />
    <glyph glyph-name="uni0323" unicode="&#x323;" horiz-adv-x="600" 
d="M392 -40v-160h-184v160h184z" />
    <glyph glyph-name="uni0329" unicode="&#x329;" horiz-adv-x="600" 
d="M350 -200h-100v160h100v-160z" />
    <glyph glyph-name="pi" unicode="&#x3c0;" horiz-adv-x="786" 
d="M751 370h-149v-168q0 -54 55 -60q49 -5 94 24l13 -162q-47 -20 -113 -20q-64 0 -110.5 17t-71.5 45.5t-36 61t-11 69.5v193h-97v-272l-25 -98h-165l10 154v216h-117v160h723v-160z" />
    <glyph glyph-name="afii10023" unicode="&#x401;" horiz-adv-x="668" 
d="M52 780h566v-165h-381v-134h327v-165h-327v-151h401v-165h-586v780zM312 1010v-182h-184v182h184zM552 1010v-182h-184v182h184z" />
    <glyph glyph-name="afii10051" unicode="&#x402;" horiz-adv-x="821" 
d="M508 147q41 0 67 24.5t26 69.5q0 46 -28 69.5t-79 23.5q-35 0 -73 -16t-45 -40v-278h-185v615h-174v165h533v-165h-174v-174q55 56 172 56q237 0 237 -256q0 -257 -237 -257q-70 0 -117 20l13 155q31 -12 64 -12z" />
    <glyph glyph-name="afii10052" unicode="&#x403;" horiz-adv-x="600" 
d="M237 615v-615h-185v780h540v-165h-355zM337 1030h196l-111 -208h-179z" />
    <glyph glyph-name="afii10053" unicode="&#x404;" horiz-adv-x="743" 
d="M41 390q0 406 353 406q158 0 241 -68.5t85 -192.5l-188 -23q-1 65 -34 92t-104 27q-138 0 -161 -150h271v-165h-273q9 -79 46 -123t117 -44q71 0 104 27t34 92l188 -23q-2 -124 -85 -192.5t-241 -68.5q-353 0 -353 406z" />
    <glyph glyph-name="afii10054" unicode="&#x405;" horiz-adv-x="722" 
d="M367 -16q-182 0 -260.5 66t-80.5 195l188 23q1 -65 39.5 -93t113.5 -26q64 2 104.5 22t39.5 68q-1 40 -33.5 58t-118.5 22q-55 2 -94 7t-83 19t-71 36t-45.5 61t-19.5 93q-3 128 85 194.5t221 66.5q168 0 253.5 -68t87.5 -193l-188 -23q-1 65 -39 93t-114 26
q-49 -1 -85.5 -22.5t-35.5 -69.5q1 -33 26.5 -44t109.5 -16q70 -4 116.5 -11t89 -22t67 -40.5t39 -65.5t15.5 -97q1 -67 -26 -118.5t-74.5 -81.5t-104.5 -44.5t-122 -14.5z" />
    <glyph glyph-name="afii10055" unicode="&#x406;" horiz-adv-x="311" 
d="M248 780v-780h-185v780h185z" />
    <glyph glyph-name="afii10056" unicode="&#x407;" horiz-adv-x="311" 
d="M248 780v-780h-185v780h185zM127 1010v-182h-184v182h184zM367 1010v-182h-184v182h184z" />
    <glyph glyph-name="afii10057" unicode="&#x408;" horiz-adv-x="555" 
d="M328 780h185v-561q0 -235 -255 -235q-137 0 -192.5 61t-57.5 166l183 22q2 -44 15.5 -64.5t51.5 -20.5q39 0 54.5 17t15.5 53v562z" />
    <glyph glyph-name="afii10058" unicode="&#x409;" horiz-adv-x="1135" 
d="M672 780v-304h173q59 0 104 -9.5t86 -33.5t63 -73.5t22 -121.5t-22 -121.5t-63 -73.5t-86 -33.5t-104 -9.5h-358v615h-116l-30 -245q-32 -221 -91.5 -295.5t-209.5 -74.5h-22v165h12q32 0 52.5 16.5t38.5 72.5t32 161l44 365h475zM672 311v-146h175q41 0 63 15t22 58
t-22 58t-63 15h-175z" />
    <glyph glyph-name="afii10059" unicode="&#x40a;" horiz-adv-x="1159" 
d="M696 780v-304h173q59 0 104 -9.5t86 -33.5t63 -73.5t22 -121.5t-22 -121.5t-63 -73.5t-86 -33.5t-104 -9.5h-358v311h-274v-311h-185v780h185v-304h274v304h185zM696 311v-146h175q41 0 63 15t22 58t-22 58t-63 15h-175z" />
    <glyph glyph-name="afii10060" unicode="&#x40b;" horiz-adv-x="771" 
d="M376 615v-193q43 43 85 59t101 16q71 0 119 -39t48 -116v-342h-185v269q0 61 -66 61q-41 0 -71 -21t-31 -59v-250h-185v615h-174v165h533v-165h-174z" />
    <glyph glyph-name="afii10061" unicode="&#x40c;" horiz-adv-x="761" 
d="M742 780l-187 -304q-32 -53 -73 -76q45 -25 78 -79l197 -321h-218l-156 277q-22 39 -67 39h-79v-316h-185v780h185v-299h74q45 0 67 39l146 260h218zM366 1030h196l-111 -208h-179z" />
    <glyph glyph-name="afii10062" unicode="&#x40e;" horiz-adv-x="791" 
d="M236 780l179 -401l170 401h196l-250 -561q-31 -69 -53 -107.5t-55.5 -70.5t-76.5 -44.5t-106 -12.5q-91 0 -153 34l20 166q57 -36 133 -36q57 0 84 32l-284 600h196zM410 806q-115 0 -165 56.5t-48 167.5h140q-1 -33 16.5 -47.5t56.5 -14.5t56.5 14.5t16.5 47.5h140
q2 -111 -48 -167.5t-165 -56.5z" />
    <glyph glyph-name="afii10145" unicode="&#x40f;" horiz-adv-x="748" 
d="M237 780v-615h274v615h185v-780h-232v-160h-180v160h-232v780h185z" />
    <glyph glyph-name="afii10017" unicode="&#x410;" horiz-adv-x="754" 
d="M561 0l-41 133h-286l-41 -133h-198l273 790h218l273 -790h-198zM354 520l-74 -237h193l-73 237l-23 79z" />
    <glyph glyph-name="afii10018" unicode="&#x411;" 
d="M237 615v-139h173q59 0 104 -9.5t86 -33.5t63 -73.5t22 -121.5t-22 -121.5t-63 -73.5t-86 -33.5t-104 -9.5h-358v780h540v-165h-355zM237 311v-146h175q41 0 63 15t22 58t-22 58t-63 15h-175z" />
    <glyph glyph-name="afii10019" unicode="&#x412;" horiz-adv-x="710" 
d="M410 0h-358v780h352q255 0 255 -216q0 -110 -67 -153q45 -14 69 -63t24 -114q0 -71 -22 -119t-63 -72t-86 -33.5t-104 -9.5zM237 165h165q25 0 42.5 3t35 20.5t17.5 49.5q0 33 -15 51.5t-32.5 22.5t-43.5 4h-169v-151zM394 615h-157v-134h157q39 0 58 14.5t19 54.5
q0 38 -19 51.5t-58 13.5z" />
    <glyph glyph-name="afii10020" unicode="&#x413;" horiz-adv-x="600" 
d="M237 615v-615h-185v780h540v-165h-355z" />
    <glyph glyph-name="afii10021" unicode="&#x414;" horiz-adv-x="834" 
d="M20 -160v325h36q47 0 74 51t45 199l44 365h475v-615h130v-325h-180v160h-444v-160h-180zM393 615l-30 -245q-16 -133 -58 -205h204v450h-116z" />
    <glyph glyph-name="afii10022" unicode="&#x415;" horiz-adv-x="668" 
d="M52 780h566v-165h-381v-134h327v-165h-327v-151h401v-165h-586v780z" />
    <glyph glyph-name="afii10024" unicode="&#x416;" horiz-adv-x="1073" 
d="M233 0h-219l157 321q28 56 70 79q-40 28 -63 76l-149 304h219l114 -260q17 -39 62 -39h20v299h185v-299h20q45 0 62 39l114 260h219l-149 -304q-23 -48 -63 -76q42 -23 70 -79l157 -321h-219l-122 277q-17 39 -62 39h-27v-316h-185v316h-27q-45 0 -62 -39z" />
    <glyph glyph-name="afii10025" unicode="&#x417;" 
d="M680 233q0 -119 -86.5 -184t-257.5 -65q-158 0 -238.5 68t-82.5 193l188 23q1 -66 32 -92.5t101 -26.5q81 0 121 19.5t40 64.5q0 50 -29 63.5t-94 13.5h-127v162h127q27 0 39.5 1.5t27.5 7.5t20.5 20.5t5.5 38.5q0 41 -35.5 58.5t-87.5 16.5q-72 0 -102 -22.5t-31 -86.5
l-188 23q3 251 321 251q64 0 117 -12.5t96.5 -39.5t68 -75t24.5 -113q0 -98 -70 -143q42 -19 71 -63t29 -101z" />
    <glyph glyph-name="afii10026" unicode="&#x418;" horiz-adv-x="768" 
d="M532 468l-72 -114l-224 -354h-184v780h185v-318l-1 -150l72 114l224 354h184v-780h-185v318z" />
    <glyph glyph-name="afii10027" unicode="&#x419;" horiz-adv-x="768" 
d="M532 468l-72 -114l-224 -354h-184v780h185v-318l-1 -150l72 114l224 354h184v-780h-185v318zM457 1030h140q2 -111 -48 -167.5t-165 -56.5t-165 56.5t-48 167.5h140q-1 -33 16.5 -47.5t56.5 -14.5t56.5 14.5t16.5 47.5z" />
    <glyph glyph-name="afii10028" unicode="&#x41a;" horiz-adv-x="761" 
d="M742 780l-187 -304q-32 -53 -73 -76q45 -25 78 -79l197 -321h-218l-156 277q-22 39 -67 39h-79v-316h-185v780h185v-299h74q45 0 67 39l146 260h218z" />
    <glyph glyph-name="afii10029" unicode="&#x41b;" horiz-adv-x="724" 
d="M672 780v-780h-185v615h-116l-30 -245q-14 -113 -33.5 -182t-55.5 -112.5t-85 -59.5t-127 -16h-22v165h12q24 0 40.5 9t33 34.5t28 76.5t21.5 130l44 365h475z" />
    <glyph glyph-name="afii10030" unicode="&#x41c;" horiz-adv-x="906" 
d="M384 0l-150 454v-454h-182v780h233l129 -385l39 -116l40 118l128 383h233v-780h-182v454l-150 -454h-138z" />
    <glyph glyph-name="afii10031" unicode="&#x41d;" horiz-adv-x="748" 
d="M511 780h185v-780h-185v316h-274v-316h-185v780h185v-299h274v299z" />
    <glyph glyph-name="afii10032" unicode="&#x41e;" horiz-adv-x="820" 
d="M410 -16q-189 0 -278.5 107.5t-89.5 298.5t89 298.5t279 107.5q189 0 278.5 -107.5t89.5 -298.5t-89 -298.5t-279 -107.5zM410 631q-53 0 -90 -19t-56 -54.5t-27 -76t-8 -91.5t8 -91.5t27 -76t56 -54.5t90 -19t90 19t56 54.5t27 76t8 91.5t-8 91.5t-27 76t-56 54.5
t-90 19z" />
    <glyph glyph-name="afii10033" unicode="&#x41f;" horiz-adv-x="748" 
d="M696 780v-780h-185v615h-274v-615h-185v780h644z" />
    <glyph glyph-name="afii10034" unicode="&#x420;" horiz-adv-x="680" 
d="M237 415h149q87 0 87 100q0 56 -25.5 78t-61.5 22h-149v-200zM237 249v-249h-185v780h320q58 0 105.5 -12t91 -39.5t68 -82t24.5 -131.5q0 -266 -285 -266h-139z" />
    <glyph glyph-name="afii10035" unicode="&#x421;" horiz-adv-x="743" 
d="M228 390q0 -53 6 -91.5t22.5 -75t51 -55.5t86.5 -19q71 0 104 27t34 92l188 -23q-2 -124 -85 -192.5t-241 -68.5q-353 0 -353 406t353 406q158 0 241 -68.5t85 -192.5l-188 -23q-1 65 -34 92t-104 27q-52 0 -86.5 -19t-51 -55.5t-22.5 -75t-6 -91.5z" />
    <glyph glyph-name="afii10036" unicode="&#x422;" horiz-adv-x="647" 
d="M416 615v-615h-185v615h-214v165h613v-165h-214z" />
    <glyph glyph-name="afii10037" unicode="&#x423;" horiz-adv-x="791" 
d="M236 780l179 -401l170 401h196l-250 -561q-31 -69 -53 -107.5t-55.5 -70.5t-76.5 -44.5t-106 -12.5q-91 0 -153 34l20 166q57 -36 133 -36q57 0 84 32l-284 600h196z" />
    <glyph glyph-name="afii10038" unicode="&#x424;" horiz-adv-x="847" 
d="M15 390q0 136 83.5 208.5t232.5 72.5v109h185v-109q149 0 232.5 -72.5t83.5 -208.5t-83.5 -208.5t-232.5 -72.5v-109h-185v109q-149 0 -232.5 72.5t-83.5 208.5zM203 390q0 -61 35 -90.5t93 -29.5v240q-58 0 -93 -29.5t-35 -90.5zM644 390q0 61 -35 90.5t-93 29.5v-240
q58 0 93 29.5t35 90.5z" />
    <glyph glyph-name="afii10039" unicode="&#x425;" horiz-adv-x="788" 
d="M394 255l-85 -127l-85 -128h-222l223 314l61 86l-59 83l-209 297h219l79 -119l78 -119l79 119l78 119h219l-218 -308l-50 -72l52 -73l232 -327h-222l-85 128z" />
    <glyph glyph-name="afii10040" unicode="&#x426;" horiz-adv-x="836" 
d="M646 0h-594v780h185v-615h274v615h185v-615h130v-325h-180v160z" />
    <glyph glyph-name="afii10041" unicode="&#x427;" horiz-adv-x="728" 
d="M676 780v-780h-185v318q-65 -55 -190 -55q-111 0 -182 53.5t-71 168.5v295h185v-254q0 -86 105 -86q106 0 153 59v281h185z" />
    <glyph glyph-name="afii10042" unicode="&#x428;" horiz-adv-x="997" 
d="M945 0h-893v780h185v-615h169v615h185v-615h169v615h185v-780z" />
    <glyph glyph-name="afii10043" unicode="&#x429;" horiz-adv-x="1085" 
d="M895 0h-843v780h185v-615h169v615h185v-615h169v615h185v-615h130v-325h-180v160z" />
    <glyph glyph-name="afii10044" unicode="&#x42a;" horiz-adv-x="831" 
d="M368 780v-304h173q59 0 104 -9.5t86 -33.5t63 -73.5t22 -121.5t-22 -121.5t-63 -73.5t-86 -33.5t-104 -9.5h-358v615h-175v165h360zM368 311v-146h175q41 0 63 15t22 58t-22 58t-63 15h-175z" />
    <glyph glyph-name="afii10045" unicode="&#x42b;" horiz-adv-x="980" 
d="M52 780h185v-304h173q59 0 104 -9.5t86 -33.5t63 -73.5t22 -121.5t-22 -121.5t-63 -73.5t-86 -33.5t-104 -9.5h-358v780zM412 311h-175v-146h175q41 0 63 15t22 58t-22 58t-63 15zM917 780v-780h-185v780h185z" />
    <glyph glyph-name="afii10046" unicode="&#x42c;" 
d="M52 780h185v-304h173q59 0 104 -9.5t86 -33.5t63 -73.5t22 -121.5t-22 -121.5t-63 -73.5t-86 -33.5t-104 -9.5h-358v780zM412 311h-175v-146h175q41 0 63 15t22 58t-22 58t-63 15z" />
    <glyph glyph-name="afii10047" unicode="&#x42d;" horiz-adv-x="743" 
d="M702 390q0 -406 -353 -406q-158 0 -241 68.5t-85 192.5l188 23q1 -65 34 -92t104 -27q80 0 117 44t45 123h-272v165h270q-11 71 -47.5 110.5t-112.5 39.5q-71 0 -104 -27t-34 -92l-188 23q2 124 85 192.5t241 68.5q353 0 353 -406z" />
    <glyph glyph-name="afii10048" unicode="&#x42e;" horiz-adv-x="1120" 
d="M710 -16q-330 0 -365 332h-108v-316h-185v780h185v-299h110q20 150 108.5 232.5t254.5 82.5q189 0 278.5 -107.5t89.5 -298.5t-89 -298.5t-279 -107.5zM710 631q-53 0 -90 -19t-56 -54.5t-27 -76t-8 -91.5t8 -91.5t27 -76t56 -54.5t90 -19t90 19t56 54.5t27 76t8 91.5
t-8 91.5t-27 76t-56 54.5t-90 19z" />
    <glyph glyph-name="afii10049" unicode="&#x42f;" horiz-adv-x="725" 
d="M-4 0l138 225q25 41 51 64q-151 52 -151 236q0 255 294 255h345v-780h-185v270h-81q-38 -2 -59 -39l-130 -231h-222zM314 435h174v180h-174q-25 0 -42.5 -4.5t-33.5 -26t-16 -59.5t16 -59.5t33.5 -26t42.5 -4.5z" />
    <glyph glyph-name="afii10065" unicode="&#x430;" horiz-adv-x="612" 
d="M20 145q0 85 47.5 119.5t143.5 48.5l175 25v15q0 48 -76 48q-45 0 -63 -12.5t-20 -37.5l-182 22q0 41 11.5 70.5t39.5 53.5t81.5 36.5t132.5 12.5q134 0 195 -50.5t61 -159.5v-182l10 -154h-165l-12 57q-30 -32 -83.5 -52.5t-120.5 -20.5q-80 0 -127.5 46.5t-47.5 114.5z
M220 170q0 -18 12 -29.5t33 -11.5q33 0 67.5 15t53.5 34v55l-109 -16q-57 -10 -57 -47z" />
    <glyph glyph-name="afii10066" unicode="&#x431;" horiz-adv-x="620" 
d="M310 -16q-140 0 -211 74t-71 240q0 55 3 99t11.5 93.5t23.5 87.5t40.5 75t60 61.5t84 41t111.5 20.5q126 8 183 34v-168q-52 -27 -145 -32q-65 -4 -102.5 -18.5t-50.5 -32.5t-21 -49q45 36 126 36q106 0 173 -73t67 -208q0 -138 -74.5 -209.5t-207.5 -71.5zM310 384
q-49 0 -74.5 -26.5t-25.5 -92.5t25.5 -92.5t74.5 -26.5t74.5 26.5t25.5 92.5t-25.5 92.5t-74.5 26.5z" />
    <glyph glyph-name="afii10067" unicode="&#x432;" horiz-adv-x="594" 
d="M376 0h-322v530h322q175 0 175 -138q0 -79 -49 -111q33 -10 50 -46t17 -83q0 -152 -193 -152zM234 147h105q17 0 27 2t18 9.5t8 21.5q0 21 -12 28t-38 7h-108v-68zM330 383h-96v-56h96q23 0 33 7t10 23q0 15 -9.5 20.5t-33.5 5.5z" />
    <glyph glyph-name="afii10068" unicode="&#x433;" horiz-adv-x="500" 
d="M54 530h412v-160h-232v-370h-180v530z" />
    <glyph glyph-name="afii10069" unicode="&#x434;" horiz-adv-x="723" 
d="M713 160v-320h-175v160h-343v-160h-175v320h26q19 0 31.5 7.5t28 44.5t28.5 109l39 209h435v-370h105zM323 370l-25 -130q-9 -47 -31 -80h161v210h-105z" />
    <glyph glyph-name="afii10070" unicode="&#x435;" horiz-adv-x="615" 
d="M312 546q134 0 205.5 -72t71.5 -209v-51h-376q0 -40 27 -61.5t76 -21.5q81 0 84 34l182 -22q-2 -71 -64.5 -115t-194.5 -44q-141 0 -218 72.5t-77 208.5t75 208.5t209 72.5zM313 399q-43 0 -69 -22t-28 -57h181q2 38 -21 58.5t-63 20.5z" />
    <glyph glyph-name="afii10072" unicode="&#x436;" horiz-adv-x="908" 
d="M686 530h208l-97 -196q-23 -44 -54 -64q36 -21 59 -67l100 -203h-208l-70 160q-10 23 -26.5 30.5t-43.5 7.5h-10v-198h-180v198h-10q-27 0 -43.5 -7.5t-26.5 -30.5l-70 -160h-208l100 203q21 46 58 67q-33 22 -53 64l-97 196h208l68 -153q10 -23 26.5 -30.5t43.5 -7.5h4
v191h180v-191h4q27 0 43.5 7.5t26.5 30.5z" />
    <glyph glyph-name="afii10073" unicode="&#x437;" horiz-adv-x="584" 
d="M556 155q0 -171 -270 -171q-128 0 -193 38.5t-67 135.5l181 20q2 -44 86 -44q79 0 79 44q0 21 -15 28.5t-49 7.5h-110v106h103q31 0 44.5 9t13.5 30q0 37 -72 37q-66 0 -69 -40l-184 19q2 98 66 134.5t189 36.5q70 0 123 -13.5t91 -53.5t38 -104q0 -74 -54 -102
q69 -30 69 -118z" />
    <glyph glyph-name="afii10074" unicode="&#x438;" horiz-adv-x="657" 
d="M54 0v530h180l-3 -275l177 275h195v-530h-180l3 275l-177 -275h-195z" />
    <glyph glyph-name="afii10075" unicode="&#x439;" horiz-adv-x="657" 
d="M54 0v530h180v-140l-3 -135l73 115l104 160h195v-530h-180v140l3 135l-73 -115l-104 -160h-195zM329 576q-115 0 -165 56.5t-48 167.5h140q-1 -33 16.5 -47.5t56.5 -14.5t56.5 14.5t16.5 47.5h140q2 -111 -48 -167.5t-165 -56.5z" />
    <glyph glyph-name="afii10076" unicode="&#x43a;" horiz-adv-x="640" 
d="M416 530h209l-121 -196q-26 -43 -62 -64q39 -21 67 -67l125 -203h-209l-90 160q-13 23 -30.5 30.5t-44.5 7.5h-26v-198h-180v530h180v-191h21q27 0 44.5 7.5t30.5 30.5z" />
    <glyph glyph-name="afii10077" unicode="&#x43b;" horiz-adv-x="640" 
d="M586 530v-530h-180v370h-105l-25 -130q-14 -73 -34 -120.5t-49.5 -73.5t-63.5 -36t-83 -10h-28v160h6q19 0 31.5 7.5t28 44.5t28.5 109l39 209h435z" />
    <glyph glyph-name="afii10078" unicode="&#x43c;" horiz-adv-x="804" 
d="M576 357l-77 -357h-194l-77 357l2 -75v-282h-176v530h281l53 -268l14 -76l14 76l53 268h281v-530h-176v282z" />
    <glyph glyph-name="afii10079" unicode="&#x43d;" horiz-adv-x="640" 
d="M54 530h180v-180h172v180h180v-530h-180v190h-172v-190h-180v530z" />
    <glyph glyph-name="afii10080" unicode="&#x43e;" horiz-adv-x="620" 
d="M310 -16q-133 0 -207.5 71.5t-74.5 209.5t74.5 209.5t207.5 71.5t207.5 -71.5t74.5 -209.5t-74.5 -209.5t-207.5 -71.5zM310 384q-49 0 -74.5 -26.5t-25.5 -92.5t25.5 -92.5t74.5 -26.5t74.5 26.5t25.5 92.5t-25.5 92.5t-74.5 26.5z" />
    <glyph glyph-name="afii10081" unicode="&#x43f;" horiz-adv-x="640" 
d="M234 370v-370h-180v530h532v-530h-180v370h-172z" />
    <glyph glyph-name="afii10082" unicode="&#x440;" horiz-adv-x="645" 
d="M230 46v-246h-180v576l-10 154h165l12 -57q69 73 168 73q113 0 172.5 -71.5t59.5 -209.5t-59.5 -209.5t-172.5 -71.5q-95 0 -155 62zM433 265q0 59 -27 88.5t-70 29.5q-68 0 -106 -50v-136q38 -50 106 -50q43 0 70 29.5t27 88.5z" />
    <glyph glyph-name="afii10083" unicode="&#x441;" horiz-adv-x="576" 
d="M210 265q0 -64 21 -92t67 -28q42 0 58 12.5t18 39.5l182 -22q-1 -42 -12.5 -74.5t-39.5 -60t-79.5 -42t-126.5 -14.5q-132 0 -201 71.5t-69 209.5t69 209.5t201 71.5q75 0 126.5 -14.5t79.5 -42t39.5 -60t12.5 -74.5l-182 -22q-2 27 -18 39.5t-58 12.5q-46 0 -67 -28
t-21 -92z" />
    <glyph glyph-name="afii10084" unicode="&#x442;" horiz-adv-x="560" 
d="M32 370v160h496v-160h-158v-370h-180v370h-158z" />
    <glyph glyph-name="afii10085" unicode="&#x443;" horiz-adv-x="626" 
d="M313 224l35 96l86 210h201l-234 -511q-32 -69 -54 -107t-53 -70.5t-70 -45t-95 -12.5q-68 0 -118 18l19 163q41 -17 81 -17q60 0 92 70l11 25l-223 487h201l86 -210z" />
    <glyph glyph-name="afii10086" unicode="&#x444;" horiz-adv-x="840" 
d="M510 -16v-184h-180v184q-302 0 -302 281t302 281v255h180v-255q302 0 302 -281t-302 -281zM630 265q0 67 -30 93t-90 26v-238q60 0 90 26t30 93zM330 146v238q-60 0 -90 -26t-30 -93t30 -93t90 -26z" />
    <glyph glyph-name="afii10087" unicode="&#x445;" horiz-adv-x="638" 
d="M319 153l-52 -75l-53 -78h-223l170 214l50 61l-50 60l-155 195h220l47 -70l46 -69l47 69l46 70h220l-160 -200l-45 -55l47 -57l173 -218h-223l-52 78z" />
    <glyph glyph-name="afii10088" unicode="&#x446;" horiz-adv-x="725" 
d="M540 0h-486v530h180v-370h196v370h180v-370h105v-320h-175v160z" />
    <glyph glyph-name="afii10089" unicode="&#x447;" horiz-adv-x="639" 
d="M597 530v-530h-180v193q-59 -49 -155 -49q-218 0 -218 201v185h180v-162q0 -61 85 -61q75 0 108 47v176h180z" />
    <glyph glyph-name="afii10090" unicode="&#x448;" horiz-adv-x="840" 
d="M786 0h-732v530h180v-370h96v370h180v-370h96v370h180v-530z" />
    <glyph glyph-name="afii10091" unicode="&#x449;" horiz-adv-x="901" 
d="M716 0h-662v530h180v-370h96v370h180v-370h96v370h180v-370h105v-320h-175v160z" />
    <glyph glyph-name="afii10092" unicode="&#x44a;" horiz-adv-x="705" 
d="M22 530h320v-186h128q103 0 155 -36t52 -136t-52 -136t-155 -36h-308v370h-140v160zM342 207v-70h108q26 0 38 7t12 28t-12 28t-38 7h-108z" />
    <glyph glyph-name="afii10093" unicode="&#x44b;" horiz-adv-x="850" 
d="M234 137h108q26 0 38 7t12 28t-12 28t-38 7h-108v-70zM54 0v530h180v-186h128q103 0 155 -36t52 -136t-52 -136t-155 -36h-308zM608 0v530h180v-530h-180z" />
    <glyph glyph-name="afii10094" unicode="&#x44c;" horiz-adv-x="597" 
d="M234 137h108q26 0 38 7t12 28t-12 28t-38 7h-108v-70zM54 0v530h180v-186h128q103 0 155 -36t52 -136t-52 -136t-155 -36h-308z" />
    <glyph glyph-name="afii10095" unicode="&#x44d;" horiz-adv-x="576" 
d="M278 385q-42 0 -58 -12.5t-18 -39.5l-182 22q1 42 12.5 74.5t39.5 60t79.5 42t126.5 14.5q132 0 201 -71.5t69 -209.5t-69 -209.5t-201 -71.5q-75 0 -126.5 14.5t-79.5 42t-39.5 60t-12.5 74.5l182 22q2 -27 18 -39.5t58 -12.5q70 0 84 69h-197v106h196q-16 65 -83 65z
" />
    <glyph glyph-name="afii10096" unicode="&#x44e;" horiz-adv-x="900" 
d="M590 -16q-113 0 -185 52.5t-91 153.5h-80v-190h-180v530h180v-180h82q22 96 92.5 146t181.5 50q133 0 207.5 -71.5t74.5 -209.5t-74.5 -209.5t-207.5 -71.5zM590 146q49 0 74.5 26.5t25.5 92.5t-25.5 92.5t-74.5 26.5t-74.5 -26.5t-25.5 -92.5t25.5 -92.5t74.5 -26.5z
" />
    <glyph glyph-name="afii10097" unicode="&#x44f;" horiz-adv-x="620" 
d="M234 0h-208l74 150q17 34 38 52q-87 34 -87 156q0 100 52 136t155 36h308v-530h-180v186h-27q-25 0 -37.5 -7t-23.5 -31zM386 393h-108q-26 0 -38 -7t-12 -28t12 -28t38 -7h108v70z" />
    <glyph glyph-name="afii10071" unicode="&#x451;" horiz-adv-x="615" 
d="M312 546q134 0 205.5 -72t71.5 -209v-51h-376q0 -40 27 -61.5t76 -21.5q81 0 84 34l182 -22q-2 -71 -64.5 -115t-194.5 -44q-141 0 -218 72.5t-77 208.5t75 208.5t209 72.5zM313 399q-43 0 -69 -22t-28 -57h181q2 38 -21 58.5t-63 20.5zM285 780v-182h-184v182h184z
M525 780v-182h-184v182h184z" />
    <glyph glyph-name="afii10099" unicode="&#x452;" horiz-adv-x="654" 
d="M377 -58q55 6 55 60v300q0 44 -20 63t-58 18q-39 -1 -69.5 -16t-45.5 -34v-333h-180v596h-79v124h79v80h180v-80h123v-124h-123v-110q58 60 155 60q108 0 163 -52.5t55 -168.5v-348q0 -37 -11 -69.5t-36 -61t-71.5 -45.5t-110.5 -17q-66 0 -113 20l13 162q45 -29 94 -24z
" />
    <glyph glyph-name="afii10100" unicode="&#x453;" horiz-adv-x="500" 
d="M54 530h412v-160h-232v-370h-180v530zM260 800h196l-111 -208h-179z" />
    <glyph glyph-name="afii10101" unicode="&#x454;" horiz-adv-x="576" 
d="M298 385q-69 0 -83 -65h196v-106h-197q14 -69 84 -69q42 0 58 12.5t18 39.5l182 -22q-1 -42 -12.5 -74.5t-39.5 -60t-79.5 -42t-126.5 -14.5q-132 0 -201 71.5t-69 209.5t69 209.5t201 71.5q75 0 126.5 -14.5t79.5 -42t39.5 -60t12.5 -74.5l-182 -22q-2 27 -18 39.5
t-58 12.5z" />
    <glyph glyph-name="afii10102" unicode="&#x455;" horiz-adv-x="570" 
d="M279 125q83 0 83 43q0 20 -20 26.5t-71 9.5q-122 9 -162 24q-76 28 -80 119v12q0 50 23.5 88t62 58.5t81.5 30.5t88 10q128 0 190.5 -38.5t63.5 -127.5l-182 -22q-1 24 -16 35.5t-56 11.5q-27 0 -44 -10.5t-17 -27.5q0 -19 18 -26.5t67 -10.5q115 -7 153 -19
q81 -27 88 -118q1 -10 1 -21q0 -51 -23.5 -89t-64 -59t-86.5 -30.5t-98 -9.5q-136 0 -197.5 40t-62.5 133l182 22q1 -54 79 -54z" />
    <glyph glyph-name="afii10103" unicode="&#x456;" horiz-adv-x="290" 
d="M237 780v-182h-184v182h184zM55 0v530h180v-530h-180z" />
    <glyph glyph-name="afii10104" unicode="&#x457;" horiz-adv-x="290" 
d="M55 0v530h180v-530h-180zM117 780v-182h-184v182h184zM357 780v-182h-184v182h184z" />
    <glyph glyph-name="afii10105" unicode="&#x458;" horiz-adv-x="290" 
d="M0 -58q55 6 55 60v528h180v-553q0 -37 -11 -69.5t-36 -61t-71.5 -45.5t-110.5 -17q-66 0 -113 20l13 162q45 -29 94 -24zM237 780v-182h-184v182h184z" />
    <glyph glyph-name="afii10106" unicode="&#x459;" horiz-adv-x="949" 
d="M586 344h128q103 0 155 -36t52 -136t-52 -136t-155 -36h-308v370h-105l-25 -130q-14 -73 -34 -120.5t-49.5 -73.5t-63.5 -36t-83 -10h-28v160h6q19 0 31.5 7.5t28 44.5t28.5 109l39 209h435v-186zM586 207v-70h108q26 0 38 7t12 28t-12 28t-38 7h-108z" />
    <glyph glyph-name="afii10107" unicode="&#x45a;" horiz-adv-x="949" 
d="M586 350h128q102 0 154.5 -37t52.5 -138t-52.5 -138t-154.5 -37h-308v207h-172v-207h-180v530h180v-180h172v180h180v-180zM586 207v-70h108q26 0 38 7t12 28t-12 28t-38 7h-108z" />
    <glyph glyph-name="afii10108" unicode="&#x45b;" horiz-adv-x="654" 
d="M362 596h-123v-110q58 60 155 60q108 0 163 -52.5t55 -168.5v-325h-180v302q0 44 -20 63t-58 18q-39 -1 -69.5 -16t-45.5 -34v-333h-180v596h-79v124h79v80h180v-80h123v-124z" />
    <glyph glyph-name="afii10109" unicode="&#x45c;" horiz-adv-x="640" 
d="M320 800h196l-111 -208h-179zM416 530h209l-121 -196q-26 -43 -62 -64q39 -21 67 -67l125 -203h-209l-90 160q-13 23 -30.5 30.5t-44.5 7.5h-26v-198h-180v530h180v-191h21q27 0 44.5 7.5t30.5 30.5z" />
    <glyph glyph-name="afii10110" unicode="&#x45e;" horiz-adv-x="626" 
d="M313 576q-115 0 -165 56.5t-48 167.5h140q-1 -33 16.5 -47.5t56.5 -14.5t56.5 14.5t16.5 47.5h140q2 -111 -48 -167.5t-165 -56.5zM313 224l35 96l86 210h201l-234 -511q-32 -69 -54 -107t-53 -70.5t-70 -45t-95 -12.5q-68 0 -118 18l19 163q41 -17 81 -17q60 0 92 70
l11 25l-223 487h201l86 -210z" />
    <glyph glyph-name="afii10193" unicode="&#x45f;" horiz-adv-x="640" 
d="M234 530v-370h172v370h180v-530h-180v-160h-172v160h-180v530h180z" />
    <glyph glyph-name="afii10050" unicode="&#x490;" horiz-adv-x="600" 
d="M592 940v-325h-355v-615h-185v780h360v160h180z" />
    <glyph glyph-name="afii10098" unicode="&#x491;" horiz-adv-x="500" 
d="M234 370v-370h-180v530h237v160h175v-320h-232z" />
    <glyph glyph-name="uni0E3F" unicode="&#xe3f;" horiz-adv-x="613" 
d="M390 100h-88l-28 -100h-158l28 100h-90v564h230l29 100h157l-30 -104q131 -20 131 -151q0 -79 -49 -111q33 -10 50 -46t17 -83q0 -51 -16 -86t-45.5 -52t-62 -24t-75.5 -7zM229 261h130q17 0 27 2t18 9.5t8 21.5q0 21 -12 28t-38 7h-133v-68zM350 503h-121v-56h121
q23 0 33 7t10 23q0 15 -9.5 20.5t-33.5 5.5z" />
    <glyph glyph-name="Ddotbelow" unicode="&#x1e0c;" horiz-adv-x="763" 
d="M345 0h-293v780h293q191 0 284.5 -95t93.5 -295t-93.5 -295t-284.5 -95zM237 165h108q104 0 147.5 57.5t43.5 167.5t-43.5 167.5t-147.5 57.5h-108v-450zM403 1030h183l-158 -208h-156l-158 208h183l53 -59z" />
    <glyph glyph-name="ddotbelow" unicode="&#x1e0d;" horiz-adv-x="647" 
d="M410 -40v-160h-184v160h184zM415 484v316h180v-646l10 -154h-165l-12 57q-69 -73 -168 -73q-113 0 -172.5 71.5t-59.5 209.5t59.5 209.5t172.5 71.5q95 0 155 -62zM212 265q0 -59 27 -88.5t70 -29.5q68 0 106 50v136q-38 50 -106 50q-43 0 -70 -29.5t-27 -88.5z" />
    <glyph glyph-name="Dcedilla" unicode="&#x1e10;" horiz-adv-x="763" 
d="M345 0h-293v780h293q191 0 284.5 -95t93.5 -295t-93.5 -295t-284.5 -95zM237 165h108q104 0 147.5 57.5t43.5 167.5t-43.5 167.5t-147.5 57.5h-108v-450zM267 -75l19 54q113 -7 158.5 -36t39.5 -75q-5 -42 -42 -63t-91 -21q-76 0 -129 23l25 76q24 -13 50 -17
q48 -7 48 21q0 14 -21 24t-57 14z" />
    <glyph glyph-name="dcedilla" unicode="&#x1e11;" horiz-adv-x="647" 
d="M415 484v316h180v-646l10 -154h-165l-12 57q-69 -73 -168 -73q-113 0 -172.5 71.5t-59.5 209.5t59.5 209.5t172.5 71.5q95 0 155 -62zM212 265q0 -59 27 -88.5t70 -29.5q68 0 106 50v136q-38 50 -106 50q-43 0 -70 -29.5t-27 -88.5zM231 -75l19 54q113 -7 158.5 -36
t39.5 -75q-5 -42 -42 -63t-91 -21q-76 0 -129 23l25 76q24 -13 50 -17q48 -7 48 21q0 14 -21 24t-57 14z" />
    <glyph glyph-name="Hdotbelow" unicode="&#x1e24;" horiz-adv-x="748" 
d="M511 780h185v-780h-185v316h-274v-316h-185v780h185v-299h274v299zM466 -40v-160h-184v160h184z" />
    <glyph glyph-name="hdotbelow" unicode="&#x1e25;" horiz-adv-x="639" 
d="M413 -40v-160h-184v160h184zM44 0v800h180v-314q58 60 155 60q108 0 163 -52.5t55 -168.5v-325h-180v302q0 44 -20 63t-58 18q-39 -1 -69.5 -16t-45.5 -34v-333h-180z" />
    <glyph glyph-name="Ldotbelow" unicode="&#x1e36;" horiz-adv-x="600" 
d="M237 780v-615h355v-165h-540v780h185zM414 -40v-160h-184v160h184z" />
    <glyph glyph-name="ldotbelow" unicode="&#x1e37;" horiz-adv-x="290" 
d="M55 0v800h180v-800h-180zM237 -40v-160h-184v160h184z" />
    <glyph glyph-name="uni004C032300AF" unicode="&#x1e38;" horiz-adv-x="600" 
d="M237 780v-615h355v-165h-540v780h185zM414 -40v-160h-184v160h184zM310 846h-332v164h332v-164z" />
    <glyph glyph-name="ldotbelowmacron" unicode="&#x1e39;" horiz-adv-x="290" 
d="M55 0v800h180v-800h-180zM237 -40v-160h-184v160h184zM311 846h-332v164h332v-164z" />
    <glyph glyph-name="Mdotbelow" unicode="&#x1e42;" horiz-adv-x="906" 
d="M522 0h-138l-150 454v-454h-182v780h233l168 -501l168 501h233v-780h-182v454zM545 -40v-160h-184v160h184z" />
    <glyph glyph-name="mdotbelow" unicode="&#x1e43;" horiz-adv-x="978" 
d="M585 -40v-160h-184v160h184zM205 530l12 -57q54 73 163 73q115 0 168 -75q74 75 185 75q97 0 150 -51t53 -153v-342h-180v322q0 61 -72 61q-61 0 -101 -50v-333h-180v322q0 61 -72 61q-61 0 -101 -50v-333h-180v376l-10 154h165z" />
    <glyph glyph-name="Ndotaccent" unicode="&#x1e44;" horiz-adv-x="768" 
d="M223 780l237 -344l72 -109l-1 145v308h185v-780h-171l-237 344l-72 109l1 -145v-308h-185v780h171zM476 1010v-182h-184v182h184z" />
    <glyph glyph-name="ndotaccent" unicode="&#x1e45;" horiz-adv-x="645" 
d="M421 780v-182h-184v182h184zM205 530l12 -57q64 73 168 73q108 0 163 -52.5t55 -168.5v-325h-180v302q0 44 -20 63t-58 18q-39 -1 -69.5 -16t-45.5 -34v-333h-180v376l-10 154h165z" />
    <glyph glyph-name="Ndotbelow" unicode="&#x1e46;" horiz-adv-x="768" 
d="M223 780l237 -344l72 -109l-1 145v308h185v-780h-171l-237 344l-72 109l1 -145v-308h-185v780h171zM476 -40v-160h-184v160h184z" />
    <glyph glyph-name="ndotbelow" unicode="&#x1e47;" horiz-adv-x="645" 
d="M421 -40v-160h-184v160h184zM205 530l12 -57q64 73 168 73q108 0 163 -52.5t55 -168.5v-325h-180v302q0 44 -20 63t-58 18q-39 -1 -69.5 -16t-45.5 -34v-333h-180v376l-10 154h165z" />
    <glyph glyph-name="Rdotbelow" unicode="&#x1e5a;" horiz-adv-x="725" 
d="M237 269v-269h-185v780h345q294 0 294 -255q0 -181 -140 -233l178 -292h-222l-152 269h-118zM237 435h174q18 0 31.5 2.5t28.5 11t23.5 28t8.5 48.5q0 38 -16 59.5t-33.5 26t-42.5 4.5h-174v-180zM452 -40v-160h-184v160h184z" />
    <glyph glyph-name="rdotbelow" unicode="&#x1e5b;" horiz-adv-x="436" 
d="M232 -40v-160h-184v160h184zM352 546q45 0 74 -13l-13 -168q-28 8 -50 8q-94 0 -133 -50v-323h-180v376l-10 154h165l12 -57q22 34 58.5 53.5t76.5 19.5z" />
    <glyph glyph-name="Rdotbelowmacron" unicode="&#x1e5c;" horiz-adv-x="725" 
d="M237 269v-269h-185v780h345q294 0 294 -255q0 -181 -140 -233l178 -292h-222l-152 269h-118zM512 846h-332v164h332v-164zM237 435h174q18 0 31.5 2.5t28.5 11t23.5 28t8.5 48.5q0 38 -16 59.5t-33.5 26t-42.5 4.5h-174v-180zM452 -40v-160h-184v160h184z" />
    <glyph glyph-name="rdotbelowmacron" unicode="&#x1e5d;" horiz-adv-x="436" 
d="M232 -40v-160h-184v160h184zM391 616h-332v164h332v-164zM352 546q45 0 74 -13l-13 -168q-28 8 -50 8q-94 0 -133 -50v-323h-180v376l-10 154h165l12 -57q22 34 58.5 53.5t76.5 19.5z" />
    <glyph glyph-name="Sdotbelow" unicode="&#x1e62;" horiz-adv-x="722" 
d="M367 149q64 2 104.5 22t39.5 68q-1 40 -33.5 58t-118.5 22q-55 2 -94 7t-83 19t-71 36t-45.5 61t-19.5 93q-3 128 85 194.5t221 66.5q168 0 253.5 -68t87.5 -193l-188 -23q-1 65 -39 93t-114 26q-49 -1 -85.5 -22.5t-35.5 -69.5q1 -33 26.5 -44t109.5 -16
q70 -4 116.5 -11t89 -22t67 -40.5t39 -65.5t15.5 -97q1 -67 -26 -118.5t-74.5 -81.5t-104.5 -44.5t-122 -14.5q-182 0 -260.5 66t-80.5 195l188 23q1 -65 39.5 -93t113.5 -26zM444 -40v-160h-184v160h184z" />
    <glyph glyph-name="sdotbelow" unicode="&#x1e63;" horiz-adv-x="570" 
d="M279 125q83 0 83 43q0 20 -20 26.5t-71 9.5q-122 9 -162 24q-76 28 -80 119v12q0 50 23.5 88t62 58.5t81.5 30.5t88 10q128 0 190.5 -38.5t63.5 -127.5l-182 -22q-1 24 -16 35.5t-56 11.5q-27 0 -44 -10.5t-17 -27.5q0 -19 18 -26.5t67 -10.5q115 -7 153 -19
q81 -27 88 -118q1 -10 1 -21q0 -51 -23.5 -89t-64 -59t-86.5 -30.5t-98 -9.5q-136 0 -197.5 40t-62.5 133l182 22q1 -54 79 -54zM372 -40v-160h-184v160h184z" />
    <glyph glyph-name="Tdotbelow" unicode="&#x1e6c;" horiz-adv-x="647" 
d="M416 615v-615h-185v615h-214v165h613v-165h-214zM416 -40v-160h-185v160h185z" />
    <glyph glyph-name="tdotbelow" unicode="&#x1e6d;" horiz-adv-x="480" 
d="M15 380v150h97v160h180v-160h160v-150h-160v-178q0 -54 55 -60q49 -5 94 24l13 -162q-47 -20 -113 -20q-64 0 -110.5 17t-71.5 45.5t-36 61t-11 69.5v203h-97zM345 -40v-160h-184v160h184z" />
    <glyph glyph-name="Wgrave" unicode="&#x1e80;" horiz-adv-x="1020" 
d="M297 1030h196l94 -208h-179zM555 373l-45 233l-45 -233l-74 -381h-226l-149 788h200l49 -344l22 -178l32 182l68 340h246l68 -340l32 -182l22 178l49 344h200l-149 -788h-226z" />
    <glyph glyph-name="wgrave" unicode="&#x1e81;" horiz-adv-x="850" 
d="M450 193l-25 177l-25 -177l-33 -193h-252l-96 530h187l23 -200l14 -159l30 171l36 188h232l36 -188l30 -171l14 159l23 200h187l-96 -530h-252zM222 800h196l94 -208h-179z" />
    <glyph glyph-name="Wacute" unicode="&#x1e82;" horiz-adv-x="1020" 
d="M527 1030h196l-111 -208h-179zM555 373l-45 233l-45 -233l-74 -381h-226l-149 788h200l49 -344l22 -178l32 182l68 340h246l68 -340l32 -182l22 178l49 344h200l-149 -788h-226z" />
    <glyph glyph-name="wacute" unicode="&#x1e83;" horiz-adv-x="850" 
d="M450 193l-25 177l-25 -177l-33 -193h-252l-96 530h187l23 -200l14 -159l30 171l36 188h232l36 -188l30 -171l14 159l23 200h187l-96 -530h-252zM432 800h196l-111 -208h-179z" />
    <glyph glyph-name="Wdieresis" unicode="&#x1e84;" horiz-adv-x="1020" 
d="M482 1010v-182h-184v182h184zM722 1010v-182h-184v182h184zM555 373l-45 233l-45 -233l-74 -381h-226l-149 788h200l49 -344l22 -178l32 182l68 340h246l68 -340l32 -182l22 178l49 344h200l-149 -788h-226z" />
    <glyph glyph-name="wdieresis" unicode="&#x1e85;" horiz-adv-x="850" 
d="M450 193l-25 177l-25 -177l-33 -193h-252l-96 530h187l23 -200l14 -159l30 171l36 188h232l36 -188l30 -171l14 159l23 200h187l-96 -530h-252zM397 780v-182h-184v182h184zM637 780v-182h-184v182h184z" />
    <glyph glyph-name="Idotbelow" unicode="&#x1eca;" horiz-adv-x="311" 
d="M248 780v-780h-185v780h185zM248 -40v-160h-184v160h184z" />
    <glyph glyph-name="idotbelow" unicode="&#x1ecb;" horiz-adv-x="290" 
d="M55 0v530h180v-530h-180zM237 780v-182h-184v182h184zM237 -40v-160h-184v160h184z" />
    <glyph glyph-name="Odotbelow" unicode="&#x1ecc;" horiz-adv-x="820" 
d="M410 631q-53 0 -90 -19t-56 -54.5t-27 -76t-8 -91.5t8 -91.5t27 -76t56 -54.5t90 -19t90 19t56 54.5t27 76t8 91.5t-8 91.5t-27 76t-56 54.5t-90 19zM410 -16q-189 0 -278.5 107.5t-89.5 298.5t89 298.5t279 107.5q189 0 278.5 -107.5t89.5 -298.5t-89 -298.5
t-279 -107.5zM502 -40v-160h-184v160h184z" />
    <glyph glyph-name="odotbelow" unicode="&#x1ecd;" horiz-adv-x="620" 
d="M310 146q49 0 74.5 26.5t25.5 92.5t-25.5 92.5t-74.5 26.5t-74.5 -26.5t-25.5 -92.5t25.5 -92.5t74.5 -26.5zM310 -16q-133 0 -207.5 71.5t-74.5 209.5t74.5 209.5t207.5 71.5t207.5 -71.5t74.5 -209.5t-74.5 -209.5t-207.5 -71.5zM402 -40v-160h-184v160h184z" />
    <glyph glyph-name="Udotbelow" unicode="&#x1ee4;" horiz-adv-x="746" 
d="M373 148q89 0 117.5 36.5t28.5 106.5v489h185v-493q0 -69 -15.5 -121t-52 -94.5t-102.5 -65t-161 -22.5t-161 22.5t-102.5 65t-52 94.5t-15.5 121v493h185v-489q0 -70 28.5 -106.5t117.5 -36.5zM465 -40v-160h-184v160h184z" />
    <glyph glyph-name="udotbelow" unicode="&#x1ee5;" horiz-adv-x="645" 
d="M414 -40v-160h-184v160h184zM440 0l-12 57q-64 -73 -168 -73q-108 0 -163 52.5t-55 168.5v325h180v-302q0 -44 20 -63t58 -18q39 1 69.5 16t45.5 34v333h180v-376l10 -154h-165z" />
    <glyph glyph-name="Ygrave" unicode="&#x1ef2;" horiz-adv-x="730" 
d="M169 1030h196l94 -208h-179zM-30 780h218l125 -219l52 -91l52 92l125 218h218l-302 -485v-295h-186v295z" />
    <glyph glyph-name="ygrave" unicode="&#x1ef3;" horiz-adv-x="626" 
d="M117 800h196l94 -208h-179zM635 530l-228 -497l-98 -233h-208l113 242l-223 488h201l61 -163l60 -171l61 171l60 163h201z" />
    <glyph glyph-name="Ytilde" unicode="&#x1ef8;" horiz-adv-x="730" 
d="M446 806q-36 0 -66 12t-45.5 26t-32.5 26t-32 12q-16 0 -25 -12t-11 -24l-1 -11l-124 15q5 52 23 94t57 72t95 30q36 0 66 -12t45.5 -26t32.5 -26t32 -12q16 0 25 12t11 24l1 11l124 -15q-5 -52 -23 -94t-57 -72t-95 -30zM-30 780h218l125 -219l52 -91l52 92l125 218h218
l-302 -485v-295h-186v295z" />
    <glyph glyph-name="ytilde" unicode="&#x1ef9;" horiz-adv-x="626" 
d="M394 576q-36 0 -66 12t-45.5 26t-32.5 26t-32 12q-16 0 -25 -12t-11 -24l-1 -11l-124 15q5 52 23 94t57 72t95 30q36 0 66 -12t45.5 -26t32.5 -26t32 -12q16 0 25 12t11 24l1 11l124 -15q-5 -52 -23 -94t-57 -72t-95 -30zM635 530l-228 -497l-98 -233h-208l113 242
l-223 488h201l61 -163l60 -171l61 171l60 163h201z" />
    <glyph glyph-name="enspace" unicode="&#x2002;" horiz-adv-x="500" 
 />
    <glyph glyph-name="emspace" unicode="&#x2003;" horiz-adv-x="1000" 
 />
    <glyph glyph-name="threeperemspace" unicode="&#x2004;" horiz-adv-x="333" 
 />
    <glyph glyph-name="fourperemspace" unicode="&#x2005;" horiz-adv-x="250" 
 />
    <glyph glyph-name="sixperemspace" unicode="&#x2006;" horiz-adv-x="167" 
 />
    <glyph glyph-name="figurespace" unicode="&#x2007;" 
 />
    <glyph glyph-name="punctuationspace" unicode="&#x2008;" horiz-adv-x="260" 
 />
    <glyph glyph-name="thinspace" unicode="&#x2009;" horiz-adv-x="200" 
 />
    <glyph glyph-name="hairspace" unicode="&#x200a;" horiz-adv-x="100" 
 />
    <glyph glyph-name="zerowidthspace" unicode="&#x200b;" horiz-adv-x="0" 
 />
    <glyph glyph-name="figuredash" unicode="&#x2012;" 
d="M656 253h-612v164h612v-164z" />
    <glyph glyph-name="endash" unicode="&#x2013;" horiz-adv-x="500" 
d="M456 253h-412v164h412v-164z" />
    <glyph glyph-name="emdash" unicode="&#x2014;" horiz-adv-x="1000" 
d="M956 253h-912v164h912v-164z" />
    <glyph glyph-name="uni2015" unicode="&#x2015;" horiz-adv-x="1400" 
d="M1356 253h-1312v164h1312v-164z" />
    <glyph glyph-name="doublebar" unicode="&#x2016;" horiz-adv-x="586" 
d="M258 830v-960h-185v960h185zM513 830v-960h-185v960h185z" />
    <glyph glyph-name="underscoredbl" unicode="&#x2017;" horiz-adv-x="300" 
d="M280 -200h-260v64h260v-64zM280 -100h-260v64h260v-64z" />
    <glyph glyph-name="quoteleft" unicode="&#x2018;" horiz-adv-x="220" 
d="M172 530h-191l64 250h147z" />
    <glyph glyph-name="quoteright" unicode="&#x2019;" horiz-adv-x="220" 
d="M48 780h191l-64 -250h-147z" />
    <glyph glyph-name="quotesinglbase" unicode="&#x201a;" horiz-adv-x="220" 
d="M28 86h191l-64 -250h-147z" />
    <glyph glyph-name="reversequoteleft" unicode="&#x201b;" horiz-adv-x="220" 
d="M-19 780h191l20 -250h-147z" />
    <glyph glyph-name="quotedblleft" unicode="&#x201c;" horiz-adv-x="427" 
d="M172 530h-191l64 250h147zM387 530h-191l64 250h147z" />
    <glyph glyph-name="quotedblright" unicode="&#x201d;" horiz-adv-x="435" 
d="M263 780h191l-64 -250h-147zM48 780h191l-64 -250h-147z" />
    <glyph glyph-name="quotedblbase" unicode="&#x201e;" horiz-adv-x="435" 
d="M243 86h191l-64 -250h-147zM28 86h191l-64 -250h-147z" />
    <glyph glyph-name="reversequotedblleft" unicode="&#x201f;" horiz-adv-x="435" 
d="M-19 780h191l20 -250h-147zM196 780h191l20 -250h-147z" />
    <glyph glyph-name="dagger" unicode="&#x2020;" horiz-adv-x="331" 
d="M109 780h113l-10 -102l106 10v-112l-106 10l20 -196h-133l20 196l-106 -10v112l106 -10z" />
    <glyph glyph-name="daggerdbl" unicode="&#x2021;" horiz-adv-x="331" 
d="M109 780h113l-10 -102l106 10v-112l-107 10l4 -34l-4 -35l107 10v-112l-106 10l20 -196h-133l20 196l-106 -10v112l106 -10l-4 35l4 34l-106 -10v112l106 -10z" />
    <glyph glyph-name="bullet" unicode="&#x2022;" horiz-adv-x="450" 
d="M394 504v-338h-338v338h338z" />
    <glyph glyph-name="ellipsis" unicode="&#x2026;" horiz-adv-x="1020" 
d="M272 182v-182h-184v182h184zM602 182v-182h-184v182h184zM932 182v-182h-184v182h184z" />
    <glyph glyph-name="perthousand" unicode="&#x2030;" horiz-adv-x="1713" 
d="M265 643q-78 0 -78 -82t78 -82t78 82t-78 82zM234 0l551 764h196l-551 -764h-196zM265 342q-110 0 -169.5 54t-59.5 165t59.5 165t169.5 54t169.5 -54t59.5 -165t-59.5 -165t-169.5 -54zM950 285q-78 0 -78 -82t78 -82t78 82t-78 82zM950 -16q-110 0 -169.5 54t-59.5 165
t59.5 165t169.5 54t169.5 -54t59.5 -165t-59.5 -165t-169.5 -54zM1448 285q-78 0 -78 -82t78 -82t78 82t-78 82zM1448 -16q-110 0 -169.5 54t-59.5 165t59.5 165t169.5 54t169.5 -54t59.5 -165t-59.5 -165t-169.5 -54z" />
    <glyph glyph-name="minute" unicode="&#x2032;" horiz-adv-x="247" 
d="M37 764h197l-48 -341h-149v341z" />
    <glyph glyph-name="second" unicode="&#x2033;" horiz-adv-x="475" 
d="M37 764h197l-48 -341h-149v341zM265 764h197l-48 -341h-149v341z" />
    <glyph glyph-name="tripleprime" unicode="&#x2034;" horiz-adv-x="704" 
d="M22 780h203l-25 -250h-153zM251 780h202l-25 -250h-152zM480 780h202l-25 -250h-152z" />
    <glyph glyph-name="guilsinglleft" unicode="&#x2039;" horiz-adv-x="300" 
d="M250 261v-142l-208 143v106l208 143v-141l-59 -55z" />
    <glyph glyph-name="guilsinglright" unicode="&#x203a;" horiz-adv-x="300" 
d="M50 119v142l59 54l-59 55v141l208 -143v-106z" />
    <glyph glyph-name="exclamdbl" unicode="&#x203c;" horiz-adv-x="560" 
d="M49 780h202l-29 -530h-144zM242 182v-182h-184v182h184zM309 780h202l-29 -530h-144zM502 182v-182h-184v182h184z" />
    <glyph glyph-name="fraction" unicode="&#x2044;" horiz-adv-x="275" 
d="M-236 0l551 764h196l-551 -764h-196z" />
    <glyph glyph-name="uni2070" unicode="&#x2070;" horiz-adv-x="538" 
d="M269 643q-78 0 -78 -82t78 -82t78 82t-78 82zM269 342q-110 0 -169.5 54t-59.5 165t59.5 165t169.5 54t169.5 -54t59.5 -165t-59.5 -165t-169.5 -54z" />
    <glyph glyph-name="uni2074" unicode="&#x2074;" horiz-adv-x="476" 
d="M451 407h-70v-53h-149v53h-207v126l205 247h151v-235h70v-138zM232 545v74l-58 -74h58z" />
    <glyph glyph-name="uni2075" unicode="&#x2075;" horiz-adv-x="451" 
d="M229 469q39 2 39 34q0 33 -41 33q-35 0 -50 -21l-129 26l27 227h328v-137h-200l-8 -41q35 25 100 25q23 0 42.5 -5t39.5 -17.5t32 -39.5t12 -66q0 -75 -54 -110t-141 -35q-98 0 -146.5 34.5t-49.5 113.5l151 11q2 -34 48 -32z" />
    <glyph glyph-name="uni2076" unicode="&#x2076;" horiz-adv-x="453" 
d="M238 651q-53 -2 -59 -54q24 23 90 23q79 0 114.5 -30t35.5 -96q0 -152 -185 -152q-103 0 -151 52t-48 167q0 219 208 219q177 0 180 -138l-151 -11q-5 21 -34 20zM236 523q-19 0 -31.5 -8t-13.5 -22q9 -23 39 -23q37 0 37 26q0 27 -31 27z" />
    <glyph glyph-name="uni2077" unicode="&#x2077;" horiz-adv-x="439" 
d="M237 354h-167l151 277h-191v137h379v-88z" />
    <glyph glyph-name="uni2078" unicode="&#x2078;" horiz-adv-x="470" 
d="M235 609q50 0 50 22q0 24 -50 24t-50 -24q0 -22 50 -22zM235 467q53 0 53 26q0 27 -53 27t-53 -27q0 -26 53 -26zM235 780q192 0 192 -134q0 -56 -35 -83q48 -24 48 -92t-51.5 -98.5t-153.5 -30.5t-153.5 30.5t-51.5 98.5t48 92q-35 27 -35 83q0 134 192 134z" />
    <glyph glyph-name="uni2079" unicode="&#x2079;" horiz-adv-x="453" 
d="M215 471q53 2 59 54q-24 -23 -90 -23q-79 0 -114.5 30t-35.5 96q0 152 185 152q103 0 151 -52t48 -167q0 -219 -208 -219q-177 0 -180 138l151 11q5 -21 34 -20zM217 599q19 0 31 8.5t14 21.5q-9 23 -39 23q-37 0 -37 -26q0 -27 31 -27z" />
    <glyph glyph-name="uni207A" unicode="&#x207a;" horiz-adv-x="400" 
d="M118 415v83h-83v164h83v83h164v-83h83v-164h-83v-83h-164z" />
    <glyph glyph-name="uni207B" unicode="&#x207b;" horiz-adv-x="400" 
d="M25 498v164h340v-164h-340z" />
    <glyph glyph-name="uni207C" unicode="&#x207c;" horiz-adv-x="400" 
d="M35 600v145h330v-145h-330zM35 415v145h330v-145h-330z" />
    <glyph glyph-name="uni207D" unicode="&#x207d;" horiz-adv-x="310" 
d="M221 567q0 -140 49 -253h-163q-57 120 -57 253t57 253h163q-49 -113 -49 -253z" />
    <glyph glyph-name="uni207E" unicode="&#x207e;" horiz-adv-x="310" 
d="M89 567q0 140 -49 253h163q57 -120 57 -253t-57 -253h-163q49 113 49 253z" />
    <glyph glyph-name="n.superior" unicode="&#x207f;" horiz-adv-x="457" 
d="M155 738l7 -24q42 35 103 35q144 0 144 -147v-212h-127v198q0 24 -11 35t-32 10q-40 0 -67 -29v-214h-127v245l-5 103h115z" />
    <glyph glyph-name="uni2080" unicode="&#x2080;" horiz-adv-x="538" 
d="M269 289q-78 0 -78 -82t78 -82t78 82t-78 82zM269 -12q-110 0 -169.5 54t-59.5 165t59.5 165t169.5 54t169.5 -54t59.5 -165t-59.5 -165t-169.5 -54z" />
    <glyph glyph-name="uni2081" unicode="&#x2081;" horiz-adv-x="420" 
d="M294 426v-289h96v-137h-351v137h106v101q-48 -29 -116 -29v139q97 15 147 78h118z" />
    <glyph glyph-name="uni2082" unicode="&#x2082;" horiz-adv-x="460" 
d="M229 426q90 0 141.5 -35t51.5 -100q0 -62 -37.5 -86.5t-130.5 -39.5q-53 -8 -56 -30l65 2h167v-137h-399q-2 48 1 82.5t14 59.5t23.5 41t37.5 28t47.5 18.5t61.5 14.5q57 12 57 30q0 24 -38 25q-47 2 -49 -32l-151 11q1 44 15.5 73.5t42.5 45.5t60.5 22.5t75.5 6.5z" />
    <glyph glyph-name="uni2083" unicode="&#x2083;" horiz-adv-x="466" 
d="M233 125q54 2 54 26q0 21 -42 21h-86v83h91q25 0 25 20q0 23 -36 24q-49 2 -51 -32l-151 11q1 84 49.5 116t148.5 32q191 0 191 -133q0 -55 -36 -80q46 -24 46 -92q0 -133 -208 -133q-200 0 -203 158l151 11q2 -34 57 -32z" />
    <glyph glyph-name="uni2084" unicode="&#x2084;" horiz-adv-x="476" 
d="M451 53h-70v-53h-149v53h-207v126l205 247h151v-235h70v-138zM232 191v74l-58 -74h58z" />
    <glyph glyph-name="uni2085" unicode="&#x2085;" horiz-adv-x="451" 
d="M229 115q39 2 39 34q0 33 -41 33q-35 0 -50 -21l-129 26l27 227h328v-137h-200l-8 -41q35 25 100 25q23 0 42.5 -5t39.5 -17.5t32 -39.5t12 -66q0 -75 -54 -110t-141 -35q-98 0 -146.5 34.5t-49.5 113.5l151 11q2 -34 48 -32z" />
    <glyph glyph-name="uni2086" unicode="&#x2086;" horiz-adv-x="453" 
d="M238 297q-53 -2 -59 -54q24 23 90 23q79 0 114.5 -30t35.5 -96q0 -152 -185 -152q-103 0 -151 52t-48 167q0 219 208 219q177 0 180 -138l-151 -11q-5 21 -34 20zM236 169q-19 0 -31.5 -8.5t-13.5 -21.5q9 -23 39 -23q37 0 37 26q0 27 -31 27z" />
    <glyph glyph-name="uni2087" unicode="&#x2087;" horiz-adv-x="439" 
d="M237 0h-167l151 277h-191v137h379v-88z" />
    <glyph glyph-name="uni2088" unicode="&#x2088;" horiz-adv-x="470" 
d="M235 255q50 0 50 22q0 24 -50 24t-50 -24q0 -22 50 -22zM235 113q53 0 53 26q0 27 -53 27t-53 -27q0 -26 53 -26zM235 426q192 0 192 -134q0 -56 -35 -83q48 -24 48 -92t-51.5 -98.5t-153.5 -30.5t-153.5 30.5t-51.5 98.5t48 92q-35 27 -35 83q0 134 192 134z" />
    <glyph glyph-name="uni2089" unicode="&#x2089;" horiz-adv-x="453" 
d="M215 117q53 2 59 54q-24 -23 -90 -23q-79 0 -114.5 30t-35.5 96q0 152 185 152q103 0 151 -52t48 -167q0 -219 -208 -219q-177 0 -180 138l151 11q5 -21 34 -20zM217 245q19 0 31 8.5t14 21.5q-9 23 -39 23q-37 0 -37 -26q0 -27 31 -27z" />
    <glyph glyph-name="uni208A" unicode="&#x208a;" horiz-adv-x="400" 
d="M118 61v83h-83v164h83v83h164v-83h83v-164h-83v-83h-164z" />
    <glyph glyph-name="uni208B" unicode="&#x208b;" horiz-adv-x="400" 
d="M25 144v164h340v-164h-340z" />
    <glyph glyph-name="uni208C" unicode="&#x208c;" horiz-adv-x="400" 
d="M35 246v145h330v-145h-330zM35 61v145h330v-145h-330z" />
    <glyph glyph-name="uni208D" unicode="&#x208d;" horiz-adv-x="310" 
d="M221 213q0 -140 49 -253h-163q-57 120 -57 253t57 253h163q-49 -113 -49 -253z" />
    <glyph glyph-name="uni208E" unicode="&#x208e;" horiz-adv-x="310" 
d="M89 213q0 140 -49 253h163q57 -120 57 -253t-57 -253h-163q49 113 49 253z" />
    <glyph glyph-name="uni20A1" unicode="&#x20a1;" horiz-adv-x="743" 
d="M626 810l-30 -77q115 -66 117 -206l-188 -23q-2 24 -6 35l-154 -389q7 -1 22 -1q68 0 102 30t36 81l188 -23q-2 -119 -86 -186t-240 -67q-42 0 -84 8l-15 -38h-93l25 64q-24 13 -28 16l-31 -80h-93l56 142q-83 103 -83 286q0 182 85.5 290t260.5 108h7l12 30h93l-15 -38
q19 -4 31 -7l18 45h93zM263 213q9 -17 23 -29l166 421q-9 4 -31 8zM228 382v-22l96 244q-96 -39 -96 -222z" />
    <glyph glyph-name="uni20A2" unicode="&#x20a2;" horiz-adv-x="743" 
d="M605 308q-94 0 -133 -50v-91q50 27 53 93l188 -23q-2 -119 -86 -186t-240 -67q-175 0 -260.5 108t-85.5 290t85.5 290t260.5 108q156 0 240 -67t86 -186l-188 -23q-2 51 -36 81t-102 30q-159 0 -159 -233q0 -151 64 -203v132l-10 154h165l12 -47q55 63 135 63
q69 0 105 -16l-14 -176q-25 19 -80 19z" />
    <glyph glyph-name="franc" unicode="&#x20a3;" horiz-adv-x="632" 
d="M323 511h238v-114h-238v-30h238v-114h-238v-253h-185v253h-102v114h102v30h-102v114h102v253h486v-165h-301v-88z" />
    <glyph glyph-name="lira" unicode="&#x20a4;" horiz-adv-x="784" 
d="M561 235h-238v-71h429v-164h-716v164h108v71h-108v114h108v30h-108v114h108v14q0 145 77.5 209t240.5 64q151 0 223.5 -56t74.5 -170l-183 -22q-4 93 -115 92q-78 -1 -108.5 -29.5t-30.5 -93.5v-8h238v-114h-238v-30h238v-114z" />
    <glyph glyph-name="uni20A6" unicode="&#x20a6;" horiz-adv-x="828" 
d="M36 511h72v253h176l153 -253h98v253h185v-253h72v-114h-72v-30h72v-114h-72v-253h-176l-153 253h-98v-253h-185v253h-72v114h72v30h-72v114zM536 347l-1 50h-29zM292 417v-50h30z" />
    <glyph glyph-name="peseta" unicode="&#x20a7;" horiz-adv-x="1628" 
d="M237 233v-233h-185v764h320q271 0 288 -234h62v160h180v-160h160v-150h-160v-178q0 -54 55 -60q52 -6 301 37q1 -54 79 -54q83 0 83 43q0 20 -20 26.5t-71 9.5q-122 9 -162 24q-76 28 -80 119v12q0 50 23.5 88t62 58.5t81.5 30.5t88 10q128 0 190.5 -38.5t63.5 -127.5
l-182 -22q-1 24 -16 35.5t-56 11.5q-27 0 -44 -10.5t-17 -27.5q0 -19 18 -26.5t67 -10.5q115 -7 153 -19q81 -27 88 -118q1 -10 1 -21q0 -51 -23.5 -89t-64 -59t-86.5 -30.5t-98 -9.5q-133 0 -193 37q-77 -37 -192 -37q-64 0 -110.5 17t-71.5 45.5t-36 61t-11 69.5v203h-80
q-55 -147 -266 -147h-139zM237 399h149q87 0 87 100q0 56 -25.5 78t-61.5 22h-149v-200z" />
    <glyph glyph-name="uni20A8" unicode="&#x20a8;" horiz-adv-x="1250" 
d="M909 125q74 0 103.5 10.5t29.5 32.5q0 20 -20 26.5t-71 9.5q-122 9 -162 24q-76 28 -80 119v12q0 50 23.5 88t62 58.5t81.5 30.5t88 10q128 0 190.5 -38.5t63.5 -127.5l-182 -22q-1 24 -16 35.5t-56 11.5q-27 0 -44 -10.5t-17 -27.5q0 -19 18 -26.5t67 -10.5
q115 -7 153 -19q81 -27 88 -118q1 -10 1 -21q0 -188 -322 -188q-112 0 -202 17.5t-146.5 43t-101 64t-66.5 70.5t-43 74h-112v-253h-185v764h345q294 0 294 -255q0 -179 -142 -232q102 -152 360 -152zM237 419h174q18 0 31.5 2.5t28.5 11t23.5 28t8.5 48.5q0 38 -16 59.5
t-33.5 26t-42.5 4.5h-174v-180z" />
    <glyph glyph-name="uni20A9" unicode="&#x20a9;" horiz-adv-x="960" 
d="M940 253h-109l-54 -269h-191l-62 269h-88l-62 -269h-191l-55 269h-108v114h85l-6 30h-79v114h56l-51 253h190l41 -253h77l60 253h174l60 -253h77l41 253h190l-52 -253h57v-114h-80l-6 -30h86v-114zM480 445l-18 -78h36zM654 397l19 -79l13 79h-32zM274 397l13 -79l19 79
h-32z" />
    <glyph glyph-name="uni20AA" unicode="&#x20aa;" horiz-adv-x="780" 
d="M52 764h258q210 0 210 -200v-371h-114v356q0 52 -52 52h-122v-601h-180v764zM520 0h-258v571h114v-408h122q52 0 52 52v549h180v-564q0 -200 -210 -200z" />
    <glyph glyph-name="Euro" unicode="&#x20ac;" horiz-adv-x="807" 
d="M125 253h-103v114h90v30h-90v114h103q25 127 110 198t223 71q156 0 240 -67t86 -186l-188 -23q-2 51 -36 81t-102 30q-57 0 -93 -28t-48 -76h255l-39 -114h-234v-30h224l-39 -114h-167q12 -48 48 -76t93 -28q68 0 102 30t36 81l188 -23q-2 -119 -86 -186t-240 -67
q-138 0 -223 71t-110 198z" />
    <glyph glyph-name="uni20AE" unicode="&#x20ae;" horiz-adv-x="567" 
d="M376 489l111 56v-93l-111 -56v-34l111 56v-93l-111 -56v-269h-185v176l-100 -50v93l100 50v34l-100 -50v93l100 50v203h-174v165h533v-165h-174v-110z" />
    <glyph glyph-name="uni20B1" unicode="&#x20b1;" horiz-adv-x="752" 
d="M293 116v-116h-185v311h-72v114h72v30h-72v114h72v195h260q228 0 283 -195h65v-114h-50q2 -15 0 -30h50v-114h-65q-55 -195 -283 -195h-75zM479 455h-186v-30h186v30zM293 599v-30h157q-23 30 -68 30h-89zM293 281h89q45 0 68 30h-157v-30z" />
    <glyph glyph-name="afii61248" unicode="&#x2105;" horiz-adv-x="1151" 
d="M28 585q0 211 218 211q118 0 167 -42.5t51 -116.5l-149 -17q-4 44 -69 44q-37 0 -55 -18t-18 -61t18 -61t55 -18q65 0 69 44l149 -17q-2 -74 -51 -116.5t-167 -42.5q-218 0 -218 211zM959 780l-563 -780h-196l563 780h196zM906 -16q-103 0 -161.5 55t-58.5 156t58.5 156
t161.5 55q102 0 159.5 -55t57.5 -156t-57.5 -156t-159.5 -55zM906 274q-37 0 -56 -18t-19 -61t19 -61t56 -18q75 0 75 79t-75 79z" />
    <glyph glyph-name="afii61289" unicode="&#x2113;" horiz-adv-x="441" 
d="M239 566v-88q39 62 39 128q0 24 -17 24q-22 0 -22 -64zM289 -16q-109 0 -159.5 41.5t-63.5 115.5q-32 -20 -52 -31v144l46 35v209q0 282 197 282q156 0 156 -176q0 -57 -14.5 -109t-43 -96t-54 -74.5t-62.5 -67.5v-62q0 -29 13 -39.5t42 -13.5q49 -5 94 24l13 -162
q-47 -20 -112 -20z" />
    <glyph glyph-name="afii61352" unicode="&#x2116;" horiz-adv-x="1360" 
d="M1040 380q49 0 74.5 26.5t25.5 92.5t-25.5 92.5t-74.5 26.5t-74.5 -26.5t-25.5 -92.5t25.5 -92.5t74.5 -26.5zM1040 218q-133 0 -207.5 71.5t-74.5 209.5t74.5 209.5t207.5 71.5t207.5 -71.5t74.5 -209.5t-74.5 -209.5t-207.5 -71.5zM1132 182v-182h-184v182h184z
M681 764v-764h-198l-183 321l-61 109l1 -113v-317h-188v764h198l183 -321l61 -109l-1 113v317h188z" />
    <glyph glyph-name="published" unicode="&#x2117;" horiz-adv-x="900" 
d="M44 390q0 168 119 287t287 119t287 -119t119 -287t-119 -287t-287 -119t-287 119t-119 287zM402 274l99 1q82 1 133 48.5t51 141.5t-51.5 142t-132.5 48h-243v-530h144v149zM402 514h91q45 0 45 -49t-45 -49h-91v98z" />
    <glyph glyph-name="servicemark" unicode="&#x2120;" horiz-adv-x="598" 
d="M493 649l-37 -139h-76l-37 139v-139h-81v270h117l39 -149l39 149h117v-270h-81v139zM130 504q-59 0 -89 21.5t-31 77.5l82 6q1 -18 10 -24t28 -6q12 0 22 5t10 13q0 9 -7 12t-27 5q-52 4 -80 21t-28 60q0 46 30 68.5t78 22.5q57 0 84.5 -20t28.5 -69l-82 -6q-3 20 -31 20
q-26 0 -26 -15q0 -12 31 -14q59 -4 85 -20.5t26 -66.5q0 -44 -33.5 -67.5t-80.5 -23.5z" />
    <glyph glyph-name="trademark" unicode="&#x2122;" horiz-adv-x="598" 
d="M493 649l-37 -139h-76l-37 139v-139h-81v270h117l39 -149l39 149h117v-270h-81v139zM166 703v-193h-84v193h-74v77h232v-77h-74z" />
    <glyph glyph-name="ohm" unicode="&#x2126;" 
d="M350 617q-72 0 -110.5 -45t-38.5 -120q0 -174 129 -303v-149h-312v163h141q-129 150 -129 313q0 134 86 219t234 85t234 -85t86 -219q0 -163 -129 -313h141v-163h-312v149q129 129 129 303q0 75 -38.5 120t-110.5 45z" />
    <glyph glyph-name="estimated" unicode="&#x212e;" horiz-adv-x="810" 
d="M795 325h-607q9 -110 58 -170t160 -60q198 0 237 162h137q-20 -139 -118 -206t-257 -67q-174 0 -282 108.5t-108 289.5t108 289.5t282 108.5t282 -108.5t108 -289.5v-57zM406 670q-111 0 -160 -60.5t-57 -170.5h433q-8 110 -57.5 170.5t-158.5 60.5z" />
    <glyph glyph-name="uni2153" unicode="&#x2153;" horiz-adv-x="1136" 
d="M903 125q54 2 54 26q0 21 -42 21h-86v83h91q25 0 25 20q0 23 -36 24q-49 2 -51 -32l-151 11q1 84 49.5 116t148.5 32q191 0 191 -133q0 -55 -36 -80q46 -24 46 -92q0 -133 -208 -133q-200 0 -203 158l151 11q2 -34 57 -32zM190 0l551 764h196l-551 -764h-196zM294 780
v-289h96v-137h-351v137h106v101q-48 -29 -116 -29v139q97 15 147 78h118z" />
    <glyph glyph-name="uni2154" unicode="&#x2154;" horiz-adv-x="1170" 
d="M224 0l551 764h196l-551 -764h-196zM229 780q90 0 141.5 -35t51.5 -100q0 -62 -37.5 -86.5t-130.5 -39.5q-53 -8 -56 -30l65 2h167v-137h-399q-2 48 1 82.5t14 59.5t23.5 41t37.5 28t47.5 18.5t61.5 14.5q57 12 57 30q0 24 -38 25q-47 2 -49 -32l-151 11q1 44 15.5 73.5
t42.5 45.5t60.5 22.5t75.5 6.5zM937 125q54 2 54 26q0 21 -42 21h-86v83h91q25 0 25 20q0 23 -36 24q-49 2 -51 -32l-151 11q1 84 49.5 116t148.5 32q191 0 191 -133q0 -55 -36 -80q46 -24 46 -92q0 -133 -208 -133q-200 0 -203 158l151 11q2 -34 57 -32z" />
    <glyph glyph-name="uni2155" unicode="&#x2155;" horiz-adv-x="1152" 
d="M930 115q39 2 39 34q0 33 -41 33q-35 0 -50 -21l-129 26l27 227h328v-137h-200l-8 -41q35 25 100 25q23 0 42.5 -5t39.5 -17.5t32 -39.5t12 -66q0 -75 -54 -110t-141 -35q-98 0 -146.5 34.5t-49.5 113.5l151 11q2 -34 48 -32zM190 0l551 764h196l-551 -764h-196zM294 780
v-289h96v-137h-351v137h106v101q-48 -29 -116 -29v139q97 15 147 78h118z" />
    <glyph glyph-name="uni2156" unicode="&#x2156;" horiz-adv-x="1186" 
d="M224 0l551 764h196l-551 -764h-196zM964 115q39 2 39 34q0 33 -41 33q-35 0 -50 -21l-129 26l27 227h328v-137h-200l-8 -41q35 25 100 25q23 0 42.5 -5t39.5 -17.5t32 -39.5t12 -66q0 -75 -54 -110t-141 -35q-98 0 -146.5 34.5t-49.5 113.5l151 11q2 -34 48 -32zM229 780
q90 0 141.5 -35t51.5 -100q0 -62 -37.5 -86.5t-130.5 -39.5q-53 -8 -56 -30l65 2h167v-137h-399q-2 48 1 82.5t14 59.5t23.5 41t37.5 28t47.5 18.5t61.5 14.5q57 12 57 30q0 24 -38 25q-47 2 -49 -32l-151 11q1 44 15.5 73.5t42.5 45.5t60.5 22.5t75.5 6.5z" />
    <glyph glyph-name="uni2157" unicode="&#x2157;" horiz-adv-x="1192" 
d="M436 475q0 -133 -208 -133q-200 0 -203 158l151 11q2 -34 57 -32q54 2 54 26q0 21 -42 21h-86v83h91q25 0 25 20q0 23 -36 24q-49 2 -51 -32l-151 11q1 84 49.5 116t148.5 32q191 0 191 -133q0 -55 -36 -80q46 -24 46 -92zM230 0l551 764h196l-551 -764h-196zM970 115
q39 2 39 34q0 33 -41 33q-35 0 -50 -21l-129 26l27 227h328v-137h-200l-8 -41q35 25 100 25q23 0 42.5 -5t39.5 -17.5t32 -39.5t12 -66q0 -75 -54 -110t-141 -35q-98 0 -146.5 34.5t-49.5 113.5l151 11q2 -34 48 -32z" />
    <glyph glyph-name="uni2158" unicode="&#x2158;" horiz-adv-x="1202" 
d="M240 0l551 764h196l-551 -764h-196zM980 115q39 2 39 34q0 33 -41 33q-35 0 -50 -21l-129 26l27 227h328v-137h-200l-8 -41q35 25 100 25q23 0 42.5 -5t39.5 -17.5t32 -39.5t12 -66q0 -75 -54 -110t-141 -35q-98 0 -146.5 34.5t-49.5 113.5l151 11q2 -34 48 -32zM451 407
h-70v-53h-149v53h-207v126l205 247h151v-235h70v-138zM232 545v74l-58 -74h58z" />
    <glyph glyph-name="uni2159" unicode="&#x2159;" horiz-adv-x="1154" 
d="M190 0l551 764h196l-551 -764h-196zM939 297q-53 -2 -59 -54q24 23 90 23q79 0 114.5 -30t35.5 -96q0 -152 -185 -152q-103 0 -151 52t-48 167q0 219 208 219q177 0 180 -138l-151 -11q-5 21 -34 20zM937 169q-19 0 -31 -8.5t-14 -21.5q9 -23 39 -23q37 0 37 26
q0 27 -31 27zM294 780v-289h96v-137h-351v137h106v101q-48 -29 -116 -29v139q97 15 147 78h118z" />
    <glyph glyph-name="uni215A" unicode="&#x215a;" horiz-adv-x="1179" 
d="M215 0l551 764h196l-551 -764h-196zM964 297q-53 -2 -59 -54q24 23 90 23q79 0 114.5 -30t35.5 -96q0 -152 -185 -152q-103 0 -151 52t-48 167q0 219 208 219q177 0 180 -138l-151 -11q-5 21 -34 20zM962 169q-19 0 -31.5 -8.5t-13.5 -21.5q9 -23 39 -23q37 0 37 26
q0 27 -31 27zM229 469q39 2 39 34q0 33 -41 33q-35 0 -50 -21l-129 26l27 227h328v-137h-200l-8 -41q35 25 100 25q23 0 42.5 -5t39.5 -17.5t32 -39.5t12 -66q0 -75 -54 -110t-141 -35q-98 0 -146.5 34.5t-49.5 113.5l151 11q2 -34 48 -32z" />
    <glyph glyph-name="uni215B" unicode="&#x215b;" horiz-adv-x="1171" 
d="M936 255q50 0 50 22q0 24 -50 24t-50 -24q0 -22 50 -22zM936 113q53 0 53 26q0 27 -53 27t-53 -27q0 -26 53 -26zM936 426q192 0 192 -134q0 -56 -35 -83q48 -24 48 -92t-51.5 -98.5t-153.5 -30.5t-153.5 30.5t-51.5 98.5t48 92q-35 27 -35 83q0 134 192 134zM190 0
l551 764h196l-551 -764h-196zM294 780v-289h96v-137h-351v137h106v101q-48 -29 -116 -29v139q97 15 147 78h118z" />
    <glyph glyph-name="uni215C" unicode="&#x215c;" horiz-adv-x="1211" 
d="M436 475q0 -133 -208 -133q-200 0 -203 158l151 11q2 -34 57 -32q54 2 54 26q0 21 -42 21h-86v83h91q25 0 25 20q0 23 -36 24q-49 2 -51 -32l-151 11q1 84 49.5 116t148.5 32q191 0 191 -133q0 -55 -36 -80q46 -24 46 -92zM230 0l551 764h196l-551 -764h-196zM976 255
q50 0 50 22q0 24 -50 24t-50 -24q0 -22 50 -22zM976 113q53 0 53 26q0 27 -53 27t-53 -27q0 -26 53 -26zM976 426q192 0 192 -134q0 -56 -35 -83q48 -24 48 -92t-51.5 -98.5t-153.5 -30.5t-153.5 30.5t-51.5 98.5t48 92q-35 27 -35 83q0 134 192 134z" />
    <glyph glyph-name="uni215D" unicode="&#x215d;" horiz-adv-x="1196" 
d="M229 469q39 2 39 34q0 33 -41 33q-35 0 -50 -21l-129 26l27 227h328v-137h-200l-2 -16q14 6 46 8q84 2 129 -25t45 -101q0 -82 -53.5 -118.5t-141.5 -36.5q-98 0 -146.5 34.5t-49.5 113.5l151 11q2 -34 48 -32zM215 0l551 764h196l-551 -764h-196zM961 255q50 0 50 22
q0 24 -50 24t-50 -24q0 -22 50 -22zM961 113q53 0 53 26q0 27 -53 27t-53 -27q0 -26 53 -26zM961 426q192 0 192 -134q0 -56 -35 -83q48 -24 48 -92t-51.5 -98.5t-153.5 -30.5t-153.5 30.5t-51.5 98.5t48 92q-35 27 -35 83q0 134 192 134z" />
    <glyph glyph-name="uni215E" unicode="&#x215e;" horiz-adv-x="1144" 
d="M237 354h-167l151 277h-191v137h379v-88zM163 0l551 764h196l-551 -764h-196zM909 255q50 0 50 22q0 24 -50 24t-50 -24q0 -22 50 -22zM909 113q53 0 53 26q0 27 -53 27t-53 -27q0 -26 53 -26zM909 426q192 0 192 -134q0 -56 -35 -83q48 -24 48 -92t-51.5 -98.5
t-153.5 -30.5t-153.5 30.5t-51.5 98.5t48 92q-35 27 -35 83q0 134 192 134z" />
    <glyph glyph-name="uni215F" unicode="&#x215f;" horiz-adv-x="701" 
d="M190 0l551 764h196l-551 -764h-196zM294 780v-289h96v-137h-351v137h106v101q-48 -29 -116 -29v139q97 15 147 78h118z" />
    <glyph glyph-name="arrowleft" unicode="&#x2190;" horiz-adv-x="860" 
d="M24 331v118l456 281v-199l-118 -60l165 4h293v-170h-293l-165 4l118 -60v-199z" />
    <glyph glyph-name="arrowup" unicode="&#x2191;" horiz-adv-x="860" 
d="M371 796h118l281 -456h-199l-60 118l4 -165v-293h-170v293l4 165l-60 -118h-199z" />
    <glyph glyph-name="arrowright" unicode="&#x2192;" horiz-adv-x="860" 
d="M836 449v-118l-456 -281v199l118 60l-165 -4h-293v170h293l165 -4l-118 60v199z" />
    <glyph glyph-name="arrowdown" unicode="&#x2193;" horiz-adv-x="860" 
d="M489 -16h-118l-281 456h199l60 -118l-4 165v293h170v-293l-4 -165l60 118h199z" />
    <glyph glyph-name="uni2196" unicode="&#x2196;" horiz-adv-x="860" 
d="M16 713l83 83l521 -124l-140 -140l-126 41l119 -114l208 -207l-121 -121l-207 208l-114 119l41 -126l-140 -140z" />
    <glyph glyph-name="uni2197" unicode="&#x2197;" horiz-adv-x="860" 
d="M761 796l83 -83l-124 -521l-140 140l41 126l-114 -119l-207 -208l-121 121l208 207l119 114l-126 -41l-140 140z" />
    <glyph glyph-name="uni2198" unicode="&#x2198;" horiz-adv-x="860" 
d="M844 77l-83 -83l-521 124l140 140l126 -41l-119 114l-208 207l121 121l207 -208l114 -119l-41 126l140 140z" />
    <glyph glyph-name="uni2199" unicode="&#x2199;" horiz-adv-x="860" 
d="M99 -6l-83 83l124 521l140 -140l-41 -126l114 119l207 208l121 -121l-208 -207l-119 -114l126 41l140 -140z" />
    <glyph glyph-name="partialdiff" unicode="&#x2202;" horiz-adv-x="717" 
d="M332 635q-103 2 -191 -63l-77 142q110 82 267 82q170 0 262 -108.5t92 -304.5q0 -201 -80 -300t-251 -99q-138 0 -222.5 70t-84.5 202q0 271 281 271q47 0 98.5 -18t77.5 -54q6 90 -45.5 134t-126.5 46zM347 368q-115 -2 -115 -112q0 -55 34 -82.5t89 -28.5
q109 -1 133 86q6 68 -34 103t-107 34z" />
    <glyph glyph-name="increment" unicode="&#x2206;" horiz-adv-x="860" 
d="M50 0v78l334 696h92l334 -696v-78h-760zM430 486l-154 -323h308z" />
    <glyph glyph-name="product" unicode="&#x220f;" horiz-adv-x="800" 
d="M500 599h-200v-599h-186v599h-84v165h740v-165h-84v-599h-186v599z" />
    <glyph glyph-name="summation" unicode="&#x2211;" horiz-adv-x="670" 
d="M43 612v152h582v-165h-152l-128 1l195 -150v-119l-198 -167l128 1h170v-165h-607v144l301 246z" />
    <glyph glyph-name="minus" unicode="&#x2212;" 
d="M620 308h-540v164h540v-164z" />
    <glyph glyph-name="radical" unicode="&#x221a;" horiz-adv-x="868" 
d="M656 764h203l-441 -764h-200l-82 340l-116 -24v173l249 57l73 -341z" />
    <glyph glyph-name="infinity" unicode="&#x221e;" horiz-adv-x="800" 
d="M325 390l-23.5 26t-26 19t-37.5 12q-26 1 -42.5 -14t-16.5 -43t16 -42.5t43 -14.5q19 1 37.5 12t26 19zM400 287q-70 -81 -161 -81q-88 0 -139 47.5t-51 136.5t51 136.5t139 47.5q91 0 161 -81q70 81 161 81q88 0 139 -47.5t51 -136.5t-51 -136.5t-139 -47.5
q-91 0 -161 81zM475 390l23.5 -26t26 -19t37.5 -12q26 -1 42.5 14t16.5 43t-16 42.5t-43 14.5q-19 -1 -37.5 -12t-26 -19z" />
    <glyph glyph-name="integral" unicode="&#x222b;" horiz-adv-x="280" 
d="M230 598v-621q0 -37 -11 -69.5t-36 -61t-71.5 -45.5t-110.5 -17q-66 0 -113 20l13 162q45 -29 94 -24q55 6 55 60v621q0 37 11 69.5t36 61t71.5 45.5t110.5 17q66 0 113 -20l-13 -162q-45 29 -94 24q-55 -6 -55 -60z" />
    <glyph glyph-name="approxequal" unicode="&#x2248;" 
d="M475 373q-45 0 -132 33t-121 33q-25 0 -48 -7t-34 -14l-10 -7l-60 119q2 3 6 7.5t18 16t30.5 20.5t43.5 16t57 7q45 0 131.5 -33.5t121.5 -32.5q25 0 48 7t34 14l10 7l60 -119q-2 -3 -6 -7.5t-18 -16t-30.5 -20.5t-43.5 -16t-57 -7zM475 183q-45 0 -132 33t-121 33
q-25 0 -48 -7t-34 -14l-10 -7l-60 119q2 3 6 7.5t18 16t30.5 20.5t43.5 16t57 7q45 0 131.5 -33.5t121.5 -32.5q25 0 48 7t34 14l10 7l60 -119q-2 -3 -6 -7.5t-18 -16t-30.5 -20.5t-43.5 -16t-57 -7z" />
    <glyph glyph-name="notequal" unicode="&#x2260;" 
d="M620 428h-168l-51 -76h219v-164h-328l-53 -81h-155l54 81h-58v164h167l51 76h-218v164h328l53 81h155l-54 -81h58v-164z" />
    <glyph glyph-name="equivalence" unicode="&#x2261;" 
d="M620 120h-540v164h540v-164zM620 496h-540v164h540v-164zM620 308h-540v164h540v-164z" />
    <glyph glyph-name="lessequal" unicode="&#x2264;" 
d="M295 440l150 -27l175 -29v-174l-540 138v184l540 138v-174l-175 -29zM620 111l-540 138v69l540 -138v-69z" />
    <glyph glyph-name="greaterequal" unicode="&#x2265;" 
d="M255 413l150 27l-150 27l-175 29v174l540 -138v-184l-540 -138v174zM620 249l-540 -138v69l540 138v-69z" />
    <glyph glyph-name="squaremultiply" unicode="&#x22a0;" horiz-adv-x="960" 
d="M90 0v780h780v-780h-780zM700 614h-440v-448h440v448zM277 303l87 87l-87 87l116 116l87 -87l87 87l116 -116l-87 -87l87 -87l-116 -116l-87 87l-87 -87z" />
    <glyph glyph-name="house" unicode="&#x2302;" horiz-adv-x="850" 
d="M780 0h-710v450l355 340l355 -340v-450z" />
    <glyph glyph-name="blacksquare" unicode="&#x25a0;" horiz-adv-x="960" 
d="M870 780v-780h-780v780h780z" />
    <glyph glyph-name="whitesquare" unicode="&#x25a1;" horiz-adv-x="960" 
d="M90 0v780h780v-780h-780zM700 614h-440v-448h440v448z" />
    <glyph glyph-name="blacksmallsquare" unicode="&#x25aa;" horiz-adv-x="710" 
d="M620 530v-530h-530v530h530z" />
    <glyph glyph-name="whitesmallsquare" unicode="&#x25ab;" horiz-adv-x="710" 
d="M90 0v530h530v-530h-530zM450 364h-190v-198h190v198z" />
    <glyph glyph-name="triagup" unicode="&#x25b2;" horiz-adv-x="800" 
d="M790 0h-780l390 676z" />
    <glyph glyph-name="triagrt" unicode="&#x25ba;" horiz-adv-x="800" 
d="M34 0v780l676 -390z" />
    <glyph glyph-name="triagdn" unicode="&#x25bc;" horiz-adv-x="800" 
d="M10 780h780l-390 -676z" />
    <glyph glyph-name="triaglf" unicode="&#x25c4;" horiz-adv-x="800" 
d="M710 780v-780l-676 390z" />
    <glyph glyph-name="lozenge" unicode="&#x25ca;" horiz-adv-x="900" 
d="M450 -10l-368 400l368 400l368 -400zM313 390l137 -154l137 154l-137 154z" />
    <glyph glyph-name="whitecircle" unicode="&#x25cb;" horiz-adv-x="960" 
d="M80 390q0 166 117 283t283 117t283 -117t117 -283t-117 -283t-283 -117t-283 117t-117 283zM696 390q0 93 -63 157t-153 64t-152.5 -64t-62.5 -157t63 -157t153 -64t152.5 64t62.5 157z" />
    <glyph glyph-name="whitecircle" unicode="&#x25ef;" horiz-adv-x="960" 
d="M80 390q0 166 117 283t283 117t283 -117t117 -283t-117 -283t-283 -117t-283 117t-117 283zM696 390q0 93 -63 157t-153 64t-152.5 -64t-62.5 -157t63 -157t153 -64t152.5 64t62.5 157z" />
    <glyph glyph-name="bullseye" unicode="&#x25ce;" horiz-adv-x="960" 
d="M80 390q0 166 117 283t283 117t283 -117t117 -283t-117 -283t-283 -117t-283 117t-117 283zM330 390q0 62 44 106t106 44t106 -44t44 -106t-44 -106t-106 -44t-106 44t-44 106zM157 339q0 -113 79.5 -192.5t192.5 -79.5t193 79.5t80 192.5t-80 193t-193 80t-192.5 -80
t-79.5 -193z" />
    <glyph glyph-name="blackcircle" unicode="&#x25cf;" horiz-adv-x="960" 
d="M80 390q0 166 117 283t283 117t283 -117t117 -283t-117 -283t-283 -117t-283 117t-117 283z" />
    <glyph glyph-name="uni25E2" unicode="&#x25e2;" horiz-adv-x="800" 
d="M26 202l552 552l202 -754z" />
    <glyph glyph-name="uni25E3" unicode="&#x25e3;" horiz-adv-x="800" 
d="M222 754l552 -552l-754 -202z" />
    <glyph glyph-name="uni25E4" unicode="&#x25e4;" horiz-adv-x="800" 
d="M774 578l-552 -552l-202 754z" />
    <glyph glyph-name="uni25E5" unicode="&#x25e5;" horiz-adv-x="800" 
d="M578 26l-552 552l754 202z" />
    <glyph glyph-name="uni2600" unicode="&#x2600;" horiz-adv-x="985" 
d="M493 565q112 0 191 -79t79 -191t-79 -190.5t-191 -78.5t-190.5 78.5t-78.5 190.5t78.5 191t190.5 79zM493 205q38 0 64.5 26.5t26.5 63.5t-27 64t-64 27t-63.5 -26.5t-26.5 -64.5q0 -37 26.5 -63.5t63.5 -26.5zM270 720l104 -125l-155 -131l-105 125zM49 477l160 -29
l-35 -200l-160 29zM36 149l141 81l102 -176l-141 -81zM237 -111l56 153l191 -69l-56 -153zM392 601v163h203v-163h-203zM613 595l104 125l156 -131l-105 -125zM778 448l160 29l35 -200l-160 -29zM810 230l141 -81l-102 -176l-141 81zM694 42l56 -153l-191 -69l-56 153z" />
    <glyph glyph-name="uni2601" unicode="&#x2601;" horiz-adv-x="1350" 
d="M257 637q54 90 146.5 143.5t200.5 53.5q133 0 238.5 -77.5t145.5 -200.5q1 1 3 1q34 8 65 8q112 0 190.5 -79t78.5 -191t-78.5 -190.5t-190.5 -78.5h-721q-129 0 -219.5 91t-90.5 219q0 107 65.5 190.5t166.5 110.5zM985 295h-189q33 65 33 136q0 93 -66 158.5t-159 65.5
q-76 0 -122 -41q168 -67 168 -278q0 -21 -2 -41h-186q4 17 4 41q0 55 -38.5 93t-92.5 38q-55 0 -93 -38t-38 -93t38 -93t93 -38h721q38 0 64 26.5t26 63.5q0 38 -26.5 64.5t-64.5 26.5q-29 0 -52 -15q-6 -38 -18 -76z" />
    <glyph glyph-name="uni2602" unicode="&#x2602;" horiz-adv-x="1350" 
d="M747 -10l-59 -163h-177l59 163h177zM1019 -10l-59 -163h-177l59 163h177zM475 -10l-59 -163h-177l59 163h177zM257 637q54 90 146.5 143.5t200.5 53.5q133 0 238.5 -77.5t145.5 -200.5q1 1 3 1q34 8 65 8q112 0 190.5 -79t78.5 -191t-78.5 -190.5t-190.5 -78.5h-721
q-129 0 -219.5 91t-90.5 219q0 107 65.5 190.5t166.5 110.5zM985 295h-189q33 65 33 136q0 93 -66 158.5t-159 65.5q-76 0 -122 -41q168 -67 168 -278q0 -21 -2 -41h-186q4 17 4 41q0 55 -38.5 93t-92.5 38q-55 0 -93 -38t-38 -93t38 -93t93 -38h721q38 0 64 26.5t26 63.5
q0 38 -26.5 64.5t-64.5 26.5q-29 0 -52 -15q-6 -38 -18 -76z" />
    <glyph glyph-name="uni2603" unicode="&#x2603;" horiz-adv-x="894" 
d="M794 189l100 -57l-26 -44h1l-19 -31l-38 -67l-97 56v-59h-63v95l-123 71v-139l87 -50l-31 -55l-56 33v-116h-164v113l-51 -30l-31 55l82 47v142l-120 -69v-102h-63v66l-100 -58l-41 71l-16 27l-25 44l96 56l-50 29l32 55l81 -48l124 71l-120 70l-88 -51l-32 55l57 32
l-100 58l25 43l32 55l25 44l97 -56v58h63v-95l123 -71v138l-88 51l32 55l56 -32v115h164v-112l50 29l32 -54l-82 -48v-141l120 69v101h63v-65l100 58l57 -99l25 -43l-98 -57l51 -29l-31 -54l-83 47l-122 -71l121 -70l87 51l31 -54z" />
    <glyph glyph-name="uni2605" unicode="&#x2605;" horiz-adv-x="880" 
d="M440 180l-260 -190l99 307l-260 189h322l99 306l99 -306h322l-260 -189l99 -307z" />
    <glyph glyph-name="uni2607" unicode="&#x2607;" horiz-adv-x="1351" 
d="M670 262h177l-113 -168l75 -68l-225 -225h-6l96 207l-91 81zM870 262h177l-113 -168l75 -68l-225 -225h-6l96 207l-91 81zM647 262l-113 -168l75 -68l-225 -225h-6l96 207l-91 81l87 173h177zM340 89l69 -63h-74q-129 0 -219.5 91t-90.5 219q0 107 65.5 190.5
t166.5 110.5q54 90 146.5 143.5t200.5 53.5q133 0 238.5 -77.5t145.5 -200.5q1 1 3 1q34 8 65 8q112 0 190.5 -79t78.5 -191t-78.5 -190.5t-190.5 -78.5l-71 63l58 116h13q38 0 64 26.5t26 63.5q0 38 -26.5 64.5t-64.5 26.5q-29 0 -52 -15q-6 -38 -18 -76h-189q33 65 33 136
q0 93 -66 158.5t-159 65.5q-76 0 -122 -41q168 -67 168 -278q0 -21 -2 -41h-186q4 17 4 41q0 55 -38.5 93t-92.5 38q-55 0 -93 -38t-38 -93t38 -93t93 -38h74z" />
    <glyph glyph-name="ballotboxwithx" unicode="&#x2612;" horiz-adv-x="710" 
d="M90 0v530h530v-530h-530zM239 265l-87 -87l116 -116l87 87l87 -87l116 116l-87 87l87 87l-116 116l-87 -87l-87 87l-116 -116z" />
    <glyph glyph-name="uni2614" unicode="&#x2614;" horiz-adv-x="1350" 
d="M1079 205l-138 -379h-147l138 379h147zM892 205l-138 -379h-147l138 379h147zM710 205l-138 -379h-147l138 379h147zM523 205l-138 -379h-147l138 379h147zM1054 27l85 233q7 18 7 35q0 38 -26.5 64.5t-64.5 26.5q-29 0 -52 -15q-6 -38 -18 -76h-189q33 65 33 136
q0 93 -66 158.5t-159 65.5q-76 0 -122 -41q168 -67 168 -278q0 -21 -2 -41h-186q4 17 4 41q0 55 -38.5 93t-92.5 38q-55 0 -93 -38t-38 -93t38 -93t93 -38h1l-63 -173q-107 22 -177.5 107t-70.5 197q0 107 65.5 190.5t166.5 110.5q54 90 146.5 143.5t200.5 53.5
q133 0 238.5 -77.5t145.5 -200.5q1 1 3 1q34 8 65 8q112 0 190.5 -79t78.5 -191t-78.5 -190.5t-190.5 -78.5z" />
    <glyph glyph-name="uni263C" unicode="&#x263c;" horiz-adv-x="960" 
d="M880 390l-169 -30l155 -73l-171 15l132 -112l-162 59l98 -141l-141 98l58 -162l-111 130l15 -170l-74 155l-30 -169l-30 169l-74 -155l15 170l-111 -130l58 162l-141 -98l98 141l-162 -59l132 112l-171 -15l155 73l-169 30l169 30l-155 73l171 -15l-132 112l162 -59
l-98 141l141 -98l-58 162l111 -130l-15 170l74 -155l30 169l30 -169l74 155l-15 -170l111 130l-58 -162l141 98l-98 -141l162 59l-132 -112l171 15l-155 -73z" />
    <glyph glyph-name="uni263E" unicode="&#x263e;" horiz-adv-x="960" 
d="M624 728q-134 0 -229 -99t-95 -239t95 -239t229 -99q50 0 96 15q-107 -77 -240 -77q-166 0 -283 117t-117 283t117 283t283 117q131 0 240 -77q-52 15 -96 15z" />
    <glyph glyph-name="spade" unicode="&#x2660;" horiz-adv-x="900" 
d="M451 790q32 -48 97 -116t136 -114q78 -51 121 -103t43 -123q0 -73 -51 -123.5t-125 -50.5q-69 0 -120.5 46t-79.5 115l-3 -1q8 -102 26.5 -174t55.5 -146h-202q37 74 55.5 146t26.5 174l-3 1q-28 -69 -79.5 -115t-120.5 -46q-74 0 -125 50.5t-51 123.5q0 71 43 123
t121 103q71 46 136 114t97 116h2z" />
    <glyph glyph-name="club" unicode="&#x2663;" horiz-adv-x="900" 
d="M349 0q37 74 55.5 146t26.5 174l-3 1q-28 -69 -79.5 -115t-120.5 -46q-74 0 -125 50.5t-51 123.5q0 79 48.5 129.5t125.5 50.5q40 0 84 -23l2 2q-38 57 -38 117q0 75 50.5 127.5t125.5 52.5t125.5 -52.5t50.5 -127.5q0 -60 -38 -117l2 -2q44 23 84 23q77 0 125.5 -50.5
t48.5 -129.5q0 -73 -51 -123.5t-125 -50.5q-69 0 -120.5 46t-79.5 115l-3 -1q8 -102 26.5 -174t55.5 -146h-202z" />
    <glyph glyph-name="heart" unicode="&#x2665;" horiz-adv-x="900" 
d="M451 -10h-2q-28 43 -94 126.5t-139 166.5q-164 185 -164 301q0 90 52 148t139 58q85 0 132.5 -42.5t72.5 -114.5h4q25 72 72.5 114.5t132.5 42.5q87 0 139 -58t52 -148q0 -116 -164 -301q-73 -83 -139 -166.5t-94 -126.5z" />
    <glyph glyph-name="diamond" unicode="&#x2666;" horiz-adv-x="900" 
d="M817 390q-106 -83 -202.5 -188.5t-163.5 -211.5h-2q-67 106 -163.5 211.5t-202.5 188.5q106 83 202.5 188.5t163.5 211.5h2q67 -106 163.5 -211.5t202.5 -188.5z" />
    <glyph glyph-name="musicflatsign" unicode="&#x266d;" horiz-adv-x="500" 
d="M50 -78v900h105v-326q18 20 54 33.5t71 13.5q104 0 150 -50.5t46 -152.5q0 -126 -127 -242.5t-299 -175.5zM155 333v-236q32 16 64.5 39t64.5 54.5t52 71.5t20 80q0 84 -87 84q-38 0 -70 -28t-44 -65z" />
    <glyph glyph-name="musicsharpsign" unicode="&#x266f;" horiz-adv-x="466" 
d="M376 880v-161l70 56v-159l-70 -56v-110l70 56v-159l-70 -56v-291h-105v206l-76 -61v-245h-105v161l-70 -56v159l70 56v110l-70 -56v159l70 56v291h105v-207l76 61v246h105zM195 414v-110l76 61v110z" />
    <glyph glyph-name="uni267B" unicode="&#x267b;" horiz-adv-x="960" 
d="M863 266l1 -2l-96 -167q-15 -22 -21.5 -30t-24 -17t-42.5 -9h-57v-49l-113 136l113 135v-49h145q26 0 50 13t34 26zM186 122h-2l-96 168q-11 21 -15 32t-3 30.5t14 40.5l28 49l-42 24l174 31l59 -166l-41 24q-70 -120 -72 -125q-13 -23 -14 -50t4 -42zM404 779v1h193
q24 -1 36 -2.5t28 -12.5t28 -32l28 -49l43 24l-61 -166l-173 31l41 24l-72 125q-13 23 -36 37.5t-39 16.5zM200 598l67 119q10 17 34 31q46 24 97 10t68 -45l-116 -201zM446 41h-135q-22 0 -44 13q-43 25 -57.5 79.5t4.5 80.5h232v-173zM806 527l69 -117q10 -18 10 -44
q1 -48 -38 -87t-74 -39l-116 201z" />
    <glyph glyph-name="uni267C" unicode="&#x267c;" horiz-adv-x="960" 
d="M880 389q0 -166 -116.5 -282.5t-282.5 -116.5q-167 0 -284 116.5t-117 282.5q0 167 117 284t284 117q166 0 282.5 -117t116.5 -284zM313 645l-52 -92l116 -67l90 156q-13 24 -52.5 34.5t-75.5 -7.5q-18 -11 -26 -24zM415 694v-1q48 -5 71 -44l56 -97l-32 -19l134 -24
l47 129l-33 -19l-22 38q-14 24 -29.5 30.5t-41.5 6.5h-150zM343 121h105v134h-180q-15 -20 -3.5 -62.5t44.5 -61.5q17 -10 34 -10zM249 184h1q-20 44 3 84l56 97l32 -19l-46 129l-135 -24l33 -19l-22 -38q-10 -16 -11 -31.5t2 -23.5t12 -25zM784 407l-53 91l-116 -67
l90 -156q27 0 57.5 30t29.5 68q0 20 -8 34zM776 294l-1 1q-3 -4 -9 -11t-25.5 -18t-39.5 -11h-112v38l-88 -105l88 -105v38h44q28 0 41.5 10.5t26.5 32.5z" />
    <glyph glyph-name="uni267D" unicode="&#x267d;" horiz-adv-x="960" 
d="M880 389q0 -166 -116.5 -282.5t-282.5 -116.5q-167 0 -284 116.5t-117 282.5q0 167 117 284t284 117q166 0 282.5 -117t116.5 -284zM860 389q0 158 -111 269.5t-268 111.5q-158 0 -269.5 -111.5t-111.5 -269.5q0 -157 111.5 -268t269.5 -111q157 0 268 111t111 268z
M261 553l52 92q8 13 26 24q36 18 75.5 7.5t52.5 -34.5l-90 -156zM415 693v1h150q26 0 41.5 -6.5t29.5 -30.5l22 -38l33 19l-47 -129l-134 24l32 19l-56 97q-10 17 -28 28t-30 13zM448 121h-105q-17 0 -34 10q-33 19 -44.5 61.5t3.5 62.5h180v-134zM250 184h-1l-75 130
q-9 17 -12 25t-2 23.5t11 31.5l22 38l-33 19l135 24l46 -129l-32 19l-56 -97q-10 -18 -11 -39t4 -33zM731 498l53 -91q8 -14 8 -34q1 -38 -29.5 -68t-57.5 -30l-90 156zM775 295l1 -1l-75 -130q-9 -15 -15 -22.5t-20 -14t-33 -6.5h-44v-38l-88 105l88 105v-38h112
q20 0 38.5 10t26.5 20z" />
    <glyph glyph-name="mediumwhitecircle" unicode="&#x26aa;" horiz-adv-x="710" 
d="M80 265q0 114 80.5 194.5t194.5 80.5t194.5 -80.5t80.5 -194.5t-80.5 -194.5t-194.5 -80.5t-194.5 80.5t-80.5 194.5zM452 265q0 40 -28 68t-68 28t-68 -28t-28 -68t28 -68t68 -28t68 28t28 68z" />
    <glyph glyph-name="mediumblackcircle" unicode="&#x26ab;" horiz-adv-x="710" 
d="M80 265q0 114 80.5 194.5t194.5 80.5t194.5 -80.5t80.5 -194.5t-80.5 -194.5t-194.5 -80.5t-194.5 80.5t-80.5 194.5z" />
    <glyph glyph-name="anglebracketleft" unicode="&#x3008;" horiz-adv-x="330" 
d="M206 350l114 -480h-178l-122 480l122 480h178z" />
    <glyph glyph-name="anglebracketright" unicode="&#x3009;" horiz-adv-x="330" 
d="M124 350l-114 480h178l122 -480l-122 -480h-178z" />
    <glyph glyph-name="lcedilla" unicode="&#xe100;" horiz-adv-x="290" 
d="M55 0v800h180v-800h-180zM55 -75l19 54q113 -7 158.5 -36t39.5 -75q-5 -42 -42 -63t-91 -21q-76 0 -129 23l25 76q24 -13 50 -17q48 -7 48 21q0 14 -21 24t-57 14z" />
    <glyph glyph-name="uni004500600323" unicode="&#xe101;" horiz-adv-x="668" 
d="M52 780h566v-165h-381v-134h327v-165h-327v-151h401v-165h-586v780zM138 1030h196l94 -208h-179zM426 -40v-160h-184v160h184z" />
    <glyph glyph-name="uni006500600323" unicode="&#xe102;" horiz-adv-x="615" 
d="M589 214h-376q0 -40 27 -61.5t76 -21.5q81 0 84 34l182 -22q-2 -71 -64.5 -115t-194.5 -44q-141 0 -218 72.5t-77 208.5t75 208.5t209 72.5t205.5 -72t71.5 -209v-51zM313 399q-43 0 -69 -22t-28 -57h181q2 38 -21 58.5t-63 20.5zM111 800h196l94 -208h-179zM399 -40
v-160h-184v160h184z" />
    <glyph glyph-name="uni004500B40323" unicode="&#xe103;" horiz-adv-x="668" 
d="M52 780h566v-165h-381v-134h327v-165h-327v-151h401v-165h-586v780zM334 1030h196l-111 -208h-179zM426 -40v-160h-184v160h184z" />
    <glyph glyph-name="uni006500B40323" unicode="&#xe104;" horiz-adv-x="615" 
d="M589 214h-376q0 -40 27 -61.5t76 -21.5q81 0 84 34l182 -22q-2 -71 -64.5 -115t-194.5 -44q-141 0 -218 72.5t-77 208.5t75 208.5t209 72.5t205.5 -72t71.5 -209v-51zM313 399q-43 0 -69 -22t-28 -57h181q2 38 -21 58.5t-63 20.5zM307 800h196l-111 -208h-179zM399 -40
v-160h-184v160h184z" />
    <glyph glyph-name="Gtilde" unicode="&#xe105;" horiz-adv-x="805" 
d="M41 390q0 190 91 298t277 108q160 0 249.5 -69t91.5 -192l-188 -23q-1 64 -40.5 91.5t-112.5 27.5q-181 0 -181 -241q0 -237 181 -241q94 -2 151 21v127h-160v150h344v-383q-81 -48 -158.5 -64.5t-177.5 -15.5q-186 1 -276.5 108.5t-90.5 297.5zM486 806q-36 0 -66 12
t-45.5 26t-32.5 26t-32 12q-16 0 -25 -12t-11 -24l-1 -11l-124 15q5 52 23 94t57 72t95 30q36 0 66 -12t45.5 -26t32.5 -26t32 -12q16 0 25 12t11 24l1 11l124 -15q-5 -52 -23 -94t-57 -72t-95 -30z" />
    <glyph glyph-name="gtilde" unicode="&#xe106;" horiz-adv-x="644" 
d="M394 576q-36 0 -66 12t-45.5 26t-32.5 26t-32 12q-16 0 -25 -12t-11 -24l-1 -11l-124 15q5 52 23 94t57 72t95 30q36 0 66 -12t45.5 -26t32.5 -26t32 -12q16 0 25 12t11 24l1 11l124 -15q-5 -52 -23 -94t-57 -72t-95 -30zM305 -69q110 0 110 71v67q-55 -59 -155 -59
q-110 0 -171 67.5t-61 200.5t61 200.5t171 67.5q107 0 168 -73l12 57h165l-10 -154v-382q0 -55 -23.5 -96.5t-64 -65.5t-89 -36t-103.5 -12q-148 0 -215.5 38.5t-68.5 131.5l182 29q1 -28 21.5 -40t70.5 -12zM212 278q0 -105 97 -105q68 0 106 50v110q-38 50 -106 50
q-97 0 -97 -105z" />
    <glyph glyph-name="Gcommaturnedabove" unicode="&#xe107;" horiz-adv-x="805" 
d="M41 390q0 190 91 298t277 108q160 0 249.5 -69t91.5 -192l-188 -23q-1 64 -40.5 91.5t-112.5 27.5q-181 0 -181 -241q0 -237 181 -241q94 -2 151 21v127h-160v150h344v-383q-81 -48 -158.5 -64.5t-177.5 -15.5q-186 1 -276.5 108.5t-90.5 297.5zM496 822h-191l53 208h155
z" />
    <glyph glyph-name="gcommaturnedabove" unicode="&#xe108;" horiz-adv-x="644" 
d="M405 592h-191l53 208h155zM305 -69q110 0 110 71v67q-55 -59 -155 -59q-110 0 -171 67.5t-61 200.5t61 200.5t171 67.5q107 0 168 -73l12 57h165l-10 -154v-382q0 -55 -23.5 -96.5t-64 -65.5t-89 -36t-103.5 -12q-148 0 -215.5 38.5t-68.5 131.5l182 29q1 -28 21.5 -40
t70.5 -12zM212 278q0 -105 97 -105q68 0 106 50v110q-38 50 -106 50q-97 0 -97 -105z" />
    <glyph glyph-name="Hmacronbelow" unicode="&#xe109;" horiz-adv-x="748" 
d="M511 780h185v-780h-185v316h-274v-316h-185v780h185v-299h274v299zM208 -200v160h332v-160h-332z" />
    <glyph glyph-name="hmacronbelow" unicode="&#xe10a;" horiz-adv-x="639" 
d="M487 -40v-160h-332v160h332zM44 0v800h180v-314q58 60 155 60q108 0 163 -52.5t55 -168.5v-325h-180v302q0 44 -20 63t-58 18q-39 -1 -69.5 -16t-45.5 -34v-333h-180z" />
    <glyph glyph-name="Jcaron" unicode="&#xe10b;" horiz-adv-x="555" 
d="M473 1030h183l-158 -208h-156l-158 208h183l53 -59zM328 780h185v-561q0 -235 -255 -235q-137 0 -192.5 61t-57.5 166l183 22q2 -44 15.5 -64.5t51.5 -20.5q39 0 54.5 17t15.5 53v562z" />
    <glyph glyph-name="Kcedilla" unicode="&#xe10d;" horiz-adv-x="761" 
d="M281 -75l19 54q113 -7 158.5 -36t39.5 -75q-5 -42 -42 -63t-91 -21q-76 0 -129 23l25 76q24 -13 50 -17q48 -7 48 21q0 14 -21 24t-57 14zM237 780v-333l101 128l168 205h246l-276 -308l287 -472h-241l-181 325l-104 -121v-204h-185v780h185z" />
    <glyph glyph-name="kcedilla" unicode="&#xe10e;" horiz-adv-x="640" 
d="M224 0h-180v800h180v-449l48 60l101 119h257l-213 -208l225 -322h-234l-122 202l-62 -59v-143zM232 -75l19 54q113 -7 158.5 -36t39.5 -75q-5 -42 -42 -63t-91 -21q-76 0 -129 23l25 76q24 -13 50 -17q48 -7 48 21q0 14 -21 24t-57 14z" />
    <glyph glyph-name="Lcedilla" unicode="&#xe10f;" horiz-adv-x="600" 
d="M237 780v-615h355v-165h-540v780h185zM234 -75l19 54q113 -7 158.5 -36t39.5 -75q-5 -42 -42 -63t-91 -21q-76 0 -129 23l25 76q24 -13 50 -17q48 -7 48 21q0 14 -21 24t-57 14z" />
    <glyph glyph-name="ocedilla" unicode="&#xe110;" horiz-adv-x="620" 
d="M234 -75l19 54q113 -7 158.5 -36t39.5 -75q-5 -42 -42 -63t-91 -21q-76 0 -129 23l25 76q24 -13 50 -17q48 -7 48 21q0 14 -21 24t-57 14zM310 146q49 0 74.5 26.5t25.5 92.5t-25.5 92.5t-74.5 26.5t-74.5 -26.5t-25.5 -92.5t25.5 -92.5t74.5 -26.5zM310 -16
q-133 0 -207.5 71.5t-74.5 209.5t74.5 209.5t207.5 71.5t207.5 -71.5t74.5 -209.5t-74.5 -209.5t-207.5 -71.5z" />
    <glyph glyph-name="Mmacron" unicode="&#xe111;" horiz-adv-x="906" 
d="M522 0h-138l-150 454v-454h-182v780h233l168 -501l168 501h233v-780h-182v454zM619 846h-332v164h332v-164z" />
    <glyph glyph-name="mmacron" unicode="&#xe112;" horiz-adv-x="978" 
d="M655 616h-332v164h332v-164zM205 530l12 -57q54 73 163 73q115 0 168 -75q74 75 185 75q97 0 150 -51t53 -153v-342h-180v322q0 61 -72 61q-61 0 -101 -50v-333h-180v322q0 61 -72 61q-61 0 -101 -50v-333h-180v376l-10 154h165z" />
    <glyph glyph-name="Mcedilla" unicode="&#xe113;" horiz-adv-x="906" 
d="M522 0h-138l-150 454v-454h-182v780h233l168 -501l168 501h233v-780h-182v454zM365 -75l19 54q113 -7 158.5 -36t39.5 -75q-5 -42 -42 -63t-91 -21q-76 0 -129 23l25 76q24 -13 50 -17q48 -7 48 21q0 14 -21 24t-57 14z" />
    <glyph glyph-name="mcedilla" unicode="&#xe114;" horiz-adv-x="978" 
d="M395 -75l23 67q124 -9 175 -40t45 -79q-6 -43 -49 -66t-110 -23q-76 0 -129 23l25 76q24 -13 50 -17q48 -7 48 21q0 14 -21 24t-57 14zM205 530l12 -57q54 73 163 73q115 0 168 -75q74 75 185 75q97 0 150 -51t53 -153v-342h-180v322q0 61 -72 61q-61 0 -101 -50v-333
h-180v322q0 61 -72 61q-61 0 -101 -50v-333h-180v376l-10 154h165z" />
    <glyph glyph-name="Ndieresis" unicode="&#xe115;" horiz-adv-x="768" 
d="M223 780l237 -344l72 -109l-1 145v308h185v-780h-171l-237 344l-72 109l1 -145v-308h-185v780h171zM356 1010v-182h-184v182h184zM596 1010v-182h-184v182h184z" />
    <glyph glyph-name="ndieresis" unicode="&#xe116;" horiz-adv-x="645" 
d="M294 780v-182h-184v182h184zM534 780v-182h-184v182h184zM205 530l12 -57q64 73 168 73q108 0 163 -52.5t55 -168.5v-325h-180v302q0 44 -20 63t-58 18q-39 -1 -69.5 -16t-45.5 -34v-333h-180v376l-10 154h165z" />
    <glyph glyph-name="Nmacron" unicode="&#xe117;" horiz-adv-x="768" 
d="M223 780l237 -344l72 -109l-1 145v308h185v-780h-171l-237 344l-72 109l1 -145v-308h-185v780h171zM550 846h-332v164h332v-164z" />
    <glyph glyph-name="nmacron" unicode="&#xe118;" horiz-adv-x="645" 
d="M488 616h-332v164h332v-164zM205 530l12 -57q64 73 168 73q108 0 163 -52.5t55 -168.5v-325h-180v302q0 44 -20 63t-58 18q-39 -1 -69.5 -16t-45.5 -34v-333h-180v376l-10 154h165z" />
    <glyph glyph-name="Ncedilla" unicode="&#xe119;" horiz-adv-x="768" 
d="M223 780l237 -344l72 -109l-1 145v308h185v-780h-171l-237 344l-72 109l1 -145v-308h-185v780h171zM296 -75l19 54q113 -7 158.5 -36t39.5 -75q-5 -42 -42 -63t-91 -21q-76 0 -129 23l25 76q24 -13 50 -17q48 -7 48 21q0 14 -21 24t-57 14z" />
    <glyph glyph-name="ncedilla" unicode="&#xe11a;" horiz-adv-x="645" 
d="M205 530l12 -57q64 73 168 73q108 0 163 -52.5t55 -168.5v-325h-180v302q0 44 -20 63t-58 18q-39 -1 -69.5 -16t-45.5 -34v-333h-180v376l-10 154h165zM246 -75l19 54q113 -7 158.5 -36t39.5 -75q-5 -42 -42 -63t-91 -21q-76 0 -129 23l25 76q24 -13 50 -17q48 -7 48 21
q0 14 -21 24t-57 14z" />
    <glyph glyph-name="Ocommaturnedabove" unicode="&#xe11b;" horiz-adv-x="820" 
d="M410 631q-53 0 -90 -19t-56 -54.5t-27 -76t-8 -91.5t8 -91.5t27 -76t56 -54.5t90 -19t90 19t56 54.5t27 76t8 91.5t-8 91.5t-27 76t-56 54.5t-90 19zM410 -16q-189 0 -278.5 107.5t-89.5 298.5t89 298.5t279 107.5q189 0 278.5 -107.5t89.5 -298.5t-89 -298.5
t-279 -107.5zM501 822h-191l53 208h155z" />
    <glyph glyph-name="ocommaturnedabove" unicode="&#xe11c;" horiz-adv-x="620" 
d="M310 146q49 0 74.5 26.5t25.5 92.5t-25.5 92.5t-74.5 26.5t-74.5 -26.5t-25.5 -92.5t25.5 -92.5t74.5 -26.5zM310 -16q-133 0 -207.5 71.5t-74.5 209.5t74.5 209.5t207.5 71.5t207.5 -71.5t74.5 -209.5t-74.5 -209.5t-207.5 -71.5zM401 592h-191l53 208h155z" />
    <glyph glyph-name="uni004F02D900AF" unicode="&#xe11d;" horiz-adv-x="820" 
d="M410 -16q-189 0 -278.5 107.5t-89.5 298.5t89 298.5t279 107.5q189 0 278.5 -107.5t89.5 -298.5t-89 -298.5t-279 -107.5zM410 631q-53 0 -90 -19t-56 -54.5t-27 -76t-8 -91.5t8 -91.5t27 -76t56 -54.5t90 -19t90 19t56 54.5t27 76t8 91.5t-8 91.5t-27 76t-56 54.5
t-90 19zM502 1010v-182h-184v182h184zM576 1036h-332v164h332v-164z" />
    <glyph glyph-name="Ocedilla" unicode="&#xe11f;" horiz-adv-x="820" 
d="M410 -16q-189 0 -278.5 107.5t-89.5 298.5t89 298.5t279 107.5q189 0 278.5 -107.5t89.5 -298.5t-89 -298.5t-279 -107.5zM410 631q-53 0 -90 -19t-56 -54.5t-27 -76t-8 -91.5t8 -91.5t27 -76t56 -54.5t90 -19t90 19t56 54.5t27 76t8 91.5t-8 91.5t-27 76t-56 54.5
t-90 19zM326 -75l19 54q113 -7 158.5 -36t39.5 -75q-5 -42 -42 -63t-91 -21q-76 0 -129 23l25 76q24 -13 50 -17q48 -7 48 21q0 14 -21 24t-57 14z" />
    <glyph glyph-name="Ounderlineaccent" unicode="&#xe121;" horiz-adv-x="820" 
d="M410 631q-53 0 -90 -19t-56 -54.5t-27 -76t-8 -91.5t8 -91.5t27 -76t56 -54.5t90 -19t90 19t56 54.5t27 76t8 91.5t-8 91.5t-27 76t-56 54.5t-90 19zM410 -16q-189 0 -278.5 107.5t-89.5 298.5t89 298.5t279 107.5q189 0 278.5 -107.5t89.5 -298.5t-89 -298.5
t-279 -107.5zM460 -200h-100v160h100v-160z" />
    <glyph glyph-name="ounderlineaccent" unicode="&#xe122;" horiz-adv-x="620" 
d="M310 146q49 0 74.5 26.5t25.5 92.5t-25.5 92.5t-74.5 26.5t-74.5 -26.5t-25.5 -92.5t25.5 -92.5t74.5 -26.5zM310 -16q-133 0 -207.5 71.5t-74.5 209.5t74.5 209.5t207.5 71.5t207.5 -71.5t74.5 -209.5t-74.5 -209.5t-207.5 -71.5zM360 -200h-100v160h100v-160z" />
    <glyph glyph-name="Pmacron" unicode="&#xe123;" horiz-adv-x="680" 
d="M237 415h149q87 0 87 100q0 56 -25.5 78t-61.5 22h-149v-200zM237 249v-249h-185v780h320q58 0 105.5 -12t91 -39.5t68 -82t24.5 -131.5q0 -266 -285 -266h-139zM506 846h-332v164h332v-164z" />
    <glyph glyph-name="pmacron" unicode="&#xe124;" horiz-adv-x="645" 
d="M487 616h-332v164h332v-164zM230 46v-246h-180v576l-10 154h165l12 -57q69 73 168 73q113 0 172.5 -71.5t59.5 -209.5t-59.5 -209.5t-172.5 -71.5q-95 0 -155 62zM433 265q0 59 -27 88.5t-70 29.5q-68 0 -106 -50v-136q38 -50 106 -50q43 0 70 29.5t27 88.5z" />
    <glyph glyph-name="Rdoublegrave" unicode="&#xe125;" horiz-adv-x="725" 
d="M237 269v-269h-185v780h345q294 0 294 -255q0 -181 -140 -233l178 -292h-222l-152 269h-118zM237 435h174q18 0 31.5 2.5t28.5 11t23.5 28t8.5 48.5q0 38 -16 59.5t-33.5 26t-42.5 4.5h-174v-180zM252 1030h196l94 -208h-179zM36 1030h196l94 -208h-179z" />
    <glyph glyph-name="rdoublegrave" unicode="&#xe126;" horiz-adv-x="436" 
d="M131 800h196l94 -208h-179zM-85 800h196l94 -208h-179zM352 546q45 0 74 -13l-13 -168q-28 8 -50 8q-94 0 -133 -50v-323h-180v376l-10 154h165l12 -57q22 34 58.5 53.5t76.5 19.5z" />
    <glyph glyph-name="Rcedilla" unicode="&#xe127;" horiz-adv-x="725" 
d="M237 269v-269h-185v780h345q294 0 294 -255q0 -181 -140 -233l178 -292h-222l-152 269h-118zM237 435h174q18 0 31.5 2.5t28.5 11t23.5 28t8.5 48.5q0 38 -16 59.5t-33.5 26t-42.5 4.5h-174v-180zM283 -75l19 54q113 -7 158.5 -36t39.5 -75q-5 -42 -42 -63t-91 -21
q-76 0 -129 23l25 76q24 -13 50 -17q48 -7 48 21q0 14 -21 24t-57 14z" />
    <glyph glyph-name="rcedilla" unicode="&#xe128;" horiz-adv-x="436" 
d="M50 -75l19 54q113 -7 158.5 -36t39.5 -75q-5 -42 -42 -63t-91 -21q-76 0 -129 23l25 76q24 -13 50 -17q48 -7 48 21q0 14 -21 24t-57 14zM352 546q45 0 74 -13l-13 -168q-28 8 -50 8q-94 0 -133 -50v-323h-180v376l-10 154h165l12 -57q22 34 58.5 53.5t76.5 19.5z" />
    <glyph glyph-name="Tcedilla" unicode="&#xe129;" horiz-adv-x="647" 
d="M416 615v-615h-185v615h-214v165h613v-165h-214zM229 -75l19 54q113 -7 158.5 -36t39.5 -75q-5 -42 -42 -63t-91 -21q-76 0 -129 23l25 76q24 -13 50 -17q48 -7 48 21q0 14 -21 24t-57 14z" />
    <glyph glyph-name="tcedilla" unicode="&#xe12a;" horiz-adv-x="480" 
d="M15 380v150h97v160h180v-160h160v-150h-160v-178q0 -54 55 -60q49 -5 94 24l13 -162q-47 -20 -113 -20q-64 0 -110.5 17t-71.5 45.5t-36 61t-11 69.5v203h-97zM185 -75l19 54q113 -7 158.5 -36t39.5 -75q-5 -42 -42 -63t-91 -21q-76 0 -129 23l25 76q24 -13 50 -17
q48 -7 48 21q0 14 -21 24t-57 14z" />
    <glyph glyph-name="Umacronbelow" unicode="&#xe12b;" horiz-adv-x="746" 
d="M373 148q89 0 117.5 36.5t28.5 106.5v489h185v-493q0 -69 -15.5 -121t-52 -94.5t-102.5 -65t-161 -22.5t-161 22.5t-102.5 65t-52 94.5t-15.5 121v493h185v-489q0 -70 28.5 -106.5t117.5 -36.5zM207 -200v160h332v-160h-332z" />
    </font>
</defs>
</svg>
