<svg width="349" height="33" viewBox="0 0 349 33" fill="none" xmlns="http://www.w3.org/2000/svg">
<path fill-rule="evenodd" clip-rule="evenodd" d="M336.062 26.7586L333.415 18.3536L333.415 30.8928H327.534L327.534 0.0174713L333.166 0.0174711L333.224 0L333.229 0.0174711L333.415 0.0174711V0.631545L338.148 16.2726L343.055 0L343.119 0.0192795V0.0174695L349 0.0174698L349 30.8928H343.119L343.119 18.0397L340.473 26.7048V26.7586H336.062Z" fill="black"/>
<path fill-rule="evenodd" clip-rule="evenodd" d="M299.894 31.2259V31.7574H300.425L299.894 31.2259ZM305.831 31.7574H313.198L319.007 25.9489V25.8764V2.48785e-06L313.126 2.12309e-06L313.126 25.8764H305.775L305.775 0H299.894V25.8199L305.831 31.7574ZM318.604 31.7574L319.007 31.3549V31.7574H318.604Z" fill="black"/>
<path fill-rule="evenodd" clip-rule="evenodd" d="M277.546 13.8558L285.485 30.8753H291.366L291.366 0H285.485L285.485 18.5757L277.546 1.34844V0.29405L271.665 0.29405L271.665 31.1693H277.546L277.546 13.8558Z" fill="black"/>
<path fill-rule="evenodd" clip-rule="evenodd" d="M244.042 0H244.024V0.0178546L244.042 0ZM244.024 5.4239V12.9382V18.8192V31.1693H249.905L249.905 18.8192H257.256V31.1693H263.137L263.137 18.8192V12.9382L263.137 5.88102H263.137V5.34952L257.788 2.15289e-06L257.256 2.11962e-06L249.905 8.46386e-06V0H249.448L244.024 5.4239ZM257.256 5.88102H249.905L249.905 12.9382H257.256V5.88102Z" fill="black"/>
<path fill-rule="evenodd" clip-rule="evenodd" d="M218.736 25.8764V31.1693V31.7574H235.497V25.8764H224.617L224.617 0H218.736L218.736 25.8764Z" fill="black"/>
<path fill-rule="evenodd" clip-rule="evenodd" d="M204.823 0H204.327H196.279L191.683 4.59636V25.8764V25.8973L191.74 25.8408L197.656 31.7574H204.274L210.208 25.8229L210.208 5.88101H210.208V5.38519L204.823 0ZM192.25 31.7574L191.683 31.1903V31.7574H192.25ZM210.208 31.7574H209.68L210.208 31.229L210.208 31.7574ZM204.327 5.88101H197.564L197.564 25.8764H204.327L204.327 5.88101Z" fill="black"/>
<rect x="177.275" y="31.1693" width="31.1693" height="5.88101" transform="rotate(-90 177.275 31.1693)" fill="black"/>
<path fill-rule="evenodd" clip-rule="evenodd" d="M162.866 1.52588e-05H163.362L168.747 5.38518V5.88102V25.8764V25.922L162.912 31.7575H149.928V31.1694H149.634L149.634 1.81543e-05L149.928 1.81415e-05V1.52588e-05H162.866ZM168.318 31.7575H168.747L168.747 31.328L168.318 31.7575ZM162.866 5.88102H155.515L155.515 25.8764H162.866L162.866 5.88102Z" fill="black"/>
<path fill-rule="evenodd" clip-rule="evenodd" d="M121.993 0.294067H122.011L121.993 0.311933V0.294075V0.294067ZM121.993 6.17507V5.71798L127.417 0.294067H141.106V6.17507H127.874V12.0561H139.048V17.9371H127.874L127.874 25.8765H141.106V31.7575H127.966L121.993 25.7842V17.9371V12.0561V6.17507ZM121.993 31.1903V31.7575H122.56L121.993 31.1903Z" fill="black"/>
<path fill-rule="evenodd" clip-rule="evenodd" d="M97.2456 0.294053L97.2403 0.276581L97.1825 0.294053L92 0.294053V31.1693H97.881L97.881 20.3258L100.52 28.8296L100.56 28.8169H104.938L107.585 20.1465L107.585 31.1693H113.466L113.466 0.29405L108.071 0.294048L107.585 0.29405V1.90658L102.666 18.208L97.881 2.394V0.294053L97.2456 0.294053Z" fill="black"/>
<path d="M15.308 29.946C12.058 29.946 10.472 28.906 10.056 26.384L7.404 26.644C7.872 30.024 9.978 32.312 15.308 32.312C19.234 32.312 23.056 30.466 23.056 26.15C23.03 21.6 20.248 20.716 15.386 20.248C11.642 19.832 10.784 19.052 10.784 17.284C10.758 14.372 13.592 13.8 15.23 13.774C18.48 13.774 20.014 14.788 20.378 17.232L23.03 16.946C22.588 13.67 20.404 11.408 15.23 11.408C11.408 11.408 8.132 13.228 8.158 17.31C8.184 21.418 11.668 22.224 15.308 22.562C19.312 22.952 20.482 23.914 20.482 26.176C20.482 28.984 17.7 29.92 15.308 29.946ZM39.3552 11.72V20.43H29.2152V11.72H26.6152V32H29.2152V22.796H39.3552V32H41.9552V11.72H39.3552ZM54.4352 13.774C59.3492 13.774 60.5712 17.544 60.5712 21.86C60.5712 26.176 59.3492 29.946 54.4352 29.946C49.5212 29.946 48.2992 26.176 48.2992 21.86C48.2992 17.544 49.5212 13.774 54.4352 13.774ZM54.4352 32.312C60.6232 32.312 63.2752 28.204 63.2752 21.86C63.2752 15.516 60.6232 11.408 54.4352 11.408C48.2472 11.408 45.5952 15.516 45.5952 21.86C45.5952 28.204 48.2472 32.312 54.4352 32.312ZM69.5101 21.47V14.112H74.6841C76.2441 14.112 78.3501 14.528 78.3501 17.778C78.3501 21.054 76.2441 21.47 74.6841 21.47H69.5101ZM69.5101 23.862H74.4241C77.6741 23.862 81.0801 22.64 81.0801 17.778C81.0801 12.916 77.6481 11.72 74.3981 11.72H66.9101V32H69.5101V23.862Z" fill="black"/>
</svg>
